<svg width="56" height="56" viewBox="0 0 56 56" fill="none" xmlns="http://www.w3.org/2000/svg">
<path d="M52.2093 36.3571L44.8 8.70171C43.7662 4.9971 39.9754 2.7571 36.2708 3.79094L8.70159 11.2002C4.99698 12.234 2.75698 16.0248 3.79082 19.7294L11.2001 47.2986C12.2339 51.0033 16.0247 53.2432 19.7293 52.2094L47.2985 44.8002C51.0031 43.8525 53.2431 40.0617 52.2093 36.3571Z" fill="#E1E4F4"/>
<path d="M7.0645 24.1229L5.68604 25.9322L9.3045 23.8645V22.8306L17.0583 14.4737L15.9383 13.9568L7.0645 24.1229Z" fill="#57617F"/>
<path d="M9.30444 22.8308V37.0462C9.30444 37.8216 9.73521 38.4247 10.3383 38.8554L13.7844 40.837L14.9044 40.2339L20.5044 43.3354V44.7139L27.2244 48.5908V33.1693L9.30444 22.8308Z" fill="#FDFDFD"/>
<path d="M9.30444 22.8309L27.1383 33.2555L18.1783 12.5786L9.30444 22.8309Z" fill="#FDFDFD"/>
<path d="M29.2061 11.1999L47.1261 21.6246L38.1661 0.947632L29.2061 11.1999Z" fill="#CCCCCC"/>
<path d="M27.1382 33.1692V48.5908L46.0059 37.6493C46.609 37.3046 47.0397 36.6154 47.0397 35.84V21.6246L27.1382 33.1692Z" fill="#BFC6F2"/>
<path d="M13.7844 40.8368L14.9044 40.2338L15.1629 31.3599L14.5598 31.0153C14.2152 30.7568 13.6982 31.1015 13.6982 31.5322V40.8368H13.7844Z" fill="#2B2E3A"/>
<path d="M14.8183 40.2339L14.7322 31.1877L19.5568 33.9447C20.0737 34.2893 20.4183 34.8062 20.4183 35.4093V43.3354L14.8183 40.2339Z" fill="#57617F"/>
<path d="M15.9382 11.2861L15.1628 13.3538L24.8121 35.1507C25.1567 35.9261 26.1044 36.1846 26.7936 35.84L15.9382 11.2861Z" fill="#EF3F54"/>
<path d="M15.9385 11.286L34.72 0.516786C36.6154 -0.603214 39.0277 0.258325 39.8892 2.23986L49.1077 22.9168L26.88 35.8399L15.9385 11.286Z" fill="#F97A7A"/>
<path d="M15.9383 11.2861V13.8707L5.59984 25.8461C5.16907 24.8984 5.34138 23.6923 6.03061 22.9169L15.9383 11.2861Z" fill="#EF3F54"/>
<path d="M38.3384 23.5202C42.0498 23.5202 45.0584 20.5116 45.0584 16.8002C45.0584 13.0888 42.0498 10.0802 38.3384 10.0802C34.6271 10.0802 31.6184 13.0888 31.6184 16.8002C31.6184 20.5116 34.6271 23.5202 38.3384 23.5202Z" fill="#5DC6B5"/>
<path d="M45.4892 16.714C48.5344 16.714 51.003 14.2453 51.003 11.2001C51.003 8.15491 48.5344 5.68628 45.4892 5.68628C42.444 5.68628 39.9753 8.15491 39.9753 11.2001C39.9753 14.2453 42.444 16.714 45.4892 16.714Z" fill="#5DC6B5"/>
<path d="M37.6492 28.9479L40.2338 32.8248C40.4061 32.9971 40.4061 33.2555 40.4061 33.514V42.474C40.4061 42.9909 40.8369 43.4217 41.3538 43.4217H41.6984C42.2153 43.4217 42.6461 42.9909 42.6461 42.474V36.9602L46.6092 32.9971C46.9538 32.6525 47.2122 32.1355 47.2122 31.6186V30.4125H45.9199V31.1017L43.5076 33.514C43.163 33.8586 42.6461 33.6002 42.6461 33.1694V30.2402L41.4399 29.6371V31.0155C41.4399 31.274 41.0953 31.3602 41.0092 31.1017L39.2861 27.7417L37.6492 28.9479Z" fill="#57617F"/>
<path d="M37.7354 30.4126C41.0661 30.4126 43.7661 27.7125 43.7661 24.3818C43.7661 21.0511 41.0661 18.3511 37.7354 18.3511C34.4047 18.3511 31.7046 21.0511 31.7046 24.3818C31.7046 27.7125 34.4047 30.4126 37.7354 30.4126Z" fill="#5DC6B5"/>
<path d="M38.2522 34.8923V35.84C38.2522 36.7877 39.0276 37.6493 39.9753 37.7354C40.2337 37.7354 40.5783 37.6493 40.8368 37.4769V36.0985C40.8368 36.0985 39.8891 36.6154 39.5445 36.3569C39.1999 36.0985 39.286 34.9785 39.286 34.9785H38.2522V34.8923Z" fill="#57617F"/>
<path d="M37.6493 36.1848C39.0292 36.1848 40.1478 35.0662 40.1478 33.6863C40.1478 32.3065 39.0292 31.1879 37.6493 31.1879C36.2695 31.1879 35.1509 32.3065 35.1509 33.6863C35.1509 35.0662 36.2695 36.1848 37.6493 36.1848Z" fill="#5DC6B5"/>
<path d="M46.8677 31.5325C51.9113 31.5325 56 27.4053 56 22.314C56 17.2228 51.9113 13.0956 46.8677 13.0956C41.824 13.0956 37.7354 17.2228 37.7354 22.314C37.7354 27.4053 41.824 31.5325 46.8677 31.5325Z" fill="#5DC6B5"/>
</svg>
