<svg width="56" height="56" viewBox="0 0 56 56" fill="none" xmlns="http://www.w3.org/2000/svg">
<path d="M47.3804 44.8163L19.7487 52.2357C16.039 53.2177 12.2202 51.0355 11.2382 47.3258L3.81882 19.6941C2.83684 15.9844 5.01901 12.1656 8.72871 11.1836L36.3605 3.79148C40.0702 2.8095 43.889 4.99167 44.8709 8.70136L52.263 36.3331C53.2996 40.0155 51.0901 43.8343 47.3804 44.8163Z" fill="#E1E4F4"/>
<path d="M18.5487 22.9674C18.5487 22.9674 16.8847 21.4126 16.9393 20.5397C16.9939 19.6668 17.2666 19.1213 17.7303 19.2304C18.194 19.3122 18.8487 20.0487 18.8487 20.4033C18.8487 20.7579 18.4941 21.4944 18.8487 21.8763C19.2306 22.2854 19.5306 22.9946 18.5487 22.9674Z" fill="#57617F"/>
<path d="M9.16528 33.3052L11.3747 39.6607L31.3689 34.5872L42.5252 20.4576L39.1974 9.54676L38.8428 8.91938C38.4337 8.21018 37.5335 7.96468 36.8243 8.37384L24.0859 15.7114C23.0494 16.3115 22.1219 17.0753 21.3309 17.9754L16.3119 23.7309C15.9846 24.1128 15.63 24.4401 15.2481 24.7401L11.1565 27.9043C9.90177 28.859 9.16528 30.3592 9.16528 31.9413V33.3052Z" fill="#F97A7A"/>
<path d="M9.49248 29.6228C9.38337 29.8683 8.91966 31.2049 8.48322 32.8961C7.82857 33.5234 7.61035 34.4509 7.61035 34.9691V38.406C7.61035 39.4699 8.18317 40.4518 9.08332 40.9701C11.7838 42.5249 14.5387 44.107 14.5387 44.107C16.0935 45.0071 17.8938 45.4708 19.6941 45.4708H21.1398L22.5037 37.124L9.49248 29.6228Z" fill="#57617F"/>
<path d="M8.34684 34.56L8.81055 34.3418C8.81055 33.0598 9.19243 31.9141 9.19243 31.9141L10.8836 30.3866L9.49248 29.5956C9.38337 29.8411 8.91966 31.1777 8.48322 32.8688C7.82857 33.4962 7.61035 34.4236 7.61035 34.9419V36.0875C7.61035 37.1241 7.61035 37.806 7.61035 38.3516C7.61035 38.3516 7.96496 38.4334 7.96496 38.2152C8.10134 36.824 8.34684 34.56 8.34684 34.56Z" fill="#EF3F54"/>
<path d="M15.848 24.3038L30.3049 32.6506L23.5129 36.5513C22.8582 36.9332 22.1218 37.1787 21.3853 37.2605L18.5484 37.5878C17.4846 37.6969 16.4208 37.4787 15.5207 36.9604L10.529 34.0691C9.71065 33.5781 9.19238 32.7052 9.19238 31.7505V30.9595C9.19238 30.0048 9.62882 29.1046 10.3926 28.5318L15.848 24.3038Z" fill="#F97A7A"/>
<path d="M23.9493 16.3116C23.9493 16.3116 23.6219 18.521 26.9498 20.4577C30.2776 22.3944 33.6327 23.0218 33.6327 23.0218L49.6716 14.6477L38.8426 8.4285C38.1607 8.04662 37.3424 8.04662 36.6877 8.4285L24.713 15.3296L23.9493 16.3116Z" fill="#F97A7A"/>
<path d="M23.8403 36.3603L27.3045 34.3691C29.2412 33.2507 30.6869 31.4777 31.4234 29.3774L33.6328 23.0218L47.8442 14.8114C48.6353 14.3477 49.6445 14.4568 50.3537 15.0569L51.3357 15.9025C52.8087 17.1572 53.627 19.0121 53.627 20.9487V25.4495C53.627 27.1134 52.7268 28.6682 51.2812 29.5138L25.6952 44.298C24.3586 45.0617 22.8311 45.4709 21.2763 45.4709H19.8306C18.2485 45.4709 16.9392 44.1889 16.9392 42.6068V40.5883C16.9392 38.9789 18.1394 37.6424 19.7215 37.4514L21.0308 37.315C22.0128 37.1786 22.9675 36.8786 23.8403 36.3603Z" fill="#EF3F54"/>
<path d="M33.6873 30.4684L49.5354 20.3213C49.9445 20.0758 49.9991 19.503 49.6445 19.1756L47.3532 16.9935C47.1077 16.7752 46.7531 16.7207 46.4803 16.8843L36.5242 22.6398C35.3785 23.2945 34.5329 24.3583 34.1783 25.6403L32.9236 29.8956C32.7599 30.3593 33.2782 30.7411 33.6873 30.4684Z" fill="#FFB75E"/>
<path d="M16.9118 23.8672L21.6853 18.2481C21.9581 17.9481 22.4218 17.8935 22.7218 18.1663C23.5129 18.8482 25.0677 20.103 26.6225 21.0031C28.2864 21.9578 30.6595 22.9398 31.8324 23.4035C32.2143 23.5399 32.378 23.9763 32.2416 24.3582L29.5957 30.9593C29.3775 31.5321 28.7228 31.8322 28.1227 31.5867C26.2679 30.8502 22.4491 29.2954 20.376 28.0952C18.7121 27.1405 17.5665 26.0494 16.9391 25.3402C16.5572 24.931 16.5572 24.3037 16.9118 23.8672Z" fill="#FDFDFD"/>
<path d="M19.1486 40.3429C18.2212 40.8884 18.0575 41.3249 18.0575 42.3068V45.1982L15.6299 43.8889L16.9119 40.3702L21.6854 38.7608C21.6854 38.7335 21.3308 39.0609 19.1486 40.3429Z" fill="#57617F"/>
<path d="M8.81062 31.8051C8.81062 31.8051 7.80136 35.0783 8.81062 35.6511L16.6119 40.561C16.6119 40.561 17.703 40.7792 20.2943 40.2882C20.5943 40.2337 21.4399 39.6063 22.7765 38.5152C22.9129 38.4061 22.7765 38.1879 22.6401 38.2697C21.3854 38.7607 19.1214 39.4699 16.9665 39.0881C14.7298 37.8333 8.8379 34.3964 8.8379 34.3964C8.8379 34.3964 8.67423 33.1416 8.81062 31.8051Z" fill="#FFB75E"/>
<path d="M8.81051 34.3691L16.9391 39.0608C16.9391 39.0608 16.7209 41.5157 15.848 40.9975C14.9751 40.5065 9.90159 37.5606 9.19239 37.1241C8.53774 36.715 8.81051 34.3691 8.81051 34.3691Z" fill="#2B2E3A"/>
<path d="M31.9962 40.67L31.8871 37.5877L31.2052 36.7694H28.7502L26.9772 38.0242L24.8223 41.1338L23.8403 44.4888L23.9767 45.0617C23.9767 45.0617 24.9587 44.7889 25.777 44.2433C26.6226 43.6705 31.9962 40.67 31.9962 40.67Z" fill="#2B2E3A"/>
<path d="M28.2319 37.5876C27.8773 37.5876 27.5499 37.6695 27.2499 37.8604C25.4769 38.8697 24.304 40.7791 24.304 42.9612C24.304 44.0523 25.1768 44.9252 26.2679 44.9252C26.6225 44.9252 26.9771 44.8161 27.2499 44.6524C28.9956 43.6432 30.1958 41.7338 30.1958 39.5516C30.1958 38.4605 29.323 37.5876 28.2319 37.5876Z" fill="#2B2E3A"/>
<path d="M25.2859 44.6526L26.7589 45.4709L30.6322 38.6516L29.132 37.806L25.2859 44.6526Z" fill="#2B2E3A"/>
<path d="M52.754 27.7952L52.6722 28.2589L49.999 30.0319L48.0896 31.3413L44.7073 33.2779L46.4257 27.7679L49.6172 24.9857C49.6172 24.9857 51.5266 24.6584 51.5811 24.5765C51.6357 24.4947 52.8904 25.1766 52.8904 25.1766L53.0268 26.3495L52.754 27.7952Z" fill="#2B2E3A"/>
<path d="M49.2353 25.5585C48.8807 25.5585 48.5534 25.6403 48.2533 25.8312C46.4803 26.8405 45.3074 28.7499 45.3074 30.9321C45.3074 32.0232 46.1802 32.896 47.2713 32.896C47.6259 32.896 47.9805 32.7869 48.2533 32.6233C49.999 31.614 51.1992 29.7046 51.1992 27.5224C51.1992 26.4313 50.3264 25.5585 49.2353 25.5585Z" fill="#2B2E3A"/>
<path d="M46.2893 32.6234L47.7623 33.469L51.6356 26.6224L50.1354 25.7769L46.2893 32.6234Z" fill="#2B2E3A"/>
<path d="M50.7082 26.4041C50.3536 26.4041 50.0263 26.4859 49.7262 26.6768C47.9532 27.6861 46.7803 29.5955 46.7803 31.7776C46.7803 32.8687 47.6531 33.7416 48.7442 33.7416C49.0988 33.7416 49.4534 33.6325 49.7262 33.4688C51.4719 32.4596 52.6721 30.5502 52.6721 28.368C52.6721 27.2769 51.7993 26.4041 50.7082 26.4041Z" fill="#57617F"/>
<path d="M50.5174 27.1678C50.2446 27.1678 49.9718 27.2497 49.7536 27.3861C48.3625 28.1771 47.4351 29.7046 47.4351 31.4231C47.4351 32.2687 48.117 32.9779 48.9899 32.9779C49.2626 32.9779 49.5354 32.8961 49.7809 32.7597C51.172 31.9414 52.0995 30.4411 52.0995 28.7226C52.0722 27.8498 51.3902 27.1678 50.5174 27.1678Z" fill="#57617F"/>
<path d="M23.9766 45.0618C23.9766 45.0618 25.3404 38.3516 29.2138 37.1514C33.0871 35.9512 31.3687 40.9975 31.3687 40.9975L32.487 40.3429C32.487 40.3429 33.2235 35.0511 29.2138 36.3058C24.0584 37.9425 22.4763 45.3619 22.4763 45.3619C22.9673 45.5528 23.5947 45.3073 23.9766 45.0618Z" fill="#F97A7A"/>
<path d="M50.3263 24.3584C44.5981 26.186 43.5889 33.9599 43.5889 33.9599L45.1164 33.0871C45.1164 33.0871 46.4257 26.4042 50.299 25.204C53.2177 24.3038 52.9722 26.9224 52.6722 28.2863C53.1086 27.7135 53.4086 27.0315 53.545 26.3223C53.2995 24.9858 52.563 23.6219 50.3263 24.3584Z" fill="#F97A7A"/>
<path d="M29.7048 38.4335C29.3502 38.4335 29.0228 38.5153 28.7228 38.7062C26.9498 39.7155 25.7769 41.6249 25.7769 43.8071C25.7769 44.8982 26.6497 45.771 27.7408 45.771C28.0954 45.771 28.45 45.6619 28.7228 45.4983C30.4685 44.489 31.6687 42.5796 31.6687 40.3974C31.6687 39.3063 30.7959 38.4335 29.7048 38.4335Z" fill="#57617F"/>
<path d="M29.5413 39.1155C29.2412 39.1155 28.9685 39.1973 28.7502 39.3337C27.3318 40.152 26.3499 41.7068 26.3499 43.4798C26.3499 44.3527 27.0591 45.0619 27.9319 45.0619C28.232 45.0619 28.5048 44.9801 28.7502 44.8437C30.1687 44.0254 31.1234 42.4706 31.1234 40.7248C31.1506 39.8247 30.4142 39.1155 29.5413 39.1155Z" fill="#57617F"/>
<path d="M34.151 28.9955C33.7691 29.0228 33.3054 29.5138 33.3054 30.1684C33.3327 30.8231 33.6327 30.9322 33.8782 31.0413C34.1237 31.1504 36.0604 31.4777 36.5787 30.9322C37.097 30.3866 36.9333 29.9775 36.4696 29.732C36.0059 29.4865 34.6966 28.941 34.151 28.9955Z" fill="#57617F"/>
<path d="M32.6781 30.2776C32.6236 30.6049 33.4419 30.714 33.6056 30.7413C33.7692 30.7686 33.6328 29.8957 33.4692 29.8412C33.3055 29.7866 32.7054 30.0594 32.6781 30.2776Z" fill="#57617F"/>
<path d="M8.67415 38.1332L16.9391 42.9067C17.4301 45.4707 18.0029 45.3343 18.0029 45.3343C16.9664 45.1707 15.9026 44.8161 14.757 44.1887L9.13786 40.9154C8.56504 40.5063 8.07405 40.0971 7.99222 39.7425C7.96495 39.2788 8.67415 38.1332 8.67415 38.1332Z" fill="#2B2E3A"/>
<path d="M16.721 25.0948C16.1209 25.7495 15.6027 26.4587 15.0571 27.1406L13.4478 29.1864C12.9022 29.8684 12.3567 30.5503 11.8111 31.2322C11.5384 31.5595 11.2656 31.9141 10.9928 32.2415C10.8564 32.4051 10.72 32.5961 10.5837 32.7597C10.4473 32.9507 10.3109 33.1143 10.2563 33.3326C10.229 33.1143 10.3109 32.8688 10.3927 32.6779C10.4745 32.4597 10.5564 32.2687 10.6382 32.0505C10.8291 31.6414 11.0474 31.2595 11.2656 30.8776C11.7293 30.1138 12.2203 29.3774 12.7931 28.6954C13.3386 28.0135 13.9387 27.3316 14.5661 26.7315C15.2208 26.0768 15.9027 25.4767 16.721 25.0948Z" fill="#EF3F54"/>
<path d="M16.3936 36.8242C17.2119 36.1968 18.112 35.7331 19.0122 35.2694C19.9123 34.8057 20.8397 34.3692 21.7399 33.9601C22.6673 33.5509 23.5947 33.1417 24.5494 32.7871C25.5041 32.4053 26.4315 32.0507 27.4135 31.7506C26.5952 32.378 25.7223 32.8963 24.8222 33.3872C23.922 33.8782 23.0219 34.3147 22.0945 34.7238C21.1671 35.133 20.2396 35.5149 19.2849 35.8695C18.3302 36.2241 17.3755 36.5241 16.3936 36.8242Z" fill="#EF3F54"/>
<path fill-rule="evenodd" clip-rule="evenodd" d="M41.1252 18.8125L43.3127 25.8125L42.0002 27.125L39.8127 20.125L41.1252 18.8125Z" fill="#EF3F54"/>
<path d="M53.4359 19.2848C53.4359 19.2848 53.2177 19.9122 51.8811 20.7305C51.8811 21.4124 53.1631 22.0125 53.6268 21.767C53.6268 21.767 53.736 20.2122 53.4359 19.2848Z" fill="#FFB75E"/>
</svg>
