<svg width="56" height="56" viewBox="0 0 56 56" fill="none" xmlns="http://www.w3.org/2000/svg">
<path d="M47.3341 44.8392L19.6952 52.2577C15.986 53.2424 12.1782 51.0431 11.1606 47.3339L3.74211 19.695C2.75735 15.9857 4.95664 12.178 8.6659 11.1604L36.3048 3.74186C40.0141 2.7571 43.8218 4.9564 44.8394 8.66566L52.2579 36.3046C53.2427 40.0467 51.0434 43.8544 47.3341 44.8392Z" fill="#E1E4F4"/>
<path d="M10.2087 26.9492C12.5292 26.9492 14.4104 25.0681 14.4104 22.7476C14.4104 20.4271 12.5292 18.5459 10.2087 18.5459C7.88822 18.5459 6.00708 20.4271 6.00708 22.7476C6.00708 25.0681 7.88822 26.9492 10.2087 26.9492Z" fill="#5DC6B5"/>
<path d="M14.5746 22.6165C16.4781 22.6165 18.0212 21.0733 18.0212 19.1698C18.0212 17.2663 16.4781 15.7231 14.5746 15.7231C12.6711 15.7231 11.1279 17.2663 11.1279 19.1698C11.1279 21.0733 12.6711 22.6165 14.5746 22.6165Z" fill="#5DC6B5"/>
<path d="M10.6025 30.1992L12.211 32.6283C12.3095 32.7596 12.3423 32.9237 12.3423 33.055V38.6025C12.3423 38.9308 12.6049 39.1933 12.9331 39.1933H13.1301C13.4583 39.1933 13.7209 38.9308 13.7209 38.6025V35.1887L16.1828 32.7268C16.4126 32.497 16.5439 32.1687 16.5439 31.8405V31.0855H15.7233V31.5451L14.2133 33.055C14.0164 33.252 13.6881 33.1207 13.6881 32.8581V31.0198L12.9331 30.6588V31.4794C12.9331 31.6435 12.7034 31.7092 12.6377 31.5451L11.5545 29.4771L10.6025 30.1992Z" fill="#57617F"/>
<path d="M9.84756 31.2166C11.9143 31.2166 13.5896 29.5412 13.5896 27.4745C13.5896 25.4078 11.9143 23.7324 9.84756 23.7324C7.78086 23.7324 6.10547 25.4078 6.10547 27.4745C6.10547 29.5412 7.78086 31.2166 9.84756 31.2166Z" fill="#5DC6B5"/>
<path d="M10.8325 33.9083V34.4992C10.8325 35.09 11.2921 35.6481 11.9158 35.6481C12.1127 35.6481 12.2768 35.6152 12.441 35.4839V34.6304C12.441 34.6304 11.8501 34.9259 11.6532 34.7618C11.4234 34.5976 11.489 33.8755 11.489 33.8755H10.8325V33.9083Z" fill="#57617F"/>
<path d="M10.3072 34.7616C11.1593 34.7616 11.85 34.0709 11.85 33.2188C11.85 32.3668 11.1593 31.676 10.3072 31.676C9.45513 31.676 8.7644 32.3668 8.7644 33.2188C8.7644 34.0709 9.45513 34.7616 10.3072 34.7616Z" fill="#5DC6B5"/>
<path d="M16.3143 31.8404C19.4506 31.8404 21.9931 29.2685 21.9931 26.096C21.9931 22.9234 19.4506 20.3516 16.3143 20.3516C13.178 20.3516 10.6355 22.9234 10.6355 26.096C10.6355 29.2685 13.178 31.8404 16.3143 31.8404Z" fill="#5DC6B5"/>
<path d="M15.7561 39.5215V7.87786C15.7561 6.95875 16.2485 6.10532 17.0691 5.61294L25.5709 0.689148C26.3915 0.229594 27.3763 0.229594 28.1641 0.689148L44.4126 10.1428C45.2004 10.6024 45.6928 11.4558 45.6928 12.3749V44.0186C45.6928 44.4781 45.5615 44.9377 45.3317 45.3316L30.1992 49.4019L17.0691 41.7536C16.2485 41.294 15.7561 40.4406 15.7561 39.5215Z" fill="#BFC6F2"/>
<path d="M15.7561 21.6971V7.84479C15.7561 6.92568 16.2485 6.07221 17.0691 5.57983L30.7573 10.8647L15.7561 21.6971Z" fill="#FDFDFD"/>
<path d="M45.7257 25.2097V44.0186C45.7257 44.4782 45.5944 44.9377 45.3646 45.3316L30.2322 49.4019C30.265 49.4019 45.7257 24.2906 45.7257 25.2097Z" fill="#BFC6F2"/>
<path d="M32.7925 5.51435C33.9085 4.85785 35.32 4.85785 36.4361 5.51435L44.3798 10.1099C45.2005 10.6023 45.7257 11.4885 45.7257 12.4405V43.4276C45.7257 44.7406 32.7925 5.51435 32.7925 5.51435Z" fill="#BFC6F2"/>
<path d="M15.7561 40.2107V8.23884C15.7561 7.38538 16.6752 6.86017 17.3974 7.2869L33.3177 16.5436C34.1055 17.0032 34.6307 17.8566 34.6307 18.8086L34.6635 48.22L30.2321 49.4017L16.4126 41.3595C16.0187 41.1626 15.7561 40.703 15.7561 40.2107Z" fill="#FDFDFD"/>
<path d="M44.3468 11.6854L35.3855 16.839C34.8931 17.1344 34.5977 17.6268 34.5977 18.1848L34.6305 48.22L45.6926 43.3618V12.4732C45.7254 11.7839 44.9705 11.3243 44.3468 11.6854Z" fill="#BFC6F2"/>
<path d="M16.9706 5.64566L25.7349 0.590555C26.4571 0.163826 27.3434 0.163826 28.0327 0.590555L44.511 10.1755C45.0362 10.5038 45.0362 11.2588 44.511 11.587L35.484 16.8063C34.9588 17.1017 34.3023 17.1017 33.7443 16.8063L16.9706 7.05712C16.4454 6.72887 16.4454 5.97391 16.9706 5.64566Z" fill="#F97A7A"/>
<path d="M15.7561 11.5544V15.3294L34.6635 26.2602L34.6307 22.4196L15.7561 11.5544Z" fill="#E1E4F4"/>
<path d="M15.7561 19.1697V22.9446L34.6307 33.9411V30.1005L15.7561 19.1697Z" fill="#E1E4F4"/>
<path d="M15.7561 26.9495V30.7244L34.6635 41.6552V37.8146L15.7561 26.9495Z" fill="#E1E4F4"/>
<path d="M45.7256 15.9531L34.6306 22.4197L34.6634 26.2602L45.7256 19.8593V15.9531Z" fill="#8698BF"/>
<path d="M45.7256 23.5684L34.6306 30.1006V33.9411L45.7256 27.4746V23.5684Z" fill="#8698BF"/>
<path d="M45.7257 31.3479L34.6636 37.8145V41.6551L45.7257 35.2541V31.3479Z" fill="#8698BF"/>
<path d="M21.3364 44.2156L21.3693 39.062L29.116 43.5591V48.7455L21.3364 44.2156Z" fill="#57617F"/>
<path d="M14.9355 37.6502V36.4685L19.0387 35.1555L30.9871 40.8999V41.7534C30.9871 42.1801 30.7574 42.574 30.3963 42.8038L27.245 44.6749C27.0153 44.8062 26.7527 44.8062 26.5229 44.6749L15.1981 38.1426C15.0668 38.0441 14.9355 37.8472 14.9355 37.6502Z" fill="#5DC6B5"/>
<path d="M15.0996 36.206L18.7104 34.0724C18.9074 33.9411 19.17 33.9411 19.3669 34.0724L30.8229 40.6702C31.0527 40.8015 31.0527 41.1298 30.8229 41.2611L27.2122 43.3947C27.0152 43.526 26.7526 43.526 26.5557 43.3947L15.0996 36.7969C14.9027 36.6656 14.9027 36.3373 15.0996 36.206Z" fill="#92DDDA"/>
<path d="M27.967 16.9048V23.0103C27.967 23.4042 28.1968 23.7982 28.5251 23.9951L29.3785 24.4546C29.7396 24.6516 30.1992 24.389 30.1992 23.9622V17.8567C30.1992 17.4628 29.9694 17.1018 29.6411 16.9048L28.7877 16.4453C28.4266 16.2155 27.967 16.4781 27.967 16.9048Z" fill="#EF3F54"/>
<path d="M25.7678 18.2179V19.2027C25.7678 19.5966 25.9648 19.9577 26.3259 20.1546L31.5779 23.2074C31.939 23.4372 32.3985 23.1417 32.3985 22.715V21.7302C32.3985 21.3363 32.2016 20.9753 31.8405 20.7455L26.5885 17.6927C26.2274 17.4958 25.7678 17.7912 25.7678 18.2179Z" fill="#EF3F54"/>
</svg>
