<svg width="55" height="56" viewBox="0 0 55 56" fill="none" xmlns="http://www.w3.org/2000/svg">
<path d="M45.7382 44.5082L19.0705 51.7172C15.4982 52.7231 11.8428 50.5436 10.8458 46.9391L3.70124 20.0312C2.70431 16.4267 4.86431 12.7384 8.43662 11.7325L35.1043 4.5235C38.6766 3.5176 42.332 5.69705 43.3289 9.30155L50.4735 36.2095C51.4705 39.8978 49.3105 43.5861 45.7382 44.5082Z" fill="#E1E4F4"/>
<path d="M42.7473 50.1244L24.8857 39.6462L29.5381 6.61902L47.4827 17.0972C47.815 17.2648 47.9811 17.684 47.8981 18.0193L47.815 18.5222L49.1442 20.2826C49.3934 20.6179 49.4765 21.1208 49.4765 21.5399L48.7288 26.9048C48.6458 27.4077 48.2304 27.743 47.7319 27.743H46.5688L43.495 49.7053C43.495 50.1244 43.0796 50.292 42.7473 50.1244Z" fill="#FFD385"/>
<path d="M5.27973 38.2212L24.8859 39.6462L29.5382 6.619L10.6797 5.19397C10.3474 5.19397 10.0151 5.44545 9.93205 5.78075L8.93513 12.7383L7.93819 13.4089C7.60589 13.6603 7.35666 13.9956 7.35666 14.4148L4.19973 36.9638C4.11666 37.5506 4.61512 38.2212 5.27973 38.2212Z" fill="#FFB75E"/>
<path d="M42.0828 46.3523L28.0428 38.1374C27.6274 37.886 27.3782 37.383 27.4612 36.8801L31.1997 10.3074C31.2828 9.80447 31.7812 9.55299 32.1966 9.80447L46.2366 18.0194C46.652 18.2708 46.9012 18.7738 46.8182 19.2767L43.0797 45.8494C43.0797 46.3523 42.4982 46.6038 42.0828 46.3523Z" fill="#BFC6F2"/>
<path d="M41.5013 46.8551L27.3782 38.6403C26.9628 38.3888 26.7136 37.8858 26.7967 37.3829L30.5351 10.8102C30.6182 10.3073 31.1167 10.0558 31.5321 10.3073L45.5721 18.5222C45.9875 18.7736 46.2367 19.2766 46.1536 19.7795L42.4982 46.3522C42.4151 46.8551 41.9167 47.1066 41.5013 46.8551Z" fill="#8698BF"/>
<path d="M40.3382 47.2745L26.4644 39.1434C26.049 38.8919 25.7998 38.389 25.8829 37.886L28.7906 16.9297L44.5752 26.0667L41.6675 46.6039C41.5844 47.2745 40.9198 47.6098 40.3382 47.2745Z" fill="#FDFDFD"/>
<path d="M45.406 20.199C45.4891 19.696 45.2398 19.1931 44.8245 18.9416L30.8675 10.8943C30.3691 10.6429 29.7876 10.8943 29.7045 11.4811L28.9568 17.0136L44.5752 26.0667L45.406 20.199Z" fill="#F97A7A"/>
<path d="M35.5198 17.6842L35.6859 16.8459L31.1998 14.2473L31.1167 15.0856" fill="#EF3F54"/>
<path d="M32.3626 23.049C32.2795 23.552 32.5288 23.9711 32.9441 24.2226L38.9257 27.6594C39.3411 27.9109 39.8395 27.6594 39.8395 27.2403C39.9226 26.7373 39.6734 26.3182 39.258 26.0667L33.2764 22.6299C32.9441 22.3784 32.4457 22.6299 32.3626 23.049Z" fill="#8698BF"/>
<path d="M31.0335 25.899L30.9504 26.7373L40.3381 32.2698L40.4212 31.3477L31.0335 25.899Z" fill="#BFC6F2"/>
<path d="M30.7843 27.6594L30.6182 28.4977L40.0058 33.9463L40.172 33.1081L30.7843 27.6594Z" fill="#BFC6F2"/>
<path d="M29.7873 37.2993L29.6211 38.1376L34.3565 40.9038L34.5226 40.0656L29.7873 37.2993Z" fill="#BFC6F2"/>
</svg>
