<svg width="55" height="56" viewBox="0 0 55 56" fill="none" xmlns="http://www.w3.org/2000/svg">
<path d="M45.7408 44.5467L19.089 51.7647C15.5122 52.7228 11.8405 50.583 10.8592 46.974L3.70564 20.082C2.75605 16.473 4.8768 12.7682 8.45358 11.7781L35.1054 4.56009C38.6822 3.60195 42.3539 5.74181 43.3352 9.35082L50.4888 36.2427C51.47 39.8518 49.3176 43.5885 45.7408 44.5467Z" fill="#E1E4F4"/>
<path d="M49.6975 22.1258L22.1594 6.12477C21.8745 5.96508 21.5263 5.96508 21.2098 6.12477L20.3235 6.60385C19.8487 6.85935 19.5322 7.33842 19.5005 7.88137L17.6963 28.226L25.4829 33.0167L50.6154 23.4353C50.5204 22.8604 50.2039 22.3813 49.6975 22.1258Z" fill="#5DC6A0"/>
<path d="M25.5146 32.9851L45.9941 45.5688L47.4502 44.8342C47.7034 44.7064 47.8933 44.4509 47.925 44.1635L50.7104 24.1702C50.7421 23.9147 50.7421 23.6592 50.6788 23.4037L25.5146 32.9851Z" fill="#5DC6A0"/>
<path d="M45.1395 45.4727L17.7913 29.5356C17.0949 29.1204 16.7151 28.3219 16.8101 27.5234L19.5639 7.72178C19.6905 6.92333 20.5451 6.50814 21.2415 6.8914L48.5897 22.7966C49.286 23.2118 49.6659 24.0102 49.5709 24.8087L46.8171 44.6742C46.6905 45.4407 45.8359 45.8559 45.1395 45.4727Z" fill="#92DDD2"/>
<path d="M48.3682 33.4959L18.3928 15.9619L19.1208 10.756L49.0962 28.2262L48.3682 33.4959Z" fill="#57617F"/>
<path d="M27.4138 27.9384L20.2919 23.7865C20.007 23.6268 19.8171 23.2754 19.8804 22.9241L20.007 22.1257C20.0703 21.7424 20.4818 21.5508 20.7983 21.7424L27.9202 25.8944C28.2051 26.0541 28.395 26.4054 28.3317 26.7567L28.2051 27.5871C28.1418 27.9065 27.7303 28.1301 27.4138 27.9384Z" fill="#FDFDFD"/>
<path d="M24.3118 30.3022L19.8487 27.6833C19.5639 27.5236 19.3739 27.1723 19.4372 26.821L19.5639 26.0225C19.6272 25.6393 20.0387 25.4476 20.3552 25.6393L24.8183 28.2262C25.1031 28.3859 25.2931 28.7373 25.2297 29.0886L25.1031 29.919C25.0398 30.2703 24.6283 30.4939 24.3118 30.3022Z" fill="#FDFDFD"/>
<path d="M43.7783 41.9915L41.0878 40.3946C40.518 40.0433 40.2015 39.4045 40.2965 38.7338L40.4231 37.7757C40.518 37.2008 41.1195 36.9133 41.6259 37.2008L44.2847 38.7657C44.8545 39.1171 45.171 39.7558 45.0761 40.4265L44.9495 41.4166C44.9178 41.9915 44.2847 42.2789 43.7783 41.9915Z" fill="#EF3F54"/>
</svg>
