<svg width="55" height="56" viewBox="0 0 55 56" fill="none" xmlns="http://www.w3.org/2000/svg">
<path d="M45.8358 44.5463L19.184 51.7643C15.6072 52.7225 11.9354 50.5826 10.9542 46.9736L3.80061 20.0817C2.85102 16.4726 4.97177 12.7678 8.54855 11.7777L35.2004 4.55973C38.7772 3.60158 42.4489 5.74144 43.4301 9.35045L50.5837 36.2424C51.5333 39.8833 49.4126 43.5882 45.8358 44.5463Z" fill="#E1E4F4"/>
<path d="M18.4245 41.8317C18.203 41.8317 18.0447 41.6719 18.013 41.4484L17.7598 38.3823C17.7282 38.1588 17.9181 37.9671 18.1397 37.9352C18.3612 37.9352 18.5511 38.0949 18.5828 38.3185L18.836 41.3845C18.8677 41.6081 18.6778 41.7997 18.4562 41.8317H18.4245Z" fill="#57617F"/>
<path d="M16.4303 14.9717C16.745 14.9717 17.0001 14.8144 17.0001 14.6204C17.0001 14.4263 16.745 14.269 16.4303 14.269C16.1157 14.269 15.8606 14.4263 15.8606 14.6204C15.8606 14.8144 16.1157 14.9717 16.4303 14.9717Z" fill="#57617F"/>
<path d="M15.8606 14.6204L15.9556 16.4409L17.1267 16.345L17.0001 14.6204H15.8606Z" fill="#57617F"/>
<path d="M38.2391 44.259L23.5205 35.6357C23.0457 35.3482 22.7925 34.8372 22.8874 34.2942L26.8757 5.96512C27.0023 5.03891 28.0469 4.5279 28.8382 5.00697L43.5252 13.5664C44 13.8539 44.2532 14.3648 44.1582 14.9078L40.2016 43.3008C40.1066 44.227 39.0621 44.738 38.2391 44.259Z" fill="#8698BF"/>
<path d="M36.0553 45.4723L21.3367 36.849C20.8619 36.5616 20.6086 36.0506 20.7036 35.5076L24.6919 7.1785C24.8185 6.25229 25.863 5.74128 26.6544 6.22035L41.3413 14.7798C41.8161 15.0672 42.0694 15.5782 41.9744 16.1212L38.0178 44.5141C37.8912 45.4404 36.8783 45.9514 36.0553 45.4723Z" fill="#BFC6F2"/>
<path d="M33.9344 46.7498L19.2158 38.1265C18.741 37.839 18.4878 37.328 18.5827 36.7851L22.571 8.45596C22.6976 7.52976 23.7422 7.01875 24.5335 7.49782L39.2205 16.0572C39.6953 16.3447 39.9485 16.8557 39.8535 17.3986L35.8969 45.7916C35.7703 46.7178 34.7258 47.2288 33.9344 46.7498Z" fill="#FDFDFD"/>
<path d="M21.8748 13.4064L22.5711 8.45596C22.6977 7.52976 23.7423 7.01875 24.5336 7.49782L39.2206 16.0572C39.6954 16.3447 39.9486 16.8557 39.8537 17.3986L38.999 23.403L21.8748 13.4064Z" fill="#F97A7A"/>
<path d="M23.6472 26.9484L23.4573 28.0662L33.7445 34.0706L33.9028 32.9208L23.6472 26.9484Z" fill="#FFD385"/>
<path d="M22.5078 34.9971L22.3179 36.1149L27.4457 39.1171L27.6039 37.9673L22.5078 34.9971Z" fill="#FFD385"/>
<path d="M33.2698 22.541L33.0798 23.6908L36.3717 25.6071L36.53 24.4573L33.2698 22.541Z" fill="#FFD385"/>
<path d="M24.1219 23.4673L23.9636 24.6171L32.2567 29.4716L32.415 28.3219L24.1219 23.4673Z" fill="#FFD385"/>
<path d="M23.2989 29.2159L23.1406 30.3657L33.3962 36.3381L33.5545 35.1884L23.2989 29.2159Z" fill="#FFD385"/>
<path d="M22.9825 31.5476L22.8242 32.6974L33.0798 38.6698L33.2697 37.5201L22.9825 31.5476Z" fill="#FFD385"/>
<path d="M15.6074 16.4407H17.475C17.475 16.4407 19.3108 23.5948 19.5008 30.0782C19.659 35.6035 19.1209 40.0749 19.1209 40.0749H17.5383C17.5383 40.0749 16.2088 36.1146 15.5441 30.5254C14.7845 24.1378 15.6074 16.4407 15.6074 16.4407Z" fill="#F97A7A"/>
<path d="M16.5255 17.0479C17.05 17.0479 17.4751 16.7762 17.4751 16.4411C17.4751 16.1059 17.05 15.8342 16.5255 15.8342C16.0011 15.8342 15.5759 16.1059 15.5759 16.4411C15.5759 16.7762 16.0011 17.0479 16.5255 17.0479Z" fill="#F97A7A"/>
<path d="M17.3801 29.8866C18.393 29.8866 19.216 29.4395 19.4059 28.8327C19.3742 28.5133 19.3742 28.2258 19.3426 27.9064C19.121 28.5133 18.298 28.9285 17.3168 28.9285C16.3039 28.9285 15.4809 28.4813 15.291 27.8745C15.3227 28.1939 15.3227 28.5133 15.3543 28.8007C15.5442 29.4075 16.3672 29.8866 17.3801 29.8866Z" fill="#EF3F54"/>
<path d="M18.2979 40.586C18.735 40.586 19.0892 40.3572 19.0892 40.075C19.0892 39.7928 18.735 39.564 18.2979 39.564C17.8609 39.564 17.5066 39.7928 17.5066 40.075C17.5066 40.3572 17.8609 40.586 18.2979 40.586Z" fill="#F97A7A"/>
<path d="M16.2087 20.3372L15.1958 20.6246L15.449 20.1775L15.8605 26.2777L15.1958 25.9264L15.9555 25.4792C16.177 25.3515 16.4303 25.4153 16.5569 25.6389C16.6835 25.8625 16.6202 26.118 16.3986 26.2457L15.6389 26.6929C15.4174 26.8206 15.1642 26.7568 15.0375 26.5332C15.0059 26.4693 14.9742 26.4054 14.9742 26.3416L14.5627 20.2414C14.5627 20.0817 14.6261 19.9539 14.7527 19.8581L14.816 19.7943L15.6706 19.1874C15.9555 18.9958 16.367 19.0597 16.5569 19.3471C16.7468 19.6346 16.6835 20.0497 16.3986 20.2414C16.3353 20.3052 16.272 20.3372 16.2087 20.3372Z" fill="#FFB75E"/>
</svg>
