<svg width="55" height="56" viewBox="0 0 55 56" fill="none" xmlns="http://www.w3.org/2000/svg">
<path d="M45.7546 44.5519L19.1155 51.7634C15.53 52.7346 11.8481 50.5979 10.8856 46.98L3.73852 20.0767C2.77595 16.4588 4.91766 12.7438 8.50322 11.7726L35.1663 4.56116C38.7519 3.58992 42.4337 5.72665 43.3963 9.34451L50.5433 36.2478C51.4578 39.8657 49.3401 43.5807 45.7546 44.5519Z" fill="#E1E4F4"/>
<path d="M50.4951 24.6413C50.3025 24.2285 49.9897 23.8643 49.6047 23.6458L19.4523 6.11492C19.1394 5.92068 18.7544 5.92068 18.4175 6.11492L17.4549 6.64911C16.9496 6.94048 16.6127 7.45038 16.5646 8.03312L14.5913 30.2988L24.4817 36.3933L38.9924 29.8131L50.4951 24.6413Z" fill="#F97A7A"/>
<path d="M38.9924 29.8134L24.4817 36.3936L45.5138 49.3111L47.102 48.5098C47.3908 48.3641 47.5592 48.097 47.6074 47.7814L50.6394 25.8799C50.6876 25.4429 50.6394 25.0301 50.4469 24.6416L38.9924 29.8134Z" fill="#57617F"/>
<path d="M46.4042 48.2909L49.4122 26.5352C49.5326 25.6368 49.1235 24.7627 48.3293 24.3256L18.4176 6.94045C17.6716 6.50339 16.709 6.96473 16.5887 7.83884L13.5566 29.5217C13.5085 29.886 13.5566 30.2502 13.701 30.5901L30.2331 25.1755L45.8507 49.1408C46.1395 48.9708 46.3561 48.6794 46.4042 48.2909Z" fill="#FFD385"/>
<path d="M13.677 30.6145C13.8455 31.0758 14.1583 31.4886 14.6155 31.7557L44.5754 49.2137C45.0085 49.4565 45.4898 49.408 45.8508 49.1651L30.2332 25.1998L13.677 30.6145Z" fill="#F97A7A"/>
<path d="M28.3801 27.5068L17.2625 6.89227C17.7678 6.64946 18.3694 6.64946 18.8748 6.94083L47.6796 23.6704C48.3052 24.0346 48.8106 24.5445 49.1956 25.1516L30.4737 28.4781C29.6074 28.648 28.7892 28.2352 28.3801 27.5068Z" fill="#FDFDFD"/>
<path d="M31.2642 25.9671C31.3278 25.2996 30.8861 24.7107 30.2775 24.6517C29.669 24.5926 29.1241 25.0858 29.0605 25.7532C28.9969 26.4206 29.4386 27.0095 30.0472 27.0686C30.6557 27.1276 31.2006 26.6345 31.2642 25.9671Z" fill="#EF3F54"/>
</svg>
