<svg width="55" height="56" viewBox="0 0 55 56" fill="none" xmlns="http://www.w3.org/2000/svg">
<path d="M45.7725 44.5463L19.1207 51.7643C15.5439 52.7225 11.8722 50.5826 10.8909 46.9736L3.73737 20.0817C2.78778 16.4727 4.90853 12.7678 8.48532 11.7778L35.1371 4.55973C38.7139 3.60158 42.3857 5.74144 43.3669 9.35045L50.5205 36.2424C51.4701 39.8514 49.3493 43.5882 45.7725 44.5463Z" fill="#E1E4F4"/>
<path d="M45.393 15.6741C45.0132 14.8437 44.3801 14.1091 43.5255 13.5981L23.5841 1.97264C22.0964 1.11031 20.2289 2.03652 20.0073 3.72924L17.1586 24.2016C16.9053 26.054 17.7916 27.8745 19.3743 28.8326L21.6533 30.174L20.9569 35.1244L25.5466 32.4416L33.4282 37.0407L41.0566 18.1653L45.393 15.6741Z" fill="#F97A7A"/>
<path d="M20.9252 31.228L18.3613 36.1784L23.6157 34.7732L27.0342 32.8569L20.9252 31.228Z" fill="#92DDDA"/>
<path d="M41.3413 40.7457L38.9041 41.7358L40.1385 40.1069L41.3413 40.7457Z" fill="#57617F"/>
<path d="M45.3928 15.6742L41.0563 18.1654L33.428 37.0408L39.3787 40.5221C40.8664 41.3844 42.734 40.4582 42.9555 38.7655L45.741 18.1973C45.8676 17.335 45.741 16.4407 45.3928 15.6742Z" fill="#57617F"/>
<path d="M21.305 1.90869L18.8044 2.93072L25.958 8.99897L21.305 1.90869Z" fill="#F97A7A"/>
<path d="M21.02 3.02684L40.9614 14.6523C42.5757 15.5785 43.3987 17.7823 43.1455 19.6347L40.4233 39.8196C40.2017 41.5123 38.3026 42.4385 36.8465 41.5762L23.0142 33.4639L18.4245 36.1467L19.1208 31.1963L16.8735 29.8868C15.2592 28.9606 14.3729 27.1082 14.6578 25.2558L17.5065 4.78344C17.6648 3.09072 19.5323 2.16451 21.02 3.02684Z" fill="#FDFDFD"/>
<path d="M30.8008 16.1532L28.68 14.9076C28.3635 14.7159 27.9203 14.9076 27.8887 15.2908L26.1794 27.6509C26.1161 28.098 26.3377 28.5132 26.7175 28.7368L28.8383 29.9824C29.1548 30.174 29.598 29.9824 29.6296 29.5991L31.3389 17.2391C31.4022 16.7919 31.1806 16.3767 30.8008 16.1532Z" fill="#EF3F54"/>
<path d="M33.9028 22.8924L24.5652 17.4629C24.2486 17.2712 23.8371 17.4629 23.7738 17.8461L23.299 20.9122C23.2357 21.3593 23.4257 21.8065 23.8371 22.03L33.1748 27.4595C33.4913 27.6511 33.9028 27.4595 33.9661 27.0763L34.4409 24.0102C34.4725 23.5631 34.2826 23.1159 33.9028 22.8924Z" fill="#EF3F54"/>
</svg>
