<svg width="55" height="56" viewBox="0 0 55 56" fill="none" xmlns="http://www.w3.org/2000/svg">
<path d="M45.7781 45.4899L19.1114 52.7031C15.5287 53.6677 11.8463 51.5289 10.882 47.9139L3.7332 21.0069C2.77726 17.3919 4.89696 13.6763 8.47967 12.7034L35.1464 5.49015C38.7291 4.52559 42.4116 6.66439 43.3758 10.2794L50.5246 37.1863C51.4806 40.8013 49.3609 44.517 45.7781 45.4899Z" fill="#E1E4F4"/>
<path d="M22.6025 5.04272L32.7438 47.9529L30.5077 49.2278L21.2559 8.8674" fill="#57617F"/>
<path d="M21.2569 8.86786L20.1763 4.13734L22.3292 2.896L22.6035 5.04318" fill="#F97A7A"/>
<path d="M38.3711 11.6943C38.1217 11.1239 37.6978 10.6207 37.1409 10.3019L24.4476 2.9126C23.1342 2.14934 21.4634 2.96292 21.2472 4.48105L19.2273 18.7733L25.4368 17.6997L38.3711 11.6943Z" fill="#F97A7A"/>
<path d="M38.3717 11.6943L25.454 17.6997L19.2445 18.7733L16.4598 38.5174C16.385 39.071 16.6427 39.6245 17.1248 39.9013L30.7491 47.8778C32.0625 48.6494 33.7333 47.8275 33.9494 46.3093L38.5878 13.3047C38.6627 12.7428 38.5795 12.1892 38.3717 11.6943Z" fill="#57617F"/>
<path d="M29.6682 48.8593C29.3856 48.8593 29.1113 48.7838 28.8619 48.6412L16.3182 41.3022C15.3706 40.7486 14.8552 39.675 15.0048 38.5763L19.6349 5.78974C19.743 4.99293 20.4329 4.38904 21.2309 4.38904C21.5136 4.38904 21.7796 4.46453 22.029 4.60711L34.5643 11.9042C35.5202 12.4578 36.0356 13.5314 35.8777 14.6301L31.2725 47.467C31.1561 48.2638 30.4662 48.8593 29.6682 48.8593Z" fill="#FFD385"/>
<path d="M34.8304 11.4427L22.2951 4.14561C21.9543 3.94431 21.5885 3.85205 21.2228 3.85205C20.2086 3.85205 19.2527 4.59015 19.0947 5.71406L14.4813 38.5006C14.2984 39.809 14.9218 41.1007 16.0523 41.7633L28.596 49.1023C28.9368 49.3036 29.3109 49.3959 29.6683 49.3959C30.6824 49.3959 31.6384 48.6578 31.7963 47.5339L36.4098 14.7054C36.5927 13.397 35.9692 12.1053 34.8304 11.4427ZM35.3541 14.5628L30.7406 47.3913C30.6575 48.0036 30.1421 48.3223 29.6766 48.3223C29.4938 48.3223 29.3109 48.272 29.1446 48.1713L16.601 40.8323C15.8445 40.3878 15.4289 39.5323 15.5536 38.6516L20.1754 5.86504C20.2585 5.25275 20.7739 4.93403 21.2394 4.93403C21.4223 4.93403 21.6051 4.98436 21.7714 5.08501L23.0515 5.83149C23.4755 6.07473 23.7082 6.5612 23.6334 7.04767L23.6168 7.14832C23.5336 7.72705 23.808 8.30579 24.315 8.59935L30.4331 12.1808C30.99 12.5079 31.6883 12.164 31.7797 11.5182C31.8213 11.2498 32.1122 11.1072 32.345 11.2414L34.2901 12.3737C35.0549 12.8266 35.4705 13.6821 35.3541 14.5628Z" fill="#FDFDFD"/>
<path d="M30.076 26.7665C30.2173 25.349 29.5856 23.3109 27.2414 22.1031L22.7028 19.7714L20.5415 29.9202L22.869 31.1112L23.6753 27.3033L24.8723 27.9156L26.8923 33.1745L29.4359 34.4913L27.1666 28.8466C29.2281 29.224 29.9347 28.1924 30.076 26.7665ZM25.7119 26.4394L24.0494 25.5923L24.7061 22.5308L26.46 23.4283C27.3911 23.9064 27.8649 24.7283 27.7651 25.7432C27.6571 26.7917 26.8424 27.0181 25.7119 26.4394Z" fill="#EF3F54"/>
</svg>
