<svg width="55" height="56" viewBox="0 0 55 56" fill="none" xmlns="http://www.w3.org/2000/svg">
<path d="M45.7411 44.5463L19.0892 51.7643C15.5124 52.7225 11.8407 50.5826 10.8595 46.9736L3.70588 20.0817C2.75629 16.4727 4.87704 12.7678 8.45383 11.7778L35.1056 4.55973C38.6824 3.60158 42.3542 5.74144 43.3354 9.35045L50.489 36.2424C51.4702 39.8514 49.3178 43.5882 45.7411 44.5463Z" fill="#E1E4F4"/>
<path d="M45.5512 15.6741C45.1714 14.8437 44.5383 14.1091 43.6837 13.5981L23.7423 1.97264C22.2546 1.11031 20.3871 2.03652 20.1655 3.72924L17.3168 24.2016C17.0635 26.054 17.9498 27.8745 19.5325 28.8326L21.7798 30.1421L21.0835 35.0925L25.6731 32.4097L33.5547 37.0088L41.1831 18.1333L45.5512 15.6741Z" fill="#F97A7A"/>
<path d="M21.0835 31.228L18.5513 36.1784L22.1597 35.2203L25.5782 33.2721L21.0835 31.228Z" fill="#57617F"/>
<path d="M41.4996 40.7457L39.094 41.7358L40.2968 40.1069L41.4996 40.7457Z" fill="#57617F"/>
<path d="M45.551 15.6742L41.2146 18.1654L33.5862 37.0408L39.5369 40.5221C41.0246 41.3844 42.8922 40.4582 43.1137 38.7655L45.8992 18.1973C46.0575 17.335 45.8992 16.4407 45.551 15.6742Z" fill="#57617F"/>
<path d="M21.4949 1.90869L18.9626 2.93071L26.1479 8.99896L21.4949 1.90869Z" fill="#F97A7A"/>
<path d="M21.1781 3.02677L41.1195 14.6523C42.7338 15.5785 43.5568 17.7822 43.3036 19.6346L40.5814 39.8195C40.3599 41.5122 38.4607 42.4384 37.0046 41.5761L23.1723 33.4638L18.5509 36.1786L19.2473 31.2282L17 29.9187C15.3856 28.9925 14.4994 27.1401 14.7842 25.2877L17.633 4.8153C17.8546 3.09064 19.7221 2.16444 21.1781 3.02677Z" fill="white"/>
<path d="M30.1678 32.0264C29.0283 32.0264 27.8887 31.739 26.8759 31.1322C22.1279 28.3535 19.564 23.0518 20.3553 17.5585C20.6719 15.3228 22.0963 13.3746 24.122 12.3845C26.1478 11.3944 28.5218 11.4583 30.4843 12.608C35.1056 15.2589 37.5746 20.4329 36.8149 25.7346L36.7199 26.3095C36.4034 28.5132 35.0423 30.3656 33.0482 31.3557C32.1302 31.8029 31.149 32.0264 30.1678 32.0264ZM27.0974 12.3845C26.1795 12.3845 25.2932 12.608 24.4069 13.0232C22.571 13.9175 21.3366 15.6102 21.02 17.6862C20.2604 22.8921 22.666 27.9383 27.1924 30.5573C28.9333 31.5474 30.9274 31.6432 32.7317 30.7489C34.5359 29.8546 35.707 28.2258 36.0236 26.2456L36.1185 25.6707C36.8465 20.6565 34.5042 15.7699 30.1361 13.2468C29.1865 12.64 28.142 12.3845 27.0974 12.3845Z" fill="#92DDDA"/>
<path d="M29.9143 20.5289L27.477 19.1237L26.3691 27.0763L28.7748 28.5135L29.9143 20.5289Z" fill="#EF3F54"/>
<path d="M28.8699 18.9638C27.9836 18.4528 27.5088 17.4627 27.6671 16.4726C27.7937 15.6103 28.7433 15.1632 29.4713 15.5783C30.3259 16.0574 30.7691 17.0156 30.6425 18.0057L30.6108 18.1015C30.5159 18.9319 29.5979 19.379 28.8699 18.9638Z" fill="#EF3F54"/>
</svg>
