<svg width="55" height="56" viewBox="0 0 55 56" fill="none" xmlns="http://www.w3.org/2000/svg">
<path d="M45.836 44.5467L19.1842 51.7647C15.6074 52.7228 11.9357 50.583 10.9544 46.974L3.80085 20.0821C2.85126 16.473 4.97201 12.7682 8.5488 11.7781L35.2006 4.56009C38.7774 3.60195 42.4491 5.74181 43.4304 9.35082L50.584 36.2428C51.5336 39.8518 49.4128 43.5885 45.836 44.5467Z" fill="#E1E4F4"/>
<path d="M35.4221 44.7383L30.0728 29.2163L34.1243 27.811L38.7457 41.257C39.0938 42.311 38.6824 43.4607 37.7328 44.0037L36.0235 44.9938C35.8019 45.1215 35.5171 44.9938 35.4221 44.7383Z" fill="#F97A7A"/>
<path d="M32.9847 43.9397L28.3 30.2701L32.3516 28.8649L36.973 42.3108C37.3212 43.3648 36.9097 44.5146 35.9601 45.0575C34.8206 45.6963 33.3962 45.1533 32.9847 43.9397Z" fill="#57617F"/>
<path d="M34.0608 3.98522C27.0339 -0.0070478 18.2027 4.36848 17.0632 12.4488L16.9999 12.9279C16.3985 17.2715 17.5063 21.5512 19.912 25.0005L40.9928 11.5865C39.5368 8.42462 37.1628 5.74182 34.0608 3.98522Z" fill="#F97A7A"/>
<path d="M19.9121 24.9688C21.3048 26.949 23.1091 28.6417 25.2931 29.8873C29.4713 32.2827 34.2826 31.7078 37.7327 29.1527C40.1067 27.3961 41.816 24.7133 42.2908 21.4556L42.3541 20.9766C42.7972 17.6869 42.2908 14.4292 40.9613 11.5548L19.9121 24.9688Z" fill="#F97A7A"/>
<path d="M22.8242 3.95325L20.197 5.45432L34.0294 31.3562L36.8465 29.7593L22.8242 3.95325Z" fill="#F97A7A"/>
<path d="M22.6974 31.3562C16.715 27.9388 13.4547 21.1999 14.4043 14.3651L14.4676 13.886C15.6071 5.83762 24.4067 1.43016 31.4336 5.42243C37.416 8.80787 40.7079 15.5468 39.7583 22.4135L39.695 22.8926C38.5872 31.0049 29.7244 35.3804 22.6974 31.3562Z" fill="#92DDDA"/>
<path d="M25.831 3.95325V6.92349C27.2871 6.92349 28.6798 7.30675 30.0092 8.04133C34.9471 10.8519 37.6376 16.3452 36.8463 22.0302L36.783 22.5093C36.1816 26.7251 32.5731 29.919 28.3316 29.919C26.8756 29.919 25.4512 29.5357 24.1218 28.7692C19.1839 25.9586 16.4934 20.4653 17.3164 14.7803L17.3797 14.3012C17.9811 10.0854 21.6212 6.89154 25.831 6.89154V3.95325ZM25.831 3.95325C20.3867 3.95325 15.2906 7.91356 14.4676 13.9179L14.4043 14.397C13.4547 21.2318 16.715 27.9707 22.6974 31.3881C24.5016 32.4101 26.4324 32.8892 28.3316 32.8892C33.7759 32.8892 38.8721 28.9289 39.695 22.9245L39.7583 22.4454C40.7079 15.5787 37.416 8.83977 31.4336 5.45432C29.6294 4.4323 27.7302 3.95325 25.831 3.95325Z" fill="#57617F"/>
<path d="M28.7749 13.439L26.9707 12.385C26.6858 12.2254 26.3376 12.3851 26.2743 12.7364L24.8183 23.3079C24.755 23.6912 24.9449 24.0425 25.2614 24.2341L27.0656 25.2881C27.3505 25.4478 27.6987 25.2881 27.762 24.9367L29.2181 14.3652C29.2497 13.982 29.0914 13.6306 28.7749 13.439Z" fill="#EF3F54"/>
<path d="M31.402 19.2197L23.4254 14.5886C23.1405 14.429 22.7924 14.5886 22.729 14.908L22.3175 17.527C22.2542 17.9102 22.4442 18.2935 22.7607 18.4851L30.7372 23.1161C31.0221 23.2758 31.3703 23.1161 31.4336 22.7968L31.8451 20.1778C31.9084 19.7946 31.7185 19.4113 31.402 19.2197Z" fill="#EF3F54"/>
<path d="M20.1969 14.1096C20.0387 14.1096 19.8488 14.0777 19.6905 14.0138C18.9308 13.7264 18.551 12.896 18.8042 12.1295C18.8992 11.874 19.7221 9.63829 21.9062 8.99953C22.6975 8.77596 23.4888 9.22309 23.7421 9.98961C23.9636 10.7561 23.5205 11.5865 22.7608 11.842C22.0012 12.0656 21.5897 13.1515 21.558 13.1515C21.3364 13.7583 20.7983 14.1096 20.1969 14.1096Z" fill="white"/>
</svg>
