<svg width="55" height="56" viewBox="0 0 55 56" fill="none" xmlns="http://www.w3.org/2000/svg">
<path d="M45.8374 44.5446L19.1841 51.7547C15.5962 52.7282 11.9178 50.5683 10.9529 46.9784L3.83736 20.0546C2.87253 16.4648 4.98308 12.7532 8.57102 11.7797L35.2243 4.5696C38.8122 3.59609 42.4906 5.75608 43.4554 9.34592L50.6012 36.2393C51.5358 39.8596 49.4253 43.5711 45.8374 44.5446Z" fill="#E1E4F4"/>
<path d="M27.5059 45.3963C34.0667 45.3963 39.3853 42.0048 39.3853 37.8211C39.3853 33.6375 34.0667 30.246 27.5059 30.246C20.9451 30.246 15.6265 33.6375 15.6265 37.8211C15.6265 42.0048 20.9451 45.3963 27.5059 45.3963Z" fill="#F97A7A"/>
<path d="M22.0787 17.2252C22.0787 17.2252 18.7923 20.9368 16.1089 27.6905C13.4255 34.4443 16.1089 39.9812 16.1089 39.9812L27.5059 45.3964V15.6737L22.0787 17.2252Z" fill="#F97A7A"/>
<path d="M32.8424 17.1036C32.8424 17.1036 36.2193 20.9064 38.8726 27.6905C41.5258 34.4747 38.8726 39.9812 38.8726 39.9812L27.4756 45.3964V15.6737L32.8424 17.1036Z" fill="#F97A7A"/>
<path d="M27.5059 19.3853C29.8871 19.3853 31.8175 18.1458 31.8175 16.6168C31.8175 15.0879 29.8871 13.8484 27.5059 13.8484C25.1247 13.8484 23.1943 15.0879 23.1943 16.6168C23.1943 18.1458 25.1247 19.3853 27.5059 19.3853Z" stroke="#57617F" stroke-width="4.37" stroke-miterlimit="10"/>
<path d="M20.3904 6.547C20.3904 6.547 21.2346 12.6619 23.6165 16.7081C23.6165 16.7081 24.7924 18.6551 27.3854 18.6551C30.2798 18.6551 31.3653 16.7081 31.3653 16.7081C31.3653 16.7081 34.0487 12.5098 34.0487 8.76783L20.3904 6.547Z" fill="#F97A7A"/>
<path d="M25.5763 4.17405C23.4959 2.95715 18.8828 5.99939 20.9029 7.18586C22.923 8.37234 20.4205 9.77177 22.9833 11.2625C25.5461 12.7532 25.9079 12.601 28.3501 11.1712C30.7923 9.74134 31.7572 10.7757 33.5059 9.58923C35.2547 8.40276 34.531 6.54699 30.6717 4.29574C28.8326 3.23095 27.4456 5.29968 25.5763 4.17405Z" fill="#EF3F54"/>
<path d="M25.8778 25.6827C26.1492 25.987 26.3602 26.352 26.5713 26.6867L26.2095 27.2951C26.1492 27.3864 26.0889 27.4472 26.0587 27.4776C25.9984 27.5081 25.9381 27.5081 25.8778 27.5081C25.8175 27.4776 25.7572 27.4472 25.6969 27.356C25.6366 27.2951 25.5462 27.2038 25.4557 27.0822C25.3653 26.9909 25.2748 26.8692 25.1542 26.7475C25.0336 26.6258 24.913 26.5346 24.7924 26.4433L24.4909 29.6985C24.7321 29.9114 25.0035 30.1244 25.2447 30.3374C25.4859 30.5503 25.6969 30.8241 25.908 31.0979C26.0889 31.3717 26.2396 31.7064 26.3602 32.1019C26.4808 32.4669 26.511 32.9233 26.511 33.41C26.4808 33.8968 26.4205 34.3531 26.2999 34.7486C26.1793 35.1441 25.9984 35.4787 25.7874 35.7525C25.5763 36.0263 25.305 36.2089 25.0035 36.3001C24.702 36.3914 24.3401 36.4218 23.9482 36.3306L23.8577 37.4866C23.8577 37.6083 23.7974 37.6996 23.7371 37.7908C23.6768 37.8821 23.5864 37.9125 23.4959 37.8517L23.0135 37.6996L23.1643 36.0263C22.7723 35.8134 22.3803 35.5092 22.0185 35.1441C21.6567 34.779 21.3552 34.3531 21.114 33.8968L21.5361 33.1362C21.5663 33.0754 21.6266 33.0145 21.6869 32.9841C21.7472 32.9537 21.8075 32.9537 21.8678 32.9537C21.9582 32.9841 22.0185 33.0449 22.109 33.1666C22.1994 33.2883 22.2899 33.41 22.4105 33.5621C22.5311 33.7142 22.6517 33.8664 22.7723 34.0185C22.9231 34.1706 23.0738 34.3227 23.2849 34.4444L23.5864 30.9458C23.3452 30.7633 23.104 30.5503 22.8628 30.3374C22.5613 30.0635 22.3502 29.8202 22.1391 29.5159C21.9582 29.2117 21.8075 28.8467 21.6869 28.4512C21.5663 28.0557 21.5361 27.5689 21.5361 27.0213C21.5361 26.6258 21.6266 26.2303 21.7472 25.8957C21.8678 25.5306 22.0487 25.2568 22.2597 25.0134C22.4708 24.7701 22.7422 24.6179 23.0437 24.5267C23.3452 24.4354 23.707 24.4354 24.0989 24.5875L24.1894 23.5836C24.1894 23.4619 24.2497 23.3402 24.31 23.2794C24.3703 23.1881 24.4607 23.1881 24.5814 23.2185L25.0638 23.3706L24.913 24.9222C25.305 25.1047 25.6065 25.3785 25.8778 25.6827ZM22.8025 27.2647C22.8025 27.4776 22.8025 27.6602 22.8628 27.8123C22.8929 27.9948 22.9532 28.1469 23.0437 28.2991C23.1341 28.4512 23.2246 28.5729 23.315 28.725C23.4356 28.8467 23.5562 28.9683 23.6768 29.09L23.9482 26.1999C23.7371 26.1695 23.5864 26.1695 23.4356 26.2303C23.2849 26.2608 23.1643 26.352 23.0738 26.4433C22.9834 26.5346 22.9231 26.6562 22.8628 26.8084C22.8326 26.93 22.8025 27.0822 22.8025 27.2647ZM25.2145 33.3187C25.2145 33.1058 25.2145 32.9233 25.1542 32.7711C25.1241 32.619 25.0638 32.4365 24.9733 32.3148C24.8829 32.1627 24.7924 32.041 24.6718 31.9193C24.5512 31.7976 24.4306 31.6759 24.31 31.5542L24.0085 34.7182C24.3703 34.779 24.6718 34.6573 24.8829 34.414C25.0939 34.201 25.1844 33.8359 25.2145 33.3187Z" fill="#FDFDFD"/>
<path d="M46.0785 38.8251C47.9102 38.8251 49.3951 37.8716 49.3951 36.6955C49.3951 35.5194 47.9102 34.5659 46.0785 34.5659C44.2468 34.5659 42.762 35.5194 42.762 36.6955C42.762 37.8716 44.2468 38.8251 46.0785 38.8251Z" fill="#FFB75E"/>
<path d="M49.3951 35.3571H42.762V36.6956H49.3951V35.3571Z" fill="#FFB75E"/>
<path d="M46.0785 37.4865C47.9102 37.4865 49.3951 36.5331 49.3951 35.357C49.3951 34.1809 47.9102 33.2274 46.0785 33.2274C44.2468 33.2274 42.762 34.1809 42.762 35.357C42.762 36.5331 44.2468 37.4865 46.0785 37.4865Z" fill="#FFD385"/>
<path d="M46.0785 36.6955C47.9102 36.6955 49.3951 35.7421 49.3951 34.566C49.3951 33.3898 47.9102 32.4364 46.0785 32.4364C44.2468 32.4364 42.762 33.3898 42.762 34.566C42.762 35.7421 44.2468 36.6955 46.0785 36.6955Z" fill="#FFB75E"/>
<path d="M49.3951 33.2274H42.762V34.566H49.3951V33.2274Z" fill="#FFB75E"/>
<path d="M46.0785 35.3569C47.9102 35.3569 49.3951 34.4035 49.3951 33.2273C49.3951 32.0512 47.9102 31.0978 46.0785 31.0978C44.2468 31.0978 42.762 32.0512 42.762 33.2273C42.762 34.4035 44.2468 35.3569 46.0785 35.3569Z" fill="#FFD385"/>
<path d="M46.0785 34.5659C47.9102 34.5659 49.3951 33.6125 49.3951 32.4363C49.3951 31.2602 47.9102 30.3068 46.0785 30.3068C44.2468 30.3068 42.762 31.2602 42.762 32.4363C42.762 33.6125 44.2468 34.5659 46.0785 34.5659Z" fill="#FFB75E"/>
<path d="M49.3951 31.0978H42.762V32.4364H49.3951V31.0978Z" fill="#FFB75E"/>
<path d="M46.0785 33.2273C47.9102 33.2273 49.3951 32.2738 49.3951 31.0977C49.3951 29.9216 47.9102 28.9681 46.0785 28.9681C44.2468 28.9681 42.762 29.9216 42.762 31.0977C42.762 32.2738 44.2468 33.2273 46.0785 33.2273Z" fill="#FFD385"/>
<path d="M46.0785 32.4366C47.9102 32.4366 49.3951 31.4832 49.3951 30.3071C49.3951 29.1309 47.9102 28.1775 46.0785 28.1775C44.2468 28.1775 42.762 29.1309 42.762 30.3071C42.762 31.4832 44.2468 32.4366 46.0785 32.4366Z" fill="#FFB75E"/>
<path d="M49.3951 28.9681H42.762V30.3067H49.3951V28.9681Z" fill="#FFB75E"/>
<path d="M46.0785 31.0976C47.9102 31.0976 49.3951 30.1442 49.3951 28.9681C49.3951 27.7919 47.9102 26.8385 46.0785 26.8385C44.2468 26.8385 42.762 27.7919 42.762 28.9681C42.762 30.1442 44.2468 31.0976 46.0785 31.0976Z" fill="#FFD385"/>
<path d="M46.0785 30.3374C47.9102 30.3374 49.3951 29.3839 49.3951 28.2078C49.3951 27.0317 47.9102 26.0782 46.0785 26.0782C44.2468 26.0782 42.762 27.0317 42.762 28.2078C42.762 29.3839 44.2468 30.3374 46.0785 30.3374Z" fill="#FFB75E"/>
<path d="M49.3951 26.8689H42.762V28.2075H49.3951V26.8689Z" fill="#FFB75E"/>
<path d="M46.0785 28.9989C47.9102 28.9989 49.3951 28.0454 49.3951 26.8693C49.3951 25.6932 47.9102 24.7397 46.0785 24.7397C44.2468 24.7397 42.762 25.6932 42.762 26.8693C42.762 28.0454 44.2468 28.9989 46.0785 28.9989Z" fill="#FFD385"/>
<path d="M38.3903 45.0921C40.222 45.0921 41.7069 44.1387 41.7069 42.9626C41.7069 41.7864 40.222 40.833 38.3903 40.833C36.5586 40.833 35.0737 41.7864 35.0737 42.9626C35.0737 44.1387 36.5586 45.0921 38.3903 45.0921Z" fill="#FFB75E"/>
<path d="M41.7069 41.6241H35.0737V42.9627H41.7069V41.6241Z" fill="#FFB75E"/>
<path d="M38.3903 43.7536C40.222 43.7536 41.7069 42.8002 41.7069 41.6241C41.7069 40.4479 40.222 39.4945 38.3903 39.4945C36.5586 39.4945 35.0737 40.4479 35.0737 41.6241C35.0737 42.8002 36.5586 43.7536 38.3903 43.7536Z" fill="#FFD385"/>
<path d="M38.3903 42.9625C40.222 42.9625 41.7069 42.0091 41.7069 40.8329C41.7069 39.6568 40.222 38.7034 38.3903 38.7034C36.5586 38.7034 35.0737 39.6568 35.0737 40.8329C35.0737 42.0091 36.5586 42.9625 38.3903 42.9625Z" fill="#FFB75E"/>
<path d="M41.7069 39.4945H35.0737V40.8331H41.7069V39.4945Z" fill="#FFB75E"/>
<path d="M38.3903 41.624C40.222 41.624 41.7069 40.6706 41.7069 39.4944C41.7069 38.3183 40.222 37.3649 38.3903 37.3649C36.5586 37.3649 35.0737 38.3183 35.0737 39.4944C35.0737 40.6706 36.5586 41.624 38.3903 41.624Z" fill="#FFD385"/>
<path d="M38.3903 40.8633C40.222 40.8633 41.7069 39.9098 41.7069 38.7337C41.7069 37.5576 40.222 36.6041 38.3903 36.6041C36.5586 36.6041 35.0737 37.5576 35.0737 38.7337C35.0737 39.9098 36.5586 40.8633 38.3903 40.8633Z" fill="#FFB75E"/>
<path d="M41.7069 37.3953H35.0737V38.7338H41.7069V37.3953Z" fill="#FFB75E"/>
<path d="M38.3903 39.5248C40.222 39.5248 41.7069 38.5713 41.7069 37.3952C41.7069 36.2191 40.222 35.2656 38.3903 35.2656C36.5586 35.2656 35.0737 36.2191 35.0737 37.3952C35.0737 38.5713 36.5586 39.5248 38.3903 39.5248Z" fill="#FFD385"/>
<path d="M38.3903 38.7336C40.222 38.7336 41.7069 37.7802 41.7069 36.6041C41.7069 35.4279 40.222 34.4745 38.3903 34.4745C36.5586 34.4745 35.0737 35.4279 35.0737 36.6041C35.0737 37.7802 36.5586 38.7336 38.3903 38.7336Z" fill="#FFB75E"/>
<path d="M41.7069 35.2656H35.0737V36.6042H41.7069V35.2656Z" fill="#FFB75E"/>
<path d="M38.3903 37.3951C40.222 37.3951 41.7069 36.4417 41.7069 35.2656C41.7069 34.0894 40.222 33.136 38.3903 33.136C36.5586 33.136 35.0737 34.0894 35.0737 35.2656C35.0737 36.4417 36.5586 37.3951 38.3903 37.3951Z" fill="#FFD385"/>
</svg>
