<svg width="125" height="213" viewBox="0 0 125 213" fill="none" xmlns="http://www.w3.org/2000/svg">
<mask id="mask0" mask-type="alpha" maskUnits="userSpaceOnUse" x="0" y="1" width="128" height="212">
<rect y="1" width="128" height="212" fill="#C4C4C4"/>
</mask>
<g mask="url(#mask0)">
<mask id="mask1" mask-type="alpha" maskUnits="userSpaceOnUse" x="0" y="2" width="125" height="211">
<path d="M0.5 2.5H124.5V212.5H0.5V2.5Z" fill="#C4C4C4" stroke="black"/>
</mask>
<g mask="url(#mask1)">
<path d="M22.4717 151.065C22.4717 151.065 23.7068 155.033 27.3 154.359C32.2032 153.461 32.8395 148.109 32.8395 148.109C32.8395 148.109 32.2032 146.799 29.4335 147.285C23.37 148.296 22.4717 151.065 22.4717 151.065Z" fill="#31374C"/>
<path d="M21.5321 144.628C21.5321 144.628 27.9699 160.76 30.5899 165.401C31.9748 167.834 39.3857 164.952 39.2734 164.166C38.974 162.257 28.1196 142.42 28.1196 142.42C27.1465 137.591 20.4467 139.65 21.5321 144.628Z" fill="#FAC2A8"/>
<path d="M32.8395 148.109L36.8069 157.84C36.8069 157.84 37.1812 156.53 37.4058 156.418C37.7052 156.268 38.7158 156.493 38.7158 156.493C39.3147 154.921 42.2716 149.681 43.8436 147.023C46.5759 142.382 47.9607 141.633 50.431 140.81C62.1837 147.061 43.0201 170.005 36.8818 171.464C28.872 173.373 22.4717 150.991 22.4717 150.991C23.2203 152.525 31.754 151.664 32.8395 148.109Z" fill="white"/>
<path d="M22.4722 151.065C22.8465 151.851 23.1085 152.674 23.3705 153.498L23.7447 154.733C23.857 155.145 24.0068 155.556 24.119 155.968C23.857 155.631 23.6325 155.22 23.4453 154.845C23.2582 154.434 23.1085 154.022 22.9962 153.61C22.7342 152.787 22.547 151.926 22.4722 151.065Z" fill="#BFC6F2"/>
<path d="M32.8418 148.109C33.2161 148.895 33.5904 149.719 33.9272 150.505C34.3015 151.291 34.6384 152.114 35.0127 152.9C35.7238 154.51 36.3975 156.119 37.1087 157.728L36.4724 157.766C36.5473 157.504 36.6221 157.279 36.697 157.055C36.7718 156.793 36.8467 156.606 37.0338 156.306C37.0713 156.269 37.0713 156.231 37.1461 156.156C37.221 156.082 37.2584 156.082 37.3333 156.044C37.4455 156.007 37.5204 156.007 37.5953 156.007C37.745 156.007 37.8947 156.007 38.007 156.007C38.269 156.044 38.531 156.082 38.7556 156.119L38.3438 156.344C38.6807 155.52 39.055 154.772 39.4293 154.023C39.8036 153.274 40.2153 152.526 40.627 151.815C41.4504 150.355 42.2739 148.895 43.1347 147.473C43.9956 146.051 44.8939 144.591 46.0542 143.318C46.6156 142.682 47.2893 142.121 48.0379 141.709C48.7865 141.297 49.5725 141.035 50.3959 140.811C49.6099 141.11 48.8239 141.447 48.1502 141.896C47.4765 142.345 46.9151 142.944 46.391 143.58C45.3805 144.853 44.557 146.313 43.7336 147.772C42.9102 149.232 42.1242 150.692 41.3007 152.151L40.103 154.36C39.7287 155.108 39.317 155.857 39.0176 156.568L38.9053 156.868L38.6058 156.793C38.3813 156.755 38.1567 156.68 37.9321 156.68C37.8198 156.68 37.7076 156.643 37.6327 156.643C37.5953 156.643 37.5578 156.643 37.5204 156.643C37.5204 156.68 37.5953 156.568 37.5578 156.606C37.483 156.718 37.3707 156.98 37.2958 157.167C37.221 157.392 37.1461 157.616 37.0713 157.841L36.8093 158.739L36.4724 157.878C35.8361 156.231 35.1998 154.622 34.601 152.975C34.3015 152.151 34.0021 151.328 33.7027 150.505C33.4407 149.756 33.1412 148.933 32.8418 148.109Z" fill="#BFC6F2"/>
<path d="M37.4033 158.364C37.4033 158.364 38.6385 159.599 38.9379 160.348C39.2748 161.134 40.6971 158.551 37.4033 158.364Z" fill="#F7F7FA"/>
<path d="M42.3815 185.163L39.9112 213.235C39.7989 214.507 40.6598 215.667 41.8949 215.929C47.7713 217.202 64.9137 219.859 84.9007 213.721L46.5735 150.691L42.3815 185.163Z" fill="#8698BF"/>
<path d="M27.8225 112.738C27.8225 112.738 29.8437 125.951 25.3896 126.961C25.3896 126.961 28.4588 131.752 33.7737 130.18C33.7737 130.18 32.4637 132.014 31.1163 132.164C31.1163 132.164 34.41 134.971 37.292 134.148C37.292 134.148 41.5215 137.441 45.3392 138.265C56.6802 140.698 69.8177 135.158 66.0748 129.956C59.8616 121.197 27.8225 112.738 27.8225 112.738Z" fill="#2B2E3A"/>
<path d="M87.5955 131.116C87.5955 131.116 79.0991 142.495 65.9616 137.367C57.1658 133.923 74.1959 121.909 74.1959 121.909C74.1959 121.909 97.3644 127.373 87.5955 131.116Z" fill="#2B2E3A"/>
<path d="M64.502 135.046C64.502 135.046 69.1057 133.998 72.2872 137.18L66.1863 141.596L64.502 135.046Z" fill="#BFC6F2"/>
<path d="M57.9909 132.688L57.8412 139.425L52.8257 140.773L58.8892 147.061L70.567 141.035L66.7492 138.901L67.1609 124.604L57.9909 132.688Z" fill="#FAC2A8"/>
<path d="M57.8779 137.891C57.8779 137.891 64.2034 137.441 66.8609 134.934L67.3474 119.7L57.9902 131.191L57.8779 137.891Z" fill="#DC918B"/>
<path d="M44.3315 197.926C44.3315 197.926 45.4918 224.202 45.7538 225.886C46.0158 227.57 46.2778 258.599 46.2778 258.599C46.2778 258.599 51.5553 260.021 55.6725 258.187C55.6725 258.187 55.4479 254.257 55.4853 252.797C55.5602 249.129 57.2819 238.949 57.3942 234.532C57.4691 231.163 56.7579 226.784 56.7579 226.784L59.6774 201.37C59.64 201.37 56.4585 194.932 44.3315 197.926Z" fill="#343948"/>
<path d="M73.8234 185.649C73.8234 185.649 76.0317 194.557 76.0317 195.343C76.0317 196.129 76.5931 227.682 76.5931 227.682C76.5931 227.682 78.3148 234.007 78.5768 236.178C79.2131 241.381 79.6623 264.849 79.6623 264.849C79.6623 264.849 76.2188 267.581 70.3051 264.849C70.0431 259.122 69.5939 254.706 69.5939 254.706L66.375 231.649L58.3278 203.877C50.58 202.343 44.554 198.413 44.292 197.926C45.34 186.173 46.126 184.227 46.126 184.227L73.8234 185.649Z" fill="#474E64"/>
<path d="M44.5171 195.98C45.4902 185.949 46.2014 184.227 46.2014 184.227L73.8613 185.649C73.8613 185.649 76.0696 194.557 76.0696 195.343C76.0696 195.381 76.0696 195.418 76.0696 195.493C69.7441 199.311 57.8792 202.417 44.5171 195.98Z" fill="#474E64"/>
<path d="M66.7517 138.901C62.934 139.762 58.2928 143.617 58.2928 143.617C58.2928 143.617 56.8331 140.435 57.1325 139.724C56.2342 139.949 52.4539 141.521 52.4539 141.521C52.4539 141.521 48.4116 150.579 47.7378 154.097C47.6256 155.557 48.5613 170.566 48.5613 170.566C48.5613 170.566 47.6256 177.041 45.043 187.259C49.5719 191.938 70.3823 192.836 75.8095 187.409C73.9381 182.131 71.9169 174.421 71.7672 172.325C71.6549 170.416 73.4515 157.129 75.4726 149.868C77.5687 144.852 73.2643 141.371 73.2643 141.371L66.7517 138.901Z" fill="#FFB75E"/>
<path d="M53.4283 184.826C53.7797 184.826 54.0646 184.541 54.0646 184.19C54.0646 183.838 53.7797 183.553 53.4283 183.553C53.0769 183.553 52.792 183.838 52.792 184.19C52.792 184.541 53.0769 184.826 53.4283 184.826Z" fill="#E88636"/>
<path d="M54.4737 173.223C54.8251 173.223 55.11 172.938 55.11 172.586C55.11 172.235 54.8251 171.95 54.4737 171.95C54.1223 171.95 53.8374 172.235 53.8374 172.586C53.8374 172.938 54.1223 173.223 54.4737 173.223Z" fill="#E88636"/>
<path d="M55.2213 158.439C55.5727 158.439 55.8575 158.154 55.8575 157.803C55.8575 157.451 55.5727 157.167 55.2213 157.167C54.8698 157.167 54.585 157.451 54.585 157.803C54.585 158.154 54.8698 158.439 55.2213 158.439Z" fill="#E88636"/>
<path d="M58.3677 148.333C58.7191 148.333 59.004 148.048 59.004 147.697C59.004 147.345 58.7191 147.061 58.3677 147.061C58.0163 147.061 57.7314 147.345 57.7314 147.697C57.7314 148.048 58.0163 148.333 58.3677 148.333Z" fill="#E88636"/>
<path d="M51.6277 190.515C51.5903 190.515 51.5903 190.515 51.6277 190.515C51.4032 190.478 51.2535 190.328 51.2909 190.141C51.3283 189.954 53.2746 170.378 52.4138 160.198C51.7026 151.963 57.7661 143.767 58.0281 143.43C58.1404 143.28 58.3649 143.243 58.5147 143.355C58.6644 143.467 58.7018 143.692 58.5895 143.841C58.5147 143.916 52.4512 152.188 53.1249 160.123C53.9858 170.378 52.0395 189.991 52.002 190.178C51.9646 190.366 51.7775 190.515 51.6277 190.515Z" fill="#E88636"/>
<path d="M66.788 136.805C65.1037 137.891 62.8954 139.313 60.0508 140.511L61.3234 146.05C64.6171 145.04 67.3494 142.195 69.8197 138.302L66.8628 135.308L66.788 136.805Z" fill="#FFD385"/>
<path d="M60.0531 140.548L58.2939 143.617L60.5022 142.419L60.0531 140.548Z" fill="#E88636"/>
<path d="M57.7301 140.286L58.2915 143.617L56.3452 141.409L57.7301 140.286Z" fill="#E88636"/>
<path d="M56.7215 139.051C56.7215 139.051 51.8183 144.927 48.9737 152.151C45.8671 159.974 45.5677 177.415 42.3862 185.163C42.3862 185.163 43.4717 175.694 43.9957 166.037C44.3325 159.225 44.6694 156.567 44.8565 153.648C45.156 149.194 51.2943 140.511 51.2943 140.511C51.2943 140.511 52.8289 140.773 56.7215 139.051Z" fill="white"/>
<path d="M48.9702 152.188C50.8042 148.108 53.3868 143.243 56.9051 139.762L57.8783 139.425L57.9157 137.067C56.3063 137.404 53.05 139.088 51.5528 141.708C49.1199 146.012 48.9702 152.188 48.9702 152.188Z" fill="#E1E4F4"/>
<path d="M46.6524 156.792L45.043 156.642C46.091 145.002 51.5182 136.431 57.8811 136.244L57.9185 137.853C53.2773 138.04 47.7378 144.703 46.6524 156.792Z" fill="#8698BF"/>
<path d="M46.4512 159.249C47.1047 158.004 46.7146 156.512 45.5798 155.917C44.4451 155.321 42.9954 155.847 42.3419 157.091C41.6884 158.336 42.0786 159.828 43.2133 160.424C44.3481 161.019 45.7977 160.493 46.4512 159.249Z" fill="#57617F"/>
<path d="M49.0251 160.609C50.1302 158.505 49.7798 156.144 48.2424 155.337C46.705 154.529 44.5628 155.581 43.4576 157.686C42.3525 159.791 42.7029 162.151 44.2403 162.959C45.7777 163.766 47.9199 162.714 49.0251 160.609Z" fill="#8698BF"/>
<path d="M70.4944 136.168C70.4944 136.168 64.0567 153.498 63.2332 170.004C62.5221 183.703 61.4366 217.464 63.5701 218.886C67.9867 221.806 75.697 219.859 80.1511 218.362C84.6051 216.865 87.4871 215.405 88.3106 211.662C89.0217 208.444 73.4513 179.885 78.6914 141.034C76.0713 139.2 73.4513 138.115 73.4513 138.115L70.4944 136.168Z" fill="white"/>
<path d="M72.3295 197.103L81.1253 194.445C81.1253 194.445 82.8844 201.669 81.1253 204.214C79.3661 206.759 77.3075 208.668 73.3775 207.433C69.4849 206.198 72.3295 197.103 72.3295 197.103Z" fill="#E1E4F4"/>
<path d="M70.3465 136.581L72.2928 137.179C72.2928 137.179 64.3204 159.824 63.6467 165.551C63.6467 165.551 59.6418 147.061 70.3465 136.581Z" fill="#E1E4F4"/>
<path d="M64.7668 162.219L63.1948 161.845C64.3551 156.755 66.7131 151.178 68.5846 146.724C70.1192 143.093 71.6912 139.313 71.4666 138.34C70.7929 135.42 66.8629 135.008 66.8254 135.008L66.9751 133.399C67.1997 133.436 72.1403 133.886 73.076 137.965C73.4129 139.388 72.29 142.157 70.1192 147.36C68.2103 151.739 65.9271 157.241 64.7668 162.219Z" fill="#8698BF"/>
<path d="M69.3366 173.298C68.7752 173.298 68.326 172.886 68.2886 172.325C67.7646 166.224 66.3049 163.117 64.0217 163.117C60.5783 163.117 58.6694 168.844 57.8085 172.25C57.6588 172.811 57.0974 173.186 56.5359 173.036C55.9745 172.886 55.6002 172.325 55.7499 171.763C57.5091 164.614 60.2788 160.984 64.0217 160.984C64.0217 160.984 64.0217 160.984 64.0591 160.984C69.4863 161.021 70.1975 169.405 70.4595 172.138C70.4969 172.737 70.0852 173.223 69.4863 173.298C69.374 173.298 69.3366 173.298 69.3366 173.298Z" fill="#8698BF"/>
<path d="M66.8652 184.152C66.4909 184.152 66.1914 184.115 66.1166 184.115C65.7423 184.04 65.4803 183.703 65.5177 183.291C65.5926 182.917 65.9294 182.655 66.3412 182.692C66.7154 182.767 67.8009 182.805 68.3997 182.281C68.7366 182.019 68.8863 181.607 68.8863 181.046C68.9237 178.875 68.9612 175.581 68.6243 172.287C68.5869 171.913 68.8863 171.539 69.2606 171.501C69.6349 171.464 70.0092 171.763 70.0466 172.138C70.3835 175.506 70.3835 178.837 70.3086 181.083C70.2712 182.318 69.7472 182.992 69.298 183.366C68.512 184.002 67.5389 184.152 66.8652 184.152Z" fill="#8698BF"/>
<path d="M57.8438 183.591C57.3198 183.591 56.5712 183.479 55.9724 182.955C55.1115 182.244 54.7372 181.009 54.8121 179.324C54.9244 177.64 55.2986 174.758 56.0472 171.801C56.1595 171.427 56.5338 171.202 56.9081 171.277C57.2824 171.389 57.5069 171.764 57.4321 172.138C56.6835 175.02 56.3092 177.752 56.2344 179.399C56.1595 180.597 56.3841 181.458 56.8707 181.832C57.4321 182.281 58.2181 182.131 58.2181 182.094C58.5924 182.019 58.9667 182.244 59.079 182.618C59.1538 182.992 58.9292 183.367 58.555 183.479C58.5175 183.516 58.2181 183.591 57.8438 183.591Z" fill="#8698BF"/>
<path d="M57.7687 182.356L57.881 183.479C57.9185 183.778 58.143 184.04 58.4799 184.078L59.4905 184.19C59.9396 184.227 60.3139 183.853 60.239 183.404L59.977 181.869C59.9022 181.458 59.4905 181.196 59.1162 181.345L58.2179 181.645C57.9559 181.72 57.7313 182.019 57.7687 182.356Z" fill="#8698BF"/>
<path d="M67.2747 182.955L67.0876 184.04C67.0502 184.339 66.7882 184.564 66.4887 184.601L65.4407 184.676C64.9916 184.714 64.6173 184.302 64.7296 183.853L65.029 182.318C65.1039 181.907 65.553 181.682 65.9273 181.832L66.8256 182.169C67.125 182.318 67.3122 182.618 67.2747 182.955Z" fill="#8698BF"/>
<path d="M57.8779 137.329L55.0333 139.537L53.5361 143.654L57.7282 140.285L57.8405 139.425L57.8779 137.329Z" fill="#FFD385"/>
<path d="M90.7002 54.9858C90.7002 54.9858 111.922 63.0705 107.356 91.2919C105.559 102.408 102.041 109.894 94.181 119.251C94.181 119.251 92.9085 122.47 97.2128 124.678C99.8702 126.026 101.817 123.892 101.817 123.892C101.817 123.892 100.394 136.88 87.631 131.116L74.2314 121.909L90.7002 54.9858Z" fill="#2B2E3A"/>
<path d="M29.6554 57.3809C29.6554 57.3809 21.683 61.236 17.6781 75.197C13.6732 89.158 17.4535 96.494 22.5439 101.584C27.6342 106.675 28.3079 112.364 28.3079 112.364C28.3079 112.364 28.6073 111.54 27.6716 108.284C27.6716 108.284 25.6879 108.471 26.8482 107.723C30.4414 105.44 34.8205 68.2727 34.8205 68.2727L29.6554 57.3809Z" fill="#2B2E3A"/>
<path d="M35.2323 62.2843C35.2323 62.2843 23.068 74.8604 23.2177 89.3828C23.3674 105.515 27.4846 131.415 45.7873 136.206C53.6474 138.265 70.5278 130.367 74.1958 121.909C82.1307 103.494 94.2203 83.5814 92.536 79.1647C89.4668 71.3047 53.0859 44.5056 35.2323 62.2843Z" fill="#FAC2A8"/>
<path d="M33.7365 95.6705C32.988 95.1839 32.0148 95.3711 31.4908 96.0822C31.0042 96.8308 31.1914 97.8039 31.9025 98.3279C32.6511 98.8145 33.6242 98.6274 34.1483 97.9162C34.6723 97.1676 34.4851 96.1945 33.7365 95.6705Z" fill="#31374C"/>
<path d="M33.8116 96.1944C33.6245 96.0447 33.3251 96.1195 33.1753 96.3067C33.0256 96.4938 33.1005 96.7933 33.2876 96.943C33.4748 97.0927 33.7742 97.0178 33.9239 96.8307C34.0362 96.6061 33.9988 96.3441 33.8116 96.1944Z" fill="white"/>
<path d="M53.0853 93.0132C52.3367 92.4892 51.2887 92.6764 50.7647 93.4624C50.2407 94.211 50.4278 95.259 51.2138 95.783C51.9624 96.307 53.0104 96.1198 53.5344 95.3338C54.0584 94.5852 53.8713 93.5372 53.0853 93.0132Z" fill="#31374C"/>
<path d="M53.1603 93.5377C52.9357 93.3879 52.6737 93.4628 52.524 93.6499C52.3743 93.8745 52.4491 94.1365 52.6363 94.2862C52.8608 94.4359 53.1228 94.3611 53.2726 94.1739C53.4223 93.9868 53.3848 93.6874 53.1603 93.5377Z" fill="white"/>
<path d="M23.4048 86.0139C25.2014 87.1742 27.5594 81.8968 32.5 83.6185C32.9866 83.8056 33.3609 83.1694 32.9491 82.8325C30.7408 80.9236 26.8108 79.0522 23.4048 86.0139Z" fill="#2B2E3A"/>
<path opacity="0.3" d="M52.0013 100.349C52.3756 101.622 55.033 101.996 57.9899 101.173C60.9468 100.349 63.0054 98.665 62.6685 97.3924C62.2942 96.1198 59.6368 95.7455 56.6799 96.569C53.723 97.3924 51.627 99.0767 52.0013 100.349Z" fill="#F0808E"/>
<path opacity="0.3" d="M25.9865 100.799C25.5373 102.034 27.1842 103.755 29.6171 104.616C32.0874 105.477 34.408 105.14 34.8571 103.905C35.3063 102.67 33.6594 100.948 31.2265 100.087C28.7936 99.1892 26.4356 99.526 25.9865 100.799Z" fill="#F0808E"/>
<path d="M59.7847 82.6454C58.5496 83.9554 53.3844 79.1271 48.4812 81.0734C47.9946 81.2605 47.6203 80.6616 47.9946 80.3248C50.1281 78.3036 56.0418 75.8707 59.7847 82.6454Z" fill="#2B2E3A"/>
<path d="M36.4297 110.155C36.4297 110.155 40.5469 116.406 46.5729 109.444C46.5729 109.444 42.0066 111.653 36.4297 110.155Z" fill="#DC918B"/>
<path opacity="0.56" d="M37.4777 88.4468C37.4777 88.4468 40.6966 95.9326 36.4297 110.156C36.4297 110.156 41.8194 111.69 46.5729 109.407C46.5729 109.407 42.6803 98.9269 45.3003 92.9382C45.3378 92.9382 42.044 89.2328 37.4777 88.4468Z" fill="url(#paint0_linear)"/>
<path d="M41.7449 63.2574C41.7449 63.2574 32.8368 78.7903 20.373 81.4104L20.7473 70.1068C20.7473 70.1068 16.3307 60.0759 27.6342 50.831C46.6481 35.3354 77.6018 33.4265 90.7019 54.9856C100.733 71.4917 101.893 77.6675 101.893 77.6675L90.4025 120.224C90.4025 120.224 75.3186 135.009 65.4374 122.096C65.4374 122.096 74.0086 127.934 78.7621 113.038C83.5155 98.1036 80.2967 105.028 80.2967 105.028C80.2967 105.028 78.1258 106.6 70.6774 98.1411C63.2291 89.6821 64.6514 78.8278 64.6514 78.8278C64.6514 78.8278 43.6164 77.0312 41.7449 63.2574Z" fill="#2B2E3A"/>
<path d="M74.6821 109.632C75.4307 100.799 80.5959 96.6441 84.4136 98.1787C90.2525 100.537 90.5894 121.347 77.4144 119.7C74.0084 119.289 74.0832 113.899 74.6821 109.632Z" fill="#FAC2A8"/>
<path d="M85.8017 106.6C85.6145 105.402 85.0905 104.242 84.2671 103.418C83.8554 103.007 83.3688 102.707 82.8448 102.67C82.3208 102.595 81.8342 102.82 81.4225 103.156C80.599 103.868 80.075 104.991 79.7008 106.113C79.289 107.236 78.9896 108.397 78.765 109.594L78.0165 109.108C78.6902 108.659 79.4762 108.584 80.1873 108.621C80.8985 108.696 81.5722 108.883 82.2085 109.257C82.8073 109.632 83.3314 110.156 83.6682 110.829C84.0051 111.503 84.0425 112.252 83.9302 112.925C83.8179 113.599 83.5559 114.273 83.0694 114.834C82.6202 115.396 81.9091 115.733 81.2353 115.807C80.5616 115.882 79.8505 115.733 79.2516 115.471C78.6527 115.171 78.1287 114.685 77.979 114.048C78.0913 114.348 78.3159 114.61 78.5405 114.797C78.8025 114.984 79.0645 115.134 79.3639 115.246C79.9253 115.433 80.5616 115.508 81.1605 115.396C81.7219 115.283 82.2459 114.947 82.5828 114.497C82.7325 114.273 82.8822 114.011 82.9945 113.749C83.1068 113.487 83.1442 113.187 83.1816 112.888C83.2565 112.327 83.1816 111.728 82.9196 111.241C82.6576 110.755 82.2459 110.343 81.7593 110.081C81.2728 109.819 80.7113 109.632 80.1499 109.594C79.5885 109.557 79.027 109.669 78.6153 109.931C78.3907 110.081 78.0913 110.043 77.9416 109.819C77.8667 109.707 77.8293 109.557 77.8667 109.445C78.1287 108.247 78.4282 107.012 78.8773 105.851C79.1019 105.253 79.3639 104.691 79.7008 104.13C80.0376 103.568 80.4493 103.044 80.9733 102.632C81.4973 102.221 82.2459 101.959 82.9571 102.108C83.6682 102.258 84.2296 102.67 84.6414 103.156C85.4274 104.092 85.8391 105.365 85.8017 106.6Z" fill="#DC918B"/>
<path d="M78.4606 118.353C78.5729 119.064 78.0489 119.7 77.3377 119.812C76.6266 119.925 75.9903 119.401 75.878 118.689C75.7657 117.978 76.2897 117.342 77.0008 117.23C77.712 117.155 78.3483 117.641 78.4606 118.353Z" fill="#FFA84A"/>
<path d="M77.2668 124.828C76.4434 124.79 75.8071 124.079 75.882 123.256L76.1814 120.374C76.2188 119.924 76.5931 119.625 77.0423 119.625H77.454C77.8657 119.625 78.2026 119.924 78.2774 120.336L78.6891 123.218C78.8388 124.079 78.1651 124.865 77.2668 124.828Z" fill="#FFA84A"/>
<path d="M27.7467 146.649C27.7467 146.649 31.003 146.35 30.5165 140.361C30.4042 139.089 29.8053 136.955 29.7304 136.244C29.6556 135.533 29.7679 133.063 30.3293 132.314C30.8907 131.565 31.265 131.004 30.8159 130.443C30.3667 129.881 28.0087 129.507 26.9607 131.79C25.9127 134.073 26.4367 135.945 26.4367 135.945C26.4367 135.945 24.5653 133.624 23.6295 133.624C23.2178 133.624 18.9135 133.362 18.0152 134.447C17.6783 134.859 16.7801 143.805 16.9298 144.254C17.0421 144.703 21.1967 151.665 25.239 150.991C27.073 150.654 27.7467 146.874 27.7467 146.649Z" fill="#FAC2A8"/>
<path d="M27.8953 146.874C27.9701 147.173 27.9701 147.473 27.9327 147.735C27.8953 148.034 27.783 148.296 27.6333 148.558C27.3338 149.082 26.8472 149.494 26.3232 149.681C26.5104 149.457 26.6975 149.269 26.8847 149.045C27.0718 148.82 27.2215 148.596 27.3338 148.371C27.5584 147.959 27.7455 147.435 27.8953 146.874Z" fill="#DC918B"/>
<path d="M19.2871 142.345C19.5491 142.233 19.7737 142.158 19.9983 142.158L20.7094 142.12C21.196 142.083 21.6826 142.083 22.1691 142.12C22.2814 142.12 22.4311 142.158 22.5809 142.195C22.7306 142.233 22.8803 142.345 22.9926 142.42C23.2171 142.607 23.3669 142.794 23.5166 142.981C23.816 143.393 24.078 143.767 24.34 144.216C24.4523 144.441 24.5272 144.703 24.5646 144.965C24.602 145.227 24.5646 145.526 24.4149 145.788C24.2651 146.05 24.078 146.238 23.8534 146.387C23.6289 146.537 23.3669 146.612 23.1423 146.687C22.8803 146.762 22.6557 146.799 22.3937 146.836C22.2814 146.836 22.1317 146.874 22.0194 146.874C21.8697 146.874 21.7948 146.874 21.6077 146.836C21.3083 146.762 21.1211 146.612 20.8966 146.462C20.7843 146.387 20.7094 146.312 20.5971 146.238C20.4848 146.163 20.41 146.088 20.3351 145.938L20.5971 145.751C20.8966 146.013 21.3083 146.387 21.6826 146.462C21.7574 146.462 21.8697 146.462 21.982 146.462C22.0943 146.462 22.2066 146.462 22.3188 146.425C22.5434 146.387 22.768 146.35 22.9926 146.275C23.4043 146.163 23.816 145.938 24.0031 145.601C24.1903 145.264 24.078 144.815 23.8909 144.441C23.816 144.254 23.6663 144.029 23.5166 143.842C23.3669 143.655 23.2546 143.468 23.1049 143.281C22.9551 143.094 22.8054 142.906 22.6557 142.794C22.5809 142.719 22.506 142.682 22.4311 142.644C22.3563 142.607 22.244 142.607 22.1317 142.607C21.6826 142.569 21.196 142.569 20.7094 142.607C20.2603 142.532 19.7363 142.644 19.2871 142.345Z" fill="#DC918B"/>
<path d="M19.4766 139.575C20.2251 139.388 20.9737 139.463 21.7223 139.5C22.0966 139.538 22.4709 139.538 22.8452 139.613C23.0323 139.65 23.2194 139.65 23.444 139.725C23.706 139.8 23.8183 139.987 23.968 140.137C24.23 140.474 24.3797 140.848 24.492 141.185C24.6043 141.559 24.6792 141.933 24.754 142.308C24.7915 142.682 24.7915 143.094 24.754 143.468C24.6792 143.88 24.5669 144.216 24.3797 144.591L24.0429 144.441C24.1552 144.142 24.3049 143.767 24.3423 143.43C24.3797 143.094 24.3423 142.719 24.3049 142.382C24.1926 141.671 24.0055 140.96 23.5937 140.436C23.4815 140.324 23.3692 140.212 23.2569 140.174C23.1446 140.137 22.92 140.099 22.7703 140.062C22.396 140.024 22.0592 139.987 21.6849 139.95C20.9363 139.875 20.1877 139.875 19.4766 139.575Z" fill="#DC918B"/>
<path d="M24.4528 142.158C24.7897 141.933 25.0517 141.596 25.2014 141.222C25.3511 140.848 25.3885 140.436 25.3511 140.024C25.2388 139.201 24.902 138.34 24.4154 137.704C24.1534 137.367 23.854 137.105 23.4797 137.03C23.0679 136.918 22.6562 136.88 22.2071 136.88C21.7579 136.843 21.3088 136.88 20.8596 136.843C20.6351 136.843 20.4105 136.805 20.1859 136.768C19.9614 136.731 19.7368 136.693 19.5122 136.543C19.7368 136.543 19.9614 136.506 20.1859 136.506C20.4105 136.469 20.6351 136.469 20.8596 136.469C21.3088 136.431 21.7579 136.431 22.2071 136.469C22.6562 136.469 23.1054 136.506 23.592 136.618C24.0785 136.731 24.4902 137.067 24.7897 137.442C25.0891 137.816 25.3137 138.228 25.5008 138.677C25.688 139.126 25.8003 139.575 25.8377 140.024C25.8751 140.511 25.8377 140.997 25.6505 141.447C25.4634 141.896 25.1265 142.27 24.7148 142.532L24.4528 142.158Z" fill="#DC918B"/>
<path d="M25.6501 135.046C25.987 135.271 26.249 135.496 26.4735 135.87C26.6607 136.244 26.6607 136.693 26.5858 137.068C26.511 137.442 26.3987 137.854 26.0993 138.153C25.9495 138.303 25.7624 138.452 25.5378 138.49C25.3133 138.565 25.0887 138.527 24.939 138.527V138.153C25.3133 138.19 25.6127 138.116 25.7998 137.854C25.987 137.629 26.1367 137.255 26.1741 136.918C26.249 136.581 26.2115 136.244 26.0993 135.945C26.0244 135.72 25.7624 135.421 25.6501 135.046Z" fill="#DC918B"/>
<path d="M22.1681 145.602C21.9061 145.714 21.6066 145.789 21.3072 145.864C21.0078 145.938 20.7458 145.938 20.4463 145.976C20.1469 145.976 19.8475 145.976 19.548 145.901C19.2486 145.826 18.9492 145.751 18.7246 145.489C19.024 145.564 19.286 145.564 19.548 145.564C19.81 145.564 20.1095 145.564 20.3715 145.527C20.6709 145.527 20.9329 145.489 21.2323 145.489C21.5692 145.527 21.8686 145.527 22.1681 145.602Z" fill="#DC918B"/>
<path d="M57.1327 115.096C57.1327 115.096 54.7373 123.518 47.0269 124.154C39.0546 124.828 36.3223 118.278 36.3223 118.278C36.3223 118.278 43.5835 121.459 57.1327 115.096Z" fill="#343948"/>
<path d="M57.0171 115.133C56.9796 115.208 56.9422 115.358 56.9048 115.433C57.0171 115.208 57.0919 115.059 57.0919 115.059C57.0919 115.133 57.0545 115.133 57.0171 115.133Z" fill="#31374C"/>
<path d="M36.3184 118.277C36.3184 118.277 37.3289 118.914 37.5535 119.438C40.2858 120.074 46.4242 121.047 56.3054 116.893C56.9417 115.919 56.6797 115.882 56.9417 115.47C56.9791 115.358 57.0165 115.246 57.054 115.171C43.0181 118.09 36.3184 118.277 36.3184 118.277Z" fill="white"/>
<path d="M41.0366 122.956C42.1969 123.967 44.2555 124.378 46.2392 124.229C48.5224 124.079 50.9178 123.068 52.8267 121.309C48.1855 120.074 42.3092 122.245 41.0366 122.956Z" fill="#F97A7A"/>
<path d="M35.2739 117.342L36.9582 118.315L36.6962 118.278C38.4179 117.679 40.2145 117.529 41.9736 117.304C43.7328 117.08 45.492 116.893 47.2137 116.668C48.9728 116.444 50.6946 116.144 52.4163 115.807C54.138 115.433 55.8598 115.021 57.5441 114.535L57.7312 115.171C56.0469 115.658 54.3252 116.144 52.566 116.481C50.8443 116.855 49.0851 117.155 47.326 117.379C45.5668 117.641 43.8077 117.828 42.0485 118.016C40.2893 118.203 38.5302 118.39 36.9207 118.876H36.8833C36.8085 118.914 36.7336 118.876 36.6587 118.839L34.937 117.828L35.2739 117.342Z" fill="#DC918B"/>
<path d="M55.1128 113.674C55.5619 113.524 56.0485 113.562 56.5351 113.674C57.0217 113.824 57.4334 114.048 57.8077 114.385C58.1445 114.722 58.444 115.134 58.6311 115.583C58.7434 115.807 58.7808 116.032 58.8557 116.257C58.8931 116.481 58.9305 116.706 58.9305 116.968C58.7808 116.781 58.6685 116.556 58.5562 116.369C58.444 116.182 58.3317 115.995 58.182 115.807C57.92 115.471 57.658 115.134 57.3585 114.834C56.7597 114.31 56.0111 113.899 55.1128 113.674Z" fill="#DC918B"/>
<path d="M35.2724 119.363C35.0478 119.139 34.8981 118.802 34.8607 118.465C34.7858 118.128 34.8232 117.754 34.973 117.454C35.1227 117.118 35.3847 116.856 35.7215 116.706C35.8713 116.631 36.0584 116.594 36.2081 116.556C36.3578 116.556 36.545 116.556 36.6947 116.594C36.5824 116.706 36.4327 116.781 36.3204 116.856C36.2081 116.968 36.0958 117.005 35.9835 117.118C35.7964 117.305 35.6467 117.492 35.5344 117.716C35.3472 118.128 35.3098 118.69 35.2724 119.363Z" fill="#DC918B"/>
<path d="M37.1062 118.465C37.5554 119.401 38.2291 120.337 38.9776 121.085C39.7262 121.871 40.6245 122.507 41.5977 122.994C42.5708 123.481 43.6188 123.78 44.7043 123.892L45.116 123.93C45.2657 123.93 45.378 123.93 45.5277 123.93H46.3511C46.6131 123.93 46.8751 123.892 47.1746 123.855C47.4366 123.817 47.6986 123.78 47.9606 123.743C50.094 123.331 52.0029 122.133 53.5001 120.524C54.2486 119.738 54.8849 118.839 55.4464 117.904C56.0078 116.968 56.4944 115.957 56.8687 114.947L57.4675 115.134C57.0932 116.219 56.6067 117.267 56.0078 118.241C55.4464 119.214 54.7352 120.149 53.9866 120.973C52.452 122.657 50.3935 123.967 48.1103 124.379C47.8109 124.454 47.5489 124.454 47.2494 124.529C46.95 124.566 46.688 124.566 46.3886 124.603H45.5277C45.378 124.603 45.2283 124.603 45.0786 124.603L44.6668 124.529C43.5065 124.416 42.3837 124.079 41.3731 123.555C40.3251 123.031 39.3894 122.32 38.6034 121.497C37.8174 120.673 37.1062 119.738 36.6196 118.652L37.1062 118.465Z" fill="#DC918B"/>
<path d="M64.0151 173.785C68.4317 172.362 73.9338 169.368 73.9338 169.368C73.9338 169.368 73.5221 168.657 73.5969 168.432C73.7841 168.021 74.4578 167.983 74.4578 167.983C74.1209 166.449 73.0355 160.984 72.2869 157.765C70.5652 150.541 75.5807 141.895 78.6873 140.997C83.0664 142.008 87.0713 162.07 85.6116 174.309C85.387 176.068 82.0933 179.848 77.4895 181.121C73.7092 182.169 63.4911 183.516 63.042 182.244C64.1274 181.682 65.4749 176.667 64.0151 173.785Z" fill="white"/>
<path d="M64.0181 173.785C64.8789 173.448 65.7024 173.111 66.5258 172.775C67.3492 172.4 68.1727 172.026 68.9961 171.614C70.6055 170.828 72.215 170.005 73.787 169.106L73.6747 169.518C73.5624 169.368 73.4876 169.219 73.4127 169.032C73.3753 168.957 73.3379 168.844 73.3004 168.77C73.3004 168.657 73.2256 168.545 73.3004 168.32C73.4127 168.058 73.6373 167.909 73.8244 167.834C74.0116 167.759 74.1987 167.722 74.4233 167.684L74.1239 168.096L73.0384 163.006C72.6641 161.321 72.2898 159.6 71.9156 157.915V157.878C71.7658 156.268 71.8033 154.696 71.953 153.087C72.1027 151.515 72.4396 149.943 72.9261 148.408C73.4127 146.911 74.1239 145.451 75.097 144.179C76.0702 142.906 77.2679 141.821 78.6528 141.072C77.3427 141.933 76.2199 143.056 75.359 144.366C74.4982 145.676 73.8619 147.098 73.4501 148.595C73.001 150.093 72.7764 151.627 72.6267 153.162C72.5518 153.948 72.5144 154.696 72.5519 155.482C72.5519 156.268 72.5893 157.054 72.6641 157.803V157.766C73.0759 159.45 73.4501 161.172 73.787 162.856C74.1613 164.54 74.4607 166.262 74.7976 167.984L74.8724 168.358L74.4982 168.395C74.3859 168.395 74.2361 168.433 74.1239 168.47C74.0116 168.508 73.9367 168.582 73.8993 168.62C73.8993 168.545 73.8993 168.582 73.8993 168.657C73.8993 168.732 73.9367 168.77 73.9741 168.844C74.0116 168.994 74.0864 169.144 74.1613 169.256L74.311 169.518L74.049 169.668C72.4396 170.491 70.7927 171.277 69.1084 171.989C67.4615 172.625 65.7772 173.299 64.0181 173.785Z" fill="#BFC6F2"/>
<path d="M17.608 153.086C17.9823 152.674 18.2443 152.637 18.8432 152.45L38.9799 150.691C40.4022 150.541 41.6748 151.177 42.1988 152.225L55.4861 179.137C55.7855 179.735 55.9352 180.372 55.5609 181.008C55.1492 181.682 55.0743 181.757 54.5878 182.243L37.9319 182.954L17.3086 154.808C17.0092 154.284 17.1589 153.61 17.608 153.086Z" fill="#E1E4F4"/>
<path d="M34.9768 184.451L53.3544 182.804C54.5147 182.692 55.3007 181.681 54.8516 180.82L41.0777 153.235C40.5912 152.262 39.3934 151.663 38.046 151.776L18.2836 153.535C17.535 153.61 17.0484 154.246 17.3104 154.807L31.2339 182.654C31.8328 183.89 33.33 184.601 34.9768 184.451Z" fill="#BFC6F2"/>
<path d="M37.8109 168.744C38.1133 167.584 37.1584 166.331 35.6781 165.945C34.1978 165.559 32.7527 166.187 32.4503 167.347C32.148 168.507 33.1028 169.76 34.5831 170.146C36.0634 170.532 37.5085 169.904 37.8109 168.744Z" fill="#E1E4F4"/>
<path d="M35.5344 158.139L36.0209 158.102C36.4327 158.064 36.6947 157.727 36.5449 157.428L36.0209 156.417C35.8712 156.155 35.5344 155.968 35.1601 156.006L34.6735 156.043C34.2618 156.081 33.9998 156.417 34.1495 156.717L34.6735 157.727C34.8232 157.989 35.1601 158.139 35.5344 158.139Z" fill="#545B72"/>
<path d="M38.8964 156.956C38.9194 156.543 38.5699 156.188 38.1158 156.163C37.6617 156.138 37.275 156.452 37.252 156.865C37.2291 157.278 37.5786 157.633 38.0327 157.658C38.4867 157.683 38.8735 157.369 38.8964 156.956Z" fill="#545B72"/>
<path d="M62.3727 175.918C62.3727 175.918 61.7738 174.084 60.651 174.271C59.5281 174.458 56.5712 180.971 58.4801 181.158C60.389 181.345 62.5973 177.453 62.3727 175.918Z" fill="#31374C"/>
<path d="M62.145 176.18C63.717 179.998 61.5462 181.682 61.5462 181.682C61.5462 181.682 58.8139 180.821 57.0547 180.447C55.595 181.195 52.7878 177.003 52.5258 176.479C51.403 176.404 50.5047 177.415 49.6064 177.864C48.7081 178.351 48.2964 177.153 48.1466 176.592C47.9969 176.03 48.1092 176.068 47.8846 176.517C47.6601 177.003 46.9115 177.49 46.4623 177.003C46.0132 176.479 45.9758 176.03 46.0506 175.431C45.6389 175.806 45.4143 176.105 44.9278 175.506C44.4038 174.907 44.2166 174.308 44.5909 173.41C44.9652 172.512 45.6389 170.828 46.0506 170.004C46.4998 169.181 46.5746 169.106 47.3981 168.657C48.2215 168.208 49.6438 167.684 50.4672 167.047C49.9058 166.299 49.7935 165.812 49.0824 165.513C47.5478 164.951 46.9863 166.112 45.6015 165.924C44.9278 165.812 43.9546 165.475 44.3663 164.951C44.9278 164.24 47.9595 163.042 48.6706 162.818C49.3818 162.593 50.0181 162.593 50.6544 163.005C51.5901 163.604 53.1621 164.39 53.6861 165.288C54.2101 166.186 54.3598 166.785 55.1833 167.983C56.0067 169.181 58.739 172.886 59.4876 174.084C60.2362 175.319 62.145 176.18 62.145 176.18Z" fill="#FAC2A8"/>
<path d="M48.0366 176.218C48.1863 175.581 48.4858 175.095 48.8975 174.608C49.1221 174.384 49.3841 174.159 49.6835 174.047C49.9829 173.897 50.2449 173.785 50.5069 173.672C51.0684 173.448 51.6672 173.336 52.2287 173.148C52.3784 173.111 52.4907 173.036 52.6404 172.999C52.7901 172.924 52.9024 172.849 53.0895 172.812C53.2392 172.812 53.4264 172.812 53.5387 172.924C53.651 173.036 53.7258 173.148 53.8755 173.223C53.7258 173.186 53.6135 173.074 53.5012 172.999C53.3889 172.924 53.2392 172.924 53.0895 172.924C52.9772 172.961 52.8275 173.036 52.7152 173.111C52.6029 173.186 52.4532 173.261 52.3035 173.336C51.7421 173.56 51.1806 173.747 50.6566 174.009C50.1326 174.271 49.5712 174.533 49.2718 174.945C48.8975 175.394 48.5232 175.843 48.0366 176.218Z" fill="#DC918B"/>
<path d="M46.0151 175.431C46.2771 174.608 46.5017 173.784 46.8011 172.961C46.9509 172.549 47.1006 172.138 47.3626 171.763C47.4 171.651 47.4749 171.576 47.5497 171.464C47.6246 171.352 47.6994 171.277 47.8117 171.202C47.9989 171.052 48.186 170.94 48.3732 170.828C49.1592 170.378 50.02 170.191 50.806 169.892C51.2178 169.78 51.6295 169.592 52.1535 169.63C52.378 169.667 52.64 169.78 52.7898 169.929C52.9395 170.079 53.0892 170.229 53.2763 170.341C53.0518 170.304 52.8646 170.154 52.6775 170.042C52.4903 169.929 52.3032 169.892 52.116 169.892C51.7418 169.892 51.3675 170.116 50.9557 170.266C50.1323 170.603 49.3089 170.828 48.5977 171.239C48.4106 171.352 48.2609 171.426 48.1112 171.576C47.9614 171.688 47.8492 171.838 47.7369 171.988C47.5123 172.325 47.3251 172.699 47.138 173.111C46.7637 173.897 46.4269 174.683 46.0151 175.431Z" fill="#DC918B"/>
<path d="M50.5811 167.16C50.7682 166.972 50.9928 166.823 51.2548 166.748C51.5168 166.636 51.7788 166.598 52.0408 166.598C52.1905 166.598 52.3402 166.636 52.4899 166.71C52.6396 166.785 52.7519 166.898 52.8268 167.01C52.9765 167.234 53.0514 167.422 53.2011 167.646C52.9391 167.646 52.6771 167.422 52.4899 167.309C52.3028 167.197 52.1905 167.16 51.9659 167.16C51.7413 167.16 51.5168 167.16 51.2922 167.197C51.1051 167.16 50.8805 167.16 50.5811 167.16Z" fill="#DC918B"/>
<path d="M64.0155 173.785C64.0155 173.785 67.9082 180.222 63.0424 182.318L58.4761 181.158C58.4761 181.158 61.6575 179.848 61.6201 177.79C61.5827 175.731 61.0587 174.271 61.0587 174.271L64.0155 173.785Z" fill="#BFC6F2"/>
</g>
</g>
<defs>
<linearGradient id="paint0_linear" x1="41.2326" y1="92.8819" x2="41.6214" y2="108.501" gradientUnits="userSpaceOnUse">
<stop stop-color="#FAC2A8"/>
<stop offset="1" stop-color="#DC918B"/>
</linearGradient>
</defs>
</svg>
