<svg width="88" height="160" viewBox="0 0 88 160" fill="none" xmlns="http://www.w3.org/2000/svg">
<mask id="mask0" mask-type="alpha" maskUnits="userSpaceOnUse" x="0" y="0" width="88" height="160">
<path d="M0 0H88V160H0V0Z" fill="#C4C4C4"/>
</mask>
<g mask="url(#mask0)">
<path d="M8.0498 107.757C8.0498 107.757 9.2044 111.466 12.5632 110.836C17.1466 109.996 17.7414 104.993 17.7414 104.993C17.7414 104.993 17.1466 103.769 14.5575 104.223C8.88951 105.168 8.0498 107.757 8.0498 107.757Z" fill="#31374C"/>
<path d="M7.17088 101.739C7.17088 101.739 13.1888 116.819 15.6379 121.158C16.9325 123.432 23.8601 120.738 23.7551 120.003C23.4752 118.219 13.3287 99.675 13.3287 99.675C12.4191 95.1615 6.15623 97.0859 7.17088 101.739Z" fill="#FAC2A8"/>
<path d="M17.7414 104.993L21.4502 114.089C21.4502 114.089 21.8 112.865 22.01 112.76C22.2899 112.62 23.2345 112.83 23.2345 112.83C23.7943 111.36 26.5584 106.462 28.0279 103.978C30.582 99.6394 31.8765 98.9397 34.1857 98.1699C45.1719 104.013 27.2581 125.46 21.5201 126.825C14.0327 128.609 8.0498 107.687 8.0498 107.687C8.74956 109.121 16.7268 108.316 17.7414 104.993Z" fill="white"/>
<path d="M8.05029 107.756C8.40017 108.491 8.64509 109.261 8.89 110.031L9.23988 111.185C9.34484 111.57 9.4848 111.955 9.58976 112.34C9.34484 112.025 9.13492 111.64 8.95998 111.29C8.78504 110.905 8.64509 110.52 8.54012 110.136C8.29521 109.366 8.12027 108.561 8.05029 107.756Z" fill="#BFC6F2"/>
<path d="M17.7432 104.993C18.093 105.728 18.4429 106.498 18.7578 107.232C19.1077 107.967 19.4226 108.737 19.7725 109.471C20.4372 110.976 21.067 112.48 21.7318 113.985L21.137 114.02C21.207 113.775 21.2769 113.565 21.3469 113.355C21.4169 113.11 21.4869 112.935 21.6618 112.655C21.6968 112.62 21.6968 112.585 21.7668 112.515C21.8367 112.445 21.8717 112.445 21.9417 112.41C22.0467 112.375 22.1166 112.375 22.1866 112.375C22.3266 112.375 22.4665 112.375 22.5715 112.375C22.8164 112.41 23.0613 112.445 23.2712 112.48L22.8864 112.69C23.2013 111.921 23.5511 111.221 23.901 110.521C24.2509 109.821 24.6358 109.122 25.0206 108.457C25.7904 107.092 26.5601 105.728 27.3648 104.398C28.1695 103.069 29.0093 101.704 30.0939 100.515C30.6187 99.9198 31.2485 99.395 31.9482 99.0101C32.648 98.6253 33.3827 98.3803 34.1525 98.1704C33.4177 98.4503 32.683 98.7652 32.0532 99.1851C31.4234 99.6049 30.8986 100.165 30.4088 100.76C29.4641 101.949 28.6944 103.314 27.9246 104.678C27.1549 106.043 26.4202 107.407 25.6504 108.772L24.5308 110.836C24.1809 111.536 23.7961 112.236 23.5162 112.9L23.4112 113.18L23.1313 113.11C22.9214 113.075 22.7114 113.005 22.5015 113.005C22.3965 113.005 22.2916 112.97 22.2216 112.97C22.1866 112.97 22.1516 112.97 22.1166 112.97C22.1166 113.005 22.1866 112.9 22.1516 112.935C22.0817 113.04 21.9767 113.285 21.9067 113.46C21.8367 113.67 21.7668 113.88 21.6968 114.09L21.4519 114.93L21.137 114.125C20.5422 112.585 19.9474 111.081 19.3876 109.541C19.1077 108.772 18.8278 108.002 18.5479 107.232C18.303 106.533 18.0231 105.763 17.7432 104.993Z" fill="#BFC6F2"/>
<path d="M22.0078 114.58C22.0078 114.58 23.1624 115.734 23.4423 116.434C23.7572 117.169 25.0867 114.755 22.0078 114.58Z" fill="#F7F7FA"/>
<path d="M26.6612 139.631L24.352 165.871C24.247 167.061 25.0517 168.146 26.2063 168.391C31.6994 169.58 47.7239 172.064 66.4074 166.326L30.5798 107.407L26.6612 139.631Z" fill="#8698BF"/>
<path d="M13.0516 71.9292C13.0516 71.9292 14.9409 84.2799 10.7773 85.2246C10.7773 85.2246 13.6463 89.703 18.6146 88.2335C18.6146 88.2335 17.39 89.9479 16.1305 90.0879C16.1305 90.0879 19.2094 92.712 21.9035 91.9423C21.9035 91.9423 25.8571 95.0212 29.4259 95.7909C40.0272 98.0651 52.3079 92.8869 48.8092 88.0236C43.0012 79.8365 13.0516 71.9292 13.0516 71.9292Z" fill="#2B2E3A"/>
<path d="M68.9263 89.1085C68.9263 89.1085 60.9841 99.7448 48.7033 94.9514C40.4812 91.7326 56.4006 80.5015 56.4006 80.5015C56.4006 80.5015 78.0581 85.6097 68.9263 89.1085Z" fill="#2B2E3A"/>
<path d="M47.3384 92.782C47.3384 92.782 51.6419 91.8023 54.6159 94.7763L48.9128 98.9048L47.3384 92.782Z" fill="#BFC6F2"/>
<path d="M41.2522 90.5779L41.1122 96.8757L36.4238 98.1353L42.0919 104.013L53.0081 98.3802L49.4393 96.3859L49.8242 83.0205L41.2522 90.5779Z" fill="#FAC2A8"/>
<path d="M41.1465 95.4411C41.1465 95.4411 47.0594 95.0212 49.5436 92.6771L49.9984 78.437L41.2514 89.1783L41.1465 95.4411Z" fill="#DC918B"/>
<path d="M28.4844 151.562C28.4844 151.562 29.569 176.123 29.8139 177.698C30.0588 179.272 30.3037 208.277 30.3037 208.277C30.3037 208.277 35.237 209.607 39.0857 207.892C39.0857 207.892 38.8758 204.218 38.9108 202.854C38.9807 199.425 40.5902 189.908 40.6951 185.78C40.7651 182.631 40.1003 178.537 40.1003 178.537L42.8294 154.781C42.7944 154.781 39.8204 148.763 28.4844 151.562Z" fill="#343948"/>
<path d="M56.0527 140.085C56.0527 140.085 58.117 148.413 58.117 149.147C58.117 149.882 58.6418 179.377 58.6418 179.377C58.6418 179.377 60.2512 185.29 60.4961 187.319C61.0909 192.182 61.5108 214.12 61.5108 214.12C61.5108 214.12 58.2919 216.674 52.7638 214.12C52.5189 208.767 52.0991 204.638 52.0991 204.638L49.0901 183.085L41.5677 157.124C34.3252 155.69 28.6922 152.016 28.4473 151.561C29.4269 140.575 30.1617 138.756 30.1617 138.756L56.0527 140.085Z" fill="#474E64"/>
<path d="M28.6572 149.742C29.5669 140.365 30.2317 138.756 30.2317 138.756L56.0877 140.085C56.0877 140.085 58.152 148.413 58.152 149.147C58.152 149.182 58.152 149.217 58.152 149.287C52.239 152.856 41.1479 155.76 28.6572 149.742Z" fill="#474E64"/>
<path d="M49.4419 96.3857C45.8731 97.1905 41.5346 100.794 41.5346 100.794C41.5346 100.794 40.1701 97.8202 40.45 97.1555C39.6103 97.3654 36.0765 98.8349 36.0765 98.8349C36.0765 98.8349 32.2978 107.302 31.6681 110.591C31.5631 111.955 32.4378 125.985 32.4378 125.985C32.4378 125.985 31.5631 132.038 29.1489 141.59C33.3825 145.964 52.8357 146.803 57.9089 141.73C56.1596 136.797 54.2702 129.589 54.1303 127.63C54.0253 125.846 55.7047 113.425 57.5941 106.637C59.5534 101.949 55.5298 98.6949 55.5298 98.6949L49.4419 96.3857Z" fill="#FFB75E"/>
<path d="M36.9874 139.316C37.3159 139.316 37.5822 139.049 37.5822 138.721C37.5822 138.392 37.3159 138.126 36.9874 138.126C36.6589 138.126 36.3926 138.392 36.3926 138.721C36.3926 139.049 36.6589 139.316 36.9874 139.316Z" fill="#E88636"/>
<path d="M37.9649 128.469C38.2934 128.469 38.5597 128.203 38.5597 127.875C38.5597 127.546 38.2934 127.28 37.9649 127.28C37.6364 127.28 37.3701 127.546 37.3701 127.875C37.3701 128.203 37.6364 128.469 37.9649 128.469Z" fill="#E88636"/>
<path d="M38.6636 114.65C38.9921 114.65 39.2584 114.383 39.2584 114.055C39.2584 113.726 38.9921 113.46 38.6636 113.46C38.3351 113.46 38.0688 113.726 38.0688 114.055C38.0688 114.383 38.3351 114.65 38.6636 114.65Z" fill="#E88636"/>
<path d="M41.605 105.203C41.9335 105.203 42.1998 104.936 42.1998 104.608C42.1998 104.279 41.9335 104.013 41.605 104.013C41.2766 104.013 41.0103 104.279 41.0103 104.608C41.0103 104.936 41.2766 105.203 41.605 105.203Z" fill="#E88636"/>
<path d="M35.3046 144.634C35.2696 144.634 35.2696 144.634 35.3046 144.634C35.0947 144.599 34.9547 144.459 34.9897 144.284C35.0247 144.109 36.8441 125.811 36.0394 116.294C35.3746 108.597 41.0426 100.934 41.2875 100.619C41.3925 100.479 41.6024 100.444 41.7424 100.549C41.8823 100.654 41.9173 100.864 41.8124 101.004C41.7424 101.074 36.0744 108.806 36.7041 116.224C37.5089 125.811 35.6895 144.144 35.6545 144.319C35.6195 144.494 35.4446 144.634 35.3046 144.634Z" fill="#E88636"/>
<path d="M49.476 94.4269C47.9016 95.4415 45.8373 96.7711 43.1782 97.8907L44.3678 103.069C47.4467 102.124 50.0009 99.4651 52.3101 95.8264L49.546 93.0273L49.476 94.4269Z" fill="#FFD385"/>
<path d="M43.1806 97.9253L41.5361 100.794L43.6004 99.6747L43.1806 97.9253Z" fill="#E88636"/>
<path d="M41.0089 97.6802L41.5337 100.794L39.7144 98.7298L41.0089 97.6802Z" fill="#E88636"/>
<path d="M40.0659 96.5259C40.0659 96.5259 35.4825 102.019 32.8234 108.772C29.9194 116.084 29.6395 132.388 26.6655 139.631C26.6655 139.631 27.6802 130.779 28.17 121.752C28.4849 115.384 28.7998 112.9 28.9747 110.171C29.2546 106.008 34.9926 97.8904 34.9926 97.8904C34.9926 97.8904 36.4271 98.1353 40.0659 96.5259Z" fill="white"/>
<path d="M32.8203 108.806C34.5347 104.993 36.9489 100.444 40.2377 97.1905L41.1474 96.8756L41.1824 94.6714C39.6779 94.9863 36.634 96.5607 35.2345 99.0099C32.9603 103.033 32.8203 108.806 32.8203 108.806Z" fill="#E1E4F4"/>
<path d="M30.6534 113.11L29.1489 112.97C30.1286 102.089 35.2018 94.0768 41.1498 93.9019L41.1848 95.4063C36.8463 95.5813 31.6681 101.809 30.6534 113.11Z" fill="#8698BF"/>
<path d="M30.4654 115.407C31.0763 114.244 30.7116 112.849 29.6509 112.292C28.5901 111.735 27.235 112.227 26.6241 113.39C26.0133 114.553 26.378 115.948 27.4387 116.505C28.4995 117.062 29.8546 116.57 30.4654 115.407Z" fill="#57617F"/>
<path d="M32.8713 116.678C33.9044 114.711 33.5768 112.504 32.1397 111.75C30.7026 110.995 28.7 111.978 27.667 113.946C26.6339 115.913 26.9614 118.12 28.3986 118.875C29.8357 119.629 31.8382 118.646 32.8713 116.678Z" fill="#8698BF"/>
<path d="M52.9406 93.8315C52.9406 93.8315 46.9227 110.031 46.153 125.461C45.4882 138.266 44.4736 169.825 46.4679 171.155C50.5965 173.884 57.804 172.064 61.9675 170.665C66.1311 169.265 68.8251 167.901 69.5949 164.402C70.2596 161.393 55.7047 134.697 60.603 98.38C58.1538 96.6656 55.7047 95.6509 55.7047 95.6509L52.9406 93.8315Z" fill="white"/>
<path d="M54.6562 150.792L62.8783 148.308C62.8783 148.308 64.5228 155.061 62.8783 157.44C61.2339 159.819 59.3096 161.603 55.6358 160.449C51.9971 159.294 54.6562 150.792 54.6562 150.792Z" fill="#E1E4F4"/>
<path d="M52.8021 94.2168L54.6215 94.7766C54.6215 94.7766 47.1691 115.944 46.5393 121.297C46.5393 121.297 42.7956 104.013 52.8021 94.2168Z" fill="#E1E4F4"/>
<path d="M47.5867 118.183L46.1172 117.833C47.2018 113.075 49.406 107.862 51.1554 103.698C52.5899 100.305 54.0594 96.7708 53.8495 95.8611C53.2197 93.132 49.546 92.7472 49.511 92.7472L49.651 91.2427C49.8609 91.2777 54.4793 91.6975 55.354 95.5112C55.6689 96.8407 54.6192 99.4298 52.5899 104.293C50.8056 108.387 48.6713 113.53 47.5867 118.183Z" fill="#8698BF"/>
<path d="M51.858 128.54C51.3332 128.54 50.9134 128.155 50.8784 127.63C50.3885 121.927 49.024 119.023 46.8898 119.023C43.6709 119.023 41.8865 124.376 41.0818 127.56C40.9418 128.085 40.417 128.435 39.8922 128.295C39.3674 128.155 39.0175 127.63 39.1574 127.105C40.8019 120.423 43.391 117.029 46.8898 117.029C46.8898 117.029 46.8898 117.029 46.9247 117.029C51.998 117.064 52.6628 124.901 52.9077 127.455C52.9427 128.015 52.5578 128.47 51.998 128.54C51.893 128.54 51.858 128.54 51.858 128.54Z" fill="#8698BF"/>
<path d="M49.548 138.686C49.1982 138.686 48.9183 138.651 48.8483 138.651C48.4984 138.581 48.2535 138.266 48.2885 137.882C48.3585 137.532 48.6733 137.287 49.0582 137.322C49.4081 137.392 50.4227 137.427 50.9825 136.937C51.2974 136.692 51.4374 136.307 51.4374 135.782C51.4724 133.753 51.5074 130.674 51.1925 127.595C51.1575 127.245 51.4374 126.895 51.7873 126.86C52.1371 126.825 52.487 127.105 52.522 127.455C52.8369 130.604 52.8369 133.718 52.7669 135.817C52.7319 136.972 52.2421 137.602 51.8223 137.952C51.0875 138.546 50.1778 138.686 49.548 138.686Z" fill="#8698BF"/>
<path d="M41.1152 138.162C40.6254 138.162 39.9256 138.057 39.3658 137.567C38.5611 136.902 38.2112 135.747 38.2812 134.173C38.3862 132.599 38.736 129.904 39.4358 127.14C39.5408 126.791 39.8906 126.581 40.2405 126.651C40.5904 126.756 40.8003 127.105 40.7303 127.455C40.0306 130.149 39.6807 132.704 39.6107 134.243C39.5408 135.363 39.7507 136.167 40.2055 136.517C40.7303 136.937 41.4651 136.797 41.4651 136.762C41.815 136.692 42.1648 136.902 42.2698 137.252C42.3398 137.602 42.1299 137.952 41.78 138.057C41.745 138.092 41.4651 138.162 41.1152 138.162Z" fill="#8698BF"/>
<path d="M41.0448 137.007L41.1498 138.057C41.1848 138.336 41.3947 138.581 41.7096 138.616L42.6543 138.721C43.0741 138.756 43.424 138.406 43.354 137.987L43.1091 136.552C43.0392 136.167 42.6543 135.922 42.3044 136.062L41.4647 136.342C41.2198 136.412 41.0099 136.692 41.0448 137.007Z" fill="#8698BF"/>
<path d="M49.9312 137.567L49.7562 138.581C49.7213 138.861 49.4763 139.071 49.1964 139.106L48.2168 139.176C47.7969 139.211 47.447 138.826 47.552 138.406L47.8319 136.972C47.9019 136.587 48.3217 136.377 48.6716 136.517L49.5113 136.832C49.7912 136.972 49.9662 137.252 49.9312 137.567Z" fill="#8698BF"/>
<path d="M41.147 94.916L38.4879 96.9803L37.0884 100.829L41.007 97.6801L41.112 96.8753L41.147 94.916Z" fill="#FFD385"/>
<path d="M71.8287 17.9434C71.8287 17.9434 91.6669 25.5007 87.3983 51.8816C85.7189 62.273 82.4301 69.2706 75.0826 78.0175C75.0826 78.0175 73.893 81.0265 77.9166 83.0908C80.4008 84.3503 82.2201 82.356 82.2201 82.356C82.2201 82.356 80.8906 94.4968 68.9597 89.1087L56.4341 80.5017L71.8287 17.9434Z" fill="#2B2E3A"/>
<path d="M14.7648 20.1821C14.7648 20.1821 7.31238 23.7859 3.56868 36.8364C-0.175026 49.8868 3.35875 56.7444 8.1171 61.5028C12.8754 66.2611 13.5052 71.5793 13.5052 71.5793C13.5052 71.5793 13.7851 70.8096 12.9104 67.7656C12.9104 67.7656 11.0561 67.9406 12.1407 67.2408C15.4995 65.1065 19.5931 30.3636 19.5931 30.3636L14.7648 20.1821Z" fill="#2B2E3A"/>
<path d="M19.978 24.7657C19.978 24.7657 8.60694 36.5216 8.74689 50.0969C8.88684 65.1767 12.7355 89.3883 29.8446 93.8667C37.192 95.7911 52.9715 88.4086 56.4004 80.5014C63.8178 63.2873 75.1189 44.6738 73.5444 40.5452C70.6754 33.1978 36.6672 8.14646 19.978 24.7657Z" fill="#FAC2A8"/>
<path d="M18.5797 55.9746C17.88 55.5197 16.9703 55.6947 16.4804 56.3595C16.0256 57.0592 16.2005 57.9689 16.8653 58.4587C17.5651 58.9136 18.4748 58.7386 18.9646 58.0739C19.4544 57.3741 19.2795 56.4644 18.5797 55.9746Z" fill="#31374C"/>
<path d="M18.6502 56.4646C18.4753 56.3246 18.1954 56.3946 18.0554 56.5696C17.9155 56.7445 17.9854 57.0244 18.1604 57.1643C18.3353 57.3043 18.6152 57.2343 18.7552 57.0594C18.8601 56.8495 18.8251 56.6045 18.6502 56.4646Z" fill="white"/>
<path d="M36.6666 53.4905C35.9669 53.0007 34.9872 53.1757 34.4974 53.9104C34.0075 54.6102 34.1825 55.5898 34.9172 56.0796C35.617 56.5695 36.5966 56.3945 37.0865 55.6598C37.5763 54.96 37.4014 53.9804 36.6666 53.4905Z" fill="#31374C"/>
<path d="M36.7366 53.9807C36.5267 53.8407 36.2818 53.9107 36.1418 54.0857C36.0019 54.2956 36.0719 54.5405 36.2468 54.6805C36.4567 54.8204 36.7016 54.7504 36.8416 54.5755C36.9815 54.4006 36.9466 54.1207 36.7366 53.9807Z" fill="white"/>
<path d="M8.92188 46.9479C10.6013 48.0325 12.8055 43.0992 17.4239 44.7087C17.8788 44.8836 18.2286 44.2888 17.8438 43.9739C15.7795 42.1896 12.1058 40.4402 8.92188 46.9479Z" fill="#2B2E3A"/>
<path opacity="0.3" d="M35.6532 60.3486C36.0031 61.5382 38.4872 61.8881 41.2513 61.1183C44.0153 60.3486 45.9397 58.7741 45.6248 57.5846C45.2749 56.395 42.7908 56.0451 40.0267 56.8148C37.2627 57.5846 35.3034 59.159 35.6532 60.3486Z" fill="#F0808E"/>
<path opacity="0.3" d="M11.3352 60.7681C10.9153 61.9227 12.4548 63.5321 14.729 64.3369C17.0382 65.1416 19.2074 64.8267 19.6273 63.6721C20.0472 62.5175 18.5077 60.908 16.2335 60.1033C13.9593 59.2636 11.755 59.5785 11.3352 60.7681Z" fill="#F0808E"/>
<path d="M42.9292 43.7989C41.7746 45.0235 36.9463 40.5101 32.3629 42.3294C31.908 42.5044 31.5581 41.9446 31.908 41.6297C33.9023 39.7403 39.4304 37.4661 42.9292 43.7989Z" fill="#2B2E3A"/>
<path d="M21.0972 69.5154C21.0972 69.5154 24.9458 75.3583 30.5789 68.8506C30.5789 68.8506 26.3104 70.9149 21.0972 69.5154Z" fill="#DC918B"/>
<path opacity="0.56" d="M22.0768 49.2222C22.0768 49.2222 25.0858 56.2197 21.0972 69.5151C21.0972 69.5151 26.1354 70.9496 30.5789 68.8154C30.5789 68.8154 26.9401 59.0188 29.3893 53.4207C29.4243 53.4207 26.3453 49.9569 22.0768 49.2222Z" fill="url(#paint0_linear)"/>
<path d="M26.0657 25.6754C26.0657 25.6754 17.7386 40.1953 6.08762 42.6445L6.4375 32.0781C6.4375 32.0781 2.30893 22.7014 12.8753 14.0594C30.6491 -0.425598 59.5841 -2.20998 71.8298 17.943C81.2066 33.3727 82.2912 39.1457 82.2912 39.1457L71.5499 78.9269C71.5499 78.9269 57.4498 92.7471 48.213 80.6763C48.213 80.6763 56.2252 86.1344 60.6687 72.2092C65.1121 58.2491 62.1032 64.7218 62.1032 64.7218C62.1032 64.7218 60.0739 66.1913 53.1113 58.284C46.1487 50.3768 47.4783 40.2303 47.4783 40.2303C47.4783 40.2303 27.8151 38.5509 26.0657 25.6754Z" fill="#2B2E3A"/>
<path d="M56.8547 69.0252C57.5545 60.7681 62.3828 56.8844 65.9516 58.3189C71.4097 60.5232 71.7246 79.9764 59.4088 78.4369C56.2249 78.0521 56.2949 73.0138 56.8547 69.0252Z" fill="#FAC2A8"/>
<path d="M67.2495 66.1915C67.0746 65.0718 66.5847 63.9872 65.815 63.2175C65.4301 62.8326 64.9753 62.5527 64.4855 62.5177C63.9956 62.4478 63.5408 62.6577 63.1559 62.9726C62.3862 63.6373 61.8964 64.687 61.5465 65.7366C61.1616 66.7862 60.8817 67.8709 60.6718 68.9905L59.972 68.5356C60.6018 68.1158 61.3366 68.0458 62.0013 68.0808C62.6661 68.1508 63.2959 68.3257 63.8907 68.6756C64.4505 69.0255 64.9403 69.5153 65.2552 70.1451C65.5701 70.7749 65.6051 71.4746 65.5001 72.1044C65.3952 72.7342 65.1502 73.364 64.6954 73.8888C64.2755 74.4136 63.6108 74.7285 62.981 74.7985C62.3512 74.8684 61.6864 74.7285 61.1266 74.4836C60.5668 74.2037 60.077 73.7488 59.9371 73.154C60.042 73.4339 60.2519 73.6789 60.4619 73.8538C60.7068 74.0287 60.9517 74.1687 61.2316 74.2736C61.7564 74.4486 62.3512 74.5186 62.911 74.4136C63.4358 74.3086 63.9257 73.9937 64.2406 73.5739C64.3805 73.364 64.5205 73.119 64.6254 72.8741C64.7304 72.6292 64.7654 72.3493 64.8004 72.0694C64.8703 71.5446 64.8004 70.9848 64.5554 70.5299C64.3105 70.0751 63.9257 69.6902 63.4708 69.4453C63.016 69.2004 62.4912 69.0255 61.9663 68.9905C61.4415 68.9555 60.9167 69.0605 60.5318 69.3054C60.3219 69.4453 60.042 69.4103 59.9021 69.2004C59.8321 69.0954 59.7971 68.9555 59.8321 68.8505C60.077 67.7309 60.3569 66.5763 60.7768 65.4917C60.9867 64.9319 61.2316 64.4071 61.5465 63.8823C61.8614 63.3574 62.2462 62.8676 62.7361 62.4827C63.2259 62.0979 63.9257 61.853 64.5904 61.9929C65.2552 62.1329 65.78 62.5177 66.1649 62.9726C66.8996 63.8473 67.2845 65.0369 67.2495 66.1915Z" fill="#DC918B"/>
<path d="M60.3869 77.1773C60.4918 77.8421 60.002 78.4369 59.3372 78.5419C58.6725 78.6468 58.0777 78.157 57.9727 77.4922C57.8677 76.8275 58.3576 76.2327 59.0223 76.1277C59.6871 76.0577 60.2819 76.5126 60.3869 77.1773Z" fill="#FFA84A"/>
<path d="M59.2713 83.2305C58.5016 83.1955 57.9068 82.5307 57.9768 81.761L58.2567 79.0669C58.2917 78.6471 58.6416 78.3672 59.0614 78.3672H59.4463C59.8312 78.3672 60.146 78.6471 60.216 79.032L60.6009 81.726C60.7408 82.5307 60.1111 83.2655 59.2713 83.2305Z" fill="#FFA84A"/>
<path d="M12.9806 103.628C12.9806 103.628 16.0245 103.349 15.5697 97.7505C15.4647 96.5609 14.9049 94.5666 14.835 93.9019C14.765 93.2371 14.8699 90.9279 15.3948 90.2281C15.9196 89.5284 16.2695 89.0036 15.8496 88.4788C15.4298 87.9539 13.2255 87.6041 12.2459 89.7383C11.2662 91.8726 11.756 93.622 11.756 93.622C11.756 93.622 10.0066 91.4527 9.13194 91.4527C8.74707 91.4527 4.72347 91.2078 3.88376 92.2225C3.56887 92.6073 2.72916 100.969 2.86911 101.389C2.97407 101.809 6.85773 108.317 10.6364 107.687C12.3508 107.372 12.9806 103.838 12.9806 103.628Z" fill="#FAC2A8"/>
<path d="M13.1194 103.839C13.1894 104.119 13.1894 104.399 13.1544 104.644C13.1194 104.923 13.0144 105.168 12.8745 105.413C12.5946 105.903 12.1397 106.288 11.6499 106.463C11.8248 106.253 11.9998 106.078 12.1747 105.868C12.3497 105.658 12.4896 105.448 12.5946 105.238C12.8045 104.854 12.9794 104.364 13.1194 103.839Z" fill="#DC918B"/>
<path d="M5.07275 99.6048C5.31767 99.4999 5.5276 99.4299 5.73752 99.4299L6.40229 99.3949C6.85713 99.3599 7.31198 99.3599 7.76682 99.3949C7.87178 99.3949 8.01173 99.4299 8.15169 99.4649C8.29164 99.4999 8.43159 99.6048 8.53655 99.6748C8.74648 99.8497 8.88643 100.025 9.02638 100.2C9.30628 100.584 9.5512 100.934 9.79612 101.354C9.90108 101.564 9.97105 101.809 10.006 102.054C10.041 102.299 10.006 102.579 9.86609 102.824C9.72614 103.069 9.5512 103.244 9.34127 103.384C9.13135 103.523 8.88643 103.593 8.6765 103.663C8.43159 103.733 8.22166 103.768 7.97675 103.803C7.87178 103.803 7.73183 103.838 7.62687 103.838C7.48692 103.838 7.41694 103.838 7.242 103.803C6.9621 103.733 6.78716 103.593 6.57723 103.453C6.47227 103.384 6.40229 103.314 6.29733 103.244C6.19237 103.174 6.12239 103.104 6.05241 102.964L6.29733 102.789C6.57723 103.034 6.9621 103.384 7.31198 103.453C7.38195 103.453 7.48692 103.453 7.59188 103.453C7.69684 103.453 7.80181 103.453 7.90677 103.418C8.1167 103.384 8.32662 103.349 8.53655 103.279C8.92142 103.174 9.30628 102.964 9.48122 102.649C9.65616 102.334 9.5512 101.914 9.37626 101.564C9.30628 101.389 9.16633 101.179 9.02638 101.004C8.88643 100.829 8.78147 100.654 8.64152 100.48C8.50156 100.305 8.36161 100.13 8.22166 100.025C8.15169 99.9547 8.08171 99.9197 8.01173 99.8847C7.94176 99.8497 7.83679 99.8497 7.73183 99.8497C7.31198 99.8147 6.85713 99.8147 6.40229 99.8497C5.98244 99.7798 5.49261 99.8847 5.07275 99.6048Z" fill="#DC918B"/>
<path d="M5.25 97.0161C5.94976 96.8411 6.64951 96.9111 7.34927 96.9461C7.69915 96.9811 8.04903 96.9811 8.39891 97.051C8.57385 97.086 8.74879 97.086 8.95871 97.156C9.20363 97.226 9.30859 97.4009 9.44854 97.5409C9.69346 97.8558 9.83341 98.2056 9.93837 98.5205C10.0433 98.8704 10.1133 99.2203 10.1833 99.5702C10.2183 99.92 10.2183 100.305 10.1833 100.655C10.1133 101.04 10.0083 101.355 9.83341 101.704L9.51852 101.564C9.62348 101.285 9.76343 100.935 9.79842 100.62C9.83341 100.305 9.79842 99.955 9.76343 99.6401C9.65847 98.9754 9.48353 98.3106 9.09867 97.8208C8.9937 97.7158 8.88874 97.6108 8.78377 97.5759C8.67881 97.5409 8.46888 97.5059 8.32893 97.4709C7.97905 97.4359 7.66416 97.4009 7.31428 97.3659C6.61453 97.296 5.91477 97.296 5.25 97.0161Z" fill="#DC918B"/>
<path d="M9.9016 99.4298C10.2165 99.2199 10.4614 98.905 10.6014 98.5552C10.7413 98.2053 10.7763 97.8204 10.7413 97.4355C10.6363 96.6658 10.3215 95.8611 9.86661 95.2663C9.6217 94.9514 9.34179 94.7065 8.99192 94.6365C8.60705 94.5315 8.22218 94.4966 7.80233 94.4966C7.38247 94.4616 6.96262 94.4966 6.54277 94.4616C6.33284 94.4616 6.12291 94.4266 5.91298 94.3916C5.70306 94.3566 5.49313 94.3216 5.2832 94.1817C5.49313 94.1817 5.70306 94.1467 5.91298 94.1467C6.12291 94.1117 6.33284 94.1117 6.54277 94.1117C6.96262 94.0767 7.38247 94.0767 7.80233 94.1117C8.22218 94.1117 8.64204 94.1467 9.09688 94.2516C9.55172 94.3566 9.93659 94.6715 10.2165 95.0214C10.4964 95.3713 10.7063 95.7561 10.8813 96.176C11.0562 96.5958 11.1612 97.0157 11.1962 97.4355C11.2311 97.8904 11.1962 98.3452 11.0212 98.7651C10.8463 99.1849 10.5314 99.5348 10.1465 99.7797L9.9016 99.4298Z" fill="#DC918B"/>
<path d="M11.0212 92.7822C11.3361 92.9922 11.581 93.2021 11.7909 93.552C11.9659 93.9018 11.9659 94.3217 11.8959 94.6716C11.8259 95.0214 11.721 95.4063 11.4411 95.6862C11.3011 95.8262 11.1262 95.9661 10.9163 96.0011C10.7063 96.0711 10.4964 96.0361 10.3564 96.0361V95.6862C10.7063 95.7212 10.9862 95.6512 11.1612 95.4063C11.3361 95.1964 11.4761 94.8465 11.511 94.5316C11.581 94.2167 11.546 93.9018 11.4411 93.6219C11.3711 93.412 11.1262 93.1321 11.0212 92.7822Z" fill="#DC918B"/>
<path d="M7.76576 102.649C7.52084 102.754 7.24094 102.824 6.96104 102.894C6.68113 102.964 6.43622 102.964 6.15632 102.999C5.87641 102.999 5.59651 102.999 5.31661 102.929C5.03671 102.859 4.7568 102.789 4.54688 102.544C4.82678 102.614 5.07169 102.614 5.31661 102.614C5.56152 102.614 5.84143 102.614 6.08634 102.579C6.36624 102.579 6.61116 102.544 6.89106 102.544C7.20595 102.579 7.48586 102.579 7.76576 102.649Z" fill="#DC918B"/>
<path d="M40.4498 74.1333C40.4498 74.1333 38.2106 82.0056 31.0031 82.6004C23.5507 83.2301 20.9966 77.1073 20.9966 77.1073C20.9966 77.1073 27.7842 80.0812 40.4498 74.1333Z" fill="#343948"/>
<path d="M40.3418 74.1681C40.3068 74.2381 40.2718 74.378 40.2368 74.448C40.3418 74.2381 40.4118 74.0981 40.4118 74.0981C40.4118 74.1681 40.3768 74.1681 40.3418 74.1681Z" fill="#31374C"/>
<path d="M20.9932 77.1071C20.9932 77.1071 21.9378 77.7019 22.1478 78.1917C24.7019 78.7865 30.4399 79.6962 39.6767 75.8126C40.2715 74.9029 40.0266 74.8679 40.2715 74.483C40.3065 74.3781 40.3415 74.2731 40.3764 74.2031C27.256 76.9322 20.9932 77.1071 20.9932 77.1071Z" fill="white"/>
<path d="M25.4038 81.4806C26.4884 82.4253 28.4128 82.8102 30.2671 82.6702C32.4014 82.5303 34.6406 81.5856 36.425 79.9412C32.0865 78.7866 26.5934 80.8159 25.4038 81.4806Z" fill="#F97A7A"/>
<path d="M20.0166 76.2325L21.591 77.1422L21.3461 77.1072C22.9555 76.5474 24.6349 76.4074 26.2794 76.1975C27.9238 75.9876 29.5682 75.8126 31.1777 75.6027C32.8221 75.3928 34.4315 75.1129 36.041 74.798C37.6504 74.4481 39.2599 74.0632 40.8343 73.6084L41.0093 74.2032C39.4348 74.658 37.8254 75.1129 36.1809 75.4278C34.5715 75.7776 32.9271 76.0575 31.2826 76.2675C29.6382 76.5124 27.9938 76.6873 26.3494 76.8623C24.7049 77.0372 23.0605 77.2121 21.556 77.667H21.521C21.4511 77.702 21.3811 77.667 21.3111 77.632L19.7017 76.6873L20.0166 76.2325Z" fill="#DC918B"/>
<path d="M38.562 72.8037C38.9819 72.6638 39.4367 72.6988 39.8915 72.8037C40.3464 72.9437 40.7313 73.1536 41.0811 73.4685C41.396 73.7834 41.6759 74.1683 41.8509 74.5881C41.9558 74.798 41.9908 75.008 42.0608 75.2179C42.0958 75.4278 42.1308 75.6378 42.1308 75.8827C41.9908 75.7077 41.8859 75.4978 41.7809 75.3229C41.6759 75.1479 41.571 74.973 41.431 74.798C41.1861 74.4831 40.9412 74.1683 40.6613 73.8884C40.1015 73.3985 39.4017 73.0137 38.562 72.8037Z" fill="#DC918B"/>
<path d="M20.0156 78.1216C19.8056 77.9117 19.6657 77.5968 19.6307 77.2819C19.5607 76.9671 19.5957 76.6172 19.7357 76.3373C19.8756 76.0224 20.1205 75.7775 20.4354 75.6375C20.5754 75.5675 20.7503 75.5325 20.8903 75.4976C21.0302 75.4976 21.2051 75.4976 21.3451 75.5325C21.2401 75.6375 21.1002 75.7075 20.9952 75.7775C20.8903 75.8824 20.7853 75.9174 20.6803 76.0224C20.5054 76.1973 20.3654 76.3723 20.2605 76.5822C20.0855 76.9671 20.0505 77.4919 20.0156 78.1216Z" fill="#DC918B"/>
<path d="M21.7297 77.2825C22.1496 78.1572 22.7794 79.0319 23.4791 79.7317C24.1789 80.4664 25.0186 81.0612 25.9283 81.516C26.838 81.9709 27.8176 82.2508 28.8323 82.3558L29.2171 82.3907C29.3571 82.3907 29.4621 82.3907 29.602 82.3907H30.3717C30.6167 82.3907 30.8616 82.3558 31.1415 82.3208C31.3864 82.2858 31.6313 82.2508 31.8762 82.2158C33.8705 81.8309 35.6549 80.7113 37.0544 79.2068C37.7542 78.4721 38.349 77.6324 38.8738 76.7577C39.3986 75.883 39.8535 74.9383 40.2033 73.9937L40.7631 74.1686C40.4133 75.1832 39.9584 76.1629 39.3986 77.0726C38.8738 77.9823 38.209 78.857 37.5093 79.6267C36.0748 81.2012 34.1504 82.4257 32.0162 82.8106C31.7363 82.8806 31.4914 82.8806 31.2115 82.9505C30.9316 82.9855 30.6866 82.9855 30.4067 83.0205H29.602C29.4621 83.0205 29.3221 83.0205 29.1822 83.0205L28.7973 82.9505C27.7127 82.8456 26.663 82.5307 25.7184 82.0409C24.7387 81.551 23.864 80.8863 23.1293 80.1165C22.3945 79.3468 21.7297 78.4721 21.2749 77.4575L21.7297 77.2825Z" fill="#DC918B"/>
<path d="M46.8838 128.995C51.0124 127.665 56.1556 124.866 56.1556 124.866C56.1556 124.866 55.7707 124.201 55.8407 123.991C56.0156 123.606 56.6454 123.571 56.6454 123.571C56.3305 122.137 55.3159 117.029 54.6161 114.02C53.0067 107.267 57.6951 99.1849 60.599 98.3452C64.6926 99.2899 68.4363 118.043 67.0718 129.484C66.8619 131.129 63.7829 134.663 59.4794 135.852C55.9457 136.832 46.394 138.091 45.9741 136.902C46.9888 136.377 48.2483 131.689 46.8838 128.995Z" fill="white"/>
<path d="M46.8862 128.994C47.691 128.68 48.4607 128.365 49.2304 128.05C50.0001 127.7 50.7699 127.35 51.5396 126.965C53.0441 126.23 54.5486 125.461 56.0181 124.621L55.9131 125.006C55.8081 124.866 55.7382 124.726 55.6682 124.551C55.6332 124.481 55.5982 124.376 55.5632 124.306C55.5632 124.201 55.4932 124.096 55.5632 123.886C55.6682 123.641 55.8781 123.501 56.053 123.431C56.228 123.361 56.4029 123.326 56.6129 123.291L56.333 123.676L55.3183 118.918C54.9684 117.343 54.6185 115.734 54.2687 114.16V114.125C54.1287 112.62 54.1637 111.151 54.3037 109.646C54.4436 108.177 54.7585 106.707 55.2133 105.273C55.6682 103.873 56.333 102.509 57.2426 101.319C58.1523 100.129 59.2719 99.1148 60.5665 98.415C59.3419 99.2198 58.2923 100.269 57.4876 101.494C56.6828 102.719 56.088 104.048 55.7032 105.448C55.2833 106.847 55.0734 108.282 54.9334 109.716C54.8635 110.451 54.8285 111.151 54.8635 111.885C54.8635 112.62 54.8985 113.355 54.9684 114.055V114.02C55.3533 115.594 55.7032 117.204 56.0181 118.778C56.3679 120.352 56.6478 121.962 56.9627 123.571L57.0327 123.921L56.6828 123.956C56.5779 123.956 56.4379 123.991 56.333 124.026C56.228 124.061 56.158 124.131 56.123 124.166C56.123 124.096 56.123 124.131 56.123 124.201C56.123 124.271 56.158 124.306 56.193 124.376C56.228 124.516 56.298 124.656 56.3679 124.761L56.5079 125.006L56.263 125.146C54.7585 125.915 53.219 126.65 51.6446 127.315C50.1051 127.91 48.5307 128.54 46.8862 128.994Z" fill="#BFC6F2"/>
<path d="M3.50316 109.646C3.85304 109.261 4.09796 109.226 4.65776 109.051L23.4812 107.407C24.8108 107.267 26.0004 107.861 26.4902 108.841L38.9109 133.997C39.1908 134.557 39.3307 135.152 38.9808 135.747C38.596 136.376 38.526 136.446 38.0712 136.901L22.5016 137.566L3.22326 111.255C2.94336 110.765 3.08331 110.136 3.50316 109.646Z" fill="#E1E4F4"/>
<path d="M19.7394 138.965L36.9185 137.426C38.0031 137.321 38.7378 136.376 38.318 135.571L25.4425 109.785C24.9876 108.876 23.868 108.316 22.6084 108.421L4.13485 110.065C3.43509 110.135 2.98025 110.73 3.22517 111.255L16.2406 137.286C16.8005 138.44 18.2 139.105 19.7394 138.965Z" fill="#BFC6F2"/>
<path d="M22.388 124.283C22.6706 123.198 21.778 122.027 20.3943 121.666C19.0105 121.305 17.6597 121.892 17.377 122.977C17.0944 124.061 17.987 125.233 19.3707 125.593C20.7544 125.954 22.1053 125.367 22.388 124.283Z" fill="#E1E4F4"/>
<path d="M20.2601 114.369L20.715 114.334C21.0998 114.299 21.3447 113.984 21.2048 113.704L20.715 112.759C20.575 112.515 20.2601 112.34 19.9102 112.375L19.4554 112.41C19.0705 112.445 18.8256 112.759 18.9656 113.039L19.4554 113.984C19.5953 114.229 19.9102 114.369 20.2601 114.369Z" fill="#545B72"/>
<path d="M23.4032 113.264C23.4246 112.878 23.0979 112.546 22.6735 112.522C22.249 112.499 21.8875 112.792 21.866 113.178C21.8445 113.564 22.1713 113.896 22.5957 113.92C23.0202 113.943 23.3817 113.65 23.4032 113.264Z" fill="#545B72"/>
<path d="M45.348 130.989C45.348 130.989 44.7882 129.274 43.7386 129.449C42.6889 129.624 39.9249 135.712 41.7093 135.887C43.4936 136.062 45.5579 132.423 45.348 130.989Z" fill="#31374C"/>
<path d="M45.1354 131.234C46.6049 134.802 44.5756 136.377 44.5756 136.377C44.5756 136.377 42.0215 135.572 40.3771 135.222C39.0125 135.922 36.3884 132.003 36.1435 131.514C35.0939 131.444 34.2542 132.388 33.4145 132.808C32.5748 133.263 32.1899 132.143 32.0499 131.619C31.91 131.094 32.015 131.129 31.805 131.549C31.5951 132.003 30.8953 132.458 30.4755 132.003C30.0556 131.514 30.0206 131.094 30.0906 130.534C29.7058 130.884 29.4958 131.164 29.041 130.604C28.5512 130.044 28.3762 129.484 28.7261 128.645C29.076 127.805 29.7058 126.23 30.0906 125.461C30.5105 124.691 30.5805 124.621 31.3502 124.201C32.1199 123.781 33.4495 123.291 34.2192 122.697C33.6944 121.997 33.5894 121.542 32.9246 121.262C31.4901 120.737 30.9653 121.822 29.6708 121.647C29.041 121.542 28.1313 121.227 28.5162 120.737C29.041 120.073 31.875 118.953 32.5398 118.743C33.2045 118.533 33.7993 118.533 34.3941 118.918C35.2688 119.478 36.7383 120.213 37.2281 121.052C37.718 121.892 37.8579 122.452 38.6277 123.571C39.3974 124.691 41.9515 128.155 42.6513 129.274C43.351 130.429 45.1354 131.234 45.1354 131.234Z" fill="#FAC2A8"/>
<path d="M31.9473 131.268C32.0872 130.674 32.3671 130.219 32.752 129.764C32.9619 129.554 33.2068 129.344 33.4867 129.239C33.7666 129.099 34.0115 128.994 34.2565 128.889C34.7813 128.679 35.3411 128.574 35.8659 128.399C36.0059 128.364 36.1108 128.294 36.2508 128.259C36.3907 128.189 36.4957 128.119 36.6706 128.084C36.8106 128.084 36.9855 128.084 37.0905 128.189C37.1954 128.294 37.2654 128.399 37.4054 128.469C37.2654 128.434 37.1605 128.329 37.0555 128.259C36.9505 128.189 36.8106 128.189 36.6706 128.189C36.5657 128.224 36.4257 128.294 36.3207 128.364C36.2158 128.434 36.0758 128.504 35.9359 128.574C35.4111 128.784 34.8862 128.959 34.3964 129.204C33.9066 129.449 33.3818 129.694 33.1019 130.079C32.752 130.499 32.4021 130.918 31.9473 131.268Z" fill="#DC918B"/>
<path d="M30.0576 130.534C30.3025 129.764 30.5125 128.994 30.7924 128.224C30.9323 127.84 31.0723 127.455 31.3172 127.105C31.3522 127 31.4221 126.93 31.4921 126.825C31.5621 126.72 31.6321 126.65 31.737 126.58C31.912 126.44 32.0869 126.335 32.2619 126.23C32.9966 125.81 33.8013 125.635 34.5361 125.355C34.9209 125.25 35.3058 125.076 35.7956 125.111C36.0056 125.145 36.2505 125.25 36.3904 125.39C36.5304 125.53 36.6703 125.67 36.8453 125.775C36.6353 125.74 36.4604 125.6 36.2855 125.495C36.1105 125.39 35.9356 125.355 35.7606 125.355C35.4108 125.355 35.0609 125.565 34.676 125.705C33.9063 126.02 33.1365 126.23 32.4718 126.615C32.2968 126.72 32.1569 126.79 32.0169 126.93C31.877 127.035 31.772 127.175 31.6671 127.315C31.4571 127.63 31.2822 127.98 31.1073 128.364C30.7574 129.099 30.4425 129.834 30.0576 130.534Z" fill="#DC918B"/>
<path d="M34.3257 122.801C34.5006 122.626 34.7105 122.486 34.9555 122.416C35.2004 122.311 35.4453 122.276 35.6902 122.276C35.8302 122.276 35.9701 122.311 36.1101 122.381C36.25 122.451 36.355 122.556 36.425 122.661C36.5649 122.871 36.6349 123.046 36.7748 123.256C36.5299 123.256 36.285 123.046 36.1101 122.941C35.9351 122.836 35.8302 122.801 35.6202 122.801C35.4103 122.801 35.2004 122.801 34.9905 122.836C34.8155 122.801 34.6056 122.801 34.3257 122.801Z" fill="#DC918B"/>
<path d="M46.8843 128.995C46.8843 128.995 50.523 135.013 45.9746 136.972L41.7061 135.887C41.7061 135.887 44.68 134.663 44.645 132.738C44.61 130.814 44.1202 129.449 44.1202 129.449L46.8843 128.995Z" fill="#BFC6F2"/>
</g>
<defs>
<linearGradient id="paint0_linear" x1="25.5868" y1="53.3681" x2="25.9503" y2="67.9687" gradientUnits="userSpaceOnUse">
<stop stop-color="#FAC2A8"/>
<stop offset="1" stop-color="#DC918B"/>
</linearGradient>
</defs>
</svg>
