<svg width="88" height="165" viewBox="0 0 88 165" fill="none" xmlns="http://www.w3.org/2000/svg">
<mask id="mask0" mask-type="alpha" maskUnits="userSpaceOnUse" x="0" y="0" width="88" height="165">
<rect width="88" height="165" fill="#C4C4C4"/>
</mask>
<g mask="url(#mask0)">
<path d="M13.3068 114.456C13.3068 114.456 15.3084 119.328 17.8105 124.996C19.1298 127.994 24.1795 132.491 25.9082 132.772C31.3218 133.709 31.3673 131.507 31.7312 128.134C31.8222 127.431 31.5037 125.042 31.4583 124.106C31.3218 121.857 22.4053 107.476 22.4053 107.476C19.6302 106.914 12.5789 108.46 13.3068 114.456Z" fill="#E1E4F4"/>
<path d="M13.853 111.317C13.853 111.317 11.8968 114.643 14.2624 115.205C20.6768 116.751 22.4055 109.115 22.4055 109.115C22.4055 109.115 22.8605 106.914 20.9953 105.649C19.1301 104.384 13.853 111.317 13.853 111.317Z" fill="#57617F"/>
<path d="M20.9953 106.913L22.2236 109.724C22.2236 109.724 21.1773 116.001 15.0358 115.345C15.0358 115.345 13.8075 112.394 13.5345 112.066C8.53036 106.023 20.9953 106.913 20.9953 106.913Z" fill="#CE7F67"/>
<path d="M21.5866 108.459C22.2235 107.429 22.9059 106.258 22.8149 105.04C22.7239 103.822 21.2227 100.308 20.6313 99.7463C20.0399 99.1842 19.1755 98.8094 18.9026 97.9194C18.6296 97.0294 18.4931 95.2962 17.4013 95.6709C15.2632 96.4673 16.0365 99.0437 17.1284 100.777C17.1284 101.433 17.0829 102.042 17.0829 102.697C16.4915 102.651 16.2185 102.791 15.5361 102.697C14.8537 102.604 13.6709 102.229 12.9886 102.088C12.3062 101.948 9.21268 101.573 8.39382 101.386C7.57496 101.152 7.07454 101.245 6.39216 100.683C5.70977 100.121 3.52613 97.6852 1.02405 98.95C0.432649 99.231 0.660111 99.6058 0.569126 100.027C0.0232168 100.355 -0.977616 100.543 -1.15959 101.292C-1.34156 102.042 -0.067768 102.697 0.387156 103.119C0.205186 103.494 -0.386215 103.634 -0.249738 104.15C-0.11326 104.712 2.47981 106.211 2.98022 106.82C3.48064 107.429 5.43681 110.848 6.34666 111.129C7.25651 111.41 10.8504 112.254 11.7603 112.581C12.6701 112.909 13.489 113.472 14.7628 113.706C16.0365 113.94 17.9017 113.753 19.13 112.722C20.3583 111.691 21.1317 110.052 21.5866 108.459Z" fill="#CE7F67"/>
<path d="M17.1283 102.838C17.0828 103.588 16.9463 104.337 17.0373 105.04C17.0828 105.368 17.1738 105.743 17.3102 106.024C17.4467 106.352 17.6742 106.633 17.9016 106.914C17.5377 106.773 17.2647 106.492 17.0373 106.164C16.8098 105.836 16.7188 105.415 16.6733 105.04C16.6733 104.291 16.9008 103.541 17.1283 102.838Z" fill="#9E5E57"/>
<path d="M3.11659 106.867C2.88913 106.586 2.98011 106.07 3.29856 105.836C3.617 105.555 3.98094 105.555 4.34488 105.555C5.02727 105.602 5.66416 105.789 6.21007 106.258C6.71049 106.679 7.11992 107.195 7.48386 107.757C7.80231 108.319 8.02977 109.022 7.8478 109.677C7.75681 109.022 7.48386 108.506 7.16541 107.991C6.84697 107.476 6.43753 107.007 5.98261 106.633C5.52769 106.305 4.93628 106.07 4.39038 106.024C4.11742 106.024 3.84447 106.07 3.6625 106.211C3.38954 106.352 3.29856 106.539 3.11659 106.867Z" fill="#9E5E57"/>
<path d="M7.43848 108.318C8.57579 108.459 9.7131 108.599 10.8504 108.74" stroke="#9E5E57" stroke-width="0.9233" stroke-miterlimit="10"/>
<path d="M0.432617 103.026C0.751064 102.604 1.29697 102.417 1.79739 102.37C2.29781 102.323 2.79822 102.37 3.29864 102.464C3.79906 102.557 4.29947 102.745 4.7544 103.026C5.20932 103.307 5.57326 103.682 5.89171 104.103C5.98269 104.197 6.02818 104.337 6.11917 104.431L6.30114 104.759C6.34663 104.853 6.34663 104.853 6.43762 104.899C6.5286 104.946 6.66508 104.946 6.75606 104.993L8.16633 105.462C9.07618 105.79 10.0315 106.117 10.9414 106.445L10.8049 106.867C9.84955 106.586 8.9397 106.305 7.98436 106.024L6.57409 105.555C6.43762 105.508 6.34663 105.508 6.21015 105.415C6.11917 105.368 6.02818 105.321 5.98269 105.274C5.89171 105.181 5.84621 105.134 5.84621 105.087L5.66424 104.759C5.61875 104.665 5.52777 104.572 5.48228 104.478C4.93637 103.728 4.1175 103.166 3.25315 102.979C2.79822 102.885 2.29781 102.838 1.84288 102.838C1.34247 102.838 0.887541 102.885 0.432617 103.026Z" fill="#9E5E57"/>
<path d="M0.887695 100.075C1.38811 99.9342 1.93402 99.9343 2.43444 100.122C2.70739 100.215 2.88936 100.356 3.11682 100.45C3.34429 100.543 3.57175 100.637 3.79921 100.777C4.25413 101.012 4.70906 101.246 5.16398 101.527C5.57341 101.808 6.02834 102.183 6.2558 102.745L6.16482 102.651C7.71156 103.401 9.39478 103.869 11.078 104.244L10.987 104.665C9.30379 104.291 7.57508 103.822 5.98285 103.026L5.93735 102.979L5.89186 102.885C5.70989 102.511 5.34595 102.136 4.93652 101.855C4.52709 101.574 4.11766 101.34 3.66273 101.105C3.43527 101.012 3.20781 100.871 2.98035 100.731C2.75288 100.637 2.52542 100.45 2.34345 100.356C1.88853 100.168 1.38811 100.122 0.887695 100.075Z" fill="#9E5E57"/>
<path d="M11.2142 103.307C11.2597 104.478 11.1687 105.649 11.0777 106.773C10.9867 107.897 10.9867 109.068 11.0777 110.193C10.6228 109.115 10.5773 107.897 10.6228 106.726C10.7593 105.555 10.9412 104.431 11.2142 103.307Z" fill="#9E5E57"/>
<path d="M37.4634 97.0762C33.1416 98.7625 31.2309 110.192 29.7751 127.478C29.7751 127.478 21.4955 114.221 17.7651 124.948C17.7651 124.948 23.8611 139.891 32.1862 138.814L35.9621 136.378L36.8265 120.076L37.4634 97.0762Z" fill="#E1E4F4"/>
<path d="M32.1863 134.036L30.5941 149.073L27.819 181.488C27.6371 183.69 29.0928 185.704 31.231 186.126C39.0102 187.672 43.0135 188.047 63.3486 187.859L49.1095 129.211L32.1863 134.036Z" fill="#8698BF"/>
<path d="M68.9899 171.183C69.1264 165.515 69.5813 159.238 69.6268 154.319C55.0237 156.802 40.6936 156.24 32.1865 154.694C32.1865 162.985 37.1452 196.151 37.4636 197.884C38.6919 204.957 41.8764 224.632 41.4215 225.428C40.7391 226.552 40.7391 227.77 40.7391 227.77C42.9682 231.33 52.6581 229.878 52.6581 229.878C52.5216 228.332 51.6573 228.051 51.6573 226.131C51.6573 223.601 51.8847 208.517 51.8847 208.471C51.7483 202.896 49.6556 197.978 49.6556 197.884C49.6556 197.884 50.2015 197.041 50.2015 196.713C50.2015 196.291 49.4736 195.167 49.4736 195.167L49.2917 171.089H50.5655C51.9302 179.006 54.6598 189.358 55.7971 197.088C55.4331 206.503 59.3 226.974 58.5266 228.192C57.7533 229.41 59.118 229.878 60.5738 230.3C62.075 230.768 70.3547 230.019 69.2173 228.379C68.08 226.74 69.6723 226.646 69.2173 225.053C68.535 222.711 68.7169 184.58 68.9899 171.183Z" fill="#31374C"/>
<path d="M44.1509 157.505C44.4693 159.144 44.7878 160.831 45.0152 162.47C45.2882 164.11 45.5611 165.796 45.7886 167.436L45.4702 167.201L48.9731 166.967L48.7001 167.342C48.5181 165.983 48.3362 164.672 48.1997 163.313C48.0177 161.955 47.9267 160.643 47.7448 159.285V159.097H47.9268C48.7911 159.004 49.61 158.957 50.4743 158.863L50.4288 158.957L50.2014 156.474L50.5653 158.957V159.004H50.4743C49.61 159.144 48.7911 159.285 47.9722 159.425L48.1087 159.238C48.3362 160.55 48.5636 161.908 48.7456 163.22C48.9276 164.531 49.1096 165.89 49.2915 167.201L49.337 167.529H49.0186L45.5157 167.717H45.2427L45.1972 167.436C44.9697 165.749 44.7878 164.11 44.6058 162.423C44.4693 160.831 44.2874 159.191 44.1509 157.505Z" fill="#474E64"/>
<path d="M56.2974 89.113C56.2974 89.113 61.6655 87.8482 65.3503 91.6894L58.2535 96.9827L56.2974 89.113Z" fill="#E1E4F4"/>
<path d="M43.0591 72.624C43.0591 72.624 45.7886 86.0682 47.7903 96.6548L44.5148 101.667L45.9251 114.549L67.2156 114.268L63.3942 100.309L60.1642 96.3269L58.299 81.009L43.0591 72.624Z" fill="#CE7F67"/>
<path d="M57.9351 77.6363L43.0591 72.6709C43.0591 72.6709 45.2882 84.2881 47.4264 94.7811C50.9748 97.7791 59.3909 89.7688 59.3909 89.7688L57.9351 77.6363Z" fill="#9E5E57"/>
<path d="M47.3351 95.484C46.1068 98.1541 48.4724 101.808 48.4724 101.808C48.4724 101.808 59.6635 95.3434 60.9373 95.2497C64.6677 95.0155 66.8968 97.7793 67.7612 98.5756C74.0391 104.337 67.9886 135.442 67.6247 137.643C67.2152 139.845 65.5775 149.916 65.5775 149.916C65.5775 149.916 61.4832 159.332 47.699 155.631C33.0504 151.743 32.0496 150.385 32.0496 150.385C32.0496 150.385 30.7303 148.839 31.4127 146.871C33.4144 141.063 34.9156 114.456 34.4607 110.287C34.9156 107.476 39.1464 95.2966 44.1051 94.8282C46.3797 94.6876 47.3351 95.484 47.3351 95.484Z" fill="#FFB75E"/>
<path d="M43.8778 143.827C44.2798 143.827 44.6057 143.491 44.6057 143.077C44.6057 142.663 44.2798 142.328 43.8778 142.328C43.4758 142.328 43.1499 142.663 43.1499 143.077C43.1499 143.491 43.4758 143.827 43.8778 143.827Z" fill="#7FB9C6"/>
<path d="M44.6512 134.786C45.0532 134.786 45.3791 134.45 45.3791 134.036C45.3791 133.622 45.0532 133.287 44.6512 133.287C44.2492 133.287 43.9233 133.622 43.9233 134.036C43.9233 134.45 44.2492 134.786 44.6512 134.786Z" fill="#E88636"/>
<path d="M44.6512 125.604C45.0532 125.604 45.3791 125.268 45.3791 124.854C45.3791 124.441 45.0532 124.105 44.6512 124.105C44.2492 124.105 43.9233 124.441 43.9233 124.854C43.9233 125.268 44.2492 125.604 44.6512 125.604Z" fill="#E88636"/>
<path d="M45.3338 117.172C45.7358 117.172 46.0617 116.837 46.0617 116.423C46.0617 116.009 45.7358 115.673 45.3338 115.673C44.9318 115.673 44.606 116.009 44.606 116.423C44.606 116.837 44.9318 117.172 45.3338 117.172Z" fill="#E88636"/>
<path d="M47.1532 101.574C47.1532 101.574 42.8769 112.769 42.6039 125.183C42.2855 137.597 41.5576 151.65 41.5576 151.65" stroke="#E88636" stroke-width="1.809" stroke-miterlimit="10"/>
<path d="M60.2549 91.5488C59.0721 94.7342 53.886 97.8259 50.5195 98.1069L51.9753 104.712C55.7967 103.494 58.9811 100.074 61.8471 95.4369L60.2549 91.5488Z" fill="#FFB75E"/>
<path d="M47.1991 93.7041L46.1072 95.1563L42.9683 101.855L47.8359 97.8264L47.7905 96.2805L47.1991 93.7041Z" fill="#FFB75E"/>
<path d="M50.5198 98.1069L48.4727 101.808L51.0202 100.355L50.5198 98.1069Z" fill="#E88636"/>
<path d="M47.8359 97.8262L48.4728 101.808L46.2437 99.1378L47.8359 97.8262Z" fill="#E88636"/>
<path d="M47.062 92.9072C47.062 92.9072 35.6889 111.27 30.5938 149.026C30.5938 149.026 32.9139 103.447 37.4631 97.0295C40.4656 95.0152 41.5574 94.5936 47.062 92.9072Z" fill="#F7F7FA"/>
<path d="M38.6464 112.862L47.4719 94.7338L47.0624 92.3916C45.1973 92.8132 42.9681 93.9374 41.2849 97.076C38.4189 102.229 38.6464 112.862 38.6464 112.862Z" fill="#E1E4F4"/>
<path d="M36.6446 114.83C38.6008 103.072 45.7431 93.7972 45.7886 93.7035L43.8779 92.1108C43.5594 92.4856 36.2806 101.995 34.188 114.408L36.6446 114.83Z" fill="#8698BF"/>
<path d="M35.301 118.083C36.0602 116.594 35.6117 114.812 34.2992 114.102C32.9867 113.392 31.3073 114.024 30.5481 115.513C29.7888 117.002 30.2373 118.784 31.5498 119.494C32.8623 120.203 34.5417 119.572 35.301 118.083Z" fill="#57617F"/>
<path d="M38.2979 119.706C39.5828 117.186 39.1817 114.364 37.402 113.401C35.6224 112.439 33.1381 113.702 31.8533 116.221C30.5684 118.741 30.9695 121.564 32.7492 122.526C34.5288 123.488 37.0131 122.226 38.2979 119.706Z" fill="#8698BF"/>
<path d="M18.8567 61.8033C18.8567 61.8033 17.037 52.1535 11.8508 55.9479C6.66469 59.789 11.8053 76.0438 19.3571 74.0295C19.4026 74.0764 20.7673 70.6099 18.8567 61.8033Z" fill="#B26B57"/>
<path d="M74.0847 56.6504C74.0847 56.6504 73.4023 69.954 64.1218 74.5447C54.8869 79.1354 66.1235 60.5853 66.1235 60.5853L74.0847 56.6504Z" fill="#31374C"/>
<path d="M19.4029 20.4405C11.3508 25.4996 8.02982 39.1311 11.9422 48.8746C12.8065 51.0294 13.4434 56.1822 14.1258 58.5244C16.9918 68.5021 17.3558 77.0745 17.6742 78.5267C18.948 84.71 34.5974 96.4209 46.4709 93.9382C58.1625 91.5024 66.624 75.3413 67.5339 70.2822C67.9888 67.7995 65.9417 51.451 63.6215 37.8195C62.0293 28.4976 57.2526 16.7867 48.882 15.1003C37.9183 12.8518 30.5941 13.3671 19.4029 20.4405Z" fill="#CE7F67"/>
<path d="M46.4707 47.5628C45.5609 47.2349 44.56 47.7034 44.1961 48.6871C43.8776 49.624 44.3326 50.6545 45.2879 51.0293C46.1977 51.3572 47.1986 50.8887 47.5625 49.905C47.881 48.9682 47.3805 47.8908 46.4707 47.5628Z" fill="#2B2E3A"/>
<path d="M46.9257 48.2184C46.6527 48.1247 46.3798 48.2652 46.2888 48.5463C46.1978 48.8273 46.3343 49.1084 46.6073 49.2021C46.8802 49.2958 47.1532 49.1552 47.2442 48.8742C47.3351 48.5931 47.1987 48.312 46.9257 48.2184Z" fill="white"/>
<path d="M24.0884 51.8255C23.1785 51.4976 22.1777 51.9661 21.8138 52.9498C21.4953 53.8867 21.9502 54.9172 22.9056 55.292C23.8154 55.6199 24.8163 55.1514 25.1802 54.1677C25.4986 53.184 24.9982 52.1534 24.0884 51.8255Z" fill="#2B2E3A"/>
<path d="M24.5434 52.4815C24.2704 52.3879 23.9975 52.5284 23.9065 52.8094C23.8155 53.0905 23.952 53.3716 24.2249 53.4653C24.4979 53.5589 24.7708 53.4184 24.8618 53.1374C24.9528 52.8563 24.8163 52.5752 24.5434 52.4815Z" fill="white"/>
<g opacity="0.2">
<path opacity="0.2" d="M46.1068 54.8239C46.2888 56.1355 48.154 56.885 50.2921 56.5103C52.4303 56.1355 53.977 54.7771 53.795 53.4655C53.6131 52.1538 51.7479 51.4043 49.6097 51.7791C47.4716 52.1538 45.9249 53.5123 46.1068 54.8239Z" fill="#EF3F54"/>
<path opacity="0.2" d="M17.3555 59.5084C17.401 60.6794 18.9932 61.5695 20.8584 61.5695C22.7236 61.5695 24.2248 60.5858 24.1339 59.4615C24.0884 58.2904 22.4961 57.4004 20.6309 57.4004C18.7658 57.4472 17.2645 58.3841 17.3555 59.5084Z" fill="#EF3F54"/>
</g>
<path d="M51.4296 39.412C48.7455 38.7562 45.6975 36.3203 41.4667 37.8662C40.3294 38.2409 39.0101 37.4446 39.9655 35.1961C41.8307 31.636 48.1541 33.1818 51.6115 36.6482C52.8853 38.3815 52.8853 39.5994 51.4296 39.412Z" fill="#31374C"/>
<path opacity="0.68" d="M29.502 43.2067C29.502 43.2067 33.6873 53.2781 29.229 66.488C29.229 66.488 38.5095 70.4229 42.6948 64.6143C42.6948 64.6143 36.8717 53.8871 37.4631 41.2861C37.4631 41.2393 34.5516 42.9256 29.502 43.2067Z" fill="url(#paint0_linear)"/>
<path d="M29.3657 66.5354C29.3657 66.5354 37.5089 75.2483 42.695 64.6616C42.7405 64.6616 36.2806 68.5965 29.3657 66.5354Z" fill="#9E5E57"/>
<path d="M67.7611 16.4116C67.7611 16.4116 68.9894 10.1814 57.7982 4.60696C45.7427 -1.38903 35.5979 4.70065 27.5003 6.85546C13.8981 10.4624 13.2157 1 13.2157 1C-2.5702 8.4013 0.250332 31.7295 2.38848 37.7254C7.11969 50.9822 14.5349 60.1167 14.5349 60.1167C14.5349 60.1167 13.3521 54.5423 13.1247 53.7928C12.8972 53.0433 9.98571 37.3038 13.3521 29.3873C16.7186 21.4707 34.6426 15.2873 47.8809 18.988C61.1192 22.6886 56.6154 31.2142 55.7966 34.259C54.9777 37.3038 57.3433 38.8497 59.9364 42.644C62.5294 46.3915 59.436 54.4018 59.436 54.4018C59.436 54.4018 60.1183 55.3855 61.3921 55.8071C62.6659 56.2287 64.8496 54.4018 64.8496 54.4018C67.5791 43.9557 74.5394 52.1064 74.5394 52.1064C74.5394 52.1064 76.6321 41.4261 75.9042 30.8394C75.1308 20.2528 67.7611 16.4116 67.7611 16.4116Z" fill="#31374C"/>
<path d="M64.622 51.826C64.622 51.826 64.5311 43.8625 70.4451 45.5489C76.3136 47.2353 79.8165 67.097 66.8057 65.1296C66.8057 65.0827 63.1663 62.5063 64.622 51.826Z" fill="#CE7F67"/>
<path d="M71.7186 50.4671C70.8998 50.186 69.9899 50.0455 69.1711 50.186C68.3522 50.3266 67.7153 50.8419 67.3969 51.5445C67.0329 52.2472 66.8965 53.0904 66.8055 53.9804C66.7145 54.8236 66.76 55.7136 66.8055 56.6036L66.1231 56.1352C66.578 55.9947 66.9874 55.9478 67.4424 55.9478C67.8973 55.9478 68.3067 55.9947 68.7616 56.1352C69.2166 56.2757 69.626 56.5099 69.9444 56.8378C70.0354 56.9315 70.1264 57.0252 70.1719 57.1189C70.2629 57.2126 70.3084 57.3063 70.3539 57.4L70.5358 57.7279L70.6723 58.0558C70.8543 58.4774 70.8998 58.9458 70.8998 59.4142C70.8998 59.8827 70.7178 60.3511 70.4904 60.7259C69.9899 61.4754 69.2621 61.9438 68.4887 62.1312C69.1711 61.7096 69.7625 61.1475 70.0354 60.4917C70.3084 59.8358 70.2174 59.0863 69.8989 58.4305C69.7625 58.1026 69.535 57.8684 69.3075 57.6342C69.0801 57.4468 68.7616 57.3063 68.4432 57.2126C67.8063 57.0721 67.0329 57.1189 66.396 57.2594L65.7592 57.4468L65.7137 56.791C65.6227 55.8541 65.6682 54.9173 65.7592 53.9804C65.8956 53.0435 66.0776 52.0598 66.6235 51.2166C66.8965 50.795 67.2604 50.4203 67.7153 50.1392C68.1702 49.8581 68.6707 49.7645 69.1256 49.7176C70.0809 49.6239 70.9453 49.9518 71.7186 50.4671Z" fill="#9E5E57"/>
<path d="M15.8542 47.7037C18.0833 46.0173 19.9485 42.5509 24.4522 42.2699C25.635 42.1293 26.5449 40.9114 24.8162 39.225C21.7682 36.6955 16.5366 40.6303 14.6259 45.221C14.1255 47.2821 14.5804 48.4532 15.8542 47.7037Z" fill="#31374C"/>
<path d="M29.7754 76.6532C31.959 76.6063 34.0517 76.5595 36.1898 76.4189C37.2361 76.3721 38.2825 76.2784 39.3288 76.091C39.8292 75.9973 40.3751 75.9037 40.8755 75.7631L41.6489 75.5757L42.3768 75.3415C44.3785 74.6857 46.1982 73.5615 47.7449 72.1093C49.2916 70.704 50.6109 68.9239 51.1113 66.9097L52.1577 67.1907C51.8847 68.3618 51.3388 69.3924 50.7019 70.3761C50.065 71.313 49.2916 72.1562 48.4728 72.9525C46.835 74.4515 44.8789 75.7163 42.7407 76.3721C40.6481 77.0747 38.4644 77.5432 36.2808 77.6837C35.189 77.7306 34.0972 77.6837 33.0054 77.5432C31.868 77.3558 30.7762 77.1216 29.7754 76.6532Z" fill="#9E5E57"/>
<path d="M54.1136 69.7672C53.7042 69.3456 53.3403 69.0177 52.9763 68.6898C52.6124 68.3619 52.2029 68.0808 51.7935 67.8466C51.3841 67.5655 50.9746 67.3313 50.5197 67.1439C50.0648 66.9097 49.6099 66.7224 49.064 66.5818C49.5644 66.3008 50.1558 66.2071 50.7472 66.3008C51.3386 66.3944 51.8845 66.5818 52.3394 66.9097C52.8398 67.2376 53.2493 67.6124 53.5677 68.1277C53.9317 68.5961 54.1591 69.2051 54.1136 69.7672Z" fill="#9E5E57"/>
<path d="M32.0957 150.478C32.0957 150.478 36.7359 152.118 48.3365 153.055C60.301 154.038 66.4425 149.542 66.4425 149.542L69.6269 154.32C69.6269 154.32 67.3523 157.364 50.7476 157.318C35.9171 157.271 32.1867 154.694 32.1867 154.694L32.0957 150.478Z" fill="#9E5E57"/>
<path d="M43.2409 152.211L47.4262 152.914L47.3807 157.505L43.1499 156.802" stroke="#E1E4F4" stroke-width="1.9363" stroke-miterlimit="10" stroke-linecap="round" stroke-linejoin="round"/>
<path d="M43.7417 154.694L47.0627 155.116" stroke="#E1E4F4" stroke-width="1.9363" stroke-miterlimit="10" stroke-linecap="round"/>
<path d="M62.7119 91.2207C62.7119 91.2207 53.113 112.722 52.1577 132.443C51.3388 148.838 49.8376 188.047 52.3397 189.733C57.4803 193.246 71.5374 193.293 74.6764 190.857C79.0437 187.484 75.4498 157.458 76.6326 108.272C76.7691 101.948 67.0337 92.626 67.0337 92.626L62.7119 91.2207Z" fill="#F7F7FA"/>
<path d="M59.4819 90.6587L65.3049 91.6893C65.3049 91.6893 53.5679 118.859 52.749 125.745C52.7945 125.698 53.7044 104.15 59.4819 90.6587Z" fill="#E1E4F4"/>
<path d="M45.5156 99.7467L47.4263 104.337L51.5206 102.604L51.0202 100.356L48.6546 100.777L47.0624 98.4351L45.5156 99.7467Z" fill="#57617F"/>
<path d="M47.6086 99.2314L50.4746 100.449L50.7931 102.885L48.382 106.071L45.334 104.993L45.8344 100.543L47.6086 99.2314Z" fill="#57617F"/>
<path d="M45.3336 104.993C45.3336 104.993 42.4221 112.207 41.4668 119.889C40.1475 130.476 38.2368 141.156 38.2368 141.156L41.7852 148.839L46.7439 140.875C46.7439 140.875 45.1062 127.947 45.8795 120.733C46.9259 110.755 48.3816 106.024 48.3816 106.024L45.3336 104.993Z" fill="#57617F"/>
<path d="M56.8886 121.669C58.1169 116.189 60.528 109.771 62.6662 104.103C65.5777 96.4205 67.0334 92.3451 66.3511 90.4245C64.9863 86.5833 59.3452 87.0049 59.1178 87.0518L59.2997 89.5813C60.3461 89.4876 63.4395 89.6282 64.0309 91.3145C64.3949 92.4856 62.1658 98.4348 60.3461 103.213C58.2079 108.928 55.7513 115.439 54.4775 121.107L56.8886 121.669Z" fill="#8698BF"/>
<path d="M61.8931 134.832C61.9386 134.832 61.9841 134.832 61.9841 134.832C62.6665 134.786 63.1669 134.177 63.1214 133.474C62.8485 130.195 61.9841 120.17 55.7062 120.124C55.7062 120.124 55.7062 120.124 55.6607 120.124C51.3389 120.124 48.1089 124.433 46.0618 133.006C45.8798 133.708 46.2892 134.364 46.9716 134.551C47.654 134.692 48.2909 134.317 48.4729 133.615C49.4282 129.539 51.6574 122.7 55.6607 122.7C58.3447 122.7 60.028 126.401 60.6194 133.708C60.7103 134.364 61.2562 134.832 61.8931 134.832Z" fill="#8698BF"/>
<path d="M59.0271 147.855C59.8005 147.855 60.9833 147.715 61.8477 146.918C62.3481 146.497 62.985 145.654 63.0305 144.155C63.076 141.484 63.1215 137.503 62.712 133.474C62.6665 133.006 62.2571 132.678 61.8022 132.725C61.3473 132.772 61.0288 133.193 61.0743 133.662C61.4382 137.596 61.4382 141.531 61.3928 144.155C61.3928 144.81 61.2108 145.326 60.8013 145.607C60.119 146.216 58.8452 146.169 58.4357 146.075C57.9808 146.028 57.5714 146.309 57.4804 146.778C57.3894 147.246 57.7079 147.668 58.1628 147.761C58.2538 147.808 58.5722 147.855 59.0271 147.855Z" fill="#E1E4F4"/>
<path d="M48.5179 147.199C48.9728 147.199 49.2913 147.105 49.3368 147.105C49.7917 147.012 50.0646 146.543 49.9282 146.075C49.8372 145.606 49.3823 145.325 48.9273 145.466C48.8818 145.466 47.972 145.653 47.3351 145.138C46.7892 144.669 46.5162 143.639 46.6072 142.234C46.6982 140.313 47.1531 136.987 48.0175 133.568C48.154 133.099 47.881 132.631 47.4261 132.537C46.9712 132.443 46.5162 132.677 46.4252 133.146C45.5154 136.706 45.106 140.126 44.9695 142.14C44.833 144.154 45.2879 145.606 46.2888 146.45C47.0621 147.059 47.9265 147.199 48.5179 147.199Z" fill="#E1E4F4"/>
<path d="M48.4726 145.7L48.609 147.012C48.6545 147.386 48.9275 147.667 49.2914 147.714L50.4742 147.855C50.9746 147.902 51.4296 147.48 51.3386 146.918L51.0656 145.091C50.9746 144.623 50.5197 144.295 50.0648 144.435L49.0185 144.81C48.6545 144.95 48.4271 145.325 48.4726 145.7Z" fill="#E1E4F4"/>
<path d="M59.482 146.403L59.3 147.714C59.2545 148.089 58.936 148.37 58.5721 148.37L57.3893 148.464C56.8889 148.511 56.434 148.042 56.5704 147.48L56.9344 145.653C57.0254 145.185 57.5258 144.904 57.9807 145.044L59.027 145.419C59.3455 145.653 59.5274 146.028 59.482 146.403Z" fill="#E1E4F4"/>
<path d="M65.032 150.572L63.1668 154.928C63.1668 154.928 59.6184 156.287 59.1635 157.833C58.7085 159.378 58.3446 162.657 57.6622 163.969C56.9798 165.328 58.3901 165.374 59.2999 163.969C60.8467 161.721 59.6184 161.299 61.1196 160.549C61.1196 160.549 60.6647 161.814 60.4827 164.953C60.4373 166.218 60.6192 166.264 60.3463 168.56C60.2098 169.684 59.4819 172.495 59.7549 173.057C60.2553 173.994 61.3926 174.04 61.6656 172.214C61.802 171.277 62.3934 170.106 62.5299 169.59C63.0303 167.951 62.9393 166.545 63.2578 166.358C63.5307 166.171 63.7127 167.951 63.6217 169.356C63.5307 170.715 63.0758 172.354 62.9393 173.713C62.7574 175.539 64.6681 175.258 64.8045 173.478C64.8955 172.026 65.3959 170.902 65.7144 169.45L65.9873 168.326C65.9873 168.326 65.9873 170.48 65.9418 170.761C65.7144 171.839 65.5779 172.541 65.6689 173.197C65.8054 174.181 66.9882 174.837 67.3066 172.307C67.3976 171.417 68.0345 170.106 68.0345 170.106C68.0345 170.106 68.8989 169.59 69.0353 168.232C69.1718 166.873 68.9898 163.22 69.1263 162.47C69.2628 161.674 69.4903 158.488 68.9443 157.364C68.5804 156.568 68.1255 155.865 68.1255 155.865L70.1271 150.712L65.032 150.572Z" fill="#CE7F67"/>
<path d="M66.2149 164.391C66.4878 164.766 66.5788 165.234 66.5788 165.656C66.5788 166.124 66.4878 166.546 66.3513 166.968C66.2603 167.342 66.2149 167.717 66.1239 168.139C66.0329 168.56 65.9419 168.982 65.7599 169.403C65.7144 168.982 65.7144 168.56 65.6689 168.139C65.6689 167.717 65.6689 167.295 65.8054 166.827C65.9419 166.405 66.0329 166.031 66.1239 165.656C66.2149 165.234 66.2604 164.86 66.2149 164.391Z" fill="#9E5E57"/>
<path d="M63.5308 163.407C63.7583 163.688 63.8492 164.063 63.8947 164.39C63.9402 164.765 63.8947 165.093 63.8492 165.468C63.8037 165.655 63.7583 165.796 63.7128 165.983C63.6673 166.124 63.6218 166.311 63.5308 166.452C63.3943 166.733 63.2578 167.061 63.0759 167.342C62.9849 166.967 62.9849 166.639 63.0304 166.311C63.0304 166.124 63.1214 165.983 63.1668 165.796C63.2123 165.655 63.2578 165.468 63.3033 165.327C63.3943 164.999 63.4853 164.718 63.5308 164.39C63.5308 164.063 63.5763 163.735 63.5308 163.407Z" fill="#9E5E57"/>
<path d="M60.8466 161.674L71.4919 162.376C71.4919 162.376 71.9013 172.214 69.1263 174.603C66.3512 176.945 63.4852 178.491 59.4819 175.774C55.4785 173.057 60.8466 161.674 60.8466 161.674Z" fill="#E1E4F4"/>
<path d="M67.0337 92.6733C75.9957 96.9361 76.4507 101.48 78.4523 126.635C78.8618 131.975 73.2662 158.817 72.4473 158.582C68.8534 157.599 65.669 156.053 60.8013 154.32L65.669 122.606L60.5283 114.034L67.0337 92.6733Z" fill="#F7F7FA"/>
<path d="M63.0301 110.427L63.8489 115.908L64.7133 121.389L65.5777 126.869C65.6686 127.291 65.7141 127.806 65.7596 128.275C65.7596 128.509 65.7596 128.743 65.7596 128.977C65.7596 129.212 65.7596 129.446 65.7596 129.68C65.7141 130.617 65.6232 131.554 65.5322 132.491C65.1227 136.191 64.4404 139.845 63.667 143.499C62.8936 147.153 62.0747 150.76 61.1649 154.367L60.8919 153.851C64.7588 155.303 68.6257 156.756 72.4925 158.255L72.1286 158.442C72.5835 156.849 73.0384 155.303 73.5388 153.711C73.9938 152.118 74.4942 150.572 74.9491 148.98C74.5852 150.572 74.2212 152.165 73.8118 153.758C73.4479 155.35 73.0384 156.943 72.629 158.536L72.538 158.817L72.265 158.723C68.3527 157.365 64.4404 156.006 60.528 154.601L60.1641 154.46L60.255 154.086C61.1194 150.479 61.9383 146.872 62.6661 143.265C63.4395 139.658 64.1219 136.004 64.5768 132.35C64.7133 131.46 64.8043 130.523 64.8498 129.633C64.8498 129.399 64.8953 129.165 64.8953 128.93C64.8953 128.696 64.8953 128.462 64.8953 128.275C64.8953 127.806 64.8498 127.385 64.7588 126.916C64.4858 125.089 64.2584 123.262 64.0309 121.389C63.8035 119.562 63.6215 117.688 63.394 115.861C63.3485 114.128 63.1666 112.301 63.0301 110.427Z" fill="#E1E4F4"/>
</g>
<defs>
<linearGradient id="paint0_linear" x1="33.2313" y1="41.763" x2="36.4155" y2="67.764" gradientUnits="userSpaceOnUse">
<stop stop-color="#CE7F67"/>
<stop offset="0.3346" stop-color="#CB7D66"/>
<stop offset="0.59" stop-color="#C17663"/>
<stop offset="0.8183" stop-color="#B16B5D"/>
<stop offset="1" stop-color="#9E5E57"/>
</linearGradient>
</defs>
</svg>
