<svg width="125" height="213" viewBox="0 0 125 213" fill="none" xmlns="http://www.w3.org/2000/svg">
<mask id="mask0" mask-type="alpha" maskUnits="userSpaceOnUse" x="0" y="1" width="128" height="212">
<rect y="1" width="128" height="212" fill="#C4C4C4"/>
</mask>
<g mask="url(#mask0)">
<path d="M32.9118 159.667C32.9118 159.667 35.2489 165.165 38.1703 171.562C39.7107 174.946 45.6067 180.021 47.6251 180.338C53.946 181.396 53.9991 178.911 54.424 175.104C54.5303 174.311 54.1585 171.615 54.1053 170.558C53.946 168.02 43.5351 151.789 43.5351 151.789C40.295 151.155 32.0619 152.899 32.9118 159.667Z" fill="#E1E4F4"/>
<path d="M33.5491 156.124C33.5491 156.124 31.2651 159.878 34.0272 160.512C41.5167 162.257 43.5351 153.639 43.5351 153.639C43.5351 153.639 44.0663 151.155 41.8885 149.727C39.7107 148.3 33.5491 156.124 33.5491 156.124Z" fill="#57617F"/>
<path d="M41.8886 151.154L43.3227 154.326C43.3227 154.326 42.1011 161.411 34.9303 160.67C34.9303 160.67 33.4962 157.34 33.1775 156.97C27.3346 150.15 41.8886 151.154 41.8886 151.154Z" fill="#CE7F67"/>
<path d="M42.579 152.899C43.3226 151.736 44.1194 150.414 44.0131 149.04C43.9069 147.665 42.1541 143.7 41.4635 143.066C40.773 142.431 39.7638 142.008 39.4451 141.004C39.1264 139.999 38.967 138.043 37.6922 138.466C35.1958 139.365 36.0987 142.273 37.3735 144.229C37.3735 144.969 37.3204 145.656 37.3204 146.396C36.6299 146.344 36.3112 146.502 35.5145 146.396C34.7177 146.291 33.3367 145.868 32.5399 145.709C31.7432 145.551 28.1312 145.128 27.1751 144.916C26.219 144.652 25.6347 144.758 24.838 144.123C24.0412 143.489 21.4916 140.74 18.5702 142.167C17.8797 142.484 18.1453 142.907 18.0391 143.383C17.4017 143.753 16.2331 143.965 16.0206 144.81C15.8082 145.656 17.2954 146.396 17.8266 146.872C17.6141 147.295 16.9236 147.454 17.083 148.035C17.2423 148.67 20.27 150.362 20.8542 151.049C21.4385 151.736 23.7225 155.596 24.7849 155.913C25.8472 156.23 30.0434 157.182 31.1058 157.552C32.1681 157.922 33.1242 158.556 34.6115 158.821C36.0987 159.085 38.2765 158.873 39.7107 157.71C41.1448 156.547 42.0478 154.697 42.579 152.899Z" fill="#CE7F67"/>
<path d="M37.3735 146.555C37.3203 147.401 37.161 148.247 37.2672 149.04C37.3203 149.41 37.4266 149.833 37.5859 150.15C37.7453 150.52 38.0109 150.838 38.2764 151.155C37.8515 150.996 37.5328 150.679 37.2672 150.309C37.0016 149.939 36.8954 149.463 36.8423 149.04C36.8423 148.194 37.1079 147.348 37.3735 146.555Z" fill="#9E5E57"/>
<path d="M21.0137 151.102C20.7482 150.785 20.8544 150.203 21.2262 149.939C21.598 149.622 22.023 149.622 22.4479 149.622C23.2446 149.674 23.9883 149.886 24.6257 150.415C25.21 150.89 25.688 151.472 26.1129 152.106C26.4848 152.741 26.7504 153.534 26.5379 154.274C26.4316 153.534 26.1129 152.952 25.7411 152.371C25.3693 151.789 24.8913 151.261 24.3601 150.838C23.8289 150.467 23.1384 150.203 22.501 150.15C22.1823 150.15 21.8636 150.203 21.6511 150.362C21.3324 150.52 21.2262 150.732 21.0137 151.102Z" fill="#9E5E57"/>
<path d="M26.0596 152.741C27.3875 152.899 28.7154 153.058 30.0433 153.217" stroke="#9E5E57" stroke-width="0.9233" stroke-miterlimit="10"/>
<path d="M17.8799 146.767C18.2517 146.291 18.8891 146.079 19.4734 146.027C20.0577 145.974 20.642 146.027 21.2262 146.132C21.8105 146.238 22.3948 146.45 22.926 146.767C23.4571 147.084 23.8821 147.507 24.2539 147.983C24.3601 148.088 24.4132 148.247 24.5195 148.353L24.7319 148.723C24.7851 148.829 24.7851 148.829 24.8913 148.882C24.9975 148.934 25.1569 148.934 25.2631 148.987L26.9097 149.516C27.9721 149.886 29.0875 150.256 30.1499 150.626L29.9905 151.102C28.875 150.785 27.8127 150.468 26.6973 150.15L25.0506 149.622C24.8913 149.569 24.7851 149.569 24.6257 149.463C24.5195 149.41 24.4132 149.357 24.3601 149.304C24.2539 149.199 24.2008 149.146 24.2008 149.093L23.9883 148.723C23.9352 148.617 23.829 148.511 23.7758 148.406C23.1384 147.56 22.1823 146.925 21.1731 146.714C20.642 146.608 20.0577 146.555 19.5265 146.555C18.9422 146.555 18.4111 146.608 17.8799 146.767Z" fill="#9E5E57"/>
<path d="M18.4111 143.436C18.9954 143.278 19.6328 143.278 20.2171 143.489C20.5358 143.595 20.7483 143.754 21.0139 143.859C21.2794 143.965 21.545 144.071 21.8106 144.229C22.3418 144.494 22.8729 144.758 23.4041 145.075C23.8822 145.392 24.4133 145.815 24.6789 146.45L24.5727 146.344C26.3786 147.19 28.344 147.719 30.3093 148.142L30.2031 148.617C28.2377 148.194 26.2193 147.666 24.3602 146.767L24.3071 146.714L24.254 146.608C24.0415 146.185 23.6166 145.763 23.1385 145.445C22.6605 145.128 22.1824 144.864 21.6513 144.599C21.3857 144.494 21.1201 144.335 20.8545 144.176C20.5889 144.071 20.3233 143.859 20.1109 143.754C19.5797 143.542 18.9954 143.489 18.4111 143.436Z" fill="#9E5E57"/>
<path d="M30.4685 147.084C30.5216 148.406 30.4153 149.727 30.3091 150.996C30.2029 152.265 30.2029 153.587 30.3091 154.856C29.7779 153.64 29.7248 152.265 29.7779 150.943C29.9373 149.622 30.1498 148.353 30.4685 147.084Z" fill="#9E5E57"/>
<path d="M61.1167 140.052C56.0707 141.955 53.8397 154.855 52.14 174.363C52.14 174.363 42.4728 159.402 38.1172 171.509C38.1172 171.509 45.2348 188.374 54.9552 187.158L59.3639 184.408L60.3731 166.01L61.1167 140.052Z" fill="#E1E4F4"/>
<path d="M54.955 181.765L53.0959 198.736L49.8558 235.321C49.6433 237.806 51.3431 240.079 53.8395 240.555C62.9225 242.3 67.5968 242.723 91.34 242.511L74.7144 176.32L54.955 181.765Z" fill="#8698BF"/>
<path d="M97.927 223.69C98.0864 217.293 98.6175 210.209 98.6706 204.658C81.6202 207.46 64.8884 206.825 54.9556 205.081C54.9556 214.438 60.7453 251.869 61.1171 253.825C62.5513 261.809 66.2694 284.013 65.7383 284.912C64.9415 286.181 64.9415 287.556 64.9415 287.556C67.5442 291.574 78.8581 289.935 78.8581 289.935C78.6988 288.19 77.6895 287.873 77.6895 285.705C77.6895 282.85 77.9551 265.827 77.9551 265.774C77.7958 259.482 75.3524 253.931 75.3524 253.825C75.3524 253.825 75.9898 252.874 75.9898 252.504C75.9898 252.028 75.1399 250.759 75.1399 250.759L74.9275 223.585H76.4147C78.0082 232.519 81.1952 244.203 82.5232 252.927C82.0982 263.553 86.6131 286.657 85.7102 288.031C84.8072 289.406 86.4007 289.935 88.1004 290.41C89.8533 290.939 99.5205 290.093 98.1926 288.243C96.8647 286.392 98.7238 286.287 98.1926 284.489C97.3958 281.846 97.6083 238.811 97.927 223.69Z" fill="#31374C"/>
<path d="M68.9248 208.252C69.2966 210.103 69.6684 212.006 69.934 213.857C70.2527 215.707 70.5714 217.61 70.837 219.461L70.4652 219.196L74.5552 218.932L74.2365 219.355C74.024 217.822 73.8115 216.341 73.6522 214.808C73.4397 213.275 73.3335 211.795 73.121 210.261V210.05H73.3335C74.3427 209.944 75.2988 209.891 76.308 209.786L76.2549 209.891L75.9893 207.089L76.4143 209.891V209.944H76.308C75.2988 210.103 74.3427 210.261 73.3866 210.42L73.546 210.209C73.8115 211.689 74.0771 213.222 74.2896 214.702C74.5021 216.183 74.7145 217.716 74.927 219.196L74.9801 219.566H74.6083L70.5183 219.778H70.1996L70.1465 219.461C69.8809 217.557 69.6684 215.707 69.456 213.804C69.2966 212.006 69.0842 210.156 68.9248 208.252Z" fill="#474E64"/>
<path d="M83.1069 131.064C83.1069 131.064 89.3747 129.637 93.6772 133.972L85.391 139.946L83.1069 131.064Z" fill="#E1E4F4"/>
<path d="M67.6499 112.455C67.6499 112.455 70.8369 127.628 73.174 139.576L69.3496 145.233L70.9963 159.772L95.8549 159.455L91.3931 143.7L87.6218 139.206L85.444 121.918L67.6499 112.455Z" fill="#CE7F67"/>
<path d="M85.0191 118.111L67.6499 112.507C67.6499 112.507 70.2526 125.619 72.7491 137.461C76.8922 140.845 86.7188 131.804 86.7188 131.804L85.0191 118.111Z" fill="#9E5E57"/>
<path d="M72.6429 138.255C71.2087 141.268 73.9708 145.392 73.9708 145.392C73.9708 145.392 87.0375 138.096 88.5248 137.99C92.8803 137.726 95.4831 140.845 96.4923 141.744C103.822 148.247 96.7579 183.351 96.3329 185.836C95.8549 188.321 93.9427 199.688 93.9427 199.688C93.9427 199.688 89.1622 210.314 73.0678 206.138C55.9642 201.75 54.7956 200.216 54.7956 200.216C54.7956 200.216 53.2552 198.472 54.052 196.251C56.3891 189.696 58.142 159.666 57.6108 154.961C58.142 151.789 63.0818 138.043 68.8716 137.514C71.5274 137.356 72.6429 138.255 72.6429 138.255Z" fill="#FFB75E"/>
<path d="M68.6062 192.815C69.0756 192.815 69.4561 192.437 69.4561 191.969C69.4561 191.502 69.0756 191.124 68.6062 191.124C68.1368 191.124 67.7563 191.502 67.7563 191.969C67.7563 192.437 68.1368 192.815 68.6062 192.815Z" fill="#7FB9C6"/>
<path d="M69.509 182.611C69.9784 182.611 70.3589 182.232 70.3589 181.765C70.3589 181.298 69.9784 180.919 69.509 180.919C69.0397 180.919 68.6592 181.298 68.6592 181.765C68.6592 182.232 69.0397 182.611 69.509 182.611Z" fill="#E88636"/>
<path d="M69.509 172.248C69.9784 172.248 70.3589 171.87 70.3589 171.403C70.3589 170.935 69.9784 170.557 69.509 170.557C69.0397 170.557 68.6592 170.935 68.6592 171.403C68.6592 171.87 69.0397 172.248 69.509 172.248Z" fill="#E88636"/>
<path d="M70.3059 162.732C70.7753 162.732 71.1558 162.354 71.1558 161.886C71.1558 161.419 70.7753 161.041 70.3059 161.041C69.8366 161.041 69.4561 161.419 69.4561 161.886C69.4561 162.354 69.8366 162.732 70.3059 162.732Z" fill="#E88636"/>
<path d="M72.4303 145.128C72.4303 145.128 67.4374 157.764 67.1187 171.774C66.7468 185.784 65.897 201.644 65.897 201.644" stroke="#E88636" stroke-width="1.809" stroke-miterlimit="10"/>
<path d="M87.7283 133.813C86.3473 137.409 80.292 140.898 76.3613 141.215L78.0611 148.67C82.5229 147.295 86.241 143.436 89.5874 138.202L87.7283 133.813Z" fill="#FFB75E"/>
<path d="M72.4838 136.246L71.209 137.885L67.5439 145.445L73.2274 140.899L73.1743 139.154L72.4838 136.246Z" fill="#FFB75E"/>
<path d="M76.3614 141.215L73.9712 145.391L76.9457 143.753L76.3614 141.215Z" fill="#E88636"/>
<path d="M73.2273 140.898L73.9709 145.392L71.3682 142.379L73.2273 140.898Z" fill="#E88636"/>
<path d="M72.3245 135.347C72.3245 135.347 59.0453 156.071 53.0962 198.683C53.0962 198.683 55.8051 147.242 61.1168 139.999C64.6225 137.726 65.8973 137.25 72.3245 135.347Z" fill="#F7F7FA"/>
<path d="M62.4977 157.868L72.8023 137.408L72.3243 134.765C70.1465 135.24 67.5438 136.509 65.5784 140.052C62.2321 145.867 62.4977 157.868 62.4977 157.868Z" fill="#E1E4F4"/>
<path d="M60.1608 160.089C62.4448 146.819 70.7841 136.351 70.8373 136.245L68.6064 134.448C68.2345 134.871 59.7359 145.603 57.2925 159.613L60.1608 160.089Z" fill="#8698BF"/>
<path d="M58.5916 163.76C59.4781 162.08 58.9544 160.069 57.422 159.268C55.8895 158.467 53.9286 159.18 53.0421 160.86C52.1556 162.541 52.6793 164.552 54.2118 165.353C55.7442 166.154 57.7051 165.441 58.5916 163.76Z" fill="#57617F"/>
<path d="M62.0912 165.592C63.5914 162.748 63.123 159.563 61.0451 158.477C58.9672 157.391 56.0666 158.816 54.5664 161.66C53.0662 164.503 53.5346 167.689 55.6125 168.775C57.6904 169.861 60.591 168.436 62.0912 165.592Z" fill="#8698BF"/>
<path d="M39.3918 100.242C39.3918 100.242 37.2671 89.3515 31.2118 93.6338C25.1565 97.969 31.1587 116.314 39.976 114.041C40.0292 114.094 41.6227 110.182 39.3918 100.242Z" fill="#B26B57"/>
<path d="M103.876 94.4268C103.876 94.4268 103.079 109.441 92.2431 114.623C81.4604 119.804 94.5802 98.8677 94.5802 98.8677L103.876 94.4268Z" fill="#31374C"/>
<path d="M40.0293 53.5593C30.6277 59.2691 26.7501 74.6538 31.3182 85.6505C32.3274 88.0824 33.071 93.898 33.8678 96.5414C37.2141 107.802 37.6391 117.477 38.0109 119.116C39.4982 126.095 57.7703 139.312 71.6338 136.51C85.2848 133.761 95.1645 115.521 96.2268 109.811C96.758 107.009 94.3677 88.5582 91.6588 73.1735C89.7997 62.6527 84.2225 49.4355 74.449 47.5323C61.6478 44.9946 53.096 45.5761 40.0293 53.5593Z" fill="#CE7F67"/>
<path d="M71.634 84.17C70.5716 83.7999 69.4031 84.3286 68.9781 85.4388C68.6063 86.4962 69.1375 87.6593 70.2529 88.0822C71.3153 88.4523 72.4838 87.9236 72.9088 86.8134C73.2806 85.756 72.6963 84.54 71.634 84.17Z" fill="#2B2E3A"/>
<path d="M72.1651 84.9101C71.8464 84.8043 71.5277 84.9629 71.4214 85.2801C71.3152 85.5974 71.4746 85.9146 71.7933 86.0203C72.112 86.126 72.4307 85.9674 72.5369 85.6502C72.6431 85.333 72.4838 85.0158 72.1651 84.9101Z" fill="white"/>
<path d="M45.5007 88.9815C44.4383 88.6114 43.2698 89.1401 42.8448 90.2503C42.473 91.3077 43.0042 92.4708 44.1196 92.8938C45.182 93.2638 46.3505 92.7352 46.7755 91.6249C47.1473 90.5147 46.563 89.3516 45.5007 88.9815Z" fill="#2B2E3A"/>
<path d="M46.0318 89.7216C45.7131 89.6159 45.3944 89.7745 45.2881 90.0917C45.1819 90.4089 45.3413 90.7261 45.66 90.8318C45.9787 90.9376 46.2974 90.779 46.4036 90.4617C46.5098 90.1445 46.3505 89.8273 46.0318 89.7216Z" fill="white"/>
<g opacity="0.2">
<path opacity="0.2" d="M71.2089 92.3656C71.4213 93.846 73.5991 94.6919 76.0956 94.2689C78.5921 93.846 80.3981 92.3128 80.1856 90.8325C79.9731 89.3521 77.7953 88.5062 75.2989 88.9292C72.8024 89.3521 70.9964 90.8853 71.2089 92.3656Z" fill="#EF3F54"/>
<path opacity="0.2" d="M37.6389 97.6525C37.692 98.9742 39.5511 99.9787 41.7289 99.9787C43.9066 99.9787 45.6595 98.8685 45.5533 97.5997C45.5001 96.2779 43.6411 95.2734 41.4633 95.2734C39.2855 95.3263 37.5326 96.3837 37.6389 97.6525Z" fill="#EF3F54"/>
</g>
<path d="M77.4236 74.9711C74.2897 74.2309 70.7309 71.4818 65.791 73.2264C64.4631 73.6494 62.9227 72.7506 64.0382 70.2129C66.2159 66.1949 73.5992 67.9396 77.636 71.8518C79.1233 73.808 79.1233 75.1825 77.4236 74.9711Z" fill="#31374C"/>
<path opacity="0.68" d="M51.8211 79.2537C51.8211 79.2537 56.7079 90.6204 51.5024 105.529C51.5024 105.529 62.3383 109.97 67.225 103.415C67.225 103.415 60.4261 91.3077 61.1166 77.086C61.1166 77.0332 57.7171 78.9364 51.8211 79.2537Z" fill="url(#paint0_linear)"/>
<path d="M51.6621 105.583C51.6621 105.583 61.17 115.417 67.2253 103.468C67.2784 103.468 59.7359 107.909 51.6621 105.583Z" fill="#9E5E57"/>
<path d="M96.4924 49.0124C96.4924 49.0124 97.9265 41.9809 84.8598 35.6895C70.7839 28.9224 58.9388 35.7953 49.484 38.2272C33.6021 42.2981 32.8054 31.6187 32.8054 31.6187C14.3739 39.9719 17.6671 66.3004 20.1636 73.0676C25.6877 88.0294 34.3458 98.3387 34.3458 98.3387C34.3458 98.3387 32.9647 92.0474 32.6992 91.2015C32.4336 90.3556 29.0341 72.5918 32.9647 63.657C36.8954 54.7222 57.8234 47.7436 73.2804 51.9202C88.7373 56.0968 83.4788 65.7189 82.5227 69.1553C81.5666 72.5918 84.3286 74.3364 87.3563 78.6188C90.3839 82.8483 86.772 91.8888 86.772 91.8888C86.772 91.8888 87.5688 92.999 89.056 93.4748C90.5433 93.9507 93.0929 91.8888 93.0929 91.8888C96.2799 80.0991 104.407 89.2982 104.407 89.2982C104.407 89.2982 106.85 77.2442 106 65.2959C105.097 53.3476 96.4924 49.0124 96.4924 49.0124Z" fill="#31374C"/>
<path d="M92.8276 88.9818C92.8276 88.9818 92.7214 79.9942 99.6265 81.8974C106.479 83.8007 110.569 106.217 95.3772 103.996C95.3772 103.944 91.1279 101.036 92.8276 88.9818Z" fill="#CE7F67"/>
<path d="M101.114 87.4479C100.158 87.1307 99.0953 86.9721 98.1392 87.1307C97.1831 87.2893 96.4395 87.8708 96.0677 88.6639C95.6427 89.4569 95.4834 90.4085 95.3771 91.413C95.2709 92.3647 95.324 93.3692 95.3771 94.3737L94.5804 93.845C95.1116 93.6864 95.5896 93.6335 96.1208 93.6335C96.6519 93.6335 97.13 93.6864 97.6612 93.845C98.1923 94.0036 98.6704 94.2679 99.0422 94.638C99.1484 94.7437 99.2547 94.8495 99.3078 94.9552C99.414 95.061 99.4671 95.1667 99.5202 95.2724L99.7327 95.6425L99.8921 96.0126C100.105 96.4884 100.158 97.0171 100.158 97.5458C100.158 98.0745 99.9452 98.6031 99.6796 99.0261C99.0953 99.872 98.2454 100.401 97.3425 100.612C98.1392 100.136 98.8297 99.5019 99.1484 98.7618C99.4671 98.0216 99.3609 97.1757 98.9891 96.4355C98.8297 96.0655 98.5641 95.8011 98.2986 95.5368C98.033 95.3253 97.6612 95.1667 97.2893 95.061C96.5457 94.9023 95.6427 94.9552 94.8991 95.1138L94.1555 95.3253L94.1023 94.5851C93.9961 93.5278 94.0492 92.4704 94.1555 91.413C94.3148 90.3557 94.5273 89.2454 95.1647 88.2938C95.4834 87.818 95.9083 87.395 96.4395 87.0778C96.9706 86.7606 97.5549 86.6549 98.0861 86.602C99.2015 86.4963 100.211 86.8663 101.114 87.4479Z" fill="#9E5E57"/>
<path d="M35.8864 84.3293C38.4891 82.426 40.6669 78.5138 45.9254 78.1966C47.3065 78.038 48.3688 76.6634 46.3504 74.7601C42.7915 71.9052 36.6831 76.3462 34.4522 81.5273C33.8679 83.8535 34.3991 85.1752 35.8864 84.3293Z" fill="#31374C"/>
<path d="M52.1401 117.002C54.6897 116.949 57.1331 116.896 59.6296 116.738C60.8513 116.685 62.073 116.579 63.2947 116.368C63.8789 116.262 64.5163 116.156 65.1006 115.998L66.0036 115.786L66.8535 115.522C69.1906 114.782 71.3153 113.513 73.1213 111.874C74.9272 110.288 76.4676 108.279 77.0519 106.005L78.2736 106.323C77.9549 107.644 77.3175 108.807 76.5738 109.918C75.8302 110.975 74.9272 111.927 73.9711 112.825C72.0589 114.517 69.7749 115.945 67.2784 116.685C64.835 117.478 62.2854 118.007 59.7358 118.165C58.461 118.218 57.1862 118.165 55.9114 118.007C54.5835 117.795 53.3087 117.531 52.1401 117.002Z" fill="#9E5E57"/>
<path d="M80.5576 109.23C80.0795 108.754 79.6546 108.384 79.2297 108.014C78.8047 107.644 78.3267 107.327 77.8486 107.063C77.3706 106.745 76.8925 106.481 76.3614 106.27C75.8302 106.005 75.299 105.794 74.6616 105.635C75.2459 105.318 75.9364 105.212 76.6269 105.318C77.3175 105.424 77.9549 105.635 78.486 106.005C79.0703 106.375 79.5484 106.798 79.9202 107.38C80.3451 107.909 80.6107 108.596 80.5576 109.23Z" fill="#9E5E57"/>
<path d="M54.8491 200.323C54.8491 200.323 60.267 202.173 73.8118 203.23C87.7815 204.341 94.9523 199.265 94.9523 199.265L98.6704 204.658C98.6704 204.658 96.0146 208.094 76.627 208.041C59.3109 207.988 54.9554 205.081 54.9554 205.081L54.8491 200.323Z" fill="#9E5E57"/>
<path d="M67.8626 202.278L72.7493 203.071L72.6962 208.252L67.7563 207.459" stroke="#E1E4F4" stroke-width="1.9363" stroke-miterlimit="10" stroke-linecap="round" stroke-linejoin="round"/>
<path d="M68.4468 205.081L72.3243 205.556" stroke="#E1E4F4" stroke-width="1.9363" stroke-miterlimit="10" stroke-linecap="round"/>
<path d="M90.5969 133.443C90.5969 133.443 79.3892 157.71 78.2738 179.968C77.3177 198.472 75.5648 242.723 78.4862 244.626C84.4884 248.591 100.902 248.644 104.567 245.895C109.666 242.088 105.47 208.199 106.851 152.688C107.01 145.55 95.643 135.029 95.643 135.029L90.5969 133.443Z" fill="#F7F7FA"/>
<path d="M86.8252 132.809L93.6241 133.972C93.6241 133.972 79.92 164.636 78.9639 172.408C79.017 172.355 80.0793 148.035 86.8252 132.809Z" fill="#E1E4F4"/>
<path d="M70.5186 143.066L72.7495 148.247L77.53 146.291L76.9457 143.753L74.1836 144.229L72.3245 141.585L70.5186 143.066Z" fill="#57617F"/>
<path d="M72.962 142.484L76.3083 143.859L76.6802 146.608L73.865 150.203L70.3062 148.987L70.8904 143.965L72.962 142.484Z" fill="#57617F"/>
<path d="M70.3062 148.987C70.3062 148.987 66.9068 157.129 65.7913 165.799C64.2509 177.747 62.02 189.801 62.02 189.801L66.1631 198.472L71.9529 189.484C71.9529 189.484 70.0406 174.892 70.9436 166.751C72.1653 155.49 73.8651 150.15 73.8651 150.15L70.3062 148.987Z" fill="#57617F"/>
<path d="M83.7976 167.808C85.2318 161.623 88.047 154.38 90.5434 147.983C93.9429 139.312 95.6426 134.713 94.8459 132.545C93.2524 128.21 86.6659 128.686 86.4003 128.739L86.6128 131.593C87.8345 131.488 91.4464 131.646 92.1369 133.55C92.5619 134.871 89.9592 141.586 87.8345 146.978C85.338 153.428 82.4697 160.777 80.9824 167.174L83.7976 167.808Z" fill="#8698BF"/>
<path d="M89.6406 182.664C89.6937 182.664 89.7468 182.664 89.7468 182.664C90.5436 182.611 91.1278 181.924 91.0747 181.131C90.756 177.43 89.7468 166.116 82.4167 166.063C82.4167 166.063 82.4167 166.063 82.3636 166.063C77.3175 166.063 73.5462 170.927 71.1559 180.602C70.9435 181.395 71.4215 182.136 72.2183 182.347C73.015 182.506 73.7587 182.083 73.9711 181.29C75.0866 176.69 77.6893 168.971 82.3636 168.971C85.4975 168.971 87.4628 173.148 88.1533 181.395C88.2595 182.136 88.8969 182.664 89.6406 182.664Z" fill="#8698BF"/>
<path d="M86.2939 197.362C87.1969 197.362 88.5779 197.203 89.5871 196.304C90.1714 195.829 90.915 194.877 90.9681 193.185C91.0213 190.172 91.0744 185.678 90.5963 181.131C90.5432 180.602 90.0652 180.232 89.534 180.285C89.0028 180.338 88.631 180.814 88.6841 181.343C89.1091 185.784 89.1091 190.225 89.0559 193.185C89.0559 193.925 88.8435 194.507 88.3654 194.824C87.5687 195.511 86.0814 195.459 85.6034 195.353C85.0722 195.3 84.5941 195.617 84.4879 196.146C84.3817 196.675 84.7535 197.15 85.2846 197.256C85.3909 197.309 85.7627 197.362 86.2939 197.362Z" fill="#E1E4F4"/>
<path d="M74.0243 196.622C74.5555 196.622 74.9273 196.516 74.9804 196.516C75.5116 196.41 75.8303 195.881 75.6709 195.353C75.5647 194.824 75.0335 194.507 74.5023 194.665C74.4492 194.665 73.3869 194.877 72.6432 194.295C72.0058 193.767 71.6871 192.604 71.7934 191.018C71.8996 188.85 72.4308 185.096 73.44 181.237C73.5993 180.708 73.2807 180.179 72.7495 180.074C72.2183 179.968 71.6871 180.232 71.5809 180.761C70.5186 184.779 70.0405 188.638 69.8812 190.912C69.7218 193.185 70.253 194.824 71.4216 195.776C72.3245 196.463 73.3338 196.622 74.0243 196.622Z" fill="#E1E4F4"/>
<path d="M73.9711 194.93L74.1304 196.41C74.1836 196.833 74.5023 197.15 74.9272 197.203L76.3082 197.362C76.8925 197.415 77.4237 196.939 77.3174 196.304L76.9987 194.243C76.8925 193.714 76.3613 193.344 75.8302 193.502L74.6085 193.925C74.1836 194.084 73.918 194.507 73.9711 194.93Z" fill="#E1E4F4"/>
<path d="M86.8256 195.723L86.6131 197.203C86.56 197.626 86.1882 197.943 85.7632 197.943L84.3822 198.049C83.7979 198.102 83.2668 197.573 83.4261 196.939L83.851 194.877C83.9573 194.348 84.5416 194.031 85.0727 194.189L86.2944 194.612C86.6662 194.877 86.8787 195.3 86.8256 195.723Z" fill="#E1E4F4"/>
<path d="M93.3056 200.428L91.1279 205.345C91.1279 205.345 86.9848 206.878 86.4536 208.623C85.9224 210.368 85.4975 214.068 84.7007 215.549C83.904 217.082 85.5506 217.135 86.6129 215.549C88.4189 213.011 86.9847 212.535 88.7376 211.689C88.7376 211.689 88.2064 213.117 87.994 216.659C87.9409 218.086 88.1533 218.139 87.8346 220.73C87.6753 221.999 86.8254 225.171 87.1441 225.805C87.7284 226.862 89.0563 226.915 89.375 224.853C89.5344 223.796 90.2249 222.474 90.3842 221.893C90.9685 220.042 90.8623 218.456 91.2341 218.245C91.5528 218.033 91.7653 220.042 91.659 221.629C91.5528 223.162 91.0216 225.012 90.8623 226.545C90.6498 228.607 92.8807 228.29 93.0401 226.281C93.1463 224.642 93.7306 223.373 94.1024 221.734L94.4211 220.465C94.4211 220.465 94.4211 222.897 94.368 223.215C94.1024 224.431 93.943 225.224 94.0493 225.964C94.2086 227.074 95.5897 227.814 95.9615 224.959C96.0677 223.955 96.8114 222.474 96.8114 222.474C96.8114 222.474 97.8206 221.893 97.9799 220.36C98.1393 218.826 97.9268 214.703 98.0862 213.857C98.2455 212.958 98.5111 209.363 97.8737 208.094C97.4488 207.195 96.9176 206.402 96.9176 206.402L99.2547 200.587L93.3056 200.428Z" fill="#CE7F67"/>
<path d="M88.4187 212.958L100.848 213.751C100.848 213.751 101.326 224.853 98.0859 227.549C94.8458 230.193 91.4995 231.937 86.8252 228.871C82.1509 225.805 88.4187 212.958 88.4187 212.958Z" fill="#E1E4F4"/>
<path d="M95.6426 135.083C106.107 139.894 106.638 145.022 108.975 173.413C109.453 179.44 102.92 209.733 101.963 209.469C97.7672 208.359 94.0491 206.614 88.3656 204.658L94.0491 168.866L88.0469 159.191L95.6426 135.083Z" fill="#F7F7FA"/>
<path d="M90.9684 155.12L91.9245 161.305L92.9337 167.491L93.943 173.676C94.0492 174.152 94.1023 174.734 94.1554 175.263C94.1554 175.527 94.1554 175.791 94.1554 176.056C94.1554 176.32 94.1554 176.584 94.1554 176.849C94.1023 177.906 93.9961 178.963 93.8898 180.021C93.4118 184.197 92.615 188.321 91.7121 192.445C90.8091 196.569 89.853 200.639 88.7906 204.71L88.4719 204.129C92.9869 205.768 97.5018 207.407 102.017 209.098L101.592 209.31C102.123 207.512 102.654 205.768 103.238 203.97C103.77 202.173 104.354 200.428 104.885 198.63C104.46 200.428 104.035 202.226 103.557 204.023C103.132 205.821 102.654 207.618 102.176 209.416L102.07 209.733L101.751 209.627C97.1831 208.094 92.615 206.561 88.047 204.975L87.6221 204.816L87.7283 204.393C88.7375 200.322 89.6936 196.251 90.5435 192.18C91.4465 188.11 92.2432 183.986 92.7744 179.862C92.9337 178.858 93.04 177.8 93.0931 176.796C93.0931 176.531 93.1462 176.267 93.1462 176.003C93.1462 175.738 93.1462 175.474 93.1462 175.263C93.1462 174.734 93.0931 174.258 92.9869 173.729C92.6682 171.667 92.4026 169.606 92.137 167.491C91.8714 165.429 91.6589 163.314 91.3934 161.252C91.3402 159.296 91.1278 157.234 90.9684 155.12Z" fill="#E1E4F4"/>
</g>
<defs>
<linearGradient id="paint0_linear" x1="56.1755" y1="77.6243" x2="59.6526" y2="106.998" gradientUnits="userSpaceOnUse">
<stop stop-color="#CE7F67"/>
<stop offset="0.3346" stop-color="#CB7D66"/>
<stop offset="0.59" stop-color="#C17663"/>
<stop offset="0.8183" stop-color="#B16B5D"/>
<stop offset="1" stop-color="#9E5E57"/>
</linearGradient>
</defs>
</svg>
