<svg width="48" height="48" viewBox="0 0 48 48" fill="none" xmlns="http://www.w3.org/2000/svg">
<path d="M40.5642 38.4396L16.873 44.7886C13.6861 45.6532 10.4252 43.751 9.56057 40.5642L3.21162 16.873C2.34698 13.6862 4.24919 10.4252 7.43602 9.56058L31.1272 3.23634C34.314 2.3717 37.575 4.27391 38.4396 7.46074L44.7886 31.1519C45.6285 34.3141 43.751 37.5997 40.5642 38.4396Z" fill="#E1E4F4"/>
<path d="M18.2317 38.7855L18.5281 38.0444C19.121 36.488 18.4046 36.0927 18.4046 36.0927C18.4046 36.0927 18.1329 34.8328 17.7623 35.1293C15.3907 37.0809 12.3027 40.3171 10.5981 42.664C11.3146 43.6028 12.3274 44.3192 13.4391 44.6897L18.1576 38.8596L18.2317 38.7855Z" fill="#FAC2A8"/>
<path d="M30.4847 37.2291C29.8424 38.1925 29.3483 39.2301 28.953 40.3171L29.7682 41.3299L33.4491 40.3418C32.5351 39.3042 31.4975 38.2172 30.4847 37.2291Z" fill="#FAC2A8"/>
<path d="M19.8124 23.5924C19.8124 23.5924 20.8746 29.6202 21.1464 33.7952L18.9724 34.8328L18.8983 39.8477L27.3224 40.8111L26.4825 35.2527L24.6791 33.7458V27.7674L19.8124 23.5924Z" fill="#FAC2A8"/>
<path d="M21.1217 33.3259C21.1464 33.4988 21.1464 33.647 21.1464 33.8199L18.9724 34.8575L18.8983 39.8724L27.3224 40.8359L26.4825 35.2775L24.8767 33.9435C23.6168 34.2152 22.2334 34.0176 21.1217 33.3259Z" fill="#FAC2A8"/>
<path d="M24.7038 27.7674L19.8124 23.5924C19.8124 23.5924 20.8499 29.9166 21.1711 34.0422C22.2828 34.7339 23.3451 34.8081 24.6297 34.5116L24.7038 33.7458V27.7674Z" fill="#DC918B"/>
<path d="M28.1378 17.3671C28.2861 17.3671 28.4096 17.2435 28.4096 17.0953C28.4096 16.9471 28.2861 16.8236 28.1378 16.8236C27.9896 16.8236 27.8661 16.9471 27.8661 17.0953C27.8661 17.2435 27.9896 17.3671 28.1378 17.3671Z" fill="white"/>
<path d="M30.6084 21.6656C30.6084 21.6656 31.4483 18.6023 33.3752 19.9116C35.3022 21.2209 33.1035 26.3346 30.2131 25.5688C30.2378 25.5688 29.7437 24.4324 30.6084 21.6656Z" fill="#F7AB8D"/>
<path d="M13.8589 7.80646C13.0436 11.438 15.0941 27.298 15.8352 28.3602C16.5763 29.4225 21.4183 33.5975 23.8887 33.2763C26.3591 32.9552 30.707 30.5342 31.3988 29.1508C32.0905 27.7673 32.2387 7.85586 32.2387 7.85586C23.2217 2.27274 13.8589 7.80646 13.8589 7.80646Z" fill="#FAC2A8"/>
<g opacity="0.3">
<path opacity="0.5" d="M21.7642 19.8126C21.6901 20.2079 21.0231 20.4055 20.2573 20.282C19.4914 20.1585 18.9232 19.7385 18.9973 19.3433C19.0715 18.948 19.7385 18.7504 20.5043 18.8739C21.2701 18.9974 21.8383 19.4174 21.7642 19.8126Z" fill="#EF3F54"/>
<path opacity="0.5" d="M31.2999 20.0846C31.3493 20.4304 30.8552 20.7763 30.1882 20.8998C29.5212 20.9986 28.9283 20.8257 28.8789 20.4798C28.8295 20.134 29.3236 19.7881 29.9906 19.6646C30.6576 19.5658 31.2505 19.7387 31.2999 20.0846Z" fill="#EF3F54"/>
</g>
<path d="M31.0773 15.3906C30.5338 14.8224 29.9409 14.4025 28.7552 14.4272C28.1623 14.526 27.5199 14.5754 28.014 13.8837C28.9034 12.8461 31.3738 13.8837 31.7443 15.5635C31.9667 16.3047 31.3738 15.8353 31.0773 15.3906Z" fill="#2B2E3A"/>
<path d="M19.3928 14.7484C19.9857 14.2296 20.628 13.8837 21.789 14.0072C22.3819 14.1555 23.0243 14.2543 22.5549 13.5379C21.7643 12.4262 19.1951 13.2414 18.701 14.8966C18.4046 15.5883 19.0469 15.1436 19.3928 14.7484Z" fill="#2B2E3A"/>
<path opacity="0.56" d="M27.9153 15.0696C27.9153 15.0696 25.5931 18.2811 27.8906 22.4067C27.8906 22.4067 25.3214 23.6666 23.4192 21.9373C23.4192 21.9373 24.8273 18.1082 24.0615 14.032C24.0862 14.032 25.9143 15.1931 27.9153 15.0696Z" fill="url(#paint0_linear)"/>
<path d="M27.9154 22.4067C27.9154 22.4067 25.0744 26.137 23.444 21.9373C23.444 21.9373 25.6426 22.7773 27.9154 22.4067Z" fill="#DC918B"/>
<path d="M28.9529 24.8276C28.9529 24.8276 24.358 26.9027 18.7996 22.8018C18.7996 22.8018 20.1583 28.8543 23.8639 29.3237C27.7424 29.3731 26.2355 26.8533 28.9529 24.8276Z" fill="#2B2E3A"/>
<path d="M20.677 27.1005C23.5427 27.224 24.9755 28.2122 25.6919 29.0521C25.272 29.2497 24.6791 29.3486 23.8638 29.3239C22.5051 29.1509 21.4428 28.2122 20.677 27.1005Z" fill="#F97A7A"/>
<path d="M28.9529 24.8276C28.1377 25.4452 27.9154 25.8651 27.5201 26.458C25.7661 26.8039 22.8263 26.5074 19.5654 24.8276C18.9231 23.4441 18.7996 22.8018 18.7996 22.8018C24.358 26.878 28.9529 24.8276 28.9529 24.8276Z" fill="white"/>
<path d="M28.9529 24.8277C28.5329 25.0006 28.113 25.1241 27.6683 25.2229C27.2236 25.3217 26.779 25.3711 26.3343 25.3959C26.1119 25.3959 25.8896 25.4206 25.6673 25.3959C25.4449 25.3959 25.2226 25.3711 25.0003 25.3464C24.7779 25.3217 24.5556 25.297 24.3333 25.2723C24.1109 25.2476 23.8886 25.1982 23.6662 25.1488C23.4439 25.0994 23.2216 25.05 22.9992 24.9759C22.7769 24.9265 22.5793 24.8524 22.3569 24.7783C22.1346 24.7041 21.937 24.63 21.7146 24.5312C21.517 24.4324 21.2947 24.3583 21.097 24.2595C20.8994 24.1606 20.7018 24.0618 20.5041 23.963C20.3065 23.8642 20.1089 23.7407 19.9112 23.6172C19.7136 23.4936 19.5407 23.3701 19.343 23.2466L18.7995 22.8513L18.9231 22.7772C18.9972 23.1231 19.1207 23.4689 19.2195 23.8148C19.343 24.1607 19.4666 24.5065 19.5901 24.8277C19.8618 25.4947 20.183 26.137 20.5782 26.7546C20.9735 27.3475 21.4182 27.9157 21.9864 28.385C22.5299 28.8297 23.1969 29.1509 23.9133 29.2497C24.0615 29.2497 24.2097 29.2497 24.358 29.2497C24.5062 29.2497 24.6544 29.225 24.8026 29.225C24.9509 29.2003 25.0991 29.1756 25.2473 29.1509C25.3214 29.1262 25.3955 29.1262 25.4696 29.1015C25.5438 29.0768 25.6179 29.0521 25.6673 29.0274C25.8155 28.9779 25.939 28.9038 26.0625 28.8297C26.1861 28.7556 26.2849 28.6568 26.3837 28.5333C26.5813 28.3109 26.7296 28.0639 26.8778 27.7921C27.1495 27.2487 27.3719 26.6805 27.7177 26.1617C27.7918 26.0382 27.8906 25.9146 27.9895 25.7911C28.0883 25.6676 28.1871 25.5688 28.2859 25.4453C28.3847 25.3464 28.5082 25.2229 28.6318 25.1241C28.7059 25.0006 28.8294 24.9018 28.9529 24.8277ZM28.9529 24.8277C28.8294 24.9265 28.7059 25.0253 28.6071 25.1241C28.4835 25.2229 28.3847 25.3464 28.2859 25.4453C28.1871 25.5688 28.0883 25.6676 27.9895 25.7911C27.8906 25.9146 27.8165 26.0382 27.7424 26.1617C27.5695 26.4087 27.446 26.6805 27.3224 26.9522C27.1989 27.224 27.0754 27.5204 26.9519 27.7921C26.8284 28.0639 26.6801 28.3356 26.4578 28.5827C26.359 28.7062 26.2355 28.805 26.1119 28.9038C25.9884 29.0026 25.8402 29.0768 25.692 29.1262C25.6179 29.1509 25.5438 29.1756 25.4696 29.2003C25.3955 29.225 25.3214 29.2497 25.2473 29.2744C25.0991 29.3238 24.9509 29.3485 24.8026 29.3485C24.6544 29.3732 24.5062 29.3732 24.3333 29.3979C24.185 29.3979 24.0368 29.3979 23.8639 29.3979C23.1228 29.3238 22.431 28.9779 21.8629 28.5333C21.2947 28.0639 20.8253 27.4957 20.4053 26.8781C20.01 26.2605 19.6889 25.5935 19.3924 24.9265C19.2689 24.5559 19.1454 24.2101 19.0219 23.8642C18.8984 23.5183 18.7995 23.1725 18.7254 22.8019L18.676 22.5796L18.849 22.7031L19.3924 23.0984C19.5901 23.2219 19.763 23.3454 19.9606 23.4689C20.1583 23.5925 20.3312 23.6913 20.5288 23.8148C20.7265 23.9136 20.9241 24.0371 21.1217 24.1112C21.3194 24.2101 21.517 24.3089 21.7393 24.383C21.937 24.4818 22.1593 24.5559 22.3569 24.63C22.5793 24.7041 22.7769 24.7783 22.9992 24.8277C23.2216 24.9018 23.4192 24.9512 23.6415 25.0006C23.8639 25.05 24.0862 25.0994 24.3086 25.1241C24.5309 25.1735 24.7532 25.1982 24.9756 25.2229C25.1979 25.2476 25.4202 25.2476 25.6426 25.2723C25.8649 25.2723 26.0872 25.2723 26.3096 25.2723C26.7543 25.2476 27.1989 25.2229 27.6436 25.1488C28.0883 25.0747 28.5329 24.9759 28.9529 24.8277Z" fill="#DC918B"/>
<path d="M19.8618 22.6784C19.8618 22.6784 19.7136 22.629 19.5159 22.6043C19.4665 22.6043 19.4171 22.6043 19.343 22.6043C19.2936 22.6043 19.2195 22.6043 19.1454 22.6043C19.0713 22.629 19.0219 22.629 18.9477 22.6537C18.923 22.6537 18.8736 22.6784 18.8489 22.6784L18.7748 22.7278C18.7007 22.7525 18.6513 22.802 18.6019 22.8267C18.5525 22.8761 18.5031 22.9008 18.4537 22.9502C18.4043 22.9996 18.3795 23.049 18.3301 23.0984C18.3054 23.1478 18.256 23.1972 18.2313 23.2466C18.2066 23.296 18.1819 23.3207 18.1572 23.3702C18.1325 23.4196 18.1078 23.4443 18.1078 23.469C18.0337 23.4937 18.0337 23.5431 18.0337 23.5431C18.0337 23.5431 18.0337 23.5184 18.0584 23.4443C18.0831 23.3949 18.0831 23.296 18.1325 23.1972C18.1572 23.1478 18.1819 23.0984 18.2066 23.0243C18.2313 22.9749 18.2807 22.9008 18.3301 22.8514C18.3795 22.802 18.429 22.7525 18.5031 22.7031C18.5772 22.6537 18.6266 22.6043 18.7007 22.5796L18.7995 22.5302C18.8489 22.5055 18.8736 22.5055 18.923 22.5055C18.9971 22.4808 19.0713 22.4808 19.1454 22.4808C19.2195 22.4808 19.2936 22.4808 19.343 22.5055C19.4171 22.5055 19.4665 22.5302 19.5159 22.5549C19.7383 22.5796 19.8618 22.6784 19.8618 22.6784Z" fill="#DC918B"/>
<path d="M15.8105 14.6496C15.8105 14.6496 16.5516 13.365 15.7117 10.6475C14.8717 7.93009 15.3164 7.48541 15.3164 7.48541C15.3164 7.48541 15.4893 6.49725 14.847 5.13853C14.2047 3.77981 14.1553 3.43395 13.2166 3.92803C11.1908 5.01501 9.48625 7.16426 9.36273 11.1416C9.31332 12.9203 12.6237 20.3315 12.8213 21.1962L14.18 20.455C14.18 20.455 15.1929 21.8138 15.4646 23.2713C15.4646 23.2713 15.4399 19.0222 14.9211 16.3542C14.4271 13.7108 15.0694 14.3531 15.8105 14.6496Z" fill="#2B2E3A"/>
<path d="M14.4763 20.7022C14.4763 20.7022 13.7105 18.4047 11.833 19.4423C9.95546 20.4799 10.746 26.4829 15.0692 24.7042C15.0692 24.7042 16.0574 23.6173 14.4763 20.7022Z" fill="#FAC2A8"/>
<path d="M14.4765 20.7022C14.4765 20.7022 13.7107 18.4047 11.8332 19.4423C9.95571 20.4799 10.9686 27.1747 15.2671 25.396C15.2671 25.396 16.0576 23.6173 14.4765 20.7022Z" fill="#FAC2A8"/>
<path d="M12.2285 21.2703C12.2285 21.0727 12.2532 20.8751 12.352 20.7022C12.4014 20.6033 12.4508 20.5292 12.5249 20.4551C12.5991 20.381 12.6979 20.3316 12.7967 20.3069C12.8955 20.2822 12.9943 20.2822 13.0931 20.3069C13.192 20.3316 13.2661 20.4057 13.3402 20.4798C13.4884 20.628 13.5872 20.801 13.686 20.9739C13.7849 21.1468 13.859 21.3198 13.9084 21.5174C14.0319 21.8879 14.1307 22.2585 14.2048 22.6538V22.6785H14.1801C13.9825 22.7279 13.7849 22.8267 13.6366 22.9996C13.5625 23.0737 13.5131 23.1726 13.5131 23.2714C13.4884 23.3702 13.5131 23.4937 13.5378 23.5925C13.5378 23.6419 13.5625 23.6913 13.5872 23.7408C13.6119 23.7902 13.6366 23.8396 13.6613 23.889C13.686 23.9384 13.7107 23.9878 13.7354 24.0372C13.7601 24.0866 13.7849 24.136 13.8343 24.1607C13.9578 24.3337 14.106 24.5066 14.2789 24.6548C14.106 24.5066 13.9578 24.3584 13.8096 24.1854C13.6613 24.0125 13.5378 23.8396 13.4884 23.6172C13.4637 23.5184 13.439 23.3949 13.4637 23.2714C13.4884 23.1479 13.5378 23.049 13.5872 22.9502C13.6613 22.8514 13.7601 22.7773 13.8343 22.7279C13.9331 22.6785 14.0319 22.6291 14.1554 22.6044L14.1307 22.6538C14.0566 22.2832 13.9578 21.9127 13.8343 21.5421C13.7601 21.3692 13.7107 21.1715 13.6119 20.9986C13.5378 20.8257 13.4143 20.6527 13.2908 20.5292C13.2167 20.4551 13.1425 20.4057 13.0684 20.381C12.9943 20.3563 12.8955 20.3563 12.7967 20.381C12.6979 20.4057 12.6238 20.4551 12.5496 20.5045C12.4755 20.5786 12.4261 20.6527 12.3767 20.7269C12.2779 20.8751 12.2532 21.0727 12.2285 21.2703C12.2285 21.468 12.2532 21.6656 12.2532 21.8385C12.2285 21.6656 12.2038 21.468 12.2285 21.2703Z" fill="#C28482"/>
<path d="M14.7975 8.37467C14.7975 8.37467 18.8984 10.104 23.5428 9.41224C23.5428 9.41224 22.1593 8.25115 22.0111 7.3618C22.0111 7.3618 24.0615 8.79464 26.359 9.11579C28.6565 9.43695 31.7692 9.43695 32.0657 11.1168C32.0657 11.1168 32.7574 10.1781 31.8186 7.63355C30.8799 5.08903 23.5181 -4.00206 13.2659 4.59495C13.2412 4.61965 12.5989 9.63458 14.7975 8.37467Z" fill="#2B2E3A"/>
<path d="M32.387 8.54758C32.387 8.54758 33.1528 7.53472 33.6963 10.2769C34.2398 13.019 32.8811 19.9362 31.9917 20.6032C31.9917 18.2563 31.9423 10.1039 31.2753 9.09107C30.633 8.0535 32.387 8.54758 32.387 8.54758Z" fill="#2B2E3A"/>
<path d="M35.9442 6.59605C34.0667 7.60892 32.288 4.39739 32.288 4.39739L33.9432 5.0644C33.9432 5.0644 34.3138 3.68097 29.7929 1.16116C25.2968 -1.35866 19.0714 0.93882 17.4903 1.58113C15.9093 2.24814 15.4399 0.494147 15.4399 0.494147C13.5624 1.75405 12.8459 5.26203 12.8459 5.26203C18.355 3.63156 26.0626 6.2749 31.0281 8.91823C35.9937 11.5616 37.1547 5.63259 37.1547 5.63259C36.7101 6.07727 35.9442 6.59605 35.9442 6.59605Z" fill="#2B2E3A"/>
<path d="M29.1262 18.701C29.4968 18.701 29.7685 18.4046 29.7685 18.0587C29.7685 17.6882 29.472 17.4164 29.1262 17.4164C28.7556 17.4164 28.4839 17.7129 28.4839 18.0587C28.4839 18.4046 28.7803 18.701 29.1262 18.701Z" fill="#2B2E3A"/>
<path d="M28.9037 18.0586C29.0273 18.0586 29.1261 17.9598 29.1261 17.8363C29.1261 17.7128 29.0273 17.614 28.9037 17.614C28.7802 17.614 28.6814 17.7128 28.6814 17.8363C28.7061 17.9598 28.7802 18.0586 28.9037 18.0586Z" fill="white"/>
<path d="M21.6902 18.281C22.0607 18.281 22.3325 17.9846 22.3325 17.6387C22.3325 17.2682 22.036 16.9964 21.6902 16.9964C21.3196 16.9964 21.0479 17.2929 21.0479 17.6387C21.0479 17.9846 21.3196 18.281 21.6902 18.281Z" fill="#2B2E3A"/>
<path d="M21.4677 17.6389C21.5912 17.6389 21.69 17.54 21.69 17.4165C21.69 17.293 21.5912 17.1942 21.4677 17.1942C21.3442 17.1942 21.2454 17.293 21.2454 17.4165C21.2454 17.54 21.3442 17.6389 21.4677 17.6389Z" fill="white"/>
<path d="M16.8725 44.7886L28.9528 41.5524C28.4834 38.1432 27.9646 35.3269 27.4953 34.8082C26.3836 34.6599 24.7531 34.24 24.7531 34.24L24.8272 35.9939C24.8272 35.9939 23.592 37.4515 22.9497 38.1926C22.6286 37.7726 21.0722 35.9939 21.0722 35.9939C21.0722 35.9939 21.0475 35.0305 20.9981 34.1906C20.9981 34.1906 19.2441 34.3882 18.6265 34.5858C17.6136 34.9317 17.1937 35.4752 17.1937 35.4752C16.7243 36.1916 16.329 40.4654 16.1067 44.9121C16.3537 44.9121 16.6255 44.8627 16.8725 44.7886Z" fill="#EF3F54"/>
<path d="M21.0973 32.98C21.1467 32.98 21.1467 35.5492 21.5667 36.2409L20.1339 37.3773C20.1339 37.3773 19.6892 36.5374 20.1092 34.3387L21.0973 32.98Z" fill="#BD1A3B"/>
<path d="M24.7039 33.2765C24.7039 33.2765 24.6298 35.0552 24.4321 36.0433L25.9638 37.4268C25.9638 37.4268 26.2849 36.0928 25.692 34.4129L24.7039 33.2765Z" fill="#BD1A3B"/>
<path d="M24.432 36.0681L22.851 37.6985L21.5663 36.241L20.8746 36.5621L22.9498 38.7608L25.1237 36.3398L24.432 36.0681Z" fill="#BD1A3B"/>
<path d="M20.0841 41.7006C20.0347 41.7006 20.01 41.7253 19.9852 41.75L19.59 42.2935L19.4418 41.7747C19.4171 41.7253 19.3924 41.7006 19.3676 41.7006C19.3182 41.7006 19.2935 41.7253 19.2688 41.7747L18.923 42.4664H19.1206L19.3676 41.9723L19.5159 42.4664H19.6888L20.0347 41.997V42.4664H20.2076V41.7994C20.1582 41.7253 20.1088 41.7006 20.0841 41.7006Z" fill="white"/>
<path d="M18.6514 41.8241L18.5032 42.4664H18.6761L18.8243 41.8241H18.6514Z" fill="white"/>
<path d="M18.355 41.997C18.355 41.9229 18.3056 41.8241 18.1326 41.8241H17.7868L17.6385 42.4664H17.8115L17.8609 42.2193H17.9597L18.1079 42.4664H18.3056L18.1326 42.2193C18.2809 42.1699 18.355 42.0711 18.355 41.997ZM18.0338 42.0958H17.9103L17.9597 41.8982H18.0832C18.1573 41.8982 18.182 41.9229 18.182 41.997C18.182 42.0711 18.1079 42.0958 18.0338 42.0958Z" fill="white"/>
<path d="M20.8995 42.4664H21.0724L20.9242 41.8735C20.8995 41.7994 20.8501 41.7994 20.8254 41.7994C20.8007 41.7994 20.776 41.8241 20.7513 41.8488L20.3313 42.4664H20.5042L20.5783 42.3429H20.8995V42.4664ZM20.6277 42.2193L20.776 41.997L20.8254 42.2441L20.6277 42.2193Z" fill="white"/>
<path d="M21.6157 42.3429C21.4674 42.3429 21.3933 42.2688 21.3933 42.1452C21.418 41.997 21.5416 41.9229 21.7145 41.9229C21.7639 41.9229 21.838 41.9229 21.8874 41.9476L21.9121 41.8241C21.8627 41.8241 21.7886 41.7994 21.7145 41.7994C21.418 41.7994 21.2204 41.9476 21.1957 42.1452C21.171 42.3182 21.2945 42.4664 21.591 42.4664C21.6404 42.4664 21.6898 42.4664 21.7639 42.4417L21.7886 42.2935C21.7392 42.3429 21.6898 42.3429 21.6157 42.3429Z" fill="white"/>
<path d="M27.4954 34.8328L27.199 39.6995L28.8789 41.33L29.0765 41.5276L33.6961 40.2924C31.9174 38.1184 30.4846 35.5986 27.4954 34.8328Z" fill="#EF3F54"/>
<path d="M14.8965 43.825C14.8965 43.7015 19.2444 40.5147 19.4174 39.1559C19.5903 37.7972 20.2573 34.3139 19.4668 34.4128C17.2928 34.6598 16.4529 34.4869 14.2048 37.6737C12.772 39.7241 11.8579 40.8111 11.8579 40.8111L14.8965 43.825Z" fill="#EF3F54"/>
<defs>
<linearGradient id="paint0_linear" x1="25.6609" y1="17.9301" x2="25.8741" y2="23.364" gradientUnits="userSpaceOnUse">
<stop stop-color="#FAC2A8"/>
<stop offset="1" stop-color="#DC918B"/>
</linearGradient>
</defs>
</svg>
