<svg width="48" height="48" viewBox="0 0 48 48" fill="none" xmlns="http://www.w3.org/2000/svg">
<path d="M40.5441 38.4336L16.8536 44.7923C13.6742 45.6364 10.4104 43.7513 9.53822 40.5719L3.17948 16.8814C2.3354 13.702 4.22051 10.4383 7.39988 9.56605L31.0904 3.20731C34.2698 2.36323 37.5336 4.24834 38.4058 7.42771L44.7645 31.1182C45.6367 34.2976 43.7235 37.5895 40.5441 38.4336Z" fill="#E1E4F4"/>
<path d="M40.3753 12.9986C40.0376 12.267 39.4749 11.6199 38.7153 11.1697L20.9896 0.928239C19.6672 0.168567 18.0071 0.984511 17.8102 2.47572L15.2779 20.5109C15.0529 22.1428 15.8407 23.7465 17.2475 24.5906L19.2451 25.7442L18.6261 30.1053L22.7059 27.7418L29.7117 31.7934L36.4925 15.1651L40.3753 12.9986Z" fill="#F97A7A"/>
<path d="M18.6262 26.7008L16.3754 31.0619L19.5829 30.2178L22.6216 28.5015L18.6262 26.7008Z" fill="#57617F"/>
<path d="M36.7738 35.0854L34.6355 35.9576L35.7047 34.5227L36.7738 35.0854Z" fill="#57617F"/>
<path d="M40.3753 12.9987L36.5207 15.1933L29.7399 31.8216L35.0294 34.8885C36.3518 35.6481 38.0119 34.8322 38.2088 33.341L40.6848 15.2214C40.8255 14.4617 40.6848 13.6739 40.3753 12.9987Z" fill="#57617F"/>
<path d="M18.9918 0.871948L16.741 1.77229L23.1278 7.11813L18.9918 0.871948Z" fill="#F97A7A"/>
<path d="M18.7104 1.85682L36.4361 12.0983C37.871 12.9143 38.6026 14.8556 38.3775 16.4875L35.9578 34.2695C35.7608 35.7607 34.0727 36.5766 32.7784 35.817L20.483 28.6704L16.3751 31.062L16.9941 26.7009L14.9964 25.5473C13.5615 24.7314 12.7737 23.0995 13.0269 21.4676L15.5592 3.43243C15.7561 1.91309 17.4161 1.09715 18.7104 1.85682Z" fill="white"/>
<path d="M26.7011 27.4042C25.6882 27.4042 24.6753 27.1509 23.775 26.6163C19.5546 24.1685 17.2756 19.4979 17.979 14.6586C18.2603 12.689 19.5264 10.9727 21.3272 10.1005C23.1279 9.22831 25.2381 9.28458 26.9825 10.2975C31.0904 12.6328 33.285 17.1908 32.6097 21.8614L32.5253 22.3678C32.2439 24.3092 31.0341 25.9411 29.2615 26.8133C28.4456 27.2072 27.5734 27.4042 26.7011 27.4042ZM23.9719 10.1005C23.156 10.1005 22.3682 10.2975 21.5804 10.6632C19.9485 11.451 18.8512 12.9423 18.5698 14.7711C17.8946 19.3573 20.0329 23.8027 24.0564 26.1099C25.6038 26.9821 27.3764 27.0665 28.9802 26.2787C30.5839 25.4909 31.6249 24.056 31.9063 22.3115L31.9907 21.8051C32.6378 17.3877 30.5558 13.0829 26.673 10.8602C25.8289 10.3256 24.9004 10.1005 23.9719 10.1005Z" fill="#92DDDA"/>
<path d="M26.4759 17.2755L24.3095 16.0375L23.3247 23.0433L25.463 24.3095L26.4759 17.2755Z" fill="#EF3F54"/>
<path d="M25.5475 15.8966C24.7597 15.4464 24.3376 14.5742 24.4783 13.702C24.5909 12.9423 25.4349 12.5484 26.0821 12.9142C26.8417 13.3362 27.2356 14.1803 27.1231 15.0525L27.095 15.1369C27.0106 15.8684 26.1946 16.2624 25.5475 15.8966Z" fill="#EF3F54"/>
</svg>
