<svg width="125" height="222" viewBox="0 0 125 222" fill="none" xmlns="http://www.w3.org/2000/svg">
<mask id="mask0" mask-type="alpha" maskUnits="userSpaceOnUse" x="0" y="0" width="125" height="222">
<path d="M0.5 0.5H124.5V221.5H0.5V0.5Z" fill="#C4C4C4" stroke="black"/>
</mask>
<g mask="url(#mask0)">
<path d="M22.4717 174.066C22.4717 174.066 23.7068 178.033 27.3 177.359C32.2032 176.461 32.8395 171.109 32.8395 171.109C32.8395 171.109 32.2032 169.799 29.4335 170.285C23.37 171.296 22.4717 174.066 22.4717 174.066Z" fill="#31374C"/>
<path d="M21.5319 167.628C21.5319 167.628 27.9697 183.76 30.5897 188.401C31.9745 190.834 39.3855 187.952 39.2732 187.166C38.9737 185.257 28.1194 165.42 28.1194 165.42C27.1462 160.592 20.4464 162.65 21.5319 167.628Z" fill="#FAC2A8"/>
<path d="M32.8395 171.109L36.8069 180.84C36.8069 180.84 37.1812 179.53 37.4058 179.418C37.7052 179.268 38.7158 179.493 38.7158 179.493C39.3147 177.921 42.2716 172.681 43.8436 170.023C46.5759 165.382 47.9607 164.633 50.431 163.81C62.1837 170.061 43.0201 193.004 36.8818 194.464C28.872 196.373 22.4717 173.991 22.4717 173.991C23.2203 175.525 31.754 174.664 32.8395 171.109Z" fill="white"/>
<path d="M22.4724 174.065C22.8467 174.851 23.1087 175.675 23.3707 176.498L23.745 177.733C23.8573 178.145 24.007 178.557 24.1193 178.968C23.8573 178.631 23.6327 178.22 23.4456 177.845C23.2584 177.434 23.1087 177.022 22.9964 176.61C22.7344 175.787 22.5473 174.926 22.4724 174.065Z" fill="#BFC6F2"/>
<path d="M32.8416 171.109C33.2158 171.895 33.5901 172.718 33.927 173.504C34.3013 174.29 34.6381 175.114 35.0124 175.9C35.7236 177.509 36.3973 179.119 37.1084 180.728L36.4722 180.766C36.547 180.504 36.6219 180.279 36.6967 180.054C36.7716 179.792 36.8464 179.605 37.0336 179.306C37.071 179.268 37.071 179.231 37.1459 179.156C37.2207 179.081 37.2582 179.081 37.333 179.044C37.4453 179.006 37.5202 179.006 37.595 179.006C37.7447 179.006 37.8945 179.006 38.0067 179.006C38.2687 179.044 38.5307 179.081 38.7553 179.119L38.3436 179.343C38.6805 178.52 39.0547 177.771 39.429 177.023C39.8033 176.274 40.215 175.526 40.6268 174.814C41.4502 173.355 42.2736 171.895 43.1345 170.473C43.9954 169.05 44.8936 167.591 46.0539 166.318C46.6154 165.682 47.2891 165.12 48.0377 164.709C48.7863 164.297 49.5723 164.035 50.3957 163.81C49.6097 164.11 48.8237 164.447 48.15 164.896C47.4762 165.345 46.9148 165.944 46.3908 166.58C45.3802 167.853 44.5568 169.312 43.7334 170.772C42.9099 172.232 42.1239 173.692 41.3005 175.151L40.1028 177.36C39.7285 178.108 39.3167 178.857 39.0173 179.568L38.905 179.867L38.6056 179.792C38.381 179.755 38.1565 179.68 37.9319 179.68C37.8196 179.68 37.7073 179.643 37.6324 179.643C37.595 179.643 37.5576 179.643 37.5202 179.643C37.5202 179.68 37.595 179.568 37.5576 179.605C37.4827 179.718 37.3704 179.98 37.2956 180.167C37.2207 180.391 37.1459 180.616 37.071 180.84L36.809 181.739L36.4722 180.878C35.8359 179.231 35.1996 177.622 34.6007 175.975C34.3013 175.151 34.0018 174.328 33.7024 173.504C33.4404 172.756 33.141 171.932 32.8416 171.109Z" fill="#BFC6F2"/>
<path d="M37.4036 181.364C37.4036 181.364 38.6387 182.599 38.9381 183.348C39.275 184.134 40.6973 181.551 37.4036 181.364Z" fill="#F7F7FA"/>
<path d="M42.3815 208.163L39.9112 236.235C39.7989 237.507 40.6598 238.668 41.8949 238.93C47.7713 240.202 64.9137 242.86 84.9007 236.721L46.5735 173.691L42.3815 208.163Z" fill="#8698BF"/>
<path d="M27.8228 135.738C27.8228 135.738 29.8439 148.951 25.3899 149.961C25.3899 149.961 28.4591 154.752 33.774 153.18C33.774 153.18 32.4639 155.014 31.1165 155.164C31.1165 155.164 34.4103 157.971 37.2923 157.148C37.2923 157.148 41.5217 160.441 45.3395 161.265C56.6804 163.698 69.818 158.158 66.0751 152.956C59.8619 144.197 27.8228 135.738 27.8228 135.738Z" fill="#2B2E3A"/>
<path d="M87.5955 154.116C87.5955 154.116 79.0991 165.494 65.9616 160.367C57.1658 156.923 74.1959 144.909 74.1959 144.909C74.1959 144.909 97.3644 150.373 87.5955 154.116Z" fill="#2B2E3A"/>
<path d="M64.5017 158.046C64.5017 158.046 69.1055 156.998 72.2869 160.179L66.186 164.596L64.5017 158.046Z" fill="#BFC6F2"/>
<path d="M57.9909 155.688L57.8412 162.425L52.8257 163.773L58.8892 170.061L70.567 164.035L66.7492 161.901L67.1609 147.603L57.9909 155.688Z" fill="#FAC2A8"/>
<path d="M57.8779 160.89C57.8779 160.89 64.2034 160.441 66.8609 157.933L67.3474 142.7L57.9902 154.191L57.8779 160.89Z" fill="#DC918B"/>
<path d="M44.3318 220.927C44.3318 220.927 45.4921 247.202 45.7541 248.886C46.0161 250.57 46.2781 281.599 46.2781 281.599C46.2781 281.599 51.5556 283.021 55.6727 281.187C55.6727 281.187 55.4482 277.257 55.4856 275.797C55.5605 272.129 57.2822 261.949 57.3945 257.532C57.4693 254.163 56.7582 249.784 56.7582 249.784L59.6776 224.37C59.6402 224.37 56.4587 217.932 44.3318 220.927Z" fill="#343948"/>
<path d="M73.8234 208.65C73.8234 208.65 76.0317 217.558 76.0317 218.344C76.0317 219.13 76.5931 250.682 76.5931 250.682C76.5931 250.682 78.3148 257.008 78.5768 259.179C79.2131 264.381 79.6623 287.849 79.6623 287.849C79.6623 287.849 76.2188 290.581 70.3051 287.849C70.0431 282.122 69.5939 277.706 69.5939 277.706L66.375 254.65L58.3278 226.877C50.58 225.343 44.554 221.413 44.292 220.926C45.34 209.174 46.126 207.227 46.126 207.227L73.8234 208.65Z" fill="#474E64"/>
<path d="M44.5168 218.98C45.49 208.949 46.2011 207.227 46.2011 207.227L73.8611 208.65C73.8611 208.65 76.0694 217.558 76.0694 218.344C76.0694 218.381 76.0694 218.418 76.0694 218.493C69.7439 222.311 57.879 225.418 44.5168 218.98Z" fill="#474E64"/>
<path d="M66.7517 161.901C62.934 162.762 58.2928 166.617 58.2928 166.617C58.2928 166.617 56.8331 163.436 57.1325 162.725C56.2342 162.949 52.4539 164.521 52.4539 164.521C52.4539 164.521 48.4116 173.579 47.7378 177.097C47.6256 178.557 48.5613 193.566 48.5613 193.566C48.5613 193.566 47.6256 200.041 45.043 210.259C49.5719 214.938 70.3823 215.836 75.8095 210.409C73.9381 205.132 71.9169 197.421 71.7672 195.325C71.6549 193.416 73.4515 180.129 75.4726 172.868C77.5687 167.852 73.2643 164.371 73.2643 164.371L66.7517 161.901Z" fill="#FFB75E"/>
<path d="M53.428 207.826C53.7795 207.826 54.0643 207.541 54.0643 207.19C54.0643 206.838 53.7795 206.554 53.428 206.554C53.0766 206.554 52.7917 206.838 52.7917 207.19C52.7917 207.541 53.0766 207.826 53.428 207.826Z" fill="#E88636"/>
<path d="M54.4737 196.223C54.8251 196.223 55.11 195.938 55.11 195.587C55.11 195.235 54.8251 194.951 54.4737 194.951C54.1223 194.951 53.8374 195.235 53.8374 195.587C53.8374 195.938 54.1223 196.223 54.4737 196.223Z" fill="#E88636"/>
<path d="M55.2213 181.439C55.5727 181.439 55.8575 181.154 55.8575 180.803C55.8575 180.451 55.5727 180.167 55.2213 180.167C54.8698 180.167 54.585 180.451 54.585 180.803C54.585 181.154 54.8698 181.439 55.2213 181.439Z" fill="#E88636"/>
<path d="M58.3677 171.333C58.7191 171.333 59.004 171.048 59.004 170.697C59.004 170.346 58.7191 170.061 58.3677 170.061C58.0163 170.061 57.7314 170.346 57.7314 170.697C57.7314 171.048 58.0163 171.333 58.3677 171.333Z" fill="#E88636"/>
<path d="M51.628 213.515C51.5906 213.515 51.5906 213.515 51.628 213.515C51.4034 213.478 51.2537 213.328 51.2911 213.141C51.3286 212.954 53.2749 193.378 52.414 183.198C51.7028 174.963 57.7663 166.766 58.0283 166.43C58.1406 166.28 58.3652 166.242 58.5149 166.355C58.6646 166.467 58.702 166.692 58.5898 166.841C58.5149 166.916 52.4514 175.188 53.1251 183.123C53.986 193.378 52.0397 212.991 52.0023 213.178C51.9649 213.365 51.7777 213.515 51.628 213.515Z" fill="#E88636"/>
<path d="M66.788 159.805C65.1037 160.891 62.8954 162.313 60.0508 163.511L61.3234 169.05C64.6171 168.04 67.3494 165.195 69.8197 161.302L66.8628 158.308L66.788 159.805Z" fill="#FFD385"/>
<path d="M60.0531 163.548L58.2939 166.617L60.5022 165.42L60.0531 163.548Z" fill="#E88636"/>
<path d="M57.7301 163.286L58.2915 166.617L56.3452 164.409L57.7301 163.286Z" fill="#E88636"/>
<path d="M56.7215 162.051C56.7215 162.051 51.8183 167.927 48.9737 175.151C45.8671 182.974 45.5677 200.416 42.3862 208.163C42.3862 208.163 43.4717 198.694 43.9957 189.037C44.3325 182.225 44.6694 179.568 44.8565 176.648C45.156 172.194 51.2943 163.511 51.2943 163.511C51.2943 163.511 52.8289 163.773 56.7215 162.051Z" fill="white"/>
<path d="M48.9702 175.188C50.8042 171.109 53.3868 166.243 56.9051 162.762L57.8783 162.425L57.9157 160.067C56.3063 160.404 53.05 162.088 51.5528 164.708C49.1199 169.013 48.9702 175.188 48.9702 175.188Z" fill="#E1E4F4"/>
<path d="M46.6524 179.792L45.043 179.642C46.091 168.002 51.5182 159.431 57.8811 159.244L57.9185 160.853C53.2773 161.04 47.7378 167.703 46.6524 179.792Z" fill="#8698BF"/>
<path d="M46.4512 182.249C47.1047 181.004 46.7146 179.513 45.5798 178.917C44.4451 178.321 42.9954 178.847 42.3419 180.091C41.6884 181.336 42.0786 182.828 43.2133 183.424C44.3481 184.02 45.7977 183.494 46.4512 182.249Z" fill="#57617F"/>
<path d="M49.0251 183.609C50.1302 181.505 49.7798 179.144 48.2424 178.337C46.705 177.529 44.5628 178.581 43.4576 180.686C42.3525 182.791 42.7029 185.151 44.2403 185.959C45.7777 186.766 47.9199 185.714 49.0251 183.609Z" fill="#8698BF"/>
<path d="M70.4944 159.169C70.4944 159.169 64.0567 176.498 63.2332 193.004C62.5221 206.703 61.4366 240.464 63.5701 241.887C67.9867 244.806 75.697 242.86 80.1511 241.363C84.6051 239.865 87.4871 238.406 88.3106 234.663C89.0217 231.444 73.4513 202.886 78.6914 164.035C76.0713 162.201 73.4513 161.115 73.4513 161.115L70.4944 159.169Z" fill="white"/>
<path d="M72.3295 220.103L81.1253 217.446C81.1253 217.446 82.8844 224.669 81.1253 227.214C79.3661 229.76 77.3075 231.669 73.3775 230.433C69.4849 229.198 72.3295 220.103 72.3295 220.103Z" fill="#E1E4F4"/>
<path d="M70.3462 159.581L72.2925 160.18C72.2925 160.18 64.3202 182.824 63.6465 188.551C63.6465 188.551 59.6416 170.061 70.3462 159.581Z" fill="#E1E4F4"/>
<path d="M64.7671 185.219L63.1951 184.845C64.3554 179.755 66.7134 174.178 68.5848 169.724C70.1194 166.093 71.6914 162.313 71.4669 161.34C70.7931 158.42 66.8631 158.008 66.8257 158.008L66.9754 156.399C67.2 156.436 72.1406 156.886 73.0763 160.965C73.4131 162.388 72.2903 165.157 70.1194 170.36C68.2105 174.739 65.9274 180.241 64.7671 185.219Z" fill="#8698BF"/>
<path d="M69.3364 196.298C68.7749 196.298 68.3258 195.887 68.2884 195.325C67.7644 189.224 66.3046 186.118 64.0215 186.118C60.578 186.118 58.6691 191.844 57.8083 195.25C57.6586 195.812 57.0971 196.186 56.5357 196.036C55.9743 195.887 55.6 195.325 55.7497 194.764C57.5088 187.615 60.2786 183.984 64.0215 183.984C64.0215 183.984 64.0215 183.984 64.0589 183.984C69.4861 184.022 70.1972 192.406 70.4592 195.138C70.4967 195.737 70.085 196.223 69.4861 196.298C69.3738 196.298 69.3364 196.298 69.3364 196.298Z" fill="#8698BF"/>
<path d="M66.8652 207.153C66.4909 207.153 66.1914 207.115 66.1166 207.115C65.7423 207.04 65.4803 206.703 65.5177 206.292C65.5926 205.917 65.9294 205.655 66.3412 205.693C66.7154 205.768 67.8009 205.805 68.3997 205.281C68.7366 205.019 68.8863 204.607 68.8863 204.046C68.9237 201.875 68.9612 198.581 68.6243 195.288C68.5869 194.913 68.8863 194.539 69.2606 194.502C69.6349 194.464 70.0092 194.764 70.0466 195.138C70.3835 198.506 70.3835 201.838 70.3086 204.083C70.2712 205.319 69.7472 205.992 69.298 206.367C68.512 207.003 67.5389 207.153 66.8652 207.153Z" fill="#8698BF"/>
<path d="M57.8438 206.591C57.3198 206.591 56.5712 206.479 55.9724 205.955C55.1115 205.244 54.7372 204.009 54.8121 202.324C54.9244 200.64 55.2986 197.758 56.0472 194.801C56.1595 194.427 56.5338 194.202 56.9081 194.277C57.2824 194.389 57.5069 194.764 57.4321 195.138C56.6835 198.02 56.3092 200.752 56.2344 202.399C56.1595 203.597 56.3841 204.458 56.8707 204.832C57.4321 205.281 58.2181 205.131 58.2181 205.094C58.5924 205.019 58.9667 205.244 59.079 205.618C59.1538 205.992 58.9292 206.367 58.555 206.479C58.5175 206.516 58.2181 206.591 57.8438 206.591Z" fill="#8698BF"/>
<path d="M57.7687 205.356L57.881 206.479C57.9185 206.778 58.143 207.04 58.4799 207.078L59.4905 207.19C59.9396 207.227 60.3139 206.853 60.239 206.404L59.977 204.869C59.9022 204.458 59.4905 204.196 59.1162 204.345L58.2179 204.645C57.9559 204.72 57.7313 205.019 57.7687 205.356Z" fill="#8698BF"/>
<path d="M67.2747 205.955L67.0876 207.04C67.0502 207.34 66.7882 207.564 66.4887 207.602L65.4407 207.677C64.9916 207.714 64.6173 207.302 64.7296 206.853L65.029 205.319C65.1039 204.907 65.553 204.682 65.9273 204.832L66.8256 205.169C67.125 205.319 67.3122 205.618 67.2747 205.955Z" fill="#8698BF"/>
<path d="M57.8781 160.329L55.0335 162.537L53.5364 166.654L57.7284 163.286L57.8407 162.425L57.8781 160.329Z" fill="#FFD385"/>
<path d="M90.7004 77.9857C90.7004 77.9857 111.923 86.0703 107.356 114.292C105.56 125.408 102.041 132.894 94.1813 142.251C94.1813 142.251 92.9087 145.47 97.213 147.678C99.8705 149.026 101.817 146.892 101.817 146.892C101.817 146.892 100.394 159.88 87.6312 154.116L74.2317 144.908L90.7004 77.9857Z" fill="#2B2E3A"/>
<path d="M29.6554 80.3811C29.6554 80.3811 21.683 84.2363 17.6781 98.1972C13.6732 112.158 17.4535 119.494 22.5439 124.585C27.6342 129.675 28.3079 135.364 28.3079 135.364C28.3079 135.364 28.6073 134.541 27.6716 131.284C27.6716 131.284 25.6879 131.472 26.8482 130.723C30.4414 128.44 34.8205 91.2729 34.8205 91.2729L29.6554 80.3811Z" fill="#2B2E3A"/>
<path d="M35.2321 85.2844C35.2321 85.2844 23.0677 97.8605 23.2174 112.383C23.3672 128.515 27.4843 154.416 45.787 159.206C53.6471 161.265 70.5275 153.368 74.1956 144.909C82.1305 126.494 94.22 106.581 92.5357 102.165C89.4665 94.3048 53.0857 67.5057 35.2321 85.2844Z" fill="#FAC2A8"/>
<path d="M33.7365 118.671C32.988 118.184 32.0148 118.371 31.4908 119.082C31.0042 119.831 31.1914 120.804 31.9025 121.328C32.6511 121.815 33.6242 121.627 34.1483 120.916C34.6723 120.168 34.4851 119.195 33.7365 118.671Z" fill="#31374C"/>
<path d="M33.8116 119.195C33.6245 119.045 33.3251 119.12 33.1753 119.307C33.0256 119.494 33.1005 119.793 33.2876 119.943C33.4748 120.093 33.7742 120.018 33.9239 119.831C34.0362 119.606 33.9988 119.344 33.8116 119.195Z" fill="white"/>
<path d="M53.0853 116.013C52.3367 115.489 51.2887 115.676 50.7647 116.462C50.2407 117.211 50.4278 118.259 51.2138 118.783C51.9624 119.307 53.0104 119.12 53.5344 118.334C54.0584 117.585 53.8713 116.537 53.0853 116.013Z" fill="#31374C"/>
<path d="M53.1603 116.537C52.9357 116.388 52.6737 116.463 52.524 116.65C52.3743 116.874 52.4491 117.136 52.6363 117.286C52.8608 117.436 53.1228 117.361 53.2726 117.174C53.4223 116.987 53.3848 116.687 53.1603 116.537Z" fill="white"/>
<path d="M23.4048 109.014C25.2014 110.174 27.5594 104.897 32.5 106.619C32.9866 106.806 33.3609 106.169 32.9491 105.832C30.7408 103.924 26.8108 102.052 23.4048 109.014Z" fill="#2B2E3A"/>
<path opacity="0.3" d="M52.0013 123.35C52.3756 124.622 55.033 124.996 57.9899 124.173C60.9468 123.35 63.0054 121.665 62.6685 120.393C62.2942 119.12 59.6368 118.746 56.6799 119.569C53.723 120.393 51.627 122.077 52.0013 123.35Z" fill="#F0808E"/>
<path opacity="0.3" d="M25.9865 123.799C25.5373 125.034 27.1842 126.755 29.6171 127.616C32.0874 128.477 34.408 128.14 34.8571 126.905C35.3063 125.67 33.6594 123.948 31.2265 123.087C28.7936 122.189 26.4356 122.526 25.9865 123.799Z" fill="#F0808E"/>
<path d="M59.7845 105.645C58.5493 106.955 53.3841 102.127 48.481 104.073C47.9944 104.26 47.6201 103.662 47.9944 103.325C50.1278 101.304 56.0416 98.8706 59.7845 105.645Z" fill="#2B2E3A"/>
<path d="M36.4297 133.156C36.4297 133.156 40.5469 139.406 46.5729 132.445C46.5729 132.445 42.0066 134.653 36.4297 133.156Z" fill="#DC918B"/>
<path opacity="0.56" d="M37.4777 111.447C37.4777 111.447 40.6966 118.933 36.4297 133.156C36.4297 133.156 41.8194 134.69 46.5729 132.407C46.5729 132.407 42.6803 121.927 45.3003 115.938C45.3378 115.938 42.044 112.233 37.4777 111.447Z" fill="url(#paint0_linear)"/>
<path d="M41.7449 86.2574C41.7449 86.2574 32.8368 101.79 20.373 104.41L20.7473 93.1068C20.7473 93.1068 16.3307 83.0759 27.6342 73.831C46.6481 58.3354 77.6018 56.4265 90.7019 77.9856C100.733 94.4917 101.893 100.667 101.893 100.667L90.4025 143.224C90.4025 143.224 75.3186 158.009 65.4374 145.096C65.4374 145.096 74.0086 150.934 78.7621 136.038C83.5155 121.104 80.2967 128.028 80.2967 128.028C80.2967 128.028 78.1258 129.6 70.6774 121.141C63.2291 112.682 64.6514 101.828 64.6514 101.828C64.6514 101.828 43.6164 100.031 41.7449 86.2574Z" fill="#2B2E3A"/>
<path d="M74.6819 132.632C75.4304 123.799 80.5956 119.644 84.4134 121.179C90.2523 123.537 90.5891 144.347 77.4142 142.7C74.0081 142.289 74.083 136.899 74.6819 132.632Z" fill="#FAC2A8"/>
<path d="M85.8017 129.6C85.6145 128.402 85.0905 127.242 84.2671 126.419C83.8554 126.007 83.3688 125.707 82.8448 125.67C82.3208 125.595 81.8342 125.82 81.4225 126.157C80.599 126.868 80.075 127.991 79.7008 129.113C79.289 130.236 78.9896 131.397 78.765 132.594L78.0165 132.108C78.6902 131.659 79.4762 131.584 80.1873 131.621C80.8985 131.696 81.5722 131.883 82.2085 132.257C82.8073 132.632 83.3314 133.156 83.6682 133.829C84.0051 134.503 84.0425 135.252 83.9302 135.925C83.8179 136.599 83.5559 137.273 83.0694 137.834C82.6202 138.396 81.9091 138.733 81.2353 138.808C80.5616 138.882 79.8505 138.733 79.2516 138.471C78.6527 138.171 78.1287 137.685 77.979 137.048C78.0913 137.348 78.3159 137.61 78.5405 137.797C78.8025 137.984 79.0645 138.134 79.3639 138.246C79.9253 138.433 80.5616 138.508 81.1605 138.396C81.7219 138.284 82.2459 137.947 82.5828 137.497C82.7325 137.273 82.8822 137.011 82.9945 136.749C83.1068 136.487 83.1442 136.187 83.1816 135.888C83.2565 135.327 83.1816 134.728 82.9196 134.241C82.6576 133.755 82.2459 133.343 81.7593 133.081C81.2728 132.819 80.7113 132.632 80.1499 132.594C79.5885 132.557 79.027 132.669 78.6153 132.931C78.3907 133.081 78.0913 133.043 77.9416 132.819C77.8667 132.707 77.8293 132.557 77.8667 132.445C78.1287 131.247 78.4282 130.012 78.8773 128.851C79.1019 128.253 79.3639 127.691 79.7008 127.13C80.0376 126.568 80.4493 126.044 80.9733 125.633C81.4973 125.221 82.2459 124.959 82.9571 125.109C83.6682 125.258 84.2296 125.67 84.6414 126.157C85.4274 127.092 85.8391 128.365 85.8017 129.6Z" fill="#DC918B"/>
<path d="M78.4606 141.353C78.5729 142.064 78.0489 142.7 77.3377 142.812C76.6266 142.925 75.9903 142.401 75.878 141.69C75.7657 140.978 76.2897 140.342 77.0008 140.23C77.712 140.155 78.3483 140.642 78.4606 141.353Z" fill="#FFA84A"/>
<path d="M77.2668 147.828C76.4434 147.79 75.8071 147.079 75.882 146.256L76.1814 143.374C76.2188 142.925 76.5931 142.625 77.0423 142.625H77.454C77.8657 142.625 78.2026 142.925 78.2774 143.336L78.6891 146.218C78.8388 147.079 78.1651 147.865 77.2668 147.828Z" fill="#FFA84A"/>
<path d="M27.7467 169.649C27.7467 169.649 31.003 169.35 30.5165 163.361C30.4042 162.088 29.8053 159.955 29.7304 159.244C29.6556 158.533 29.7679 156.062 30.3293 155.314C30.8907 154.565 31.265 154.004 30.8159 153.442C30.3667 152.881 28.0087 152.507 26.9607 154.79C25.9127 157.073 26.4367 158.944 26.4367 158.944C26.4367 158.944 24.5653 156.624 23.6295 156.624C23.2178 156.624 18.9135 156.362 18.0152 157.447C17.6783 157.859 16.7801 166.804 16.9298 167.254C17.0421 167.703 21.1967 174.665 25.239 173.991C27.073 173.654 27.7467 169.874 27.7467 169.649Z" fill="#FAC2A8"/>
<path d="M27.8953 169.874C27.9701 170.173 27.9701 170.473 27.9327 170.735C27.8953 171.034 27.783 171.296 27.6333 171.558C27.3338 172.082 26.8472 172.494 26.3232 172.681C26.5104 172.456 26.6975 172.269 26.8847 172.045C27.0718 171.82 27.2215 171.596 27.3338 171.371C27.5584 170.959 27.7455 170.435 27.8953 169.874Z" fill="#DC918B"/>
<path d="M19.2874 165.345C19.5494 165.232 19.7739 165.157 19.9985 165.157L20.7097 165.12C21.1962 165.083 21.6828 165.083 22.1694 165.12C22.2817 165.12 22.4314 165.157 22.5811 165.195C22.7308 165.232 22.8805 165.345 22.9928 165.419C23.2174 165.607 23.3671 165.794 23.5168 165.981C23.8162 166.393 24.0782 166.767 24.3403 167.216C24.4525 167.441 24.5274 167.703 24.5648 167.965C24.6023 168.227 24.5648 168.526 24.4151 168.788C24.2654 169.05 24.0782 169.237 23.8537 169.387C23.6291 169.537 23.3671 169.611 23.1425 169.686C22.8805 169.761 22.656 169.799 22.3939 169.836C22.2817 169.836 22.1319 169.873 22.0197 169.873C21.8699 169.873 21.7951 169.873 21.6079 169.836C21.3085 169.761 21.1214 169.611 20.8968 169.462C20.7845 169.387 20.7097 169.312 20.5974 169.237C20.4851 169.162 20.4102 169.087 20.3354 168.938L20.5974 168.751C20.8968 169.013 21.3085 169.387 21.6828 169.462C21.7577 169.462 21.8699 169.462 21.9822 169.462C22.0945 169.462 22.2068 169.462 22.3191 169.424C22.5437 169.387 22.7682 169.349 22.9928 169.275C23.4045 169.162 23.8162 168.938 24.0034 168.601C24.1905 168.264 24.0782 167.815 23.8911 167.441C23.8162 167.253 23.6665 167.029 23.5168 166.842C23.3671 166.655 23.2548 166.467 23.1051 166.28C22.9554 166.093 22.8057 165.906 22.656 165.794C22.5811 165.719 22.5062 165.681 22.4314 165.644C22.3565 165.607 22.2442 165.607 22.1319 165.607C21.6828 165.569 21.1962 165.569 20.7097 165.607C20.2605 165.532 19.7365 165.644 19.2874 165.345Z" fill="#DC918B"/>
<path d="M19.4766 162.575C20.2251 162.388 20.9737 162.463 21.7223 162.5C22.0966 162.538 22.4709 162.538 22.8452 162.612C23.0323 162.65 23.2194 162.65 23.444 162.725C23.706 162.8 23.8183 162.987 23.968 163.137C24.23 163.473 24.3797 163.848 24.492 164.185C24.6043 164.559 24.6792 164.933 24.754 165.307C24.7915 165.682 24.7915 166.093 24.754 166.468C24.6792 166.879 24.5669 167.216 24.3797 167.591L24.0429 167.441C24.1552 167.141 24.3049 166.767 24.3423 166.43C24.3797 166.093 24.3423 165.719 24.3049 165.382C24.1926 164.671 24.0055 163.96 23.5937 163.436C23.4815 163.324 23.3692 163.211 23.2569 163.174C23.1446 163.137 22.92 163.099 22.7703 163.062C22.396 163.024 22.0592 162.987 21.6849 162.949C20.9363 162.875 20.1877 162.875 19.4766 162.575Z" fill="#DC918B"/>
<path d="M24.4531 165.157C24.7899 164.933 25.0519 164.596 25.2016 164.222C25.3514 163.847 25.3888 163.436 25.3514 163.024C25.2391 162.2 24.9022 161.34 24.4156 160.703C24.1536 160.366 23.8542 160.104 23.4799 160.03C23.0682 159.917 22.6565 159.88 22.2073 159.88C21.7582 159.842 21.309 159.88 20.8599 159.842C20.6353 159.842 20.4107 159.805 20.1862 159.768C19.9616 159.73 19.737 159.693 19.5125 159.543C19.737 159.543 19.9616 159.506 20.1862 159.506C20.4107 159.468 20.6353 159.468 20.8599 159.468C21.309 159.431 21.7582 159.431 22.2073 159.468C22.6565 159.468 23.1056 159.506 23.5922 159.618C24.0788 159.73 24.4905 160.067 24.7899 160.441C25.0894 160.816 25.3139 161.227 25.5011 161.676C25.6882 162.126 25.8005 162.575 25.8379 163.024C25.8754 163.51 25.8379 163.997 25.6508 164.446C25.4636 164.895 25.1268 165.27 24.7151 165.532L24.4531 165.157Z" fill="#DC918B"/>
<path d="M25.6504 158.046C25.9872 158.271 26.2492 158.495 26.4738 158.869C26.6609 159.244 26.6609 159.693 26.5861 160.067C26.5112 160.441 26.3989 160.853 26.0995 161.153C25.9498 161.302 25.7626 161.452 25.5381 161.489C25.3135 161.564 25.0889 161.527 24.9392 161.527V161.153C25.3135 161.19 25.6129 161.115 25.8001 160.853C25.9872 160.629 26.1369 160.254 26.1744 159.917C26.2492 159.581 26.2118 159.244 26.0995 158.944C26.0246 158.72 25.7626 158.42 25.6504 158.046Z" fill="#DC918B"/>
<path d="M22.1681 168.601C21.9061 168.713 21.6066 168.788 21.3072 168.863C21.0078 168.938 20.7458 168.938 20.4463 168.975C20.1469 168.975 19.8475 168.975 19.548 168.9C19.2486 168.826 18.9492 168.751 18.7246 168.489C19.024 168.564 19.286 168.564 19.548 168.564C19.81 168.564 20.1095 168.564 20.3715 168.526C20.6709 168.526 20.9329 168.489 21.2323 168.489C21.5692 168.526 21.8686 168.526 22.1681 168.601Z" fill="#DC918B"/>
<path d="M57.1325 138.096C57.1325 138.096 54.737 146.518 47.0267 147.154C39.0543 147.828 36.322 141.278 36.322 141.278C36.322 141.278 43.5832 144.459 57.1325 138.096Z" fill="#343948"/>
<path d="M57.0168 138.133C56.9794 138.208 56.942 138.358 56.9045 138.433C57.0168 138.208 57.0917 138.059 57.0917 138.059C57.0917 138.133 57.0543 138.133 57.0168 138.133Z" fill="#31374C"/>
<path d="M36.3184 141.277C36.3184 141.277 37.3289 141.914 37.5535 142.438C40.2858 143.074 46.4242 144.047 56.3054 139.893C56.9417 138.919 56.6797 138.882 56.9417 138.47C56.9791 138.358 57.0165 138.246 57.054 138.171C43.0181 141.09 36.3184 141.277 36.3184 141.277Z" fill="white"/>
<path d="M41.0364 145.956C42.1967 146.967 44.2553 147.378 46.239 147.229C48.5221 147.079 50.9176 146.068 52.8265 144.309C48.1853 143.074 42.309 145.245 41.0364 145.956Z" fill="#F97A7A"/>
<path d="M35.2736 140.342L36.9579 141.315L36.6959 141.278C38.4177 140.679 40.2142 140.529 41.9734 140.305C43.7326 140.08 45.4917 139.893 47.2134 139.668C48.9726 139.444 50.6943 139.144 52.4161 138.807C54.1378 138.433 55.8595 138.021 57.5438 137.535L57.731 138.171C56.0467 138.658 54.3249 139.144 52.5658 139.481C50.844 139.855 49.0849 140.155 47.3257 140.379C45.5666 140.641 43.8074 140.829 42.0483 141.016C40.2891 141.203 38.5299 141.39 36.9205 141.877H36.8831C36.8082 141.914 36.7334 141.877 36.6585 141.839L34.9368 140.829L35.2736 140.342Z" fill="#DC918B"/>
<path d="M55.1128 136.674C55.5619 136.524 56.0485 136.562 56.5351 136.674C57.0217 136.824 57.4334 137.048 57.8077 137.385C58.1445 137.722 58.444 138.134 58.6311 138.583C58.7434 138.807 58.7808 139.032 58.8557 139.256C58.8931 139.481 58.9305 139.706 58.9305 139.968C58.7808 139.78 58.6685 139.556 58.5562 139.369C58.444 139.182 58.3317 138.994 58.182 138.807C57.92 138.47 57.658 138.134 57.3585 137.834C56.7597 137.31 56.0111 136.898 55.1128 136.674Z" fill="#DC918B"/>
<path d="M35.2724 142.363C35.0478 142.139 34.8981 141.802 34.8607 141.465C34.7858 141.128 34.8232 140.754 34.973 140.454C35.1227 140.117 35.3847 139.855 35.7215 139.706C35.8713 139.631 36.0584 139.593 36.2081 139.556C36.3578 139.556 36.545 139.556 36.6947 139.593C36.5824 139.706 36.4327 139.781 36.3204 139.855C36.2081 139.968 36.0958 140.005 35.9835 140.117C35.7964 140.305 35.6467 140.492 35.5344 140.716C35.3472 141.128 35.3098 141.689 35.2724 142.363Z" fill="#DC918B"/>
<path d="M37.1064 141.465C37.5556 142.401 38.2293 143.336 38.9779 144.085C39.7265 144.871 40.6248 145.507 41.5979 145.994C42.5711 146.48 43.6191 146.78 44.7045 146.892L45.1162 146.93C45.2659 146.93 45.3782 146.93 45.5279 146.93H46.3514C46.6134 146.93 46.8754 146.892 47.1748 146.855C47.4368 146.817 47.6988 146.78 47.9608 146.742C50.0943 146.331 52.0031 145.133 53.5003 143.524C54.2489 142.738 54.8852 141.839 55.4466 140.904C56.008 139.968 56.4946 138.957 56.8689 137.947L57.4678 138.134C57.0935 139.219 56.6069 140.267 56.008 141.24C55.4466 142.214 54.7354 143.149 53.9869 143.973C52.4523 145.657 50.3937 146.967 48.1105 147.379C47.8111 147.454 47.5491 147.454 47.2497 147.528C46.9502 147.566 46.6882 147.566 46.3888 147.603H45.5279C45.3782 147.603 45.2285 147.603 45.0788 147.603L44.6671 147.528C43.5068 147.416 42.3839 147.079 41.3733 146.555C40.3253 146.031 39.3896 145.32 38.6036 144.497C37.8176 143.673 37.1064 142.738 36.6199 141.652L37.1064 141.465Z" fill="#DC918B"/>
<path d="M64.0151 196.785C68.4317 195.363 73.9338 192.368 73.9338 192.368C73.9338 192.368 73.5221 191.657 73.5969 191.433C73.7841 191.021 74.4578 190.984 74.4578 190.984C74.1209 189.449 73.0355 183.984 72.2869 180.765C70.5652 173.542 75.5807 164.896 78.6873 163.997C83.0664 165.008 87.0713 185.07 85.6116 197.309C85.387 199.068 82.0933 202.848 77.4895 204.121C73.7092 205.169 63.4911 206.517 63.042 205.244C64.1274 204.683 65.4749 199.667 64.0151 196.785Z" fill="white"/>
<path d="M64.0181 196.785C64.8789 196.448 65.7024 196.111 66.5258 195.774C67.3492 195.4 68.1727 195.026 68.9961 194.614C70.6055 193.828 72.215 193.005 73.787 192.106L73.6747 192.518C73.5624 192.368 73.4876 192.219 73.4127 192.031C73.3753 191.957 73.3379 191.844 73.3004 191.769C73.3004 191.657 73.2256 191.545 73.3004 191.32C73.4127 191.058 73.6373 190.909 73.8244 190.834C74.0116 190.759 74.1987 190.721 74.4233 190.684L74.1239 191.096L73.0384 186.005C72.6641 184.321 72.2898 182.599 71.9156 180.915V180.878C71.7658 179.268 71.8033 177.696 71.953 176.087C72.1027 174.515 72.4396 172.943 72.9261 171.408C73.4127 169.911 74.1239 168.451 75.097 167.179C76.0702 165.906 77.2679 164.821 78.6528 164.072C77.3427 164.933 76.2199 166.056 75.359 167.366C74.4982 168.676 73.8619 170.098 73.4501 171.595C73.001 173.092 72.7764 174.627 72.6267 176.162C72.5518 176.948 72.5144 177.696 72.5519 178.482C72.5519 179.268 72.5893 180.054 72.6641 180.803V180.765C73.0759 182.45 73.4501 184.171 73.787 185.856C74.1613 187.54 74.4607 189.262 74.7976 190.983L74.8724 191.358L74.4982 191.395C74.3859 191.395 74.2361 191.433 74.1239 191.47C74.0116 191.507 73.9367 191.582 73.8993 191.62C73.8993 191.545 73.8993 191.582 73.8993 191.657C73.8993 191.732 73.9367 191.769 73.9741 191.844C74.0116 191.994 74.0864 192.144 74.1613 192.256L74.311 192.518L74.049 192.668C72.4396 193.491 70.7927 194.277 69.1084 194.988C67.4615 195.625 65.7772 196.298 64.0181 196.785Z" fill="#BFC6F2"/>
<path d="M17.608 176.086C17.9823 175.675 18.2443 175.637 18.8432 175.45L38.9799 173.691C40.4022 173.541 41.6748 174.177 42.1988 175.225L55.4861 202.137C55.7855 202.736 55.9352 203.372 55.5609 204.008C55.1492 204.682 55.0743 204.757 54.5878 205.243L37.9319 205.955L17.3086 177.808C17.0092 177.284 17.1589 176.61 17.608 176.086Z" fill="#E1E4F4"/>
<path d="M34.9768 207.451L53.3544 205.805C54.5147 205.692 55.3007 204.682 54.8516 203.821L41.0777 176.236C40.5912 175.263 39.3934 174.664 38.046 174.776L18.2836 176.535C17.535 176.61 17.0484 177.246 17.3104 177.808L31.2339 205.655C31.8328 206.89 33.33 207.601 34.9768 207.451Z" fill="#BFC6F2"/>
<path d="M37.8106 191.744C38.113 190.584 37.1581 189.331 35.6778 188.945C34.1976 188.559 32.7525 189.187 32.4501 190.347C32.1477 191.507 33.1026 192.761 34.5829 193.146C36.0631 193.532 37.5083 192.904 37.8106 191.744Z" fill="#E1E4F4"/>
<path d="M35.5341 181.139L36.0207 181.102C36.4324 181.064 36.6944 180.727 36.5447 180.428L36.0207 179.417C35.871 179.155 35.5341 178.968 35.1598 179.006L34.6733 179.043C34.2615 179.081 33.9995 179.417 34.1493 179.717L34.6733 180.727C34.823 180.989 35.1598 181.139 35.5341 181.139Z" fill="#545B72"/>
<path d="M38.8962 179.957C38.9191 179.544 38.5696 179.189 38.1156 179.163C37.6615 179.138 37.2747 179.452 37.2518 179.865C37.2288 180.278 37.5783 180.633 38.0324 180.658C38.4865 180.684 38.8732 180.369 38.8962 179.957Z" fill="#545B72"/>
<path d="M62.3725 198.918C62.3725 198.918 61.7736 197.084 60.6507 197.271C59.5279 197.458 56.571 203.971 58.4799 204.158C60.3887 204.345 62.597 200.453 62.3725 198.918Z" fill="#31374C"/>
<path d="M62.145 199.18C63.717 202.998 61.5462 204.682 61.5462 204.682C61.5462 204.682 58.8139 203.821 57.0547 203.447C55.595 204.196 52.7878 200.004 52.5258 199.48C51.403 199.405 50.5047 200.415 49.6064 200.865C48.7081 201.351 48.2964 200.153 48.1466 199.592C47.9969 199.031 48.1092 199.068 47.8846 199.517C47.6601 200.004 46.9115 200.49 46.4623 200.004C46.0132 199.48 45.9758 199.031 46.0506 198.432C45.6389 198.806 45.4143 199.105 44.9278 198.507C44.4038 197.908 44.2166 197.309 44.5909 196.411C44.9652 195.512 45.6389 193.828 46.0506 193.004C46.4998 192.181 46.5746 192.106 47.3981 191.657C48.2215 191.208 49.6438 190.684 50.4672 190.048C49.9058 189.299 49.7935 188.812 49.0824 188.513C47.5478 187.952 46.9863 189.112 45.6015 188.925C44.9278 188.812 43.9546 188.476 44.3663 187.952C44.9278 187.24 47.9595 186.043 48.6706 185.818C49.3818 185.594 50.0181 185.594 50.6544 186.005C51.5901 186.604 53.1621 187.39 53.6861 188.288C54.2101 189.187 54.3598 189.786 55.1833 190.983C56.0067 192.181 58.739 195.886 59.4876 197.084C60.2362 198.319 62.145 199.18 62.145 199.18Z" fill="#FAC2A8"/>
<path d="M48.0366 199.217C48.1863 198.581 48.4858 198.095 48.8975 197.608C49.1221 197.383 49.3841 197.159 49.6835 197.047C49.9829 196.897 50.2449 196.785 50.5069 196.672C51.0684 196.448 51.6672 196.335 52.2287 196.148C52.3784 196.111 52.4907 196.036 52.6404 195.999C52.7901 195.924 52.9024 195.849 53.0895 195.811C53.2392 195.811 53.4264 195.811 53.5387 195.924C53.651 196.036 53.7258 196.148 53.8755 196.223C53.7258 196.186 53.6135 196.073 53.5012 195.999C53.3889 195.924 53.2392 195.924 53.0895 195.924C52.9772 195.961 52.8275 196.036 52.7152 196.111C52.6029 196.186 52.4532 196.261 52.3035 196.335C51.7421 196.56 51.1806 196.747 50.6566 197.009C50.1326 197.271 49.5712 197.533 49.2718 197.945C48.8975 198.394 48.5232 198.843 48.0366 199.217Z" fill="#DC918B"/>
<path d="M46.0151 198.431C46.2771 197.608 46.5017 196.784 46.8011 195.961C46.9509 195.549 47.1006 195.138 47.3626 194.763C47.4 194.651 47.4749 194.576 47.5497 194.464C47.6246 194.352 47.6994 194.277 47.8117 194.202C47.9989 194.052 48.186 193.94 48.3732 193.828C49.1592 193.378 50.02 193.191 50.806 192.892C51.2178 192.78 51.6295 192.592 52.1535 192.63C52.378 192.667 52.64 192.78 52.7898 192.929C52.9395 193.079 53.0892 193.229 53.2763 193.341C53.0518 193.304 52.8646 193.154 52.6775 193.042C52.4903 192.929 52.3032 192.892 52.116 192.892C51.7418 192.892 51.3675 193.116 50.9557 193.266C50.1323 193.603 49.3089 193.828 48.5977 194.239C48.4106 194.352 48.2609 194.426 48.1112 194.576C47.9614 194.688 47.8492 194.838 47.7369 194.988C47.5123 195.325 47.3251 195.699 47.138 196.111C46.7637 196.897 46.4269 197.683 46.0151 198.431Z" fill="#DC918B"/>
<path d="M50.5811 190.16C50.7682 189.973 50.9928 189.823 51.2548 189.748C51.5168 189.636 51.7788 189.598 52.0408 189.598C52.1905 189.598 52.3402 189.636 52.4899 189.711C52.6396 189.785 52.7519 189.898 52.8268 190.01C52.9765 190.235 53.0514 190.422 53.2011 190.646C52.9391 190.646 52.6771 190.422 52.4899 190.309C52.3028 190.197 52.1905 190.16 51.9659 190.16C51.7413 190.16 51.5168 190.16 51.2922 190.197C51.1051 190.16 50.8805 190.16 50.5811 190.16Z" fill="#DC918B"/>
<path d="M64.0155 196.785C64.0155 196.785 67.9082 203.223 63.0424 205.319L58.4761 204.158C58.4761 204.158 61.6575 202.848 61.6201 200.79C61.5827 198.731 61.0587 197.271 61.0587 197.271L64.0155 196.785Z" fill="#BFC6F2"/>
</g>
<defs>
<linearGradient id="paint0_linear" x1="41.2326" y1="115.882" x2="41.6214" y2="131.501" gradientUnits="userSpaceOnUse">
<stop stop-color="#FAC2A8"/>
<stop offset="1" stop-color="#DC918B"/>
</linearGradient>
</defs>
</svg>
