<svg width="125" height="222" viewBox="0 0 125 222" fill="none" xmlns="http://www.w3.org/2000/svg">
<mask id="mask0" mask-type="alpha" maskUnits="userSpaceOnUse" x="0" y="0" width="125" height="222">
<rect width="125" height="222" fill="#C4C4C4"/>
</mask>
<g mask="url(#mask0)">
<path d="M32.9118 184.416C32.9118 184.416 35.2489 189.94 38.1703 196.368C39.7107 199.767 45.6067 204.866 47.6251 205.185C53.946 206.247 53.9991 203.751 54.424 199.926C54.5303 199.13 54.1585 196.421 54.1053 195.358C53.946 192.809 43.5351 176.502 43.5351 176.502C40.295 175.865 32.0619 177.617 32.9118 184.416Z" fill="#E1E4F4"/>
<path d="M33.5491 180.857C33.5491 180.857 31.2651 184.629 34.0272 185.266C41.5167 187.019 43.5351 178.361 43.5351 178.361C43.5351 178.361 44.0663 175.864 41.8885 174.43C39.7107 172.996 33.5491 180.857 33.5491 180.857Z" fill="#57617F"/>
<path d="M41.8886 175.864L43.3228 179.051C43.3228 179.051 42.1011 186.169 34.9303 185.425C34.9303 185.425 33.4962 182.079 33.1775 181.707C27.3346 174.855 41.8886 175.864 41.8886 175.864Z" fill="#CE7F67"/>
<path d="M42.579 177.617C43.3226 176.449 44.1194 175.121 44.0131 173.74C43.9069 172.359 42.1541 168.375 41.4635 167.737C40.773 167.1 39.7638 166.675 39.4451 165.666C39.1264 164.657 38.9671 162.691 37.6923 163.116C35.1958 164.019 36.0987 166.941 37.3736 168.906C37.3736 169.65 37.3204 170.34 37.3204 171.084C36.6299 171.031 36.3112 171.19 35.5145 171.084C34.7177 170.978 33.3367 170.553 32.5399 170.393C31.7432 170.234 28.1312 169.809 27.1751 169.597C26.219 169.331 25.6348 169.437 24.838 168.8C24.0412 168.162 21.4916 165.4 18.5702 166.834C17.8797 167.153 18.1453 167.578 18.0391 168.056C17.4017 168.428 16.2331 168.64 16.0206 169.49C15.8082 170.34 17.2954 171.084 17.8266 171.562C17.6141 171.987 16.9236 172.146 17.083 172.73C17.2423 173.368 20.27 175.068 20.8542 175.758C21.4385 176.449 23.7225 180.326 24.7849 180.645C25.8472 180.964 30.0434 181.92 31.1058 182.291C32.1681 182.663 33.1242 183.301 34.6115 183.566C36.0987 183.832 38.2765 183.619 39.7107 182.451C41.1448 181.282 42.0478 179.423 42.579 177.617Z" fill="#CE7F67"/>
<path d="M37.3737 171.243C37.3206 172.093 37.1612 172.943 37.2675 173.74C37.3206 174.112 37.4268 174.537 37.5862 174.855C37.7455 175.227 38.0111 175.546 38.2767 175.865C37.8517 175.705 37.533 175.387 37.2675 175.015C37.0019 174.643 36.8956 174.165 36.8425 173.74C36.8425 172.89 37.1081 172.04 37.3737 171.243Z" fill="#9E5E57"/>
<path d="M21.0135 175.811C20.7479 175.493 20.8541 174.909 21.226 174.643C21.5978 174.324 22.0227 174.324 22.4476 174.324C23.2444 174.377 23.988 174.59 24.6254 175.121C25.2097 175.599 25.6878 176.183 26.1127 176.821C26.4845 177.458 26.7501 178.255 26.5376 178.998C26.4314 178.255 26.1127 177.671 25.7409 177.086C25.3691 176.502 24.891 175.971 24.3599 175.546C23.8287 175.174 23.1382 174.909 22.5008 174.855C22.1821 174.855 21.8634 174.909 21.6509 175.068C21.3322 175.227 21.226 175.44 21.0135 175.811Z" fill="#9E5E57"/>
<path d="M26.0596 177.458C27.3875 177.617 28.7154 177.776 30.0433 177.936" stroke="#9E5E57" stroke-width="0.9233" stroke-miterlimit="10"/>
<path d="M17.8796 171.456C18.2515 170.978 18.8889 170.765 19.4731 170.712C20.0574 170.659 20.6417 170.712 21.226 170.819C21.8103 170.925 22.3946 171.137 22.9257 171.456C23.4569 171.775 23.8818 172.2 24.2536 172.678C24.3599 172.784 24.413 172.943 24.5192 173.049L24.7317 173.421C24.7848 173.527 24.7848 173.527 24.8911 173.581C24.9973 173.634 25.1566 173.634 25.2629 173.687L26.9095 174.218C27.9718 174.59 29.0873 174.962 30.1496 175.333L29.9903 175.812C28.8748 175.493 27.8125 175.174 26.697 174.855L25.0504 174.324C24.891 174.271 24.7848 174.271 24.6255 174.165C24.5192 174.112 24.413 174.059 24.3599 174.006C24.2536 173.899 24.2005 173.846 24.2005 173.793L23.9881 173.421C23.9349 173.315 23.8287 173.209 23.7756 173.103C23.1382 172.253 22.1821 171.615 21.1729 171.403C20.6417 171.297 20.0574 171.243 19.5263 171.243C18.942 171.243 18.4108 171.297 17.8796 171.456Z" fill="#9E5E57"/>
<path d="M18.4111 168.11C18.9954 167.95 19.6328 167.95 20.2171 168.163C20.5358 168.269 20.7483 168.428 21.0139 168.535C21.2794 168.641 21.545 168.747 21.8106 168.906C22.3418 169.172 22.8729 169.438 23.4041 169.756C23.8822 170.075 24.4133 170.5 24.6789 171.137L24.5727 171.031C26.3786 171.881 28.344 172.412 30.3093 172.837L30.2031 173.315C28.2377 172.89 26.2193 172.359 24.3602 171.456L24.3071 171.403L24.254 171.297C24.0415 170.872 23.6166 170.447 23.1385 170.128C22.6605 169.809 22.1824 169.544 21.6513 169.278C21.3857 169.172 21.1201 169.013 20.8545 168.853C20.5889 168.747 20.3233 168.535 20.1109 168.428C19.5797 168.216 18.9954 168.163 18.4111 168.11Z" fill="#9E5E57"/>
<path d="M30.4682 171.775C30.5213 173.103 30.4151 174.431 30.3089 175.705C30.2026 176.98 30.2026 178.308 30.3089 179.583C29.7777 178.361 29.7246 176.98 29.7777 175.652C29.937 174.324 30.1495 173.05 30.4682 171.775Z" fill="#9E5E57"/>
<path d="M61.1167 164.71C56.0707 166.622 53.8397 179.582 52.14 199.182C52.14 199.182 42.4728 184.15 38.1172 196.314C38.1172 196.314 45.2348 213.258 54.9552 212.037L59.3639 209.275L60.3731 190.79L61.1167 164.71Z" fill="#E1E4F4"/>
<path d="M54.9552 206.619L53.0962 223.669L49.856 260.426C49.6436 262.923 51.3433 265.207 53.8398 265.685C62.9228 267.438 67.597 267.863 91.3402 267.65L74.7147 201.148L54.9552 206.619Z" fill="#8698BF"/>
<path d="M83.1072 155.68C83.1072 155.68 89.375 154.246 93.6774 158.601L85.3912 164.604L83.1072 155.68Z" fill="#E1E4F4"/>
<path d="M67.6499 136.983C67.6499 136.983 70.8369 152.227 73.174 164.232L69.3496 169.915L70.9963 184.522L95.8549 184.204L91.3931 168.375L87.6218 163.86L85.444 146.491L67.6499 136.983Z" fill="#CE7F67"/>
<path d="M85.0191 142.666L67.6499 137.036C67.6499 137.036 70.2526 150.209 72.7491 162.107C76.8922 165.507 86.7188 156.424 86.7188 156.424L85.0191 142.666Z" fill="#9E5E57"/>
<path d="M72.6431 162.904C71.2089 165.932 73.971 170.075 73.971 170.075C73.971 170.075 87.0377 162.745 88.525 162.638C92.8806 162.373 95.4833 165.507 96.4925 166.41C103.823 172.943 96.7581 208.213 96.3332 210.709C95.8551 213.206 93.9429 224.626 93.9429 224.626C93.9429 224.626 89.1624 235.302 73.068 231.106C55.9644 226.697 54.7959 225.157 54.7959 225.157C54.7959 225.157 53.2555 223.404 54.0522 221.173C56.3894 214.587 58.1422 184.416 57.6111 179.689C58.1422 176.502 63.0821 162.692 68.8718 162.16C71.5276 162.001 72.6431 162.904 72.6431 162.904Z" fill="#FFB75E"/>
<path d="M68.606 217.721C69.0753 217.721 69.4558 217.34 69.4558 216.871C69.4558 216.401 69.0753 216.021 68.606 216.021C68.1366 216.021 67.7561 216.401 67.7561 216.871C67.7561 217.34 68.1366 217.721 68.606 217.721Z" fill="#7FB9C6"/>
<path d="M69.5093 207.469C69.9787 207.469 70.3592 207.088 70.3592 206.619C70.3592 206.149 69.9787 205.769 69.5093 205.769C69.0399 205.769 68.6594 206.149 68.6594 206.619C68.6594 207.088 69.0399 207.469 69.5093 207.469Z" fill="#E88636"/>
<path d="M69.5093 197.058C69.9787 197.058 70.3592 196.677 70.3592 196.208C70.3592 195.738 69.9787 195.358 69.5093 195.358C69.0399 195.358 68.6594 195.738 68.6594 196.208C68.6594 196.677 69.0399 197.058 69.5093 197.058Z" fill="#E88636"/>
<path d="M70.3059 187.497C70.7753 187.497 71.1558 187.116 71.1558 186.647C71.1558 186.177 70.7753 185.797 70.3059 185.797C69.8366 185.797 69.4561 186.177 69.4561 186.647C69.4561 187.116 69.8366 187.497 70.3059 187.497Z" fill="#E88636"/>
<path d="M72.4306 169.809C72.4306 169.809 67.4376 182.504 67.1189 196.58C66.7471 210.656 65.8972 226.591 65.8972 226.591" stroke="#E88636" stroke-width="1.809" stroke-miterlimit="10"/>
<path d="M87.7281 158.442C86.347 162.054 80.2917 165.56 76.3611 165.878L78.0608 173.368C82.5226 171.987 86.2408 168.109 89.5872 162.851L87.7281 158.442Z" fill="#FFB75E"/>
<path d="M72.4836 160.886L71.2088 162.532L67.5437 170.128L73.2272 165.56L73.1741 163.807L72.4836 160.886Z" fill="#FFB75E"/>
<path d="M76.3614 165.878L73.9712 170.075L76.9457 168.428L76.3614 165.878Z" fill="#E88636"/>
<path d="M73.2275 165.56L73.9711 170.075L71.3684 167.047L73.2275 165.56Z" fill="#E88636"/>
<path d="M72.3242 159.982C72.3242 159.982 59.045 180.804 53.0959 223.616C53.0959 223.616 55.8049 171.934 61.1166 164.657C64.6223 162.373 65.8971 161.895 72.3242 159.982Z" fill="#F7F7FA"/>
<path d="M62.4977 182.61L72.8023 162.054L72.3243 159.398C70.1465 159.876 67.5438 161.151 65.5784 164.709C62.2321 170.552 62.4977 182.61 62.4977 182.61Z" fill="#E1E4F4"/>
<path d="M60.1608 184.841C62.4448 171.509 70.7841 160.992 70.8373 160.885L68.6063 159.079C68.2345 159.504 59.7359 170.287 57.2925 184.363L60.1608 184.841Z" fill="#8698BF"/>
<path d="M58.5916 188.53C59.4781 186.841 58.9544 184.82 57.422 184.016C55.8895 183.211 53.9286 183.927 53.0421 185.616C52.1556 187.304 52.6793 189.325 54.2118 190.13C55.7442 190.934 57.7051 190.218 58.5916 188.53Z" fill="#57617F"/>
<path d="M62.0909 190.37C63.5911 187.513 63.1228 184.312 61.0449 183.221C58.967 182.13 56.0664 183.562 54.5662 186.419C53.066 189.276 53.5343 192.476 55.6122 193.567C57.6901 194.658 60.5907 193.227 62.0909 190.37Z" fill="#8698BF"/>
<path d="M39.3918 124.713C39.3918 124.713 37.2671 113.771 31.2118 118.073C25.1565 122.429 31.1587 140.861 39.976 138.576C40.0292 138.63 41.6227 134.699 39.3918 124.713Z" fill="#B26B57"/>
<path d="M103.876 118.87C103.876 118.87 103.079 133.955 92.2431 139.161C81.4604 144.366 94.5802 123.332 94.5802 123.332L103.876 118.87Z" fill="#31374C"/>
<path d="M40.0296 77.8111C30.6279 83.5477 26.7504 99.0047 31.3184 110.053C32.3276 112.496 33.0713 118.339 33.868 120.995C37.2144 132.309 37.6393 142.029 38.0111 143.676C39.4984 150.687 57.7706 163.966 71.634 161.151C85.285 158.389 95.1647 140.064 96.2271 134.327C96.7583 131.512 94.368 112.974 91.659 97.5174C89.8 86.9472 84.2227 73.668 74.4492 71.7558C61.6481 69.2062 53.0963 69.7905 40.0296 77.8111Z" fill="#CE7F67"/>
<path d="M71.634 108.565C70.5716 108.194 69.4031 108.725 68.9781 109.84C68.6063 110.903 69.1375 112.071 70.2529 112.496C71.3153 112.868 72.4838 112.337 72.9088 111.221C73.2806 110.159 72.6963 108.937 71.634 108.565Z" fill="#2B2E3A"/>
<path d="M72.1651 109.309C71.8464 109.203 71.5277 109.362 71.4214 109.681C71.3152 109.999 71.4746 110.318 71.7933 110.424C72.112 110.531 72.4307 110.371 72.5369 110.053C72.6431 109.734 72.4838 109.415 72.1651 109.309Z" fill="white"/>
<path d="M45.5004 113.399C44.4381 113.028 43.2695 113.559 42.8446 114.674C42.4728 115.737 43.0039 116.905 44.1194 117.33C45.1817 117.702 46.3503 117.171 46.7752 116.055C47.147 114.94 46.5627 113.771 45.5004 113.399Z" fill="#2B2E3A"/>
<path d="M46.0318 114.143C45.7131 114.037 45.3944 114.196 45.2881 114.515C45.1819 114.833 45.3413 115.152 45.66 115.258C45.9787 115.365 46.2974 115.205 46.4036 114.887C46.5098 114.568 46.3505 114.249 46.0318 114.143Z" fill="white"/>
<g opacity="0.2">
<path opacity="0.2" d="M71.2089 116.799C71.4213 118.287 73.5991 119.136 76.0956 118.712C78.5921 118.287 80.3981 116.746 80.1856 115.259C79.9731 113.772 77.7953 112.922 75.2989 113.347C72.8024 113.772 70.9964 115.312 71.2089 116.799Z" fill="#EF3F54"/>
<path opacity="0.2" d="M37.6391 122.111C37.6922 123.439 39.5513 124.448 41.7291 124.448C43.9069 124.448 45.6597 123.333 45.5535 122.058C45.5004 120.73 43.6413 119.721 41.4635 119.721C39.2857 119.774 37.5329 120.836 37.6391 122.111Z" fill="#EF3F54"/>
</g>
<path d="M77.4236 99.3234C74.2897 98.5797 70.7309 95.8177 65.791 97.5705C64.4631 97.9954 62.9227 97.0925 64.0382 94.5429C66.2159 90.506 73.5992 92.2588 77.636 96.1895C79.1233 98.1548 79.1233 99.5358 77.4236 99.3234Z" fill="#31374C"/>
<path opacity="0.68" d="M51.8211 103.626C51.8211 103.626 56.7079 115.046 51.5024 130.025C51.5024 130.025 62.3383 134.487 67.225 127.9C67.225 127.9 60.4261 115.737 61.1166 101.448C61.1166 101.395 57.7171 103.307 51.8211 103.626Z" fill="url(#paint0_linear)"/>
<path d="M51.6619 130.079C51.6619 130.079 61.1698 139.959 67.2251 127.954C67.2782 127.954 59.7356 132.416 51.6619 130.079Z" fill="#9E5E57"/>
<path d="M96.4924 73.2427C96.4924 73.2427 97.9265 66.1782 84.8598 59.8573C70.7839 53.0584 58.9388 59.9636 49.484 62.4069C33.6021 66.4969 32.8054 55.7673 32.8054 55.7673C14.3739 64.1598 17.6671 90.6119 20.1636 97.4109C25.6877 112.443 34.3458 122.801 34.3458 122.801C34.3458 122.801 32.9647 116.48 32.6992 115.63C32.4336 114.78 29.0341 96.9328 32.9647 87.9561C36.8954 78.9794 57.8234 71.9679 73.2804 76.1642C88.7373 80.3604 83.4788 90.0276 82.5227 93.4802C81.5666 96.9328 84.3286 98.6857 87.3563 102.988C90.3839 107.237 86.772 116.32 86.772 116.32C86.772 116.32 87.5688 117.436 89.056 117.914C90.5433 118.392 93.0929 116.32 93.0929 116.32C96.2799 104.475 104.407 113.718 104.407 113.718C104.407 113.718 106.85 101.607 106 89.6027C105.097 77.5983 96.4924 73.2427 96.4924 73.2427Z" fill="#31374C"/>
<path d="M92.8276 113.4C92.8276 113.4 92.7214 104.37 99.6265 106.282C106.479 108.194 110.569 130.716 95.3772 128.485C95.3772 128.432 91.1279 125.51 92.8276 113.4Z" fill="#CE7F67"/>
<path d="M101.114 111.859C100.158 111.54 99.0953 111.381 98.1392 111.54C97.1831 111.699 96.4395 112.284 96.0677 113.08C95.6427 113.877 95.4834 114.833 95.3771 115.842C95.2709 116.798 95.324 117.808 95.3771 118.817L94.5804 118.286C95.1116 118.126 95.5896 118.073 96.1208 118.073C96.6519 118.073 97.13 118.126 97.6612 118.286C98.1923 118.445 98.6704 118.711 99.0422 119.082C99.1484 119.189 99.2547 119.295 99.3078 119.401C99.414 119.507 99.4671 119.614 99.5202 119.72L99.7327 120.092L99.8921 120.464C100.105 120.942 100.158 121.473 100.158 122.004C100.158 122.535 99.9452 123.066 99.6796 123.491C99.0953 124.341 98.2454 124.872 97.3425 125.085C98.1392 124.607 98.8297 123.969 99.1484 123.226C99.4671 122.482 99.3609 121.632 98.9891 120.888C98.8297 120.517 98.5641 120.251 98.2986 119.985C98.033 119.773 97.6612 119.614 97.2893 119.507C96.5457 119.348 95.6427 119.401 94.8991 119.561L94.1555 119.773L94.1023 119.029C93.9961 117.967 94.0492 116.905 94.1555 115.842C94.3148 114.78 94.5273 113.665 95.1647 112.708C95.4834 112.23 95.9083 111.806 96.4395 111.487C96.9706 111.168 97.5549 111.062 98.0861 111.009C99.2015 110.903 100.211 111.274 101.114 111.859Z" fill="#9E5E57"/>
<path d="M35.8864 108.725C38.4891 106.813 40.6669 102.882 45.9254 102.564C47.3065 102.404 48.3688 101.023 46.3504 99.1112C42.7915 96.2429 36.6831 100.705 34.4522 105.91C33.8679 108.247 34.3991 109.575 35.8864 108.725Z" fill="#31374C"/>
<path d="M52.1401 141.551C54.6897 141.498 57.1331 141.445 59.6296 141.286C60.8513 141.233 62.073 141.127 63.2947 140.914C63.8789 140.808 64.5163 140.702 65.1006 140.542L66.0036 140.33L66.8535 140.064C69.1906 139.321 71.3153 138.046 73.1213 136.399C74.9272 134.806 76.4676 132.787 77.0519 130.503L78.2736 130.822C77.9549 132.15 77.3175 133.318 76.5738 134.434C75.8302 135.496 74.9272 136.452 73.9711 137.355C72.0589 139.055 69.7749 140.489 67.2784 141.233C64.835 142.03 62.2854 142.561 59.7358 142.72C58.461 142.773 57.1862 142.72 55.9114 142.561C54.5835 142.348 53.3087 142.083 52.1401 141.551Z" fill="#9E5E57"/>
<path d="M80.5576 133.743C80.0795 133.265 79.6546 132.893 79.2297 132.522C78.8047 132.15 78.3267 131.831 77.8486 131.565C77.3706 131.247 76.8925 130.981 76.3614 130.769C75.8302 130.503 75.299 130.291 74.6616 130.131C75.2459 129.813 75.9364 129.706 76.6269 129.813C77.3175 129.919 77.9549 130.131 78.486 130.503C79.0703 130.875 79.5484 131.3 79.9202 131.884C80.3451 132.415 80.6107 133.106 80.5576 133.743Z" fill="#9E5E57"/>
<path d="M90.5966 158.07C90.5966 158.07 79.389 182.451 78.2735 204.813C77.3174 223.404 75.5646 267.862 78.486 269.774C84.4882 273.758 100.901 273.811 104.566 271.049C109.666 267.225 105.469 233.177 106.85 177.404C107.01 170.234 95.6427 159.663 95.6427 159.663L90.5966 158.07Z" fill="#F7F7FA"/>
<path d="M86.8251 157.433L93.6241 158.601C93.6241 158.601 79.92 189.409 78.9639 197.217C79.017 197.164 80.0793 172.73 86.8251 157.433Z" fill="#E1E4F4"/>
<path d="M70.5183 167.738L72.7492 172.943L77.5297 170.978L76.9454 168.428L74.1834 168.906L72.3243 166.25L70.5183 167.738Z" fill="#57617F"/>
<path d="M72.962 167.153L76.3083 168.534L76.6802 171.296L73.865 174.908L70.3062 173.687L70.8904 168.641L72.962 167.153Z" fill="#57617F"/>
<path d="M70.306 173.687C70.306 173.687 66.9065 181.867 65.7911 190.578C64.2507 202.582 62.0198 214.693 62.0198 214.693L66.1629 223.404L71.9526 214.374C71.9526 214.374 70.0404 199.714 70.9434 191.534C72.1651 180.22 73.8648 174.855 73.8648 174.855L70.306 173.687Z" fill="#57617F"/>
<path d="M83.7976 192.596C85.2318 186.382 88.0469 179.105 90.5434 172.677C93.9429 163.966 95.6426 159.345 94.8459 157.167C93.2524 152.812 86.6659 153.29 86.4003 153.343L86.6128 156.211C87.8345 156.105 91.4464 156.264 92.1369 158.177C92.5619 159.504 89.9591 166.25 87.8345 171.668C85.338 178.148 82.4697 185.532 80.9824 191.959L83.7976 192.596Z" fill="#8698BF"/>
<path d="M89.6406 207.522C89.6937 207.522 89.7468 207.522 89.7468 207.522C90.5436 207.469 91.1278 206.778 91.0747 205.982C90.756 202.263 89.7468 190.897 82.4167 190.843C82.4167 190.843 82.4167 190.843 82.3636 190.843C77.3175 190.843 73.5462 195.73 71.1559 205.45C70.9435 206.247 71.4215 206.991 72.2183 207.203C73.015 207.363 73.7587 206.938 73.9711 206.141C75.0866 201.52 77.6893 193.765 82.3636 193.765C85.4975 193.765 87.4628 197.961 88.1533 206.247C88.2595 206.991 88.8969 207.522 89.6406 207.522Z" fill="#8698BF"/>
<path d="M86.2941 222.289C87.1971 222.289 88.5781 222.129 89.5874 221.226C90.1716 220.748 90.9153 219.792 90.9684 218.092C91.0215 215.065 91.0746 210.55 90.5966 205.982C90.5434 205.451 90.0654 205.079 89.5342 205.132C89.0031 205.185 88.6313 205.663 88.6844 206.194C89.1093 210.656 89.1093 215.118 89.0562 218.092C89.0562 218.836 88.8437 219.42 88.3657 219.739C87.5689 220.43 86.0816 220.376 85.6036 220.27C85.0724 220.217 84.5944 220.536 84.4881 221.067C84.3819 221.598 84.7537 222.076 85.2849 222.182C85.3911 222.235 85.7629 222.289 86.2941 222.289Z" fill="#E1E4F4"/>
<path d="M74.024 221.545C74.5552 221.545 74.927 221.439 74.9801 221.439C75.5113 221.332 75.83 220.801 75.6707 220.27C75.5644 219.739 75.0333 219.42 74.5021 219.58C74.449 219.58 73.3866 219.792 72.643 219.208C72.0056 218.677 71.6869 217.508 71.7931 215.914C71.8994 213.737 72.4305 209.965 73.4398 206.088C73.5991 205.557 73.2804 205.026 72.7492 204.919C72.2181 204.813 71.6869 205.079 71.5807 205.61C70.5183 209.647 70.0403 213.524 69.8809 215.808C69.7216 218.092 70.2528 219.739 71.4213 220.695C72.3243 221.386 73.3335 221.545 74.024 221.545Z" fill="#E1E4F4"/>
<path d="M73.9708 219.845L74.1302 221.332C74.1833 221.757 74.502 222.076 74.9269 222.129L76.308 222.288C76.8923 222.342 77.4234 221.863 77.3172 221.226L76.9985 219.155C76.8923 218.623 76.3611 218.252 75.8299 218.411L74.6082 218.836C74.1833 218.995 73.9177 219.42 73.9708 219.845Z" fill="#E1E4F4"/>
<path d="M86.8256 220.641L86.6131 222.129C86.56 222.554 86.1882 222.872 85.7632 222.872L84.3822 222.979C83.7979 223.032 83.2668 222.501 83.4261 221.863L83.851 219.792C83.9573 219.26 84.5416 218.942 85.0727 219.101L86.2944 219.526C86.6662 219.792 86.8787 220.217 86.8256 220.641Z" fill="#E1E4F4"/>
<path d="M95.6428 159.717C106.107 164.551 106.638 169.703 108.975 198.227C109.453 204.282 102.92 234.718 101.964 234.452C97.7675 233.337 94.0493 231.584 88.3658 229.619L94.0493 193.659L88.0471 183.938L95.6428 159.717Z" fill="#F7F7FA"/>
<path d="M90.9682 179.848L91.9243 186.063L92.9335 192.278L93.9427 198.492C94.0489 198.97 94.1021 199.555 94.1552 200.086C94.1552 200.351 94.1552 200.617 94.1552 200.883C94.1552 201.148 94.1552 201.414 94.1552 201.679C94.1021 202.742 93.9958 203.804 93.8896 204.866C93.4116 209.062 92.6148 213.206 91.7118 217.349C90.8088 221.492 89.8527 225.582 88.7904 229.672L88.4717 229.087C92.9866 230.734 97.5015 232.381 102.016 234.08L101.592 234.293C102.123 232.487 102.654 230.734 103.238 228.928C103.769 227.122 104.354 225.369 104.885 223.563C104.46 225.369 104.035 227.175 103.557 228.981C103.132 230.787 102.654 232.593 102.176 234.399L102.07 234.718L101.751 234.612C97.1828 233.071 92.6148 231.531 88.0468 229.937L87.6218 229.778L87.7281 229.353C88.7373 225.263 89.6934 221.173 90.5432 217.083C91.4462 212.993 92.243 208.85 92.7741 204.707C92.9335 203.698 93.0397 202.635 93.0929 201.626C93.0929 201.361 93.146 201.095 93.146 200.829C93.146 200.564 93.146 200.298 93.146 200.086C93.146 199.555 93.0928 199.077 92.9866 198.545C92.6679 196.474 92.4023 194.402 92.1367 192.278C91.8712 190.206 91.6587 188.081 91.3931 186.01C91.34 184.044 91.1275 181.973 90.9682 179.848Z" fill="#E1E4F4"/>
</g>
<defs>
<linearGradient id="paint0_linear" x1="56.1755" y1="101.989" x2="59.6849" y2="131.497" gradientUnits="userSpaceOnUse">
<stop stop-color="#CE7F67"/>
<stop offset="0.3346" stop-color="#CB7D66"/>
<stop offset="0.59" stop-color="#C17663"/>
<stop offset="0.8183" stop-color="#B16B5D"/>
<stop offset="1" stop-color="#9E5E57"/>
</linearGradient>
</defs>
</svg>
