<svg width="105" height="140" viewBox="0 0 105 140" fill="none" xmlns="http://www.w3.org/2000/svg">
<mask id="mask0" mask-type="alpha" maskUnits="userSpaceOnUse" x="0" y="0" width="105" height="140">
<rect width="105" height="140" fill="#C4C4C4"/>
</mask>
<g mask="url(#mask0)">
</g>
<mask id="mask1" mask-type="alpha" maskUnits="userSpaceOnUse" x="0" y="0" width="105" height="140">
<rect width="105" height="140" fill="#C4C4C4"/>
</mask>
<g mask="url(#mask1)">
<rect width="82.0218" height="82.3594" rx="20" transform="matrix(0.965766 -0.259415 0.258224 0.966085 0 65.3164)" fill="#EDEFF5"/>
<mask id="mask2" mask-type="alpha" maskUnits="userSpaceOnUse" x="4" y="49" width="92" height="92">
<path d="M5.30103 85.2955C2.46716 74.6373 8.79717 63.7011 19.4507 60.8496L59.8866 50.0264C70.5733 47.1659 81.5567 53.5233 84.3994 64.2146L95.1133 104.51C97.9471 115.168 91.6171 126.104 80.9636 128.956L40.5277 139.779C29.841 142.639 18.8576 136.282 16.0149 125.591L5.30103 85.2955Z" fill="#EDEFF5"/>
</mask>
<g mask="url(#mask2)">
<path d="M64.9626 115.349L75.1511 127.132L82.687 121.885L69.8459 102.246L64.9626 115.349Z" fill="#F9C1A7"/>
<path d="M67.5252 98.7976C67.5252 98.7976 74.2171 102.216 78.9496 114.839C76.4175 114.269 72.318 118.467 71.9864 124.404L64.9932 116.728L67.5252 98.7976Z" fill="#DC3340"/>
<path d="M31.5334 103.775C25.2937 110.911 14.3215 122.995 13.8392 126.803C13.7487 127.612 21.375 129.741 21.375 129.741L35.9946 116.758L31.5334 103.775Z" fill="#F9C1A7"/>
<path d="M32.9803 103.985C33.7339 99.427 37.743 96.0987 42.3851 96.0987C44.9172 96.0987 48.0521 94.2397 51.187 94.6595C55.6482 95.3191 64.3597 97.418 67.5549 98.7973C72.83 110.371 70.7802 134.868 74.0659 151.389C66.5602 152.139 46.153 153.878 34.0354 151.3C37.6224 123.654 30.1469 121.135 32.9803 103.985Z" fill="#DC3340"/>
<path d="M57.2155 96.4886C57.2457 92.8005 58.2706 87.6133 58.2706 87.6133L43.8921 84.8547L43.1084 95.679C43.1084 95.679 45.9419 103.595 55.2261 104.434C57.4567 102.785 57.2155 96.4886 57.2155 96.4886Z" fill="#E6A696"/>
<g opacity="0.2">
<g opacity="0.2">
<path opacity="0.2" d="M57.5168 54.8711C57.2756 55.9807 55.256 56.4905 52.9952 56.0407C50.7345 55.5908 49.0766 54.3313 49.3177 53.2216C49.5589 52.112 51.5785 51.6022 53.8393 52.052C56.1 52.5019 57.7579 53.7614 57.5168 54.8711Z" fill="#F0808E"/>
<path opacity="0.2" d="M82.6872 58.5597C82.6872 59.5493 81.0896 60.3291 79.07 60.3591C77.0504 60.3591 75.4226 59.5793 75.4226 58.5897C75.4226 57.6 77.0504 56.8203 79.0398 56.7903C81.0594 56.7903 82.6872 57.57 82.6872 58.5597Z" fill="#F0808E"/>
</g>
</g>
<path d="M56.8231 99.0376C59.4455 101.077 62.6407 104.885 62.6407 104.885C62.6407 104.885 61.7967 100.327 61.2541 97.7182C60.591 96.159 57.4259 93.0704 57.4259 93.0704C57.4259 93.0704 56.7929 97.9282 56.8231 99.0376Z" fill="#B92B36"/>
<path d="M84.1933 98.2578C84.1933 98.2578 84.2536 117.148 83.5603 122.125C83.1986 124.764 80.8775 128.152 79.8225 129.112C79.3703 129.501 75.5421 128.662 74.4871 126.113C74.2761 125.573 74.0651 124.974 73.9144 124.224C73.5225 122.455 77.3507 101.256 77.3507 101.256C76.567 96.6387 83.4397 93.4304 84.1933 98.2578Z" fill="#F9C1A7"/>
<path d="M32.2264 99.7571C34.5775 97.5982 39.8225 96.7587 39.8225 96.7587C40.4857 96.3089 47.2077 102.815 42.9876 108.213C40.7268 111.121 34.6077 121.016 30.5685 125.783C27.5843 121.795 23.334 117.867 20.7417 114.299C25.2632 108.872 28.579 103.115 32.2264 99.7571Z" fill="#DC3340"/>
<path d="M64.6303 113.52C64.5097 113.52 64.3891 113.55 64.2686 113.729L62.9121 115.559L62.3997 113.759C62.3394 113.58 62.2188 113.52 62.1284 113.52C61.9777 113.52 61.8872 113.58 61.7968 113.729L60.5911 116.129H61.2542L62.0681 114.479L62.5805 116.129H63.1533L64.3891 114.479V116.129H64.9619V113.819C64.9016 113.61 64.781 113.52 64.6303 113.52Z" fill="white"/>
<path d="M59.7772 113.939L59.2346 116.129H59.8676L60.3801 113.939H59.7772Z" fill="white"/>
<path d="M58.7518 114.569C58.7819 114.269 58.6312 113.939 57.9982 113.939H56.8226L56.28 116.128H56.8829L57.0939 115.319H57.3953L57.9379 116.128H58.6011L57.9982 115.259C58.5106 115.139 58.6915 114.869 58.7518 114.569ZM57.6063 114.929H57.1843L57.3351 114.269H57.7872C58.0284 114.269 58.1489 114.389 58.1188 114.599C58.1188 114.809 57.9078 114.929 57.6063 114.929Z" fill="white"/>
<path d="M67.4332 116.129H68.0059L67.4633 114.119C67.403 113.88 67.2523 113.82 67.1016 113.85C67.0112 113.85 66.9207 113.91 66.8002 114.029L65.3533 116.129H65.9561L66.2576 115.679H67.3427L67.4332 116.129ZM66.4987 115.319L67.0413 114.509L67.2523 115.319H66.4987Z" fill="white"/>
<path d="M69.8444 115.739C69.3621 115.739 69.0607 115.469 69.121 115.109C69.1812 114.629 69.6033 114.359 70.2061 114.359C70.387 114.359 70.6281 114.359 70.8391 114.419L70.9597 113.969C70.7788 113.939 70.5076 113.909 70.2966 113.909C69.2415 113.909 68.5784 114.389 68.5181 115.109C68.4578 115.739 68.8798 116.189 69.8745 116.189C70.0554 116.189 70.2363 116.159 70.4774 116.129L70.598 115.649C70.3267 115.709 70.1458 115.739 69.8444 115.739Z" fill="white"/>
<path d="M57.6066 97.0583L54.7128 103.985L45.8506 97.0283L43.7708 99.2173L55.3157 108.513L58.4205 100.387L57.6066 97.0583Z" fill="#B92B36"/>
<path d="M42.9573 92.8008C42.9573 92.8008 46.454 97.5386 50.8549 100.957C50.252 102.246 44.9166 105.665 44.9166 105.665L38.9482 96.1292L42.9573 92.8008Z" fill="#B92B36"/>
<path d="M40.304 114.629C39.5504 115.229 38.8873 115.889 38.2241 116.548C37.5609 117.208 36.9581 117.928 36.3552 118.647C35.7825 119.367 35.2098 120.117 34.6672 120.866C34.3959 121.226 34.1246 121.616 33.8232 122.006C33.5519 122.396 33.2806 122.786 33.0093 123.145L32.9791 123.175C32.7983 123.415 32.5873 123.625 32.3763 123.835C32.1653 124.045 31.9241 124.255 31.6528 124.435C31.7433 124.135 31.894 123.865 32.0146 123.595C32.1653 123.325 32.316 123.085 32.4968 122.816L32.4667 122.846C32.6777 122.426 32.8887 121.976 33.0997 121.556L33.4614 120.926C33.582 120.717 33.7026 120.507 33.8533 120.327C34.3959 119.517 34.9988 118.767 35.6619 118.078C36.3251 117.388 37.0485 116.728 37.8021 116.129C38.616 115.529 39.4298 114.989 40.304 114.629Z" fill="#B92B36"/>
<path d="M29.4537 143.264C29.4537 143.264 33.0407 143.174 34.6383 141.855C36.2661 140.565 37.7733 140.116 39.1297 141.855C40.4862 143.594 41.1493 143.804 41.3603 145.153C41.5713 146.562 42.6867 148.451 41.3905 148.121C40.0642 147.791 39.6422 145.303 39.6422 145.303L38.0747 143.744C38.0747 143.744 39.2804 146.562 38.768 147.791C38.2556 149.021 34.9699 150.43 33.9752 150.13C33.0106 149.8 32.9503 148.511 32.9503 148.511C32.9503 148.511 29.4235 150.88 25.4446 147.851L13.8394 126.803L23.5757 127.792L29.4537 143.264Z" fill="#F9C1A7"/>
<path d="M70.0859 109.022C70.4175 110.101 70.6285 111.211 70.8094 112.35C70.9902 113.46 71.141 114.599 71.2314 115.709C71.352 116.848 71.4122 117.958 71.4122 119.097C71.4424 120.237 71.3821 121.376 71.2917 122.486L71.0204 119.127C70.93 118.018 70.8094 116.878 70.7189 115.769L70.3874 112.41C70.2668 111.271 70.1462 110.131 70.0859 109.022Z" fill="#B92B36"/>
</g>
<path d="M81.9883 62.7048C81.9883 62.7048 85.7863 54.4887 90.9107 58.9566C96.0351 63.4245 87.3538 76.8581 79.2151 73.4997C79.2151 73.4997 78.2806 70.1113 81.9883 62.7048Z" fill="#E6A696"/>
<path d="M91.363 22.0762C97.4822 23.7853 96.2161 31.2213 96.0353 34.5496C95.553 44.5643 87.4444 59.8861 86.2688 64.1739C86.2688 64.1739 81.3554 19.2876 91.363 22.0762Z" fill="#2B2E3A"/>
<path d="M92.8994 25.285C92.8994 25.285 84.0071 81.0555 81.3846 84.6536C78.7621 88.2517 65.1373 92.1496 57.722 91.9697C50.3067 91.7898 37.6465 79.0765 35.8981 75.7783C34.9637 74.0092 34.7225 60.0366 35.3556 45.9741C35.868 33.9204 30.6833 22.4365 32.5221 17.9089C32.4618 17.8789 68.7244 5.73536 92.8994 25.285Z" fill="#F9C1A7"/>
<path d="M39.4854 50.6205C39.4854 50.6205 39.5758 53.6489 40.239 56.7973C41.8667 64.4732 55.1298 59.0461 70.2618 65.3128C74.2408 66.9619 75.4164 68.4611 79.6666 70.1102C85.3637 72.2991 86.7503 60.4254 87.323 58.2965C84.9417 71.6394 85.0623 81.9839 81.2943 86.6015C78.5212 89.9897 64.7456 94.6073 54.7681 92.2085C46.4787 90.2296 35.3859 81.4442 33.6677 78.2059C32.8538 76.6168 33.0045 65.4627 33.3964 53.1392L33.0347 45.0735L39.4854 50.6205Z" fill="#2B2E3A"/>
<path d="M87.5345 41.5659C86.2082 39.7368 84.5804 38.3274 81.0838 37.8776C79.2752 37.8776 77.3761 37.7277 79.1546 36.0485C82.169 33.4997 89.0718 37.5178 89.4034 42.4055C89.7953 44.5345 88.2579 42.9153 87.5345 41.5659Z" fill="#2B2E3A"/>
<path d="M52.9304 35.9897C54.6184 34.4902 56.5175 33.4705 60.0141 33.7704C61.7926 34.1303 63.6615 34.4302 62.2749 32.3909C59.8634 29.272 52.2672 31.7011 50.8806 36.4095C50.0668 38.3889 51.9055 37.1593 52.9304 35.9897Z" fill="#2B2E3A"/>
<path d="M39.4849 50.6219C39.4849 50.6219 38.9122 42.3762 44.2778 35.6298C48.1964 30.7124 45.2725 21.987 43.1926 18.7787C43.1926 18.7787 33.4562 15.2706 32.7931 15.6604C28.9046 17.9691 23.0869 26.1248 28.6333 49.5424L39.4849 50.6219Z" fill="#2B2E3A"/>
<path d="M95.9441 17.9381C91.9351 12.9907 84.4595 3.1859 73.9696 2.07648C68.7547 1.62672 65.0169 1.65671 60.5859 3.3658C61.1586 2.58621 64.8662 0.727197 64.7758 0.0975306C64.6552 -0.682057 35.7175 3.09594 32.8539 15.6293C31.1357 17.0685 30.141 18.2379 30.0204 18.8076C29.4477 21.5662 44.9414 36.3483 44.6701 29.362C44.218 23.4252 43.7959 22.6756 46.2677 21.3563C50.6988 19.0175 57.7222 19.6172 73.0652 26.1837C80.2695 29.2721 103.781 32.9601 104.535 23.815C104.475 23.845 99.9532 22.8855 95.9441 17.9381Z" fill="#2B2E3A"/>
<path d="M35.1445 53.6793C35.1445 53.6793 33.8182 46.9325 27.88 49.0315C21.9417 51.1305 21.7006 68.3124 35.1445 65.1639C35.1747 65.1639 38.5809 62.5552 35.1445 53.6793Z" fill="#F9C1A7"/>
<path d="M27.4294 53.3497C28.1227 52.9599 28.9065 52.69 29.7203 52.72C30.5041 52.72 31.2275 53.1098 31.7098 53.7095C32.1921 54.3092 32.4935 54.9989 32.7045 55.7486C32.9156 56.4982 33.0361 57.2478 33.1567 57.9975L33.428 57.7576C32.6443 57.6677 31.8605 57.7576 31.1672 58.1474C30.4739 58.5372 30.0821 59.2869 30.0218 60.0066C29.9615 60.3664 30.0218 60.7562 30.1424 61.086C30.2931 61.4459 30.5342 61.7157 30.8357 61.9556C31.4385 62.4054 32.1318 62.6453 32.8553 62.7653C32.162 62.5554 31.4988 62.2855 30.9864 61.8057C30.7452 61.5658 30.5342 61.2959 30.4438 60.9961C30.3534 60.6962 30.3232 60.3664 30.3835 60.0365C30.5041 59.4068 30.8357 58.8071 31.4084 58.4773C31.951 58.1474 32.7045 58.0875 33.3376 58.1774L33.639 58.2074L33.6089 57.9075C33.5184 57.1279 33.3677 56.3483 33.1266 55.5686C32.8854 54.819 32.5538 54.0394 31.9811 53.4097C31.4084 52.78 30.5644 52.3602 29.6902 52.4501C28.8462 52.5101 28.0625 52.8699 27.4294 53.3497Z" fill="#C78684"/>
<path d="M77.1946 53.1696C77.1042 54.2192 77.8879 55.1489 78.9429 55.2389C79.9979 55.3288 80.9324 54.5491 81.0228 53.4995C81.1133 52.4498 80.3295 51.5201 79.2745 51.4302C78.2195 51.3402 77.285 52.1199 77.1946 53.1696Z" fill="#2B2E3A"/>
<path d="M79.3048 53.6794C79.2746 54.0393 79.5459 54.3692 79.9077 54.3992C80.2694 54.4292 80.601 54.1593 80.6311 53.7994C80.6612 53.4395 80.3899 53.1096 80.0282 53.0796C79.6665 53.0197 79.3349 53.2896 79.3048 53.6794Z" fill="white"/>
<path d="M54.0431 49.0023C53.9828 50.1419 54.8871 51.0716 56.0025 51.1316C57.1479 51.1916 58.0824 50.2919 58.1426 49.1823C58.2029 48.0427 57.2986 47.113 56.1833 47.053C55.0379 47.023 54.0733 47.8927 54.0431 49.0023Z" fill="#2B2E3A"/>
<path d="M56.3046 49.6016C56.2745 49.9915 56.6061 50.3214 56.9979 50.3514C57.3898 50.3814 57.7214 50.0515 57.7515 49.6616C57.7817 49.2717 57.4501 48.9419 57.0582 48.9119C56.6362 48.9119 56.3046 49.2118 56.3046 49.6016Z" fill="white"/>
<path d="M62.9734 39.7605C62.9734 39.7605 64.2725 52.7259 61.6746 61.3695C63.8393 64.3947 69.4678 66.5556 73.3643 64.8269C72.9314 54.4546 80.2911 41.5099 80.2911 41.5099L62.9734 39.7605Z" fill="url(#paint0_linear)"/>
<path d="M73.364 64.8273C73.364 64.8273 64.4176 72.7054 61.6746 61.3693C61.6746 61.3693 67.3028 65.2596 73.364 64.8273Z" fill="#CE8C86"/>
<path d="M67.347 77.5376C67.8981 74.288 66.4021 71.3267 64.0057 70.9232C61.6093 70.5198 59.2198 72.8271 58.6687 76.0767C58.1176 79.3263 59.6136 82.2876 62.01 82.6911C64.4065 83.0945 66.7959 80.7872 67.347 77.5376Z" fill="#343948"/>
<path d="M63.8724 80.246C62.2447 78.7465 59.9236 78.3567 58.6274 78.2367C58.8987 80.5459 60.1949 82.3453 62.0337 82.6452C63.0887 82.8251 64.1135 82.4653 64.9877 81.7455C64.7466 81.2657 64.415 80.7259 63.8724 80.246Z" fill="#DE8D80"/>
<path d="M60.1343 72.7194C60.7673 72.8994 61.5209 73.1093 62.4855 73.2892C63.9625 73.5591 65.6204 73.5891 66.9166 73.5592C66.3438 72.1796 65.319 71.16 63.9926 70.95C62.5759 70.6801 61.1592 71.3999 60.1343 72.7194Z" fill="white"/>
<path d="M68.6028 99.1663C68.6028 99.1663 70.2305 101.086 73.5764 100.696C73.5764 100.696 74.2094 100.636 74.33 99.7061L73.275 98.5365C73.275 98.5365 72.0693 98.0266 71.8281 98.0266C71.5568 97.9966 70.2004 98.2965 70.0798 98.3565C69.9592 98.4165 68.5425 99.1663 68.5425 99.1663" fill="#F9C1A7"/>
<path d="M84.2483 96.4072C84.2483 96.3772 84.2483 96.3473 84.2181 96.3173L84.1277 96.2873C81.6258 92.1192 79.0636 88.1311 75.2957 86.9617C73.065 88.9707 72.7335 97.0669 73.065 98.3863C73.3966 99.7057 74.9038 100.875 77.6468 101.685C78.7019 102.015 82.4999 101.505 82.4999 101.505C82.4999 101.505 82.5602 101.535 82.6507 101.595C83.0727 101.415 85.3033 100.395 84.2483 96.4072Z" fill="#F9C1A7"/>
<path d="M73.1241 98.3864C73.1241 98.3864 69.0849 100.246 68.5122 99.106C68.482 99.0461 68.2107 98.4164 68.1806 98.0266C68.1504 97.4568 68.4217 96.8271 68.4217 96.8271C68.4217 96.8271 68.0299 95.8676 68.06 95.5077C68.0901 95.028 68.6327 94.3083 68.5423 94.3083C68.4519 94.3083 68.3614 94.1584 68.4519 93.2888C68.5122 92.6291 68.9342 92.1193 68.9342 92.1193C69.2959 90.68 74.6011 90.3202 74.6011 90.3202C74.6011 90.3202 75.7165 96.6172 73.1241 98.3864Z" fill="#F9C1A7"/>
<path d="M68.6038 94.2785C68.6038 94.2785 68.9052 94.2186 69.3875 94.0986C69.8396 93.9786 70.4727 93.7987 71.0755 93.5888C71.6784 93.3789 72.2813 93.1689 72.7334 92.989C73.1856 92.809 73.4569 92.6891 73.4569 92.6891C73.4569 92.6891 73.1554 92.7491 72.6731 92.869C72.221 92.989 71.6181 93.1689 70.9851 93.3788C70.3822 93.5888 69.7794 93.7987 69.3573 93.9786C68.9052 94.1586 68.6038 94.2785 68.6038 94.2785Z" fill="#E6A696"/>
<path d="M68.3616 96.9175C68.3616 96.9175 68.663 96.8576 69.085 96.7676C69.507 96.6776 70.0797 96.5277 70.6525 96.3477C71.2252 96.1678 71.7678 95.9879 72.1898 95.8379C72.6118 95.688 72.8831 95.568 72.8831 95.568C72.8831 95.568 72.5817 95.628 72.1596 95.7179C71.7376 95.8079 71.1649 95.9579 70.5922 96.1378C70.0195 96.3177 69.4769 96.4977 69.0549 96.6476C68.6329 96.7976 68.3616 96.9175 68.3616 96.9175Z" fill="#E6A696"/>
<path d="M70.2909 86.7817C68.7837 87.0216 66.101 88.1612 64.4129 89.7207C63.9608 90.1106 64.5637 91.82 65.1364 91.6101C67.9699 90.4105 69.2058 89.4508 70.1402 89.3308C71.2555 89.2109 74.0589 90.5904 74.0589 90.5904L76.3196 90.3505L75.355 86.9617C75.3249 86.9617 72.0694 86.4818 70.2909 86.7817Z" fill="#F9C1A7"/>
<path d="M84.2486 96.4075L82.8319 90.0505C82.5606 88.7611 82.0783 87.5317 81.4151 86.3922C80.6013 85.0129 79.5462 82.9738 79.5161 81.7144C79.4257 79.6154 77.0745 80.1552 77.0745 82.554C77.1046 84.9529 78.6721 85.7625 78.6419 86.9619C78.5816 88.1614 79.0639 91.3699 79.0639 91.3699L84.2486 96.4075Z" fill="#F9C1A7"/>
</g>
<defs>
<linearGradient id="paint0_linear" x1="70.7664" y1="41.9214" x2="68.7944" y2="62.8749" gradientUnits="userSpaceOnUse">
<stop stop-color="#F9C1A7"/>
<stop offset="0.494792" stop-color="#F5BEA4"/>
<stop offset="1" stop-color="#FFB097"/>
</linearGradient>
</defs>
</svg>
