<svg width="224" height="172" viewBox="0 0 224 172" fill="none" xmlns="http://www.w3.org/2000/svg">
<mask id="mask0" mask-type="alpha" maskUnits="userSpaceOnUse" x="0" y="0" width="224" height="172">
<rect width="224" height="172" fill="#C4C4C4"/>
</mask>
<g mask="url(#mask0)">
<path d="M183.532 149.332L185.917 167.768L163.55 168.622C163.55 168.622 162.358 175.491 161.86 173.622C161.86 173.622 192.607 186.987 194.173 182.271C195.507 178.285 196.54 148.656 185.33 138.655C184.155 137.605 183.07 140.381 183.07 140.381C183.07 140.381 180.668 141.538 182.429 146.681L183.301 149.118" fill="#BD6C53"/>
<path d="M157.145 130.736C157.145 130.736 162.714 127.088 171.557 130.736L172.429 135.132L156.148 134.313L157.145 130.736Z" fill="#BD1A3B"/>
<path d="M163.283 19.2667C163.283 19.2667 168.621 11.7927 185.632 18.5905C202.643 25.3882 206.717 55.1952 208.159 64.6979C209.6 74.2005 223.888 90.3052 218.977 104.702C210.845 128.512 174.333 128.974 167.429 124.952C160.525 120.931 176.949 97.7258 176.949 97.7258C176.949 97.7258 184.315 72.5278 181.451 48.0238C178.586 23.5197 163.283 19.2667 163.283 19.2667Z" fill="#2B2E3A"/>
<path d="M137.821 106.57L137.109 87.4401L180.828 75.0012L192.429 109.844C192.429 109.844 165.294 135.647 150.81 126.785C136.309 117.888 137.821 106.57 137.821 106.57Z" fill="#2B2E3A"/>
<path d="M173.799 115.806L171.024 131.679C171.024 131.679 174.974 134.01 175.97 134.509C183.123 138.103 183.959 141.858 183.959 141.858L165.828 151.325L152.163 142.997C152.163 142.997 149.049 139.26 153.23 137.124C154.387 136.537 157.874 130.985 157.874 130.985L160.009 114.614L173.799 115.806Z" fill="#A1554A"/>
<path d="M185.454 30.2997C185.454 30.2997 195.916 39.6778 197.731 56.1028C199.546 72.5456 211.984 109.898 184.689 122.105C173.158 127.266 155.614 120.148 144.084 106.321C129.44 88.757 121.807 62.8828 123.105 57.651C125.419 48.3619 162.678 12.7892 185.454 30.2997Z" fill="#CC7A5B"/>
<path d="M193.871 58.6475C193.871 58.6475 188.444 54.8037 183.177 57.6688C182.679 57.9535 182.145 57.3307 182.518 56.8858C184.636 54.2699 188.71 51.4582 193.871 58.6475Z" fill="#2B2E3A"/>
<path opacity="0.2" d="M164.618 83.4898C164.938 84.9668 162.839 86.6574 159.956 87.2802C157.056 87.903 154.458 87.1912 154.138 85.7142C153.817 84.2372 155.899 82.5289 158.8 81.9238C161.7 81.301 164.298 82.0128 164.618 83.4898Z" fill="#B55050"/>
<path opacity="0.2" d="M198.336 77.9555C198.657 79.4325 196.557 81.123 193.674 81.7459C190.774 82.3687 188.176 81.6569 187.856 80.1799C187.536 78.7029 189.618 76.9945 192.518 76.3895C195.418 75.7845 198.016 76.4785 198.336 77.9555Z" fill="#B55050"/>
<path d="M151.024 67.1181C151.024 67.1181 154.049 61.1923 160.045 61.2991C160.632 61.3169 160.81 60.5161 160.276 60.3025C157.18 58.9501 152.269 58.3451 151.024 67.1181Z" fill="#2B2E3A"/>
<path d="M193.585 93.1348C193.585 93.1348 182.731 102.851 163.853 96.4269C163.853 96.4269 172.856 111.944 183.479 109.969C194.244 106.784 187.856 101.16 193.585 93.1348Z" fill="#7B4358"/>
<path d="M172.749 106.659C180.774 104.506 185.578 105.93 188.265 107.638C187.251 108.528 185.756 109.311 183.496 109.969C179.564 110.699 175.863 109.044 172.749 106.659Z" fill="#E78680"/>
<path d="M193.585 93.1348C191.842 95.5549 191.219 97.7615 190.899 99.7546C186.397 102.246 179.102 104.559 168.639 102.815C165.667 99.541 163.853 96.4091 163.853 96.4091C182.731 102.851 193.585 93.1348 193.585 93.1348Z" fill="white"/>
<path d="M192.856 94.2381C192.625 94.6118 192.411 95.0033 192.198 95.3948C192.002 95.7863 191.824 96.1956 191.664 96.6049C191.504 97.0142 191.361 97.4413 191.237 97.8506C190.739 99.5411 190.596 101.321 190.329 103.047C190.187 103.901 190.009 104.773 189.636 105.538C189.458 105.93 189.226 106.285 188.977 106.641C188.71 106.979 188.408 107.282 188.087 107.549C187.927 107.691 187.749 107.816 187.571 107.94C187.394 108.065 187.216 108.19 187.02 108.296C186.646 108.528 186.255 108.706 185.863 108.884C185.472 109.062 185.063 109.222 184.653 109.364C184.244 109.524 183.817 109.631 183.408 109.773H183.426C181.397 110.147 179.28 109.845 177.358 109.097C175.436 108.35 173.675 107.175 172.073 105.858C170.472 104.524 169.031 103.011 167.696 101.41C167.02 100.609 166.379 99.7902 165.774 98.9361C165.169 98.0819 164.582 97.2277 164.048 96.338L163.764 96.6939L165.632 97.2811C166.255 97.4413 166.895 97.637 167.518 97.7794C168.159 97.9217 168.782 98.0819 169.44 98.1887C170.08 98.3132 170.721 98.42 171.379 98.509C172.02 98.6157 172.678 98.6691 173.319 98.7225C173.977 98.7759 174.618 98.8115 175.276 98.8293C175.935 98.8471 176.575 98.8471 177.233 98.8115C177.892 98.8115 178.532 98.7403 179.191 98.6869C179.831 98.6157 180.49 98.5446 181.13 98.4378C181.771 98.3488 182.411 98.2064 183.052 98.0819C183.692 97.9395 184.315 97.7794 184.956 97.6014C185.579 97.4057 186.201 97.2099 186.806 96.9786C188.034 96.5159 189.208 95.9821 190.347 95.3592C191.486 94.7364 192.589 94.0246 193.568 93.1704C193.337 93.5085 193.07 93.8466 192.856 94.2381ZM190.312 95.2347C189.155 95.8219 187.963 96.338 186.753 96.765C186.148 96.9786 185.525 97.1743 184.902 97.3345C184.28 97.4946 183.657 97.6548 183.016 97.7794C182.376 97.9039 181.753 98.0285 181.112 98.1175C180.472 98.2065 179.831 98.2776 179.191 98.331C178.55 98.3666 177.91 98.42 177.251 98.42C176.611 98.4378 175.952 98.42 175.312 98.4022C174.671 98.3666 174.031 98.331 173.372 98.2776C172.732 98.2065 172.091 98.1531 171.451 98.0463C170.81 97.9573 170.169 97.8506 169.547 97.726C168.906 97.6192 168.283 97.4413 167.661 97.3167C167.038 97.1743 166.415 96.9786 165.792 96.8184L163.942 96.2312L163.337 96.0354L163.657 96.5693C164.209 97.4946 164.796 98.3666 165.401 99.2208C166.024 100.075 166.664 100.911 167.34 101.73C168.693 103.349 170.169 104.88 171.806 106.232C173.443 107.585 175.241 108.759 177.233 109.524C179.226 110.289 181.433 110.61 183.532 110.183H183.55C183.977 110.04 184.404 109.916 184.813 109.756C185.223 109.613 185.65 109.435 186.041 109.239C186.45 109.044 186.842 108.848 187.216 108.617C187.411 108.51 187.589 108.385 187.767 108.243C187.945 108.118 188.123 107.976 188.301 107.834C188.639 107.549 188.959 107.211 189.226 106.855C189.493 106.481 189.724 106.108 189.902 105.68C190.276 104.862 190.454 103.972 190.579 103.1C190.703 102.228 190.774 101.356 190.881 100.484C190.988 99.6123 191.148 98.7581 191.361 97.9039C191.468 97.4768 191.611 97.0676 191.753 96.6583C191.895 96.249 192.073 95.8397 192.251 95.4482C192.447 95.0567 192.643 94.6652 192.856 94.2915C193.07 93.9 193.319 93.5441 193.55 93.1704C192.589 93.9534 191.468 94.6296 190.312 95.2347Z" fill="#A1554A"/>
<path d="M166.682 95.1633C166.682 95.1633 166.237 95.1811 165.632 95.2879C165.472 95.3235 165.312 95.3591 165.151 95.4125C164.973 95.4481 164.813 95.537 164.635 95.5904C164.475 95.6794 164.297 95.7506 164.137 95.8751C164.066 95.9285 163.977 95.9819 163.888 96.0353L163.675 96.231C163.514 96.3556 163.408 96.5158 163.283 96.6581C163.176 96.8183 163.07 96.9784 162.981 97.1386C162.909 97.3166 162.838 97.4767 162.749 97.6369C162.696 97.797 162.643 97.9572 162.589 98.1173C162.536 98.2597 162.5 98.4021 162.465 98.5266C162.429 98.6512 162.411 98.758 162.393 98.8469C162.34 99.0249 162.322 99.1317 162.322 99.1317C162.322 99.1317 162.304 99.0249 162.304 98.8291C162.304 98.6334 162.251 98.3665 162.304 98.0462C162.322 97.886 162.34 97.708 162.376 97.5123C162.429 97.3343 162.482 97.1386 162.554 96.9429C162.643 96.7471 162.749 96.5514 162.856 96.3734C162.998 96.1955 163.123 95.9997 163.301 95.8573L163.603 95.626C163.692 95.5548 163.799 95.5014 163.888 95.4481C164.066 95.3235 164.297 95.2523 164.475 95.1811C164.671 95.1277 164.867 95.0566 165.062 95.0388C165.258 95.0032 165.436 95.0032 165.596 95.0032C166.272 95.0032 166.682 95.1633 166.682 95.1633Z" fill="#A1554A"/>
<path d="M189.564 86.5862C189.564 86.5862 186.166 93.5619 178.23 88.9885C178.23 89.0063 183.924 90.0029 189.564 86.5862Z" fill="#A1554A"/>
<path opacity="0.56" d="M181.611 63.1321C181.611 63.1321 180.418 72.3678 189.582 86.5862C189.582 86.5862 184.173 89.9851 178.212 88.9707C178.212 88.9707 177.429 76.4607 172.643 70.7306C172.625 70.7484 176.824 65.3921 181.611 63.1321Z" fill="url(#paint0_linear)"/>
<path d="M187.269 202.522C182.394 187.111 183.888 174.904 185.899 167.768C189.262 155.81 183.337 145.826 183.337 145.826L185.329 137.694C185.329 137.694 180.703 135.665 178.55 134.882C176.397 134.117 173.621 133.405 173.621 133.405C173.621 133.405 171.041 146.93 169.458 146.912C168.532 146.912 158.123 132.996 158.123 132.996C158.123 132.996 154.476 133.583 153.212 134.028C153.212 134.028 144.315 137.338 142.59 138.424C143.141 138.157 141.789 166.255 141.789 166.255C150.721 189.763 142.821 194.781 143.55 202.789C143.835 205.636 187.838 204.319 187.269 202.522Z" fill="#EF3F54"/>
<path d="M163.159 76.692C163.283 78.1156 162.234 79.3969 160.792 79.5214C159.351 79.646 158.106 78.5961 157.963 77.1547C157.839 75.731 158.888 74.4676 160.312 74.3252C161.771 74.2006 163.034 75.2506 163.159 76.692Z" fill="#2B2E3A"/>
<path d="M161.023 77.6708C161.059 78.1691 160.703 78.614 160.205 78.6496C159.707 78.6852 159.262 78.3293 159.226 77.831C159.173 77.3327 159.547 76.8878 160.045 76.8522C160.543 76.7989 160.988 77.1726 161.023 77.6708Z" fill="white"/>
<path d="M192.162 71.3712C192.216 72.777 191.13 73.9515 189.742 74.0049C188.337 74.0583 187.162 72.9728 187.091 71.5848C187.038 70.1789 188.123 69.0044 189.511 68.9511C190.934 68.8799 192.109 69.9654 192.162 71.3712Z" fill="#2B2E3A"/>
<path d="M189.885 72.2609C189.902 72.7947 189.493 73.2574 188.959 73.2752C188.426 73.293 187.963 72.8837 187.945 72.3498C187.927 71.816 188.337 71.3533 188.87 71.3355C189.404 71.3177 189.849 71.727 189.885 72.2609Z" fill="white"/>
<path d="M171.54 139.687C174.44 142.463 177.999 145.844 177.999 145.844C177.999 145.844 177.447 138.495 176.842 134.918C176.433 133.939 171.557 130.718 171.557 130.718C171.557 130.718 171.504 138.174 171.54 139.687Z" fill="#BD1A3B"/>
<path d="M172.429 135.131L169.209 144.616L159.44 135.078L157.145 138.085L169.885 150.809L173.319 139.687L172.429 135.131Z" fill="#BD1A3B"/>
<path d="M157.144 130.736C157.144 130.736 160.116 135.772 164.974 140.488C164.315 142.25 158.426 146.93 158.426 146.93L151.824 133.868L157.144 130.736Z" fill="#BD1A3B"/>
<path d="M124.476 20.8683C89.725 43.9665 114.476 82.333 111.718 101.748C108.693 123.155 107.554 130.932 126.575 136.68C152.056 144.385 176.379 119.703 158.497 107.834C144.244 98.3665 143.212 86.0166 143.212 86.0166C143.212 86.0166 147.198 76.4606 147.91 65.3564C148.621 54.2522 150.774 32.4708 188.212 33.3606C188.212 33.3606 181.984 16.0636 164.707 12.3266C152.429 9.65735 133.515 14.8536 124.476 20.8683Z" fill="#2B2E3A"/>
<path d="M187.269 170.099C187.269 170.099 179.351 168.658 162.269 167.643L161.184 174.423L184.031 181.702L187.269 170.099Z" fill="#BD6C53"/>
<path d="M179.849 164.76L158.284 171.078L149.511 144.937C146.682 140.274 136.611 139.972 137.785 147.535C140.116 162.376 149.405 183.534 153.319 185.065C157.946 186.88 183.088 170.793 183.088 170.793C184.209 172.395 179.849 164.76 179.849 164.76Z" fill="#CC7A5B"/>
<path d="M136.913 147.552C136.913 139.989 142.607 138.423 142.607 138.423C144.636 138.014 150.597 137.569 152.002 145.595C152.75 149.901 155.899 156.824 156.896 164.173C151.842 166.184 144.903 170.579 139.689 169.992C138.479 161.682 136.913 153.478 136.913 147.552Z" fill="#EF3F54"/>
<path d="M153.159 150.809C153.123 151.966 153.284 153.104 153.479 154.243C153.711 155.364 153.978 156.486 154.316 157.571C154.636 158.674 155.116 159.724 155.65 160.721C156.237 161.7 156.54 162.785 157.358 163.693C157.376 162.482 156.967 161.415 156.682 160.311C156.38 159.226 156.042 158.158 155.632 157.108L153.159 150.809Z" fill="#BD1A3B"/>
<path d="M165.881 174.032C163.888 174.69 160.241 170.633 160.081 170.668C159.6 170.775 159.244 170.846 158.461 170.74C158.461 171.398 158.497 172.341 157.572 172.733C156.647 173.124 156.148 173.124 155.846 172.822C155.543 172.537 155.437 171.701 155.437 171.701C155.437 171.701 154.6 172.181 153.728 171.718C152.857 171.256 152.696 170.473 153.177 169.138C152.412 169.601 151.949 170.277 151.113 169.974C150.276 169.672 150.259 168.871 150.419 168.373C150.579 167.857 151.825 166.024 151.825 166.024C151.825 166.024 150.899 166.593 150.188 166.38C149.476 166.166 149.138 166.006 149.316 165.276C149.494 164.565 150.241 163.924 150.739 162.892C151.237 161.878 151.575 161.539 151.967 161.433C152.358 161.326 156.647 160.098 157.305 160.098C157.963 160.098 159.227 159.991 159.547 160.525C159.867 161.059 159.76 161.326 160.365 161.539C160.97 161.753 161.682 161.789 161.967 162.803C162.269 163.817 162.412 163.782 162.91 164.102C163.408 164.422 163.497 164.493 163.568 164.956C163.639 165.419 166.842 169.085 166.842 169.085L175.241 169.565L172.696 173.462L165.881 174.032Z" fill="#BD6C53"/>
<path d="M160.081 170.686C159.6 170.793 159.244 170.864 158.461 170.757C158.461 171.416 158.497 172.359 157.572 172.751C156.646 173.142 156.148 173.142 155.846 172.84C155.543 172.555 155.436 171.718 155.436 171.718C155.436 171.718 154.6 172.199 153.728 171.736C152.856 171.274 152.696 170.491 153.177 169.156C152.412 169.619 151.949 170.295 151.113 169.992C150.276 169.69 150.259 168.889 150.419 168.391C150.579 167.875 151.824 166.042 151.824 166.042C151.824 166.042 150.899 166.611 150.187 166.398" stroke="#A1554A" stroke-width="0.1536" stroke-miterlimit="10"/>
<path d="M155.686 171.647C155.846 171.06 155.81 170.473 156.042 169.939C156.237 169.405 156.575 168.924 157.003 168.569C157.43 168.195 157.963 167.946 158.497 167.732C159.013 167.501 159.636 167.341 160.063 166.896C159.547 167.18 158.96 167.252 158.39 167.483C157.839 167.679 157.269 167.963 156.807 168.355C156.326 168.746 155.97 169.263 155.757 169.85C155.543 170.437 155.472 171.042 155.437 171.611L155.686 171.647Z" fill="#A1554A"/>
<path d="M153.711 168.907C153.835 168.604 153.96 168.284 154.049 167.946C154.155 167.608 154.138 167.252 154.298 167.092C154.636 166.629 155.241 166.291 155.775 165.971C156.344 165.65 156.931 165.366 157.518 165.099C158.088 164.778 158.782 164.689 159.227 164.12C158.568 164.244 157.999 164.565 157.376 164.814C156.771 165.081 156.166 165.348 155.579 165.668C155.01 165.988 154.405 166.291 153.942 166.878C153.817 167.003 153.746 167.27 153.728 167.412C153.711 167.572 153.675 167.715 153.639 167.875C153.568 168.177 153.461 168.48 153.355 168.782L153.711 168.907Z" fill="#A1554A"/>
<path d="M152.234 165.953C152.429 165.721 152.5 165.383 152.643 165.223C152.821 165.027 153.016 164.832 153.248 164.672C153.693 164.316 154.173 164.013 154.653 163.711C155.614 163.07 156.682 162.643 157.589 161.878C156.433 162.162 155.472 162.839 154.458 163.408C153.959 163.711 153.479 164.031 152.999 164.387C152.767 164.565 152.536 164.761 152.34 165.01C152.145 165.33 151.984 165.508 151.913 165.793L152.234 165.953Z" fill="#A1554A"/>
<path d="M185.347 137.694C191.735 140.95 193.07 145.862 195.347 164.903C192.981 163.319 188.835 161.878 184.742 162.394L175.08 154.439L180.881 138.975L185.347 137.694Z" fill="#EF3F54"/>
<path d="M185.899 167.768C186.807 166.077 187.536 164.227 187.767 162.287C188.034 160.347 188.052 158.372 187.714 156.45C187.109 152.606 185.65 148.905 183.337 145.826C184.867 149.332 185.988 152.945 186.486 156.628C186.753 158.479 186.789 160.33 186.7 162.18C186.664 164.049 186.273 165.864 185.899 167.768Z" fill="#BD1A3B"/>
<path d="M173.728 167.127L158.461 170.757L162.767 177.858L174.724 175.349L176.717 168.836L173.728 167.127Z" fill="#CC7A5B"/>
<path d="M177.251 165.526C177.251 165.526 177.607 165.312 178.105 164.974C178.105 164.974 179.191 161.878 179.796 161.308C180.49 160.668 182.358 161.486 182.358 161.486C182.945 160.454 185.151 160.418 185.667 160.846C186.166 161.273 191.006 167.572 190.258 170.473L183.105 170.811L177.251 165.526Z" fill="#CC7A5B"/>
<path d="M37.2523 86.9599C37.2523 86.9599 32.0922 75.6777 25.0993 81.8171C18.1065 87.9564 29.9569 106.357 41.0423 101.766C41.0423 101.748 42.2878 97.1387 37.2523 86.9599Z" fill="#F7AB8D"/>
<path d="M59.9922 159.707L46.0955 175.882L35.8287 168.675L53.3374 141.733L59.9922 159.707Z" fill="#FAC2A8"/>
<path d="M56.5047 137.035C56.5047 137.035 47.3766 141.733 40.9532 159.03C44.2272 160.81 49.9923 164.013 50.4371 172.163L59.9922 161.646L56.5047 137.035Z" fill="#EF3F54"/>
<path d="M105.579 143.851C114.102 153.621 129.049 170.206 129.725 175.402C129.867 176.505 119.44 179.441 119.44 179.441L99.5118 161.646L105.579 143.851Z" fill="#FAC2A8"/>
<path d="M103.622 144.136C102.59 137.872 97.1448 133.316 90.7925 133.352C87.3583 133.37 83.0701 130.807 78.7997 131.377C72.7321 132.267 60.8461 135.149 56.5045 137.053C49.2981 152.927 52.0917 186.506 47.6433 209.142C57.8745 210.174 85.7036 212.541 102.216 209.035C97.2693 171.113 107.483 167.661 103.622 144.136Z" fill="#EF3F54"/>
<path d="M70.5792 133.886C70.5436 128.814 69.1201 121.732 69.1201 121.732L88.7107 117.941L89.7783 132.782C89.7783 132.782 85.9171 143.655 73.266 144.759C70.2589 142.481 70.5792 133.886 70.5792 133.886Z" fill="#F7AB8D"/>
<path d="M24.4584 31.2606C16.0955 33.5918 17.857 43.8063 18.0706 48.3618C18.7289 62.0997 29.7787 83.0803 31.3979 88.9883C31.3979 88.9705 38.106 27.4347 24.4584 31.2606Z" fill="#2B2E3A"/>
<path d="M22.3769 35.6918C22.3769 35.6918 34.512 112.158 38.0885 117.087C41.665 122.034 60.2414 127.355 70.3659 127.106C80.4904 126.875 97.7501 109.435 100.117 104.897C101.398 102.459 101.7 83.294 100.882 64.0218C100.17 47.49 108.96 29.2678 106.487 23.0394C106.487 23.0394 55.3304 8.89223 22.3769 35.6918Z" fill="#FAC2A8"/>
<path d="M95.1697 70.3747C95.1697 70.3747 95.0452 74.5387 94.1377 78.8274C91.9136 89.3266 73.8354 81.906 53.2127 90.4832C47.7857 92.7432 46.1665 94.8253 40.4015 97.0497C32.6435 100.057 30.7396 83.7567 29.9567 80.856C33.2307 99.1673 33.0527 113.315 38.195 119.667C41.9672 124.33 60.7572 130.629 74.3692 127.355C85.6858 124.632 100.792 112.603 103.123 108.154C104.244 106.001 104.013 90.679 103.479 73.7913L103.978 62.7583L95.1697 70.3747Z" fill="#2B2E3A"/>
<g opacity="0.2">
<g opacity="0.2">
<path opacity="0.2" d="M70.1521 76.8166C70.4546 78.3292 73.2126 79.0588 76.3087 78.436C79.4048 77.8132 81.6467 76.087 81.3442 74.5744C81.024 73.0618 78.2838 72.3322 75.1877 72.9551C72.0916 73.5779 69.8496 75.304 70.1521 76.8166Z" fill="#F0808E"/>
<path opacity="0.2" d="M35.8285 81.8528C35.8107 83.2052 38.0349 84.2907 40.7751 84.3085C43.5153 84.3263 45.7572 83.2408 45.7572 81.8884C45.775 80.5537 43.5508 79.4504 40.8106 79.4326C38.0704 79.4326 35.8463 80.5003 35.8285 81.8528Z" fill="#F0808E"/>
</g>
</g>
<path d="M29.69 57.9713C31.505 55.48 33.7292 53.5403 38.48 52.9175C40.9355 52.8997 43.5334 52.7217 41.0957 50.4084C36.9676 46.9383 27.5726 52.4192 27.11 59.1102C26.5762 62.0464 28.6758 59.822 29.69 57.9713Z" fill="#2B2E3A"/>
<path d="M76.8427 50.337C74.5295 48.2906 71.9494 46.867 67.1808 47.294C64.7787 47.8101 62.1986 48.1838 64.0847 45.4078C67.3587 41.1369 77.7145 44.4646 79.6184 50.9065C80.7572 53.6469 78.2305 51.9386 76.8427 50.337Z" fill="#2B2E3A"/>
<path opacity="0.6" d="M44.6186 63.826C52.0563 63.1676 58.1773 58.1138 58.1773 58.1138C57.4833 72.8838 64.6719 85.5184 64.6719 85.5184C58.6043 92.6365 48.5688 89.5579 48.5688 89.5579C54.8321 73.8447 44.6186 63.826 44.6186 63.826Z" fill="url(#paint1_linear)"/>
<path d="M95.17 70.3746C95.17 70.3746 95.9352 59.0569 88.6398 49.839C83.3018 43.0946 87.2875 31.154 90.1167 26.7408C90.1167 26.7408 104.44 22.2208 105.312 22.7369C110.597 25.8866 117.519 36.7951 109.939 68.9154L95.17 70.3746Z" fill="#2B2E3A"/>
<path d="M101.113 74.5922C101.113 74.5922 102.91 65.3387 111.006 68.2037C119.102 71.0687 119.423 94.6296 101.095 90.3053C101.077 90.3231 96.4334 86.7641 101.113 74.5922Z" fill="#FAC2A8"/>
<path d="M111.647 74.1118C110.686 73.578 109.619 73.2043 108.533 73.2399C107.448 73.2399 106.469 73.7737 105.828 74.5745C105.17 75.3753 104.743 76.354 104.458 77.3683C104.156 78.3827 103.996 79.4148 103.853 80.4647L103.48 80.1266C104.53 80.002 105.615 80.1266 106.54 80.6783C107.465 81.2121 108.017 82.2264 108.106 83.223C108.195 83.7212 108.106 84.2373 107.928 84.7178C107.732 85.1982 107.394 85.6075 107.003 85.91C106.202 86.5329 105.224 86.871 104.245 87.0134C105.188 86.7464 106.113 86.3371 106.789 85.6965C107.127 85.3762 107.412 85.0025 107.554 84.5932C107.679 84.1661 107.732 83.7212 107.626 83.2942C107.465 82.4222 107.003 81.6036 106.238 81.1765C105.473 80.7316 104.476 80.6427 103.587 80.7494L103.159 80.8028L103.195 80.4113C103.32 79.3258 103.533 78.2581 103.853 77.2082C104.191 76.1761 104.636 75.1083 105.401 74.2542C106.167 73.4 107.359 72.8306 108.515 72.9195C109.707 72.9907 110.757 73.4712 111.647 74.1118Z" fill="#DC918B"/>
<path d="M43.7645 73.898C43.8891 75.3217 42.8215 76.5851 41.398 76.7097C39.9568 76.8342 38.7112 75.7665 38.5866 74.3429C38.4621 72.9193 39.5119 71.6558 40.9532 71.5313C42.3767 71.4067 43.64 72.4566 43.7645 73.898Z" fill="#2B2E3A"/>
<path d="M42.9819 73.133C43.0175 73.6313 42.6617 74.0761 42.1634 74.1117C41.6652 74.1473 41.2204 73.7914 41.1848 73.2932C41.1492 72.7949 41.5051 72.35 42.0033 72.3144C42.5015 72.261 42.9285 72.6347 42.9819 73.133Z" fill="white"/>
<path d="M75.3479 68.1858C75.4013 69.734 74.2091 71.0331 72.6611 71.0865C71.1131 71.1399 69.8141 69.9476 69.7608 68.3994C69.6896 66.8512 70.8995 65.5522 72.4476 65.4988C73.9778 65.4454 75.2767 66.6555 75.3479 68.1858Z" fill="#2B2E3A"/>
<path d="M74.4941 67.1893C74.5119 67.7231 74.1026 68.1858 73.5688 68.2036C73.035 68.2214 72.5724 67.8121 72.5546 67.2605C72.5368 66.7266 72.9461 66.2639 73.4799 66.2461C74.0137 66.2283 74.4585 66.6554 74.4941 67.1893Z" fill="white"/>
<path d="M48.5512 89.5578C48.5512 89.5578 60.9355 101.071 64.6543 85.5183C64.6543 85.5183 57.0031 89.6468 48.5512 89.5578Z" fill="#DC918B"/>
<path d="M71.0953 137.338C67.5189 140.114 63.1594 145.364 63.1594 145.364C63.1594 145.364 64.316 139.118 65.0634 135.541C65.953 133.423 70.2591 129.152 70.2591 129.152C70.2591 129.152 71.1487 135.843 71.0953 137.338Z" fill="#BD1A3B"/>
<path d="M21.6471 140.933C21.6471 140.933 31.0065 165.063 34.4051 171.06C36.2022 174.228 40.8107 177.431 42.6434 178.125C43.4085 178.409 47.8214 175.402 47.9103 171.647C47.9281 170.864 47.8747 169.975 47.6968 168.96C47.3053 166.487 31.8072 141.36 31.8072 141.36C30.5261 135.078 20.2237 134.42 21.6471 140.933Z" fill="#FAC2A8"/>
<path d="M104.618 138.335C101.398 135.363 94.2801 134.224 94.2801 134.224C93.3904 133.601 84.209 142.534 89.9563 149.937C93.0524 153.905 101.397 167.501 106.878 174.014C110.935 168.569 116.735 163.177 120.276 158.265C114.138 150.845 109.636 142.944 104.618 138.335Z" fill="#EF3F54"/>
<path d="M18.2307 25.6019C23.7111 18.8397 33.889 5.36874 48.1771 3.85615C55.2945 3.21552 60.3657 3.26891 66.4333 5.63567C65.6681 4.56796 60.597 2.00545 60.7393 1.13348C60.8995 0.0657711 100.348 5.24418 104.28 22.4344C106.611 24.4274 107.999 26.0112 108.159 26.812C108.942 30.5846 87.821 50.8711 88.1769 41.2795C88.8174 33.1293 89.369 32.0972 86.0238 30.3176C79.9919 27.0967 70.419 27.9509 49.4938 36.9375C39.6718 41.1549 7.608 46.2088 6.59377 33.6809C6.57598 33.6987 12.7503 32.3641 18.2307 25.6019Z" fill="#2B2E3A"/>
<path d="M70.0098 134.651L73.9955 144.136L86.0595 134.597L88.8887 137.605L73.1592 150.328L68.9244 139.206L70.0098 134.651Z" fill="#BD1A3B"/>
<path d="M90.0098 128.814C90.0098 128.814 85.2234 135.291 79.227 140.007C80.0277 141.769 87.3052 146.449 87.3052 146.449L95.4546 133.387L90.0098 128.814Z" fill="#BD1A3B"/>
<path d="M93.6221 158.728C94.6363 159.546 95.5616 160.454 96.4513 161.379C97.3231 162.322 98.195 163.248 98.9779 164.262C100.526 166.273 102.038 168.302 103.515 170.419L103.551 170.473C104.085 171.095 104.654 171.7 105.401 172.181C105.152 171.345 104.725 170.615 104.263 169.939L104.298 169.992C103.729 168.8 103.142 167.625 102.412 166.522C101.7 165.419 100.846 164.387 99.9388 163.426C99.0135 162.483 98.0705 161.557 97.0029 160.774C95.9531 159.956 94.8321 159.226 93.6221 158.728Z" fill="#BD1A3B"/>
<path d="M52.875 151.023C52.4124 152.642 52.1099 154.315 51.8074 155.97C51.5583 157.643 51.3092 159.297 51.1668 160.988C51.0423 162.661 50.8822 164.351 50.8644 166.042C50.8288 167.732 50.8644 169.423 51.0245 171.096L51.4337 166.077L51.9319 161.077L52.4658 156.077C52.5903 154.386 52.7682 152.713 52.875 151.023Z" fill="#BD1A3B"/>
<path d="M46.3802 100.021C46.3802 100.021 62.679 105.787 80.5259 90.2163C80.5259 90.2163 77.6255 111.321 65.0633 113.937C51.8072 115.308 56.2911 106.25 46.3802 100.021Z" fill="#2B2E3A"/>
<path d="M75.3657 105.467C65.5793 106.73 60.953 110.449 58.7644 113.546C60.2768 114.062 62.2697 114.24 65.0633 113.955C69.7074 112.994 73.017 109.489 75.3657 105.467Z" fill="#E78680"/>
<path d="M46.3804 100.022C49.3875 101.908 50.7398 103.705 51.4694 104.791C57.5547 105.502 68.1774 103.847 78.8891 97.2455C80.6685 92.3162 80.5261 90.2341 80.5261 90.2341C62.6792 105.805 46.3804 100.022 46.3804 100.022Z" fill="white"/>
<path d="M46.3801 100.022C47.8392 100.52 49.3694 100.787 50.8997 100.965C52.4299 101.143 53.978 101.196 55.526 101.143C56.2911 101.107 57.074 101.072 57.8391 100.983C58.6043 100.894 59.3694 100.805 60.1345 100.662C60.8996 100.538 61.6647 100.378 62.4121 100.2C63.1594 100.022 63.9067 99.8081 64.6541 99.5945C65.3836 99.3454 66.1309 99.1318 66.8604 98.8471C67.59 98.5802 68.3017 98.2777 69.0134 97.9752C69.7252 97.6549 70.4191 97.3345 71.1131 96.9786C71.807 96.6227 72.4832 96.2668 73.1593 95.8575C73.8355 95.466 74.4938 95.0567 75.1344 94.6297C75.7928 94.2204 76.4155 93.7577 77.0561 93.3128C77.6967 92.8679 78.2838 92.3697 78.9066 91.907L80.7038 90.43L80.2411 90.1809C80.0632 91.3909 79.7963 92.6188 79.5116 93.8289C79.2269 95.039 78.8888 96.2312 78.5151 97.4057C77.7678 99.7725 76.8604 102.086 75.7038 104.275C74.5472 106.463 73.1415 108.528 71.3622 110.218C69.6006 111.927 67.412 113.19 65.0099 113.706H65.0277C64.5117 113.742 63.9957 113.813 63.4797 113.831C62.9637 113.866 62.4476 113.866 61.9316 113.848C61.4156 113.831 60.8996 113.795 60.4014 113.724C60.1523 113.688 59.9032 113.653 59.654 113.582C59.4049 113.528 59.1559 113.457 58.9246 113.386C58.4441 113.243 57.9815 113.03 57.5367 112.781C57.1096 112.514 56.6826 112.229 56.3089 111.873C55.5616 111.179 54.9744 110.325 54.4228 109.435C53.3552 107.656 52.3944 105.769 51.0776 104.132C50.7573 103.723 50.4014 103.332 50.0456 102.94C49.6897 102.566 49.2983 102.193 48.9068 101.855C48.4976 101.516 48.1061 101.178 47.6791 100.894C47.2698 100.573 46.8072 100.306 46.3801 100.022ZM46.3801 100.022C46.8072 100.324 47.252 100.609 47.6613 100.929C48.0883 101.232 48.462 101.588 48.8534 101.926C49.2271 102.282 49.6008 102.638 49.9566 103.029C50.2947 103.42 50.6328 103.812 50.9531 104.221C51.5758 105.058 52.1275 105.93 52.6435 106.837C53.1595 107.745 53.6221 108.67 54.1559 109.578C54.6897 110.485 55.2769 111.375 56.0598 112.105C56.4334 112.478 56.8783 112.799 57.3409 113.083C57.8035 113.35 58.3018 113.582 58.8 113.742C59.0491 113.831 59.316 113.902 59.5651 113.955C59.832 114.026 60.0811 114.08 60.348 114.115C60.864 114.204 61.3978 114.24 61.9316 114.276C62.4654 114.293 62.9815 114.293 63.5153 114.276C64.0491 114.276 64.5651 114.204 65.0989 114.169H65.1167C67.6255 113.671 69.9031 112.336 71.7358 110.592C73.5864 108.848 75.0276 106.73 76.2198 104.524C77.412 102.299 78.3372 99.9504 79.1023 97.5659C79.476 96.3736 79.8141 95.1635 80.0988 93.9356C80.3835 92.7078 80.6326 91.4977 80.8283 90.2342L80.9351 89.5046L80.3657 89.9851L78.6041 91.4621C77.9991 91.9248 77.3942 92.4053 76.7714 92.8679C76.1486 93.3128 75.5259 93.7755 74.8853 94.1848C74.2447 94.6119 73.6041 95.0212 72.928 95.3949C72.2696 95.8041 71.5935 96.1423 70.9173 96.516C70.2412 96.8719 69.5472 97.21 68.8533 97.5303C68.1594 97.8506 67.4476 98.1531 66.7359 98.42C66.0241 98.7048 65.2946 98.9539 64.5651 99.203C63.8355 99.4344 63.106 99.6479 62.3587 99.8259C61.6114 100.022 60.864 100.182 60.1167 100.324C59.3694 100.466 58.6043 100.573 57.8391 100.68C57.074 100.769 56.3089 100.84 55.5438 100.894C54.0135 100.983 52.4655 100.947 50.9353 100.822C49.3872 100.698 47.857 100.466 46.3801 100.022Z" fill="#57617F"/>
<path d="M76.8427 90.1096C76.8427 90.1096 77.3231 89.9316 78.0526 89.7893C78.2306 89.7537 78.4263 89.7181 78.6398 89.7003C78.8533 89.6647 79.0669 89.6825 79.2804 89.6647C79.4939 89.6825 79.7252 89.6825 79.9565 89.7359C80.0633 89.7537 80.1878 89.7715 80.2946 89.807L80.6149 89.9316C80.8462 89.985 81.0242 90.1274 81.2377 90.2341C81.4334 90.3765 81.6113 90.5011 81.7893 90.6256C81.9494 90.7858 82.1095 90.9281 82.2697 91.0705C82.412 91.2307 82.5366 91.373 82.6611 91.5154C82.7857 91.6578 82.8925 91.7823 82.9814 91.9069C83.0704 92.0315 83.1416 92.1382 83.2128 92.2272C83.3551 92.4052 83.4263 92.5119 83.4263 92.5119C83.4263 92.5119 83.3907 92.3874 83.3195 92.1738C83.2305 91.9603 83.1771 91.64 82.9636 91.3196C82.8747 91.1595 82.7679 90.9637 82.6434 90.768C82.501 90.59 82.3409 90.4121 82.1807 90.2163C81.985 90.0562 81.7893 89.8782 81.5757 89.7181C81.3444 89.5935 81.1131 89.4333 80.8462 89.3444L80.4548 89.2198C80.3302 89.1842 80.1879 89.1664 80.0633 89.1486C79.7964 89.0952 79.5295 89.1308 79.2804 89.113C79.0313 89.1486 78.7822 89.1664 78.5687 89.2376C78.3373 89.291 78.1416 89.3622 77.9637 89.4334C77.2163 89.7537 76.8427 90.1096 76.8427 90.1096Z" fill="#2B2E3A"/>
<path d="M30.1171 140.915C30.7933 139.58 31.5761 138.014 31.3092 136.502C31.0423 134.989 28.7292 130.754 27.8751 130.131C27.021 129.508 25.8644 129.117 25.4374 128.049C25.0104 126.981 24.5833 124.792 23.2666 125.415C20.6154 126.679 21.8965 129.793 23.4979 131.857C23.5691 132.676 23.6047 133.441 23.6936 134.242C22.9285 134.277 22.5905 134.455 21.7186 134.42C20.8467 134.384 19.263 134.046 18.3556 133.957C17.4481 133.868 13.409 133.797 12.3414 133.601C11.2738 133.405 10.6154 133.565 9.6546 132.925C8.69375 132.284 5.59768 129.526 2.5372 131.377C1.82547 131.804 2.14573 132.266 2.07456 132.747C1.39841 133.192 0.170649 133.565 0.0105057 134.526C-0.149635 135.487 1.59411 136.181 2.21688 136.608C2.05674 137.071 1.25604 137.32 1.50515 137.996C1.75426 138.673 5.27739 140.221 5.97133 140.95C6.66528 141.662 9.61902 145.702 10.829 145.951C12.0389 146.2 16.7542 146.805 17.9819 147.143C19.2097 147.463 20.2951 148.069 21.9855 148.193C23.6758 148.335 26.0246 147.873 27.4836 146.431C28.9427 144.99 29.7612 142.961 30.1171 140.915Z" fill="#FAC2A8"/>
<path d="M23.7471 134.384C23.5335 135.292 23.409 136.235 23.5514 137.196C23.6225 137.676 23.8005 138.157 24.103 138.53C24.3876 138.922 24.8147 139.207 25.2417 139.384C24.5122 138.762 24.0318 138.014 23.8183 137.142C23.6225 136.253 23.7471 135.327 23.7471 134.384Z" fill="#DC918B"/>
<path d="M6.13165 141.093C6.2562 140.666 6.34519 140.345 6.5943 140.15C6.84341 139.954 7.19925 139.847 7.57292 139.812C8.32024 139.776 9.10315 140.007 9.74372 140.363C10.3843 140.773 10.9715 141.342 11.4519 141.947C11.9323 142.552 12.3416 143.228 12.4839 144.029C12.6085 143.211 12.217 142.392 11.7544 141.734C11.2562 141.075 10.669 140.506 9.97504 140.043C9.2633 139.563 8.40921 139.402 7.57292 139.402C7.14587 139.42 6.68322 139.509 6.32735 139.847C5.9359 140.168 5.90034 140.737 6.13165 141.093Z" fill="#DC918B"/>
<path d="M11.8788 142.374C13.3556 142.41 14.8503 142.445 16.3271 142.499" stroke="#DC918B" stroke-width="0.2277" stroke-miterlimit="10"/>
<path d="M2.23468 136.626C3.35567 136.039 4.619 136.057 5.84675 136.11C7.03891 136.199 8.17767 136.857 8.99617 137.729C9.2097 137.961 9.35209 138.174 9.54782 138.459C9.63679 138.601 9.83251 138.779 10.046 138.833C10.224 138.886 10.3663 138.904 10.5264 138.94L12.377 139.349L16.0958 140.114L16.167 139.723L12.4837 138.851L10.6332 138.441L10.1884 138.334C10.0816 138.299 10.0282 138.263 9.93928 138.139C9.77914 137.907 9.56559 137.605 9.35207 137.374C8.4446 136.43 7.21683 135.736 5.88232 135.63C4.63678 135.558 3.14215 135.612 2.23468 136.626Z" fill="#DC918B"/>
<path d="M2.46605 132.871C3.10661 132.818 3.78278 132.836 4.36996 133.032C4.93936 133.281 5.56209 133.565 6.16707 133.797C6.77205 134.028 7.35925 134.277 7.91085 134.598C8.44465 134.918 8.97844 135.292 9.28093 135.79L9.3343 135.861L9.38768 135.879C11.5229 136.662 13.7649 137.036 15.9891 137.302L16.0425 136.929C13.8183 136.662 11.6119 136.288 9.53006 135.523L9.63682 135.612C9.28095 134.971 8.71155 134.544 8.12436 134.224C7.53718 133.904 6.91442 133.654 6.30945 133.423C5.68668 133.192 5.08166 133.032 4.4411 132.8C3.78274 132.622 3.08882 132.676 2.46605 132.871Z" fill="#DC918B"/>
<path d="M16.1846 135.665C16.0067 137.124 15.9177 138.566 15.9355 140.043C15.9889 141.502 16.1846 143.015 16.8252 144.332C16.5049 142.908 16.3447 141.484 16.3447 140.025C16.2736 138.584 16.3447 137.124 16.1846 135.665Z" fill="#DC918B"/>
</g>
<defs>
<linearGradient id="paint0_linear" x1="179.038" y1="68.8705" x2="183.522" y2="86.118" gradientUnits="userSpaceOnUse">
<stop stop-color="#CC7A5B"/>
<stop offset="1" stop-color="#A1554A"/>
</linearGradient>
<linearGradient id="paint1_linear" x1="58.741" y1="89.4551" x2="49.029" y2="61.2522" gradientUnits="userSpaceOnUse">
<stop stop-color="#DC918B"/>
<stop offset="0.1085" stop-color="#E29A91"/>
<stop offset="0.4229" stop-color="#EFB09E"/>
<stop offset="0.7253" stop-color="#F7BEA5"/>
<stop offset="1" stop-color="#FAC2A8"/>
</linearGradient>
</defs>
</svg>
