<svg width="20" height="20" viewBox="0 0 20 20" fill="none" xmlns="http://www.w3.org/2000/svg">
<path d="M9.86622 2.5C5.77174 2.5 2.46655 5.85 2.46655 10C2.46655 12.225 3.42851 14.2 4.93311 15.575V18.325L7.42433 17.075C8.18896 17.35 9.00292 17.5 9.86622 17.5C13.9607 17.5 17.2659 14.15 17.2659 10C17.2659 5.85 13.9607 2.5 9.86622 2.5ZM14.1334 12.5C14.01 12.8 13.8867 13.075 13.7634 13.375C13.4674 14.15 12.4068 14.475 11.4695 13.95C8.63294 12.375 7.49833 11.275 5.91973 8.4C5.40175 7.45 5.69774 6.375 6.48704 6.075C6.78302 5.95 7.05435 5.825 7.35033 5.7C7.72031 5.55 8.13963 5.75 8.31229 6.1C8.55894 6.6 8.8056 7.075 9.10159 7.55C9.32358 7.9 9.24958 8.35 8.92893 8.6C8.70694 8.75 8.50961 8.9 8.28762 9.05C8.8796 10.025 9.91555 11.05 10.8282 11.55C10.9762 11.325 11.1242 11.125 11.2722 10.9C11.4941 10.575 11.9628 10.5 12.3081 10.725C12.7768 11.025 13.2454 11.275 13.7387 11.525C14.1087 11.7 14.2814 12.15 14.1334 12.5Z" fill="#A3ABCC"/>
</svg>
