<svg width="56" height="56" viewBox="0 0 56 56" fill="none" xmlns="http://www.w3.org/2000/svg">
<path d="M47.2988 44.8L19.6434 52.2093C15.9388 53.2431 12.148 51.0031 11.1141 47.2985L3.79107 19.7293C2.75722 16.0247 4.99722 12.2339 8.70184 11.2001L36.3572 3.79082C40.0618 2.75698 43.8526 4.99698 44.8864 8.70159L52.2957 36.357C53.2434 40.0616 51.0034 43.8524 47.2988 44.8Z" fill="#E1E4F4"/>
<path d="M14.7319 27.9997L16.455 30.5844C16.5412 30.7567 16.6273 30.929 16.6273 31.0151V37.0459C16.6273 37.3905 16.8858 37.649 17.2304 37.649H17.4889C17.8335 37.649 18.0919 37.3905 18.0919 37.0459V33.4274L20.6765 30.8428C20.935 30.5844 21.1073 30.2398 21.1073 29.8951V29.0336H20.2458V29.5505L18.6089 31.1874C18.4365 31.3598 18.0919 31.2736 18.0919 30.929V28.9474L17.2304 28.5167V29.3782C17.2304 29.5505 16.9719 29.6367 16.8858 29.4644L15.7658 27.2244L14.7319 27.9997Z" fill="#57617F"/>
<path d="M21.3658 18.0922C21.6243 17.5753 21.7966 16.9722 21.7966 16.3692C21.7966 14.3015 20.1597 12.6646 18.092 12.6646C16.2828 12.6646 14.732 13.9569 14.4735 15.6799C14.1289 15.5938 13.6982 15.5076 13.3535 15.5076C10.8551 15.5076 8.87354 17.4892 8.87354 19.9876C8.87354 21.0215 9.21815 21.9692 9.82123 22.6584C9.3043 23.3476 9.04584 24.123 9.04584 25.0707C9.04584 27.3107 10.8551 29.0338 13.0089 29.0338C13.7843 29.0338 14.5597 28.7753 15.1628 28.3446C16.1966 29.2061 17.5751 29.723 19.0397 29.723C22.3997 29.723 25.1566 26.9661 25.1566 23.6061C25.1566 21.1938 23.5197 18.9538 21.3658 18.0922Z" fill="#5DC6B5"/>
<path d="M51.2613 11.4586L41.1813 5.60017L40.1474 4.99709L33.2551 1.03401C32.1351 0.344782 30.7566 0.344782 29.6366 1.03401L21.7105 5.60017C20.849 6.11709 20.332 6.97863 20.332 7.92632L41.0951 20.3325L52.5536 14.9909V13.6125C52.4674 12.6648 52.0366 11.8894 51.2613 11.4586Z" fill="#F97A7A"/>
<path d="M40.2335 17.9203L21.6243 7.15107C21.0212 6.80646 20.2458 7.23723 20.2458 7.92646V39.8034L34.892 48.1603L41.0951 46.5234V19.2988C41.0951 18.6957 40.7505 18.1788 40.2335 17.9203Z" fill="#FDFDFD"/>
<path d="M22.7444 41.2676V36.0984L28.3444 39.3722V44.4553L22.7444 41.2676Z" fill="#EF3F54"/>
<path d="M31.5324 14.5601C31.3601 14.4739 31.2739 14.4739 31.1016 14.6462L29.2924 16.1108L29.1201 13.6124C29.1201 13.3539 28.9478 13.1816 28.8616 13.1816C28.6893 13.0954 28.6031 13.0954 28.4308 13.2677L26.7078 15.5077L27.397 15.8524L28.6031 14.3016L28.7755 16.6277L29.3785 16.9724L31.0155 15.6801L30.6708 17.6616L31.2739 18.0062L31.7047 15.1631C31.7908 14.8185 31.6185 14.6462 31.5324 14.5601Z" fill="#EF3F54"/>
<path d="M26.3629 12.3201L25.3291 14.6462L26.0183 15.077L26.966 12.6647L26.3629 12.3201Z" fill="#EF3F54"/>
<path d="M23.8645 12.2338L23.4337 12.0615L23.6922 11.3723L24.2091 11.6308C24.4675 11.8031 24.5537 11.9754 24.4675 12.2338C24.4675 12.4062 24.2091 12.4062 23.8645 12.2338ZM25.1568 12.4923C25.2429 12.1477 25.1568 11.6308 24.4675 11.2862L23.2614 10.5969L22.2275 13.0092L22.8306 13.3538L23.1752 12.4923L23.5198 12.6646L23.9506 13.9569L24.6398 14.3015L24.2091 12.9231C24.8122 13.0092 25.0706 12.8369 25.1568 12.4923Z" fill="#EF3F54"/>
<path d="M33.0831 17.8337L33.7723 17.1445L33.8584 18.2645L33.0831 17.8337ZM33.8584 19.3845L34.4615 19.7291L34.2892 16.886C34.2892 16.5414 34.1169 16.3691 33.9446 16.3691C33.8584 16.2829 33.7723 16.2829 33.6 16.4552L31.7046 18.2645L32.3077 18.6091L32.7384 18.2645L33.8584 18.8676V19.3845Z" fill="#EF3F54"/>
<path d="M36.529 20.2461C36.012 19.9876 35.7536 19.4707 35.9259 19.04C36.0982 18.523 36.6151 18.3507 37.2182 18.6953C37.3905 18.7815 37.649 18.9538 37.8213 19.1261L37.9936 18.6092C37.8213 18.4369 37.5628 18.2646 37.3043 18.1784C36.1843 17.5753 35.409 17.8338 35.2366 18.6092C35.0643 19.3846 35.409 20.16 36.4428 20.6769C36.6151 20.763 36.7874 20.8492 37.0459 20.9353L37.3043 20.4184C37.0459 20.5046 36.7874 20.4184 36.529 20.2461Z" fill="#EF3F54"/>
<path d="M20.2463 14.1289V17.8335L41.0956 29.8951V26.1043L20.2463 14.1289Z" fill="#E1E4F4"/>
<path d="M20.2463 21.7107V25.5015L41.0956 37.6492V33.8584L20.2463 21.7107Z" fill="#E1E4F4"/>
<path d="M20.2463 29.5508V33.3416L41.0956 45.3169V41.5262L20.2463 29.5508Z" fill="#E1E4F4"/>
<path d="M52.4677 13.7844C52.4677 12.9229 51.52 12.406 50.7447 12.8367L41.7847 18.006C41.2677 18.2644 41.0093 18.7813 41.0093 19.3844V46.609L47.2985 44.9721C50.4 44.1106 52.4677 41.2675 52.4677 38.166V13.7844Z" fill="#EF3F54"/>
<path d="M52.4678 19.4709L41.0955 26.1048V29.8956L52.4678 23.434V19.4709Z" fill="#F97A7A"/>
<path d="M52.4678 27.2246L41.0955 33.8585V37.6492L52.4678 31.1877V27.2246Z" fill="#F97A7A"/>
<path d="M52.4677 38.08V34.8923L41.0093 41.5262V45.4031L52.3816 38.9416C52.4677 38.597 52.4677 38.3385 52.4677 38.08Z" fill="#F97A7A"/>
</svg>
