<svg width="384" height="276" viewBox="0 0 384 276" fill="none" xmlns="http://www.w3.org/2000/svg">
<mask id="mask0" mask-type="alpha" maskUnits="userSpaceOnUse" x="0" y="0" width="384" height="276">
<rect width="384" height="276" fill="#C4C4C4"/>
</mask>
<g mask="url(#mask0)">
<g opacity="0.6">
<path d="M384.072 180.422L15.5854 180.422" stroke="#E4E8F7" stroke-width="5" stroke-miterlimit="10"/>
<path d="M229.371 17.4019H38.7046V170.555H229.371V17.4019Z" fill="#ECEEFA"/>
<path d="M44.2081 38.4404C45.3575 37.9528 46.8901 37.5348 48.8754 37.2561C48.8754 37.2561 50.0597 30.7775 58.1057 31.927C66.1517 33.0764 73.327 37.5348 73.327 37.5348C73.327 37.5348 77.3674 34.0865 81.6516 36.3853C82.7662 36.9775 83.637 37.5696 84.2988 38.1269C85.4482 39.1022 84.7864 40.9831 83.2539 40.9831H44.7305C43.2676 41.0179 42.8496 38.9977 44.2081 38.4404Z" fill="#F7F7FA"/>
<path d="M90.8124 41.0172H88.5832C87.7821 41.0172 87.0854 40.3554 87.0854 39.5195C87.0854 38.7183 87.7472 38.0217 88.5832 38.0217H90.8124C91.6135 38.0217 92.3101 38.6835 92.3101 39.5195C92.2753 40.3554 91.6135 41.0172 90.8124 41.0172Z" fill="#F7F7FA"/>
<path d="M227.35 59.6165L33.0967 61.7063L33.3753 145.684L227.629 143.629L227.35 59.6165Z" fill="#ECEEFA"/>
<path d="M227.35 60.9755L33.0967 62.8563V60.2788L227.35 58.3979V60.9755Z" fill="#E1E4F4"/>
<path d="M50.8444 99.9424L40.186 100.038L40.2305 104.984L50.8889 104.888L50.8444 99.9424Z" fill="#E1E4F4"/>
<path d="M63.1056 99.8377L52.4473 99.9336L52.4918 104.88L63.1501 104.784L63.1056 99.8377Z" fill="#E1E4F4"/>
<path d="M75.3664 99.7334L64.708 99.8293L64.7525 104.775L75.4109 104.679L75.3664 99.7334Z" fill="#E1E4F4"/>
<path d="M87.6628 99.6285L77.0044 99.7244L77.0489 104.67L87.7073 104.574L87.6628 99.6285Z" fill="#E1E4F4"/>
<path d="M99.924 99.5242L89.2656 99.6201L89.3101 104.566L99.9685 104.47L99.924 99.5242Z" fill="#E1E4F4"/>
<path d="M112.219 99.385L101.561 99.481L101.606 104.427L112.264 104.331L112.219 99.385Z" fill="#E1E4F4"/>
<path d="M124.933 99.2784L113.822 99.3784L113.867 104.324L124.978 104.224L124.933 99.2784Z" fill="#E1E4F4"/>
<path d="M137.717 99.1742L126.606 99.2742L126.65 104.22L137.762 104.12L137.717 99.1742Z" fill="#E1E4F4"/>
<path d="M150.466 99.0694L139.355 99.1694L139.399 104.115L150.511 104.015L150.466 99.0694Z" fill="#E1E4F4"/>
<path d="M163.249 98.9298L152.138 99.0298L152.183 103.976L163.294 103.876L163.249 98.9298Z" fill="#E1E4F4"/>
<path d="M176.033 98.8256L164.922 98.9255L164.966 103.872L176.078 103.772L176.033 98.8256Z" fill="#E1E4F4"/>
<path d="M188.782 98.7211L177.67 98.821L177.715 103.767L188.826 103.667L188.782 98.7211Z" fill="#E1E4F4"/>
<path d="M201.565 98.5816L190.454 98.6816L190.499 103.628L201.61 103.528L201.565 98.5816Z" fill="#E1E4F4"/>
<path d="M214.323 98.4875L214.358 103.399L203.247 103.503L203.212 98.592" fill="#E1E4F4"/>
<path d="M227.097 98.3729L215.986 98.4729L216.031 103.419L227.142 103.319L227.097 98.3729Z" fill="#E1E4F4"/>
<path d="M43.8429 106.945L33.1846 107.041L33.2291 111.987L43.8874 111.891L43.8429 106.945Z" fill="#E1E4F4"/>
<path d="M56.1388 106.84L45.4805 106.936L45.525 111.882L56.1833 111.786L56.1388 106.84Z" fill="#E1E4F4"/>
<path d="M68.4001 106.701L57.7417 106.797L57.7862 111.743L68.4446 111.647L68.4001 106.701Z" fill="#E1E4F4"/>
<path d="M80.696 106.596L70.0376 106.692L70.0821 111.638L80.7405 111.542L80.696 106.596Z" fill="#E1E4F4"/>
<path d="M92.9567 106.492L82.2983 106.588L82.3428 111.534L93.0012 111.438L92.9567 106.492Z" fill="#E1E4F4"/>
<path d="M105.218 106.387L94.5596 106.483L94.6041 111.429L105.262 111.333L105.218 106.387Z" fill="#E1E4F4"/>
<path d="M117.967 106.28L106.856 106.38L106.9 111.326L118.012 111.226L117.967 106.28Z" fill="#E1E4F4"/>
<path d="M143.499 106.037L132.388 106.137L132.432 111.083L143.543 110.983L143.499 106.037Z" fill="#E1E4F4"/>
<path d="M156.283 105.932L145.172 106.032L145.216 110.978L156.328 110.878L156.283 105.932Z" fill="#E1E4F4"/>
<path d="M169.032 105.827L157.92 105.927L157.965 110.874L169.076 110.774L169.032 105.827Z" fill="#E1E4F4"/>
<path d="M181.815 105.689L170.704 105.789L170.748 110.735L181.859 110.635L181.815 105.689Z" fill="#E1E4F4"/>
<path d="M194.599 105.584L183.488 105.684L183.532 110.63L194.643 110.53L194.599 105.584Z" fill="#E1E4F4"/>
<path d="M207.347 105.479L196.236 105.579L196.281 110.525L207.392 110.425L207.347 105.479Z" fill="#E1E4F4"/>
<path d="M220.131 105.34L209.02 105.44L209.064 110.386L220.175 110.286L220.131 105.34Z" fill="#E1E4F4"/>
<path d="M50.9489 113.492L40.2905 113.588L40.335 118.534L50.9934 118.438L50.9489 113.492Z" fill="#E1E4F4"/>
<path d="M75.506 113.284L64.8477 113.38L64.8922 118.326L75.5505 118.23L75.506 113.284Z" fill="#E1E4F4"/>
<path d="M87.7668 113.179L77.1084 113.275L77.1529 118.221L87.8113 118.125L87.7668 113.179Z" fill="#E1E4F4"/>
<path d="M100.063 113.074L89.4048 113.17L89.4493 118.116L100.108 118.021L100.063 113.074Z" fill="#E1E4F4"/>
<path d="M112.324 112.936L101.666 113.031L101.71 117.978L112.368 117.882L112.324 112.936Z" fill="#E1E4F4"/>
<path d="M125.073 112.828L113.962 112.928L114.006 117.875L125.118 117.775L125.073 112.828Z" fill="#E1E4F4"/>
<path d="M137.822 112.724L126.71 112.824L126.755 117.77L137.866 117.67L137.822 112.724Z" fill="#E1E4F4"/>
<path d="M150.605 112.62L139.494 112.72L139.539 117.666L150.65 117.566L150.605 112.62Z" fill="#E1E4F4"/>
<path d="M163.388 112.48L152.277 112.58L152.322 117.526L163.433 117.426L163.388 112.48Z" fill="#E1E4F4"/>
<path d="M176.138 112.375L165.026 112.475L165.071 117.421L176.182 117.321L176.138 112.375Z" fill="#E1E4F4"/>
<path d="M188.921 112.271L177.81 112.371L177.855 117.317L188.966 117.217L188.921 112.271Z" fill="#E1E4F4"/>
<path d="M201.67 112.132L190.559 112.232L190.603 117.178L201.714 117.078L201.67 112.132Z" fill="#E1E4F4"/>
<path d="M214.453 112.027L203.342 112.127L203.387 117.073L214.498 116.973L214.453 112.027Z" fill="#E1E4F4"/>
<path d="M227.237 111.923L216.126 112.023L216.17 116.969L227.282 116.869L227.237 111.923Z" fill="#E1E4F4"/>
<path d="M43.9826 120.494L33.3242 120.59L33.3687 125.536L44.0271 125.44L43.9826 120.494Z" fill="#E1E4F4"/>
<path d="M56.2438 120.39L45.5854 120.486L45.63 125.432L56.2883 125.336L56.2438 120.39Z" fill="#E1E4F4"/>
<path d="M68.5397 120.285L57.8813 120.381L57.9259 125.327L68.5842 125.231L68.5397 120.285Z" fill="#E1E4F4"/>
<path d="M80.8004 120.146L70.1421 120.241L70.1866 125.187L80.845 125.092L80.8004 120.146Z" fill="#E1E4F4"/>
<path d="M93.0617 120.042L82.4033 120.137L82.4478 125.083L93.1062 124.988L93.0617 120.042Z" fill="#E1E4F4"/>
<path d="M105.358 119.937L94.6992 120.032L94.7437 124.979L105.402 124.883L105.358 119.937Z" fill="#E1E4F4"/>
<path d="M118.072 119.83L106.96 119.93L107.005 124.876L118.116 124.776L118.072 119.83Z" fill="#E1E4F4"/>
<path d="M130.855 119.691L119.744 119.791L119.789 124.737L130.9 124.637L130.855 119.691Z" fill="#E1E4F4"/>
<path d="M143.638 119.586L132.527 119.686L132.572 124.632L143.683 124.532L143.638 119.586Z" fill="#E1E4F4"/>
<path d="M156.388 119.482L145.276 119.582L145.321 124.528L156.432 124.428L156.388 119.482Z" fill="#E1E4F4"/>
<path d="M181.954 119.238L170.843 119.338L170.888 124.284L181.999 124.184L181.954 119.238Z" fill="#E1E4F4"/>
<path d="M194.703 119.134L183.592 119.234L183.637 124.18L194.748 124.08L194.703 119.134Z" fill="#E1E4F4"/>
<path d="M207.487 119.029L196.376 119.129L196.42 124.075L207.532 123.975L207.487 119.029Z" fill="#E1E4F4"/>
<path d="M220.27 118.89L209.159 118.99L209.204 123.936L220.315 123.836L220.27 118.89Z" fill="#E1E4F4"/>
<path d="M216.326 96.9499L226.984 96.854L226.939 91.908L216.281 92.0039L216.326 96.9499Z" fill="#E1E4F4"/>
<path d="M204.037 97.0664L214.696 96.9705L214.651 92.0244L203.993 92.1203L204.037 97.0664Z" fill="#E1E4F4"/>
<path d="M191.785 97.1826L202.443 97.0867L202.398 92.1406L191.74 92.2366L191.785 97.1826Z" fill="#E1E4F4"/>
<path d="M179.497 97.2993L190.155 97.2034L190.111 92.2573L179.452 92.3533L179.497 97.2993Z" fill="#E1E4F4"/>
<path d="M166.778 97.3871L177.889 97.2871L177.844 92.3411L166.733 92.4411L166.778 97.3871Z" fill="#E1E4F4"/>
<path d="M154.019 97.5126L165.13 97.4126L165.086 92.4666L153.975 92.5666L154.019 97.5126Z" fill="#E1E4F4"/>
<path d="M141.226 97.6378L152.337 97.5378L152.293 92.5918L141.182 92.6918L141.226 97.6378Z" fill="#E1E4F4"/>
<path d="M128.467 97.7284L139.579 97.6284L139.534 92.6824L128.423 92.7824L128.467 97.7284Z" fill="#E1E4F4"/>
<path d="M115.709 97.8532L126.82 97.7532L126.776 92.8071L115.665 92.9072L115.709 97.8532Z" fill="#E1E4F4"/>
<path d="M102.916 97.9794L114.027 97.8794L113.982 92.9334L102.871 93.0333L102.916 97.9794Z" fill="#E1E4F4"/>
<path d="M90.1574 98.1044L101.269 98.0044L101.224 93.0584L90.1129 93.1583L90.1574 98.1044Z" fill="#E1E4F4"/>
<path d="M77.402 98.21L77.3672 93.2639L88.4435 93.1594L88.5132 98.1055" fill="#E1E4F4"/>
<path d="M64.6052 98.3205L75.7163 98.2205L75.6718 93.2744L64.5606 93.3744L64.6052 98.3205Z" fill="#E1E4F4"/>
<path d="M51.8473 98.4457L62.9585 98.3457L62.914 93.3997L51.8028 93.4997L51.8473 98.4457Z" fill="#E1E4F4"/>
<path d="M39.0885 98.5358L50.1997 98.4358L50.1552 93.4898L39.044 93.5898L39.0885 98.5358Z" fill="#E1E4F4"/>
<path d="M211.021 90.0632L221.68 89.9673L221.635 85.0212L210.977 85.1172L211.021 90.0632Z" fill="#E1E4F4"/>
<path d="M198.768 90.1789L209.427 90.083L209.382 85.137L198.724 85.2329L198.768 90.1789Z" fill="#E1E4F4"/>
<path d="M186.481 90.2956L197.139 90.1997L197.095 85.2537L186.436 85.3496L186.481 90.2956Z" fill="#E1E4F4"/>
<path d="M173.762 90.4181L184.873 90.3181L184.829 85.3721L173.717 85.4721L173.762 90.4181Z" fill="#E1E4F4"/>
<path d="M148.21 90.6342L159.321 90.5342L159.276 85.5881L148.165 85.6881L148.21 90.6342Z" fill="#E1E4F4"/>
<path d="M135.451 90.7597L146.562 90.6597L146.518 85.7136L135.407 85.8136L135.451 90.7597Z" fill="#E1E4F4"/>
<path d="M122.658 90.8854L133.77 90.7854L133.725 85.8394L122.614 85.9393L122.658 90.8854Z" fill="#E1E4F4"/>
<path d="M109.9 90.9762L121.011 90.8762L120.966 85.9302L109.855 86.0302L109.9 90.9762Z" fill="#E1E4F4"/>
<path d="M97.1413 91.1007L108.252 91.0007L108.208 86.0547L97.0968 86.1547L97.1413 91.1007Z" fill="#E1E4F4"/>
<path d="M84.3478 91.2267L95.459 91.1267L95.4145 86.1807L84.3033 86.2807L84.3478 91.2267Z" fill="#E1E4F4"/>
<path d="M71.5895 91.3168L82.7007 91.2168L82.6562 86.2708L71.545 86.3708L71.5895 91.3168Z" fill="#E1E4F4"/>
<path d="M58.8307 91.442L69.9419 91.342L69.8974 86.396L58.7862 86.496L58.8307 91.442Z" fill="#E1E4F4"/>
<path d="M46.0378 91.5678L57.1489 91.4678L57.1044 86.5217L45.9933 86.6217L46.0378 91.5678Z" fill="#E1E4F4"/>
<path d="M33.2795 91.6932L44.3906 91.5933L44.3461 86.6472L33.235 86.7472L33.2795 91.6932Z" fill="#E1E4F4"/>
<path d="M216.185 83.3964L226.843 83.3005L226.799 78.3545L216.14 78.4504L216.185 83.3964Z" fill="#E1E4F4"/>
<path d="M203.932 83.5124L214.591 83.4165L214.546 78.4705L203.888 78.5664L203.932 83.5124Z" fill="#E1E4F4"/>
<path d="M191.644 83.6291L202.303 83.5332L202.258 78.5872L191.6 78.6831L191.644 83.6291Z" fill="#E1E4F4"/>
<path d="M179.392 83.7453L190.05 83.6494L190.006 78.7034L179.347 78.7993L179.392 83.7453Z" fill="#E1E4F4"/>
<path d="M166.637 83.8336L177.749 83.7336L177.704 78.7876L166.593 78.8876L166.637 83.8336Z" fill="#E1E4F4"/>
<path d="M153.879 83.9589L164.99 83.8589L164.946 78.9129L153.835 79.0128L153.879 83.9589Z" fill="#E1E4F4"/>
<path d="M141.12 84.0836L152.231 83.9836L152.187 79.0376L141.076 79.1376L141.12 84.0836Z" fill="#E1E4F4"/>
<path d="M128.328 84.2096L139.439 84.1096L139.394 79.1636L128.283 79.2636L128.328 84.2096Z" fill="#E1E4F4"/>
<path d="M115.569 84.2997L126.68 84.1997L126.636 79.2537L115.524 79.3537L115.569 84.2997Z" fill="#E1E4F4"/>
<path d="M102.81 84.4257L113.921 84.3257L113.877 79.3796L102.766 79.4797L102.81 84.4257Z" fill="#E1E4F4"/>
<path d="M90.0173 84.5507L101.128 84.4507L101.084 79.5046L89.9727 79.6047L90.0173 84.5507Z" fill="#E1E4F4"/>
<path d="M77.2585 84.641L88.3696 84.541L88.3251 79.595L77.214 79.695L77.2585 84.641Z" fill="#E1E4F4"/>
<path d="M64.5002 84.7665L75.6113 84.6665L75.5668 79.7205L64.4557 79.8204L64.5002 84.7665Z" fill="#E1E4F4"/>
<path d="M51.7072 84.8922L62.8184 84.7922L62.7738 79.8462L51.6627 79.9462L51.7072 84.8922Z" fill="#E1E4F4"/>
<path d="M210.917 76.5449L221.576 76.449L221.531 71.5029L210.873 71.5988L210.917 76.5449Z" fill="#E1E4F4"/>
<path d="M198.629 76.6265L209.288 76.5305L209.243 71.5845L198.585 71.6804L198.629 76.6265Z" fill="#E1E4F4"/>
<path d="M186.342 76.7432L197 76.6472L196.955 71.7012L186.297 71.7971L186.342 76.7432Z" fill="#E1E4F4"/>
<path d="M173.623 76.8659L184.734 76.7659L184.689 71.8198L173.578 71.9198L173.623 76.8659Z" fill="#E1E4F4"/>
<path d="M160.864 76.9906L171.975 76.8906L171.931 71.9446L160.819 72.0446L160.864 76.9906Z" fill="#E1E4F4"/>
<path d="M148.105 77.0812L159.216 76.9812L159.172 72.0352L148.061 72.1352L148.105 77.0812Z" fill="#E1E4F4"/>
<path d="M135.312 77.2067L146.423 77.1067L146.379 72.1607L135.268 72.2607L135.312 77.2067Z" fill="#E1E4F4"/>
<path d="M109.76 77.4227L120.872 77.3228L120.827 72.3767L109.716 72.4767L109.76 77.4227Z" fill="#E1E4F4"/>
<path d="M97.0021 77.5482L108.113 77.4482L108.069 72.5022L96.9576 72.6022L97.0021 77.5482Z" fill="#E1E4F4"/>
<path d="M84.2438 77.6733L95.355 77.5732L95.3105 72.6272L84.1993 72.7272L84.2438 77.6733Z" fill="#E1E4F4"/>
<path d="M71.4504 77.799L82.5615 77.699L82.517 72.7529L71.4059 72.8529L71.4504 77.799Z" fill="#E1E4F4"/>
<path d="M58.6916 77.8893L69.8027 77.7893L69.7582 72.8433L58.6471 72.9433L58.6916 77.8893Z" fill="#E1E4F4"/>
<path d="M45.9333 78.0148L57.0444 77.9148L56.9999 72.9688L45.8888 73.0688L45.9333 78.0148Z" fill="#E1E4F4"/>
<path d="M33.1403 78.1403L44.2515 78.0403L44.2069 73.0942L33.0958 73.1943L33.1403 78.1403Z" fill="#E1E4F4"/>
<path d="M227.373 123.916C226.661 124.02 225.978 124.229 225.266 124.299C224.464 124.369 223.96 124.299 223.158 124.543C222.446 124.752 221.793 124.473 221.081 124.508C220.428 124.543 219.864 124.787 219.24 124.856C218.528 124.926 217.727 124.682 217.074 124.787C216.718 124.856 216.45 125.135 216.094 125.205C215.738 125.274 215.352 125.1 214.966 125.1C214.581 125.1 214.165 125.309 213.779 125.274C213.423 125.239 213.275 124.856 212.948 124.856C212.622 124.856 212.444 125.274 212.058 125.205C211.523 125.1 211.464 124.334 211.227 123.951C211.286 124.369 211.227 125.135 211.049 125.518C210.811 125.135 210.277 124.926 209.95 124.578C210.01 124.926 210.069 125.274 210.099 125.588C209.802 125.205 209.297 124.578 208.793 124.543C209.09 126.249 205.32 126.18 204.311 125.762C203.836 125.553 203.569 125.239 203.391 124.752C203.391 125.03 203.332 125.553 203.094 125.727C202.946 125.797 202.441 125.657 202.293 125.483C202.055 125.657 201.64 125.936 201.343 125.901C201.432 125.657 201.491 125.239 201.373 124.996C201.046 125.553 200.482 125.588 199.948 125.762C198.612 126.215 197.099 126.006 195.704 125.971C195.585 125.971 195.199 125.901 195.051 125.901C194.932 125.901 194.487 125.727 194.427 125.727C193.952 125.762 193.092 126.424 192.825 125.657C192.468 125.762 192.172 126.04 191.786 126.075C191.637 126.075 190.42 125.831 190.42 125.727C190.391 126.772 188.669 126.18 188.016 126.18C187.571 126.145 187.156 126.354 186.681 126.319C186.503 126.319 186.117 126.04 185.998 126.075C185.671 126.18 185.85 126.458 185.642 126.563C185.019 126.911 183.653 126.424 182.911 126.563C182.496 126.667 182.11 126.737 181.635 126.667C181.457 126.633 181.101 126.528 180.952 126.528C180.596 126.528 180.596 126.702 180.27 126.772C178.786 127.12 177.034 126.842 175.521 126.842C173.68 126.842 171.84 126.772 170 126.667C159.909 126.04 150.055 124.264 140.26 122.836C126.251 120.781 113.28 123.951 99.4785 124.334C92.088 124.543 71.2818 123.428 63.6242 122.836L62.9712 172.888C131.801 185.741 197.841 169.44 229.48 172.888L229.51 123.916C228.738 123.951 228.056 123.811 227.373 123.916Z" fill="#D0D5F4"/>
<path d="M143.733 143.213C143.733 143.213 143.703 143.282 143.614 143.352C143.525 143.422 143.406 143.561 143.258 143.665C142.961 143.909 142.546 144.188 142.1 144.397C141.655 144.606 141.21 144.78 140.854 144.85C140.676 144.885 140.527 144.919 140.409 144.919C140.29 144.919 140.23 144.919 140.23 144.919C140.23 144.919 140.26 144.85 140.349 144.78C140.438 144.71 140.557 144.571 140.705 144.467C141.002 144.223 141.418 143.944 141.863 143.735C142.308 143.526 142.753 143.352 143.11 143.282C143.288 143.247 143.436 143.213 143.555 143.213C143.644 143.213 143.733 143.213 143.733 143.213Z" fill="#E1E4F4"/>
<path d="M148.837 141.575C148.837 141.575 148.808 141.645 148.719 141.715C148.63 141.784 148.511 141.924 148.362 142.028C148.066 142.272 147.65 142.55 147.205 142.759C146.76 142.968 146.314 143.143 145.958 143.212C145.78 143.247 145.632 143.282 145.513 143.282C145.394 143.282 145.335 143.282 145.335 143.282C145.335 143.282 145.365 143.212 145.454 143.143C145.543 143.073 145.661 142.934 145.81 142.829C146.107 142.585 146.522 142.307 146.967 142.098C147.413 141.889 147.858 141.715 148.214 141.645C148.392 141.61 148.54 141.575 148.659 141.575C148.778 141.575 148.837 141.575 148.837 141.575Z" fill="#E1E4F4"/>
<path d="M230.659 178.357H32.9224V14.1279H230.659V178.357ZM39.4706 171.461H224.111V20.6762H39.4706V171.461Z" fill="#E1E4F4"/>
<path d="M136.093 17.4019H126.514V172.819H136.093V17.4019Z" fill="#E1E4F4"/>
<path d="M131.773 14.3721V172.819" stroke="#E1E4F4" stroke-width="2.8927" stroke-miterlimit="10"/>
<path d="M357.338 166.218C357.338 166.218 349.304 169.843 341.269 169.451C333.267 169.059 331.765 166.218 331.765 166.218C331.765 166.218 343.36 162.56 357.338 166.218Z" fill="#D0D5F4"/>
<path d="M331.798 166.218C331.798 166.218 333.268 169.059 341.302 169.451C349.304 169.843 357.371 166.218 357.371 166.218C365.667 183.299 364.099 193.849 353.778 198.552H335.423C324.547 193.816 322.196 183.757 331.798 166.218Z" fill="#E1E4F4"/>
<path d="M331.798 169.125C334.999 174.448 346.691 173.142 355.966 170.627C355.966 170.627 334.345 179.543 331.798 169.125Z" fill="#D0D5F4"/>
<path d="M326.376 158.478C326.376 165.075 334.672 170.431 344.927 170.431C355.182 170.431 363.478 165.075 363.478 158.478V156.29C363.478 149.692 355.182 144.336 344.927 144.336C334.672 144.336 326.376 149.692 326.376 156.29V158.478Z" fill="#D0D5F4"/>
<path d="M321.542 159.262C318.636 158.184 323.437 157.106 324.482 157.4C325.951 157.792 331.046 160.568 327.976 162.397C329.838 163.279 332.157 163.704 333.561 165.337C335.847 168.145 332.483 168.831 330.491 166.741C329.838 169.909 319.452 166.643 325.527 165.01C324.318 164.716 321.673 165.826 320.726 164.945C318.309 162.691 324.645 161.907 325.527 161.875C324.155 160.797 323.306 159.882 321.542 159.262C320.105 158.707 323.012 159.784 321.542 159.262Z" fill="#D0D5F4"/>
<path d="M333.463 167.981C332.255 167.687 329.609 168.798 328.662 167.916C326.245 165.662 332.582 164.879 333.463 164.846C332.092 163.768 331.242 162.821 329.479 162.201C328.042 161.645 330.949 162.723 329.479 162.201C326.572 161.123 331.373 160.045 332.418 160.339C333.888 160.731 338.983 163.507 335.913 165.336C337.775 166.218 340.093 166.642 341.498 168.275C343.784 171.084 340.42 171.77 338.428 169.68C337.775 172.88 327.389 169.614 333.463 167.981Z" fill="#E1E4F4"/>
<path d="M325.658 151.978C323.6 150.149 327.911 150.802 328.695 151.39C329.773 152.174 333.072 156.158 329.969 156.648C331.21 157.987 333.006 159.065 333.627 160.894C334.607 163.964 331.602 163.442 330.622 161.057C329.054 163.474 321.543 157.399 327.062 158.02C326.148 157.367 323.6 157.465 323.11 156.42C321.869 153.774 327.356 155.178 328.075 155.44C327.291 154.101 326.899 153.056 325.658 151.978C324.645 151.063 326.703 152.892 325.658 151.978Z" fill="#E1E4F4"/>
<path d="M327.519 150.508C325.657 148.026 330.883 148.451 331.797 148.581C330.818 147.863 329.315 145.152 330.916 144.042C332.222 143.127 333.626 146.361 334.476 147.014C335.521 144.924 337.121 142.605 339.375 141.723C341.53 140.906 344.829 142.833 342.445 145.283C340.387 147.406 337.578 147.667 335.651 150.508C334.28 152.533 333.365 149.333 332.581 149.006C334.541 151.488 328.923 152.435 327.519 150.508C327.192 150.084 328.074 151.292 327.519 150.508Z" fill="#D0D5F4"/>
<path d="M360.898 162.854C363.804 161.777 359.003 160.699 357.958 160.993C356.489 161.385 351.394 164.161 354.464 165.99C352.602 166.872 350.283 167.296 348.879 168.929C346.592 171.738 349.956 172.424 351.949 170.334C352.602 173.502 362.988 170.236 356.913 168.603C358.122 168.309 360.767 169.419 361.714 168.537C364.131 166.284 357.795 165.5 356.913 165.467C358.285 164.422 359.134 163.475 360.898 162.854C362.335 162.299 359.428 163.377 360.898 162.854Z" fill="#E1E4F4"/>
<path d="M364.719 152.599C366.777 150.77 362.465 151.423 361.682 152.011C360.604 152.795 357.305 156.779 360.408 157.269C359.167 158.608 357.37 159.686 356.75 161.515C355.77 164.585 358.775 164.062 359.755 161.678C361.322 164.095 368.834 158.02 363.315 158.641C364.229 157.988 366.777 158.086 367.267 157.04C368.508 154.395 363.021 155.799 362.302 156.061C363.086 154.754 363.478 153.709 364.719 152.599C365.764 151.684 363.674 153.513 364.719 152.599Z" fill="#D0D5F4"/>
<path d="M362.89 151.161C364.752 148.679 359.526 149.104 358.612 149.235C359.592 148.516 361.094 145.805 359.494 144.695C358.187 143.78 356.783 147.014 355.934 147.667C354.889 145.577 353.288 143.258 351.035 142.376C348.879 141.559 345.58 143.486 347.965 145.936C350.022 148.059 352.831 148.32 354.758 151.161C356.13 153.186 357.044 149.986 357.828 149.659C355.868 152.141 361.453 153.056 362.89 151.161C363.184 150.737 362.303 151.913 362.89 151.161Z" fill="#D0D5F4"/>
<path d="M354.562 153.677C356.326 151.129 357.567 156.257 357.73 157.171C358.122 156.028 360.212 153.742 361.78 154.918C363.054 155.865 360.441 158.217 360.049 159.229C362.368 159.588 365.046 160.372 366.614 162.234C368.084 164.03 367.267 167.786 364.197 166.284C361.519 164.977 360.441 162.397 357.11 161.45C354.758 160.764 357.534 158.935 357.6 158.053C355.836 160.666 353.19 155.636 354.562 153.677C354.856 153.252 354.007 154.461 354.562 153.677Z" fill="#ECEEFA"/>
<path d="M321.314 157.857C319.06 155.702 324.319 155.277 325.233 155.277C324.155 154.722 322.228 152.272 323.633 150.933C324.776 149.823 326.67 152.795 327.617 153.285C328.336 151.031 329.544 148.516 331.602 147.275C333.594 146.1 337.187 147.504 335.227 150.28C333.529 152.697 330.818 153.383 329.348 156.551C328.336 158.772 326.899 155.767 326.082 155.538C328.401 157.694 323.012 159.49 321.314 157.857C320.922 157.498 322 158.51 321.314 157.857Z" fill="#ECEEFA"/>
<path d="M350.577 158.837C347.671 157.759 352.472 156.681 353.517 156.975C354.987 157.367 360.082 160.143 357.012 161.972C358.873 162.854 361.192 163.279 362.596 164.912C364.883 167.721 361.519 168.406 359.526 166.316C358.873 169.484 348.487 166.218 354.562 164.585C353.354 164.291 350.708 165.402 349.761 164.52C347.344 162.266 353.68 161.482 354.562 161.45C353.19 160.405 352.308 159.458 350.577 158.837C349.14 158.282 352.047 159.36 350.577 158.837Z" fill="#E1E4F4"/>
<path d="M345.286 170.79C342.739 172.554 344.633 168.014 345.449 167.328C346.592 166.349 351.818 163.801 351.557 167.328C353.353 166.316 355.019 164.65 357.174 164.487C360.8 164.226 359.395 167.361 356.554 167.818C358.775 170.17 350.12 176.767 352.275 170.888C351.328 171.705 350.74 174.514 349.467 174.775C346.233 175.428 349.238 169.81 349.728 169.059C348.062 169.582 346.821 169.745 345.286 170.79C344.012 171.672 346.592 169.876 345.286 170.79Z" fill="#ECEEFA"/>
<path d="M344.96 163.344C345.907 161.515 350.284 164.062 349.63 165.859C348.716 168.602 344.111 164.977 344.96 163.344C345.287 162.723 344.699 163.801 344.96 163.344Z" fill="#E1E4F4"/>
<path d="M342.315 162.07C343.229 162.266 346.071 163.834 343.327 164.651C340.355 165.565 340.061 161.711 342.315 162.07C342.805 162.201 340.551 161.776 342.315 162.07Z" fill="#ECEEFA"/>
<path d="M331.569 157.89C331.112 158.706 328.826 160.992 328.793 158.151C328.761 155.016 332.582 155.799 331.569 157.89C331.341 158.314 332.353 156.289 331.569 157.89Z" fill="#ECEEFA"/>
<path d="M337.415 157.269C337.122 157.792 335.652 159.262 335.619 157.433C335.619 155.408 338.069 155.93 337.415 157.269C337.285 157.531 337.938 156.224 337.415 157.269Z" fill="#ECEEFA"/>
<path d="M203.866 205.594C198.723 205.855 193.544 206.34 188.401 205.631C184.526 205.11 176.178 203.172 176.737 197.955C177.035 195.16 181.954 195.011 184.004 194.527C189.37 193.334 195.109 192.887 200.698 192.85C205.804 192.812 210.872 193.148 215.977 192.663C221.939 192.142 227.79 191.396 233.79 192.104C240.013 192.85 246.199 194.079 252.496 194.266C274.893 194.937 299.823 185.956 321.734 195.086C325.796 196.8 327.063 200.154 323.15 203.88C323.15 203.88 278.731 207.905 254.583 202.948C237.665 204.141 220.784 204.737 203.866 205.594Z" fill="#E1E4F4"/>
<path d="M311.785 181.41C311.785 181.41 318.716 198.29 312.791 195.123L304.071 181.968C304.071 181.968 309.139 179.025 311.785 181.41Z" fill="#D0D5F4"/>
<path d="M199.17 179.732C199.17 179.732 194.81 197.47 200.176 193.446L206.847 179.136C206.884 179.173 201.444 177.012 199.17 179.732Z" fill="#D0D5F4"/>
<path d="M271.949 182.266C271.949 182.266 279.066 201.681 273.141 197.992L264.272 182.825C264.272 182.863 269.303 179.546 271.949 182.266Z" fill="#D0D5F4"/>
<path d="M194.624 162.591C194.624 162.591 192.5 149.511 200.661 146.008L208.486 143.213C208.486 143.213 221.306 135.835 224.398 130.208C225.293 128.568 225.628 126.705 226.858 125.065C229.69 121.264 233.826 120.631 238.336 120.295C250.819 119.364 263.452 118.805 275.973 118.618C287.823 118.469 299.748 119.028 311.561 120.482C319.051 121.413 325.498 124.022 325.162 124.543L275.414 182.751C269.526 182.527 264.831 183.347 258.943 183.124C247.652 182.676 235.168 181.931 223.877 181.521C216.387 181.298 208.337 181.67 200.922 180.627C196.785 180.068 195.108 176.081 195.332 172.131L194.624 162.591Z" fill="#E1E4F4"/>
<path d="M236.137 122.158C234.87 122.643 233.789 123.575 232.932 124.618C232.075 125.661 231.367 126.891 230.882 128.158C229.876 130.729 229.429 133.45 229.317 136.207C229.243 138.928 229.28 141.611 229.243 144.331L229.168 152.455L229.504 152.082C226.56 152.641 223.616 153.237 220.672 153.908C219.218 154.243 217.728 154.579 216.275 154.914C214.821 155.25 213.368 155.622 211.915 156.032L216.349 155.212L220.784 154.43L229.653 152.865L229.988 152.79V152.455C230.062 149.734 230.1 147.051 230.137 144.331V140.269C230.137 138.928 230.1 137.549 230.1 136.207C230.137 133.524 230.472 130.841 231.367 128.344C231.814 127.077 232.41 125.885 233.193 124.804C233.603 124.283 234.013 123.761 234.534 123.314C234.981 122.866 235.54 122.457 236.137 122.158Z" fill="#D0D5F4"/>
<path d="M229.541 152.455C232.075 151.97 234.684 151.672 237.255 151.374C238.559 151.262 239.863 151.15 241.13 151.076L243.068 150.964L245.006 150.889C250.223 150.703 255.44 150.815 260.62 151.113C261.924 151.188 263.228 151.337 264.495 151.411L266.433 151.56L268.371 151.784L272.246 152.231C273.551 152.417 274.818 152.604 276.122 152.827L278.06 153.125C278.693 153.237 279.327 153.349 279.998 153.461L283.836 154.169L284.805 154.355L285.774 154.579L287.674 155.026C288.941 155.324 290.208 155.622 291.475 155.92C288.904 155.51 286.37 154.989 283.799 154.579L279.96 153.982C279.327 153.871 278.693 153.759 278.022 153.684L276.085 153.461L272.209 152.976L268.334 152.566L266.396 152.38L264.458 152.231C263.154 152.119 261.887 152.007 260.583 151.933L256.707 151.709C255.403 151.635 254.098 151.635 252.831 151.56C251.527 151.486 250.223 151.486 248.956 151.486L247.018 151.448H245.08H243.143L241.205 151.523C239.901 151.56 238.596 151.635 237.329 151.672C234.721 151.97 232.112 152.156 229.541 152.455Z" fill="#D0D5F4"/>
<path d="M197.382 178.912C197.382 178.912 197.344 178.8 197.344 178.577C197.307 178.353 197.27 178.018 197.233 177.608C197.195 177.198 197.158 176.676 197.158 176.117C197.158 175.521 197.158 174.888 197.158 174.18C197.158 173.807 197.195 173.472 197.233 173.062C197.233 172.875 197.27 172.689 197.27 172.465C197.307 172.279 197.307 172.055 197.344 171.869C197.382 171.459 197.456 171.049 197.531 170.639C197.605 170.23 197.68 169.782 197.792 169.372C197.978 168.515 198.239 167.621 198.574 166.764C198.649 166.54 198.761 166.317 198.835 166.13L198.984 165.795L199.133 165.46C199.245 165.236 199.319 165.05 199.431 164.826L199.767 164.193L199.953 163.895C200.028 163.783 200.065 163.708 200.139 163.596C200.251 163.41 200.4 163.186 200.512 163C200.624 162.814 200.773 162.628 200.922 162.441C201.071 162.255 201.183 162.069 201.332 161.882C201.481 161.696 201.63 161.547 201.779 161.361L202.003 161.1L202.263 160.876C202.599 160.578 202.897 160.243 203.27 159.982C203.456 159.833 203.605 159.721 203.791 159.572C203.978 159.423 204.127 159.311 204.313 159.199C204.499 159.087 204.648 158.938 204.835 158.826C205.021 158.715 205.207 158.603 205.356 158.491C206.027 158.044 206.735 157.746 207.406 157.448C207.741 157.336 208.039 157.187 208.338 157.075C208.487 157.001 208.636 156.963 208.785 156.889C208.934 156.851 209.083 156.814 209.195 156.74C209.456 156.665 209.716 156.553 209.977 156.479C210.089 156.442 210.201 156.404 210.313 156.367C210.424 156.33 210.536 156.33 210.648 156.292C211.468 156.106 211.915 155.994 211.915 155.994C211.915 155.994 211.431 156.069 210.611 156.218C210.499 156.255 210.387 156.255 210.275 156.292C210.164 156.33 210.052 156.367 209.94 156.367C209.679 156.442 209.418 156.516 209.157 156.591C209.008 156.628 208.859 156.665 208.71 156.702C208.561 156.74 208.412 156.814 208.263 156.851C207.965 156.963 207.63 157.075 207.294 157.187C206.623 157.485 205.915 157.783 205.207 158.193C205.021 158.305 204.835 158.379 204.648 158.491C204.462 158.603 204.276 158.715 204.127 158.864C203.94 158.976 203.754 159.087 203.568 159.236C203.381 159.385 203.232 159.497 203.046 159.646C202.673 159.907 202.375 160.243 202.003 160.578L201.742 160.802L201.518 161.062C201.369 161.249 201.22 161.398 201.034 161.584C200.885 161.77 200.736 161.957 200.587 162.143C200.437 162.329 200.288 162.516 200.139 162.702C199.99 162.888 199.878 163.112 199.729 163.298C199.655 163.41 199.58 163.485 199.543 163.596L199.357 163.895L199.021 164.528C198.91 164.752 198.835 164.975 198.723 165.199L198.574 165.534L198.425 165.87C198.351 166.093 198.239 166.317 198.164 166.54C197.866 167.435 197.568 168.329 197.419 169.223C197.307 169.671 197.233 170.118 197.195 170.528C197.158 170.975 197.084 171.385 197.046 171.795C197.046 172.018 197.009 172.205 197.009 172.391C197.009 172.577 196.972 172.801 196.972 172.987C196.935 173.36 196.935 173.732 196.935 174.105C196.935 174.813 196.972 175.484 197.009 176.043C197.046 176.639 197.121 177.124 197.158 177.533C197.307 178.428 197.382 178.912 197.382 178.912Z" fill="#D0D5F4"/>
<path d="M320.691 168.776C315.958 185.098 303.847 183.011 303.847 183.011L266.247 183.123C271.091 182.378 271.837 169.931 271.837 169.931C271.613 150.777 300.941 144.368 300.941 144.368C310.853 120.444 325.125 124.543 325.125 124.543C325.125 124.543 331.237 132.406 320.691 168.776Z" fill="#BFC6F2"/>
<path d="M237.628 164.603L224.287 160.206L182.923 160.131L193.133 164.491L237.628 164.603Z" fill="#ECEEFA"/>
<path d="M320.691 168.776C315.958 185.098 303.847 183.011 303.847 183.011L266.247 183.123C271.091 182.378 271.837 169.931 271.837 169.931C271.613 150.777 300.941 144.368 300.941 144.368C310.853 120.444 325.125 124.543 325.125 124.543C325.125 124.543 331.237 132.406 320.691 168.776Z" fill="#D0D5F4"/>
<path d="M233.528 198.104L235.093 199.445L236.137 169.298H233.528V198.104Z" fill="#D0D5F4"/>
<path d="M235.14 199.477L237.749 199.477L237.749 169.329L235.14 169.329L235.14 199.477Z" fill="#ECEEFA"/>
<path d="M193.133 198.104L194.698 199.445L195.742 169.298H193.133V198.104Z" fill="#D0D5F4"/>
<path d="M194.721 199.477L197.33 199.477L197.33 169.329L194.721 169.329L194.721 199.477Z" fill="#ECEEFA"/>
<path d="M221.529 194.75L223.132 196.092L224.175 165.944H221.529V194.75Z" fill="#D0D5F4"/>
<path d="M223.141 196.093L225.75 196.093L225.75 165.946L223.141 165.946L223.141 196.093Z" fill="#ECEEFA"/>
<path d="M193.096 169.67L237.702 170.006L237.739 164.602L193.096 164.453V169.67Z" fill="#D0D5F4"/>
<path d="M183.333 194.75L184.898 196.092L185.942 165.944L183.333 164.752V194.75Z" fill="#D0D5F4"/>
<path d="M184.898 196.092H187.544V165.944L184.898 164.752V196.092Z" fill="#ECEEFA"/>
<path d="M193.133 164.491L193.059 169.708L183.258 164.752L183.333 160.317L193.133 164.491Z" fill="#D0D5F4"/>
<path d="M349.72 83.3283H313.872V39.6167H349.72V83.3283ZM316.07 81.0924H347.447V41.8526H316.07V81.0924Z" fill="#ECEEFA"/>
<path d="M343.199 47.3682H320.318V75.5776H343.199V47.3682Z" fill="#ECEEFA"/>
</g>
<mask id="mask1" mask-type="alpha" maskUnits="userSpaceOnUse" x="32" y="3" width="354" height="272">
<path d="M386 3H32V275H386V3Z" fill="#DC4648"/>
</mask>
<g mask="url(#mask1)">
<path d="M101.088 184.608C101.088 184.608 108.493 191.525 115.118 198.442C118.625 202.096 124.617 209.695 124.081 212.374C122.23 220.851 109.808 213.982 108.541 213.349C105.424 211.839 89.5918 189.04 89.5918 189.04C90.3225 184.705 92.9531 180.126 101.088 184.608Z" fill="#CE7F67"/>
<path d="M137.819 162.054C130.95 164.636 128.173 179.64 123.058 198.931C123.058 198.931 112.049 190.747 105.424 186.606C105.424 186.606 105.18 190.211 93.7812 199.077C93.7812 199.077 113.316 222.947 123.351 221.339C131.583 220.024 135.626 196.397 135.626 196.397L137.819 162.054Z" fill="#BAE8E8"/>
<path d="M129.829 207.358L125.737 241.02L121.353 290.951C121.061 294.361 123.399 297.43 126.761 298.112C139.085 300.548 169.239 304.396 204.069 293.679L155.063 210.525L129.829 207.358Z" fill="#BAE8E8"/>
<path d="M186.581 275.071C186.776 266.351 187.507 253.296 187.555 245.745C164.367 249.545 142.982 247.888 129.537 245.453C125.689 262.454 136.065 313.506 136.601 316.185C138.549 327.048 143.615 357.397 142.836 358.615C141.764 360.32 141.764 362.22 141.764 362.22C145.32 367.676 160.665 365.484 160.665 365.484C160.47 363.145 159.106 362.658 159.106 359.735C159.106 355.789 159.447 332.602 159.447 332.553C159.204 323.979 155.94 316.38 155.891 316.283C155.891 316.283 156.768 314.967 156.768 314.48C156.768 313.798 155.648 312.093 155.648 312.093L155.355 275.022H157.401C159.545 287.2 163.88 303.13 165.731 315.016C165.147 329.484 171.285 361.051 170.067 362.902C168.849 364.802 171.041 365.484 173.282 366.166C175.669 366.896 188.822 365.776 186.971 363.243C185.168 360.71 187.653 360.612 186.971 358.128C185.85 354.426 186.191 295.774 186.581 275.071Z" fill="#31374C"/>
<path d="M166.852 151.629C166.852 151.629 171.967 151.629 177.861 155.283L172.795 163.077L166.852 151.629Z" fill="#BAE8E8"/>
<path d="M156.671 152.896C156.671 152.896 133.727 182.806 125.689 241.019C125.689 241.019 130.56 171.894 137.77 162.054C142.544 158.888 148.292 156.793 156.671 152.896Z" fill="#BAE8E8"/>
<path d="M125.737 241.068C125.835 237.707 126.078 234.394 126.273 231.033C126.517 227.72 126.76 224.359 127.004 221.047C127.54 214.373 128.222 207.699 129.001 201.074C129.391 197.761 129.829 194.449 130.316 191.136C130.804 187.824 131.339 184.511 131.973 181.247C132.606 177.935 133.288 174.671 134.116 171.456C134.555 169.848 135.042 168.241 135.578 166.633C136.162 165.074 136.747 163.467 137.77 162.152L137.136 163.223L136.649 164.392C136.454 164.782 136.357 165.172 136.211 165.562C136.065 165.951 135.919 166.341 135.821 166.731C135.334 168.338 134.944 169.946 134.603 171.553C133.873 174.817 133.288 178.081 132.752 181.394C131.729 187.97 130.852 194.595 130.024 201.22C129.196 207.845 128.514 214.47 127.735 221.144L125.737 241.068Z" fill="#49889E"/>
<path d="M145.466 123.326C145.466 123.326 149.753 144.03 153.016 160.349L147.853 168.094L150.045 187.969L183.804 187.531L177.763 166L172.697 159.91L169.725 136.333L145.466 123.326Z" fill="#CE7F67"/>
<path d="M169.092 131.023L145.466 123.375C145.466 123.375 149.022 141.302 152.383 157.426C158.083 162.054 171.382 149.729 171.382 149.729L169.092 131.023Z" fill="#9E5E57"/>
<path d="M153.017 160.349C152.871 161.226 154.819 162.005 156.037 162.151C166.267 163.32 172.015 154.747 172.015 154.747C177.958 154.357 183.268 162.102 184.729 163.369C194.667 172.235 185.119 220.169 184.486 223.531C183.853 226.892 181.271 242.432 181.271 242.432C181.271 242.432 194.716 308.244 160.129 304.834C136.259 302.447 124.129 296.991 124.129 296.991C124.129 296.991 125.932 237.852 129.439 232.932C131.631 217.88 132.167 189.577 133.141 183.244C133.872 178.909 139.377 158.303 147.22 157.621C148.535 157.523 152.481 157.377 152.481 157.377L153.017 160.349Z" fill="#BAE8E8"/>
<path d="M107.129 106.667C107.129 106.667 104.255 91.809 96.0714 97.6547C87.8875 103.549 95.9739 128.588 107.958 125.519C107.909 125.519 110.101 120.209 107.129 106.667Z" fill="#B26B57"/>
<path d="M194.717 98.677C194.717 98.677 193.596 119.186 178.934 126.2C164.271 133.264 182.149 104.669 182.149 104.669L194.717 98.677Z" fill="#31374C"/>
<path d="M107.957 42.9491C95.1942 50.7921 89.9331 71.6903 96.1197 86.7429C97.4837 90.0554 98.5067 98.0445 99.5297 101.601C104.06 116.945 104.645 130.147 105.132 132.436C107.129 141.984 131.973 159.96 150.825 156.111C169.337 152.312 182.1 131.803 184.292 124.204C189.504 106.277 181.661 90.6887 178.008 69.693C175.475 55.3711 167.924 37.2983 154.674 34.7165C137.332 31.3065 125.689 32.0372 107.957 42.9491Z" fill="#CE7F67"/>
<path d="M150.875 84.7452C149.413 84.2094 147.806 84.9888 147.318 86.4502C146.783 87.9116 147.562 89.5192 149.023 90.055C150.485 90.5909 152.092 89.8114 152.628 88.35C153.115 86.8399 152.336 85.2811 150.875 84.7452Z" fill="#2B2E3A"/>
<path d="M151.604 85.7199C151.215 85.5737 150.776 85.7686 150.63 86.207C150.484 86.5967 150.679 87.0351 151.117 87.1813C151.507 87.3274 151.945 87.1326 152.091 86.6941C152.238 86.3044 152.043 85.866 151.604 85.7199Z" fill="white"/>
<path d="M115.411 91.273C113.949 90.7372 112.342 91.5166 111.855 92.978C111.319 94.4394 112.098 96.047 113.56 96.5828C115.021 97.1187 116.629 96.3393 117.164 94.8779C117.603 93.4164 116.823 91.8089 115.411 91.273Z" fill="#2B2E3A"/>
<path d="M116.141 92.2472C115.751 92.1011 115.313 92.2959 115.167 92.7343C115.02 93.124 115.215 93.5625 115.654 93.7086C116.043 93.8548 116.482 93.6599 116.628 93.2215C116.725 92.8805 116.531 92.3933 116.141 92.2472Z" fill="white"/>
<g opacity="0.2">
<path opacity="0.2" d="M150.289 95.9006C150.581 97.8978 153.553 99.1157 156.914 98.5311C160.275 97.9465 162.76 95.8518 162.467 93.8546C162.175 91.8573 159.204 90.6395 155.842 91.224C152.481 91.8086 149.997 93.9033 150.289 95.9006Z" fill="#EF3F54"/>
<path opacity="0.2" d="M104.693 103.16C104.791 104.913 107.275 106.326 110.247 106.326C113.218 106.277 115.557 104.865 115.459 103.062C115.362 101.308 112.877 99.8958 109.906 99.8958C106.934 99.9445 104.596 101.357 104.693 103.16Z" fill="#EF3F54"/>
</g>
<path opacity="0.68" d="M123.935 77.9735C123.935 77.9735 130.56 93.5132 123.545 113.827C123.545 113.827 138.257 119.916 144.931 110.904C144.931 110.904 135.675 94.3901 136.649 75.002C136.601 75.002 132.022 77.5838 123.935 77.9735Z" fill="url(#paint0_linear)"/>
<path d="M123.789 113.973C123.789 113.973 136.698 127.369 144.93 111.099C144.93 111.05 134.7 117.139 123.789 113.973Z" fill="#9E5E57"/>
<path d="M184.682 36.7622C184.682 36.7622 187.945 33.7907 170.165 25.1683C151.02 15.9127 132.996 21.2225 120.184 24.535C98.6042 30.1371 110.003 32.8651 110.003 32.8651C84.9643 44.2641 84.4284 62.8728 87.8871 72.1284C95.389 92.5396 100.26 104.036 100.26 104.036C100.26 104.036 98.3606 95.4624 98.0196 94.342C97.6786 93.2215 93.0508 68.9621 98.3606 56.7349C103.67 44.5077 132.119 35.0085 153.066 40.708C174.013 46.4075 177.326 56.199 176.01 60.8756C174.695 65.5521 172.649 66.3802 176.79 72.1772C180.931 77.9741 173.672 93.9523 173.672 93.9523C173.672 93.9523 174.744 99.2621 176.79 99.8953C178.836 100.529 180.054 95.2675 180.054 95.2675C184.389 79.192 195.399 91.7114 195.399 91.7114C195.399 91.7114 198.711 75.2948 197.542 58.9757C196.373 42.7053 184.682 36.7622 184.682 36.7622Z" fill="#31374C"/>
<path d="M97.0937 90.2497C93.0504 73.1025 103.719 55.7116 121.012 52.0581C122.668 51.7171 124.471 51.4735 126.322 51.3274C151.215 49.6711 170.846 60.1446 172.357 72.1769C173.867 84.2092 173.136 92.0034 180.053 95.2673C180.053 95.2673 189.845 98.6772 184.34 124.203C184.34 124.203 194.814 125.713 197.298 109.589C199.782 93.4161 214.104 61.3137 197.834 41.9743C181.563 22.6349 172.892 16.156 145.515 18.4455C118.138 20.7351 99.6755 19.2737 88.5688 44.2639C77.3646 69.3028 79.4593 91.7112 101.234 107.835L97.0937 90.2497Z" fill="#BAE8E8"/>
<path d="M172.747 71.1543C173.526 70.9594 174.062 70.4236 174.452 69.839C174.841 69.2544 175.134 68.5725 175.328 67.8905C175.377 67.6956 175.426 67.5495 175.475 67.3546C175.523 67.1598 175.572 66.9649 175.572 66.77C175.669 66.3803 175.767 66.0393 175.913 65.6496C176.205 64.9189 176.546 64.2369 177.131 63.5549C177.423 64.4318 177.374 65.2599 177.277 66.0393C177.228 66.429 177.131 66.8188 176.985 67.2085C176.936 67.4033 176.839 67.5982 176.741 67.793L176.498 68.3776C176.157 69.157 175.669 69.8877 175.036 70.4723C174.452 70.9594 173.526 71.3491 172.747 71.1543Z" fill="#92DDDA"/>
<path d="M166.95 135.895C182.197 119.478 187.751 110.71 184.73 98.7748C182.684 90.6396 195.983 86.9373 190.722 85.6708C184.243 84.1606 168.801 98.7748 158.668 103.597C158.133 103.841 157.645 104.231 157.061 103.89C156.476 103.549 156.087 102.623 156.574 102.331C166.95 96.1442 183.415 81.7737 191.014 83.5273C197.298 84.9888 184.682 89.373 187.02 98.5312C190.235 111.197 184.535 120.55 168.801 137.551C168.606 137.697 166.56 136.333 166.95 135.895Z" fill="#49889E"/>
<path d="M174.013 72.177C174.013 72.177 187.312 74.3204 197.104 79.8738C197.104 79.8738 197.542 84.5503 196.081 87.8141C196.081 87.8141 185.656 82.6505 175.328 80.9942L174.013 72.177Z" fill="#57617F"/>
<path d="M179.712 91.2735C179.712 91.2735 180.248 78.6566 189.601 81.2385C198.906 83.869 200.611 114.754 183.853 113.049C183.804 113 177.374 107.739 179.712 91.2735Z" fill="#CE7F67"/>
<path d="M192.622 88.6919C191.94 88.4483 191.258 88.3021 190.576 88.2534C189.894 88.156 189.212 88.156 188.579 88.3021C187.313 88.497 186.29 89.3251 185.754 90.3968C185.461 90.9327 185.267 91.566 185.12 92.1992C184.974 92.8325 184.877 93.4658 184.828 94.1478C184.682 95.4631 184.779 96.8271 184.828 98.1911L183.756 97.4116C184.487 97.2168 185.12 97.1681 185.802 97.1193C186.484 97.1193 187.215 97.1681 187.897 97.4116C188.579 97.6552 189.261 97.9962 189.797 98.4833C189.943 98.6295 190.041 98.7756 190.187 98.873L190.382 99.0679L190.528 99.3115L190.82 99.7986L191.015 100.286C191.258 100.919 191.405 101.65 191.356 102.332C191.307 103.062 191.112 103.744 190.723 104.329C189.943 105.498 188.774 106.18 187.556 106.472C188.628 105.839 189.602 105.011 190.041 103.939C190.235 103.403 190.382 102.868 190.284 102.332C190.235 101.796 190.089 101.26 189.846 100.773L189.651 100.432L189.407 100.14L189.31 99.9935L189.164 99.8473C189.066 99.7499 188.969 99.6525 188.871 99.6038C188.482 99.3115 187.995 99.0679 187.507 98.9705C187.02 98.8243 186.436 98.8243 185.9 98.8243C185.364 98.8243 184.731 98.9218 184.292 99.0679L183.269 99.3602L183.172 98.3372C183.074 96.9245 183.074 95.4631 183.221 94.0017C183.415 92.5402 183.756 91.0788 184.585 89.7148C185.023 89.0816 185.608 88.4483 186.29 88.0586C186.972 87.6689 187.751 87.474 188.53 87.4253C189.31 87.4253 190.041 87.5227 190.723 87.7663C191.405 87.9611 192.038 88.3021 192.622 88.6919Z" fill="#9E5E57"/>
<path d="M102.306 84.892C105.814 82.3101 108.785 76.9516 115.946 76.5619C117.846 76.3671 119.259 74.4185 116.531 71.8854C111.708 67.9883 103.378 74.0775 100.358 81.141C99.5784 84.3074 100.309 86.0611 102.306 84.892Z" fill="#31374C"/>
<path d="M158.912 72.7617C154.625 72.0797 147.269 67.8416 140.693 70.7157C138.939 71.3977 136.747 70.326 138.062 66.7699C140.595 61.1191 153.066 63.5548 158.912 68.5236C161.104 71.008 161.201 72.9078 158.912 72.7617Z" fill="#31374C"/>
<path d="M124.374 129.514C127.832 129.416 131.193 129.367 134.506 129.173C136.162 129.075 137.819 128.978 139.475 128.685C141.131 128.393 142.739 128.003 144.346 127.468C147.464 126.445 150.387 124.691 152.822 122.499C154.04 121.378 155.161 120.161 156.086 118.845C157.012 117.53 157.791 116.069 158.181 114.51L159.837 114.948C159.35 116.751 158.522 118.358 157.499 119.82C156.476 121.281 155.258 122.596 153.943 123.765C151.312 126.104 148.243 127.955 144.882 129.075C143.226 129.66 141.521 130.049 139.816 130.39C138.111 130.731 136.357 131.024 134.652 131.072C132.898 131.17 131.145 131.072 129.44 130.829C127.735 130.634 125.981 130.244 124.374 129.514Z" fill="#9E5E57"/>
<path d="M163.053 118.943C162.419 118.261 161.835 117.774 161.25 117.286C160.617 116.799 160.032 116.361 159.399 115.971C158.766 115.581 158.084 115.192 157.402 114.851C156.72 114.51 155.989 114.217 155.112 113.974C155.892 113.535 156.866 113.438 157.743 113.536C158.668 113.682 159.497 113.974 160.276 114.461C161.055 114.948 161.737 115.581 162.225 116.312C162.712 117.14 163.101 118.017 163.053 118.943Z" fill="#9E5E57"/>
<path d="M174.694 153.627C174.694 153.627 158.57 171.505 157.011 201.853C155.745 227.087 155.355 304.396 160.08 304.835C172.6 305.906 188.724 303.568 196.957 300.84C205.189 298.112 205.238 293.094 204.02 287.005C202.802 281.062 195.3 249.398 196.08 178.032C196.177 168.338 188.091 159.034 188.091 159.034L174.694 153.627Z" fill="#BAE8E8"/>
<path d="M99.8701 102.233C99.8701 102.233 100.065 103.841 100.552 105.107C104.449 106.423 108.395 109.394 112.925 112.609C113.461 112.999 114.192 112.901 114.533 112.414C114.874 111.927 114.728 111.197 114.143 110.856C108.931 107.153 104.254 103.5 99.8701 102.233Z" fill="#49889E"/>
<path d="M104.791 129.416C104.791 129.416 104.888 131.316 105.18 132.387C106.593 134.336 112.049 139.11 116.628 142.325C117.164 142.715 117.895 142.617 118.236 142.13C118.577 141.643 118.43 140.912 117.846 140.571C112.585 136.918 107.762 132.972 104.791 129.416Z" fill="#49889E"/>
<path opacity="0.6" d="M109.418 69.7412L149.169 63.7007C158.083 62.3367 166.413 68.4747 167.777 77.3893C169.239 86.9372 162.662 95.8518 153.114 97.3133L146.343 98.3362C144.638 98.5798 142.885 98.1901 141.472 97.1671C140.059 96.1928 138.305 95.7544 136.6 95.998L130.755 96.8748C129.099 97.1184 127.588 97.9953 126.517 99.3105L126.371 99.4567C125.299 100.772 123.789 101.649 122.132 101.892L115.605 102.867C106.057 104.328 97.1423 97.7517 95.6809 88.2038C94.3656 79.4353 100.504 71.1052 109.418 69.7412Z" fill="#F7F7FA"/>
<path d="M109.418 69.7412L149.169 63.7007C158.083 62.3367 166.413 68.4747 167.777 77.3893C169.239 86.9372 162.662 95.8518 153.114 97.3133L146.343 98.3362C144.638 98.5798 142.885 98.1901 141.472 97.1671C140.059 96.1928 138.305 95.7544 136.6 95.998L130.755 96.8748C129.099 97.1184 127.588 97.9953 126.517 99.3105L126.371 99.4567C125.299 100.772 123.789 101.649 122.132 101.892L115.605 102.867C106.057 104.328 97.1423 97.7517 95.6809 88.2038C94.3656 79.4353 100.504 71.1052 109.418 69.7412Z" stroke="#F7F7FA" stroke-width="4.3215" stroke-miterlimit="10"/>
<path d="M158.716 65.1621C158.716 65.1621 165.488 66.3312 171.674 68.8156C173.184 69.4489 174.256 70.8616 174.451 72.4692L175.328 80.9941C175.328 80.9941 173.038 80.7993 170.7 80.9454C168.313 81.0915 166.657 86.7423 166.657 86.7423L168.167 78.3636L164.367 69.6438L158.716 65.1621Z" fill="#F7F7FA"/>
<path d="M133.093 157.28C144.979 158.741 150.971 157.085 161.249 152.506C169.579 148.804 178.884 139.499 176.399 129.708L175.62 126.59C172.064 112.707 158.911 100.918 144.93 95.4619C144.93 95.4619 140.059 92.2955 137.769 91.2238C134.116 89.5188 129.975 90.1033 127.442 92.6852C125.932 94.244 121.791 99.3103 121.791 99.3103C111.659 108.127 106.836 121.913 110.782 135.748L111.659 138.866C114.435 148.56 123.447 156.111 133.093 157.28Z" fill="#F7F7FA"/>
<path d="M175.571 126.541C175.328 125.567 175.035 124.593 174.694 123.618C178.153 143.786 117.31 152.408 110.002 132.728C110.197 133.702 110.441 134.676 110.733 135.651L111.61 138.768C114.387 148.511 123.399 156.062 133.044 157.231C144.93 158.692 150.922 157.036 161.201 152.457C169.531 148.755 178.835 139.45 176.351 129.659L175.571 126.541Z" fill="#BAE8E8"/>
<path d="M133.093 155.429C124.909 154.357 117.31 147.683 115.118 139.499L114.241 136.333C110.733 123.424 114.143 110.515 123.155 102.672L130.17 96.5338C131.973 94.9749 134.652 94.5852 137.136 95.5595L146.782 99.3105C159.204 104.133 169.044 115.191 172.454 128.1L173.282 131.267C175.474 139.451 170.116 144.858 163.491 148.852C151.994 155.77 138.841 156.208 133.093 155.429ZM133.678 96.1928C132.655 96.3389 131.729 96.7773 130.95 97.4106L123.935 103.549C115.215 111.148 111.903 123.667 115.313 136.236L116.189 139.402C118.284 147.099 125.396 153.432 133.142 154.406C138.744 155.137 150.484 154.99 162.955 147.927C169.287 144.322 174.305 139.207 172.259 131.462L171.431 128.295C168.118 115.727 158.57 105.01 146.538 100.333L136.893 96.5825C135.772 96.1928 134.701 96.0466 133.678 96.1928Z" fill="#92DDDA"/>
<path d="M141.764 100.284C141.277 100.333 140.692 100.236 140.205 99.8947C135.042 96.5334 131.485 97.0206 128.563 101.502C127.978 102.379 126.711 102.574 125.688 101.892C124.714 101.21 124.373 99.9434 124.958 99.0178C129.001 92.7825 135.139 91.9056 142.251 96.5334C143.274 97.2154 143.615 98.482 143.079 99.3588C142.787 99.9434 142.3 100.236 141.764 100.284Z" fill="#8698BF"/>
<path d="M89.3965 189.626C89.3965 189.626 90.1272 191.574 90.8092 191.964C91.4912 192.354 90.9553 192.646 91.5399 193.133C91.9296 193.474 96.5574 194.156 99.7725 189.626C100.893 188.018 102.403 186.167 102.452 185.875C102.598 184.949 102.208 185.29 101.867 184.803C101.526 184.316 97.7265 180.419 96.7523 180.175C95.778 179.883 89.3965 189.626 89.3965 189.626Z" fill="#92DDDA"/>
<path d="M95.5344 184.608C95.5344 184.608 100.844 184.121 100.016 174.378C99.87 172.332 98.847 168.825 98.7496 167.705C98.6521 166.584 98.7983 162.541 99.7239 161.323C100.649 160.105 101.234 159.18 100.503 158.303C99.7726 157.377 95.9729 156.793 94.2679 160.495C92.5629 164.197 93.4398 167.266 93.4398 167.266C93.4398 167.266 90.4195 163.515 88.8606 163.515C88.1786 163.515 81.2613 163.077 79.7999 164.83C79.264 165.512 77.8026 180.029 78.0462 180.711C78.241 181.442 84.9635 192.743 91.4912 191.623C94.4627 191.087 95.5344 184.998 95.5344 184.608Z" fill="#92DDDA"/>
<path d="M81.7974 177.643C82.1871 177.448 82.5768 177.302 82.9665 177.253L84.1357 177.156C84.9151 177.107 85.6945 177.058 86.5226 177.107C86.7175 177.107 86.961 177.156 87.1559 177.204C87.2046 177.204 87.2533 177.253 87.3508 177.253C87.3995 177.302 87.4969 177.302 87.5456 177.35C87.643 177.399 87.7405 177.497 87.8379 177.545C88.1789 177.838 88.4225 178.13 88.7147 178.471C88.9583 178.812 89.2019 179.104 89.3967 179.445L89.7377 179.932L89.8839 180.176L89.9813 180.322L90.03 180.468C90.2249 180.858 90.371 181.248 90.4197 181.735C90.4684 182.173 90.4197 182.709 90.1762 183.099C89.9326 183.537 89.5916 183.829 89.2019 184.073C88.8122 184.316 88.4225 184.463 88.0328 184.56C87.643 184.657 87.2046 184.755 86.8149 184.755C86.6201 184.755 86.4252 184.804 86.1816 184.804C85.9868 184.804 85.7919 184.804 85.4996 184.755C85.2074 184.657 85.0612 184.56 84.8664 184.463C84.6715 184.365 84.5253 184.219 84.3305 184.122C84.1843 183.976 84.0382 183.878 83.8434 183.732L83.5998 183.537C83.5024 183.44 83.4536 183.44 83.3562 183.294L83.8921 182.904C84.3305 183.342 85.0612 183.878 85.5971 184.073C85.6945 184.073 85.9381 184.073 86.0842 184.073C86.2791 184.073 86.4739 184.024 86.62 184.024C87.0098 183.975 87.3508 183.878 87.6918 183.781C88.3738 183.586 89.0557 183.245 89.2993 182.709C89.5916 182.222 89.4455 181.491 89.1532 180.858L89.1044 180.76L89.0557 180.663L88.9096 180.419L88.6173 179.932C88.4224 179.64 88.1789 179.299 87.9353 179.007C87.6918 178.714 87.4482 178.422 87.2046 178.227C87.1559 178.179 87.0585 178.13 87.0098 178.081C86.961 178.032 86.9123 178.032 86.8636 178.032C86.7175 177.984 86.5226 177.984 86.3765 177.935C85.6458 177.886 84.8663 177.886 84.0869 177.886C83.4049 177.984 82.5768 178.227 81.7974 177.643Z" fill="#49889E"/>
<path d="M82.1382 173.161C83.356 172.82 84.5739 172.966 85.7917 173.015C86.3763 173.064 87.0096 173.064 87.5941 173.161C87.8864 173.21 88.1787 173.21 88.5684 173.356C89.0068 173.502 89.2504 173.794 89.4453 174.038C89.8837 174.574 90.1273 175.158 90.3221 175.792C90.517 176.376 90.6631 177.009 90.7118 177.643C90.8093 178.276 90.8093 178.909 90.7118 179.543C90.6144 180.225 90.3708 180.76 90.0785 181.345L89.4453 181.053C89.5427 180.809 89.6401 180.517 89.7376 180.225C89.7863 180.078 89.835 179.932 89.835 179.786L89.8837 179.396C89.9324 178.861 89.8837 178.276 89.835 177.691C89.6888 176.571 89.3478 175.402 88.7146 174.574C88.5684 174.379 88.3736 174.184 88.2274 174.135C88.0326 174.038 87.7403 173.989 87.448 173.941C86.8634 173.843 86.2789 173.794 85.6943 173.746C84.5252 173.648 83.3073 173.697 82.1382 173.161Z" fill="#49889E"/>
<path d="M90.1761 177.351C90.7119 176.961 91.1504 176.474 91.3452 175.84C91.5888 175.256 91.6375 174.574 91.54 173.941C91.3939 172.625 90.8581 171.261 90.0299 170.19C89.5915 169.654 89.1044 169.264 88.5198 169.118C87.8865 168.923 87.1558 168.874 86.4738 168.874C85.7431 168.826 85.0611 168.826 84.3304 168.826C83.9894 168.826 83.5997 168.777 83.2587 168.728C82.9177 168.631 82.528 168.582 82.187 168.339C82.5767 168.339 82.9177 168.29 83.2587 168.241C83.5997 168.192 83.9894 168.144 84.3304 168.144C85.0611 168.095 85.7918 168.095 86.5225 168.095C87.2532 168.095 87.984 168.144 88.7634 168.339C89.5915 168.533 90.2735 169.118 90.7606 169.703C91.2478 170.287 91.6375 170.969 91.9298 171.7C92.2221 172.431 92.4169 173.161 92.5143 173.941C92.6118 174.72 92.5143 175.548 92.1734 176.279C91.8324 177.01 91.2965 177.643 90.6145 178.081L90.1761 177.351Z" fill="#49889E"/>
<path d="M92.1734 165.805C92.7093 166.146 93.1964 166.536 93.5374 167.121C93.8784 167.754 93.8784 168.485 93.7322 169.118C93.5861 169.751 93.3913 170.385 92.9041 170.92C92.6606 171.213 92.3195 171.408 91.9785 171.505C91.6375 171.602 91.2478 171.602 90.9556 171.602V170.92C91.2966 170.92 91.5401 170.92 91.735 170.872C91.9785 170.823 92.1734 170.677 92.3195 170.482C92.6605 170.092 92.8554 169.556 92.9528 169.021C93.0503 168.485 93.0502 167.949 92.8554 167.462C92.7092 166.926 92.3196 166.487 92.1734 165.805Z" fill="#49889E"/>
<path d="M86.5226 182.953C86.0842 183.148 85.6458 183.294 85.1586 183.392C84.6715 183.489 84.233 183.538 83.7459 183.587C83.2588 183.587 82.7716 183.587 82.2845 183.489C81.7974 183.392 81.3102 183.197 80.9692 182.807C81.4564 182.905 81.8948 182.905 82.3332 182.905L83.6972 182.856C84.1356 182.856 84.6228 182.807 85.0612 182.856C85.5483 182.807 86.0355 182.807 86.5226 182.953Z" fill="#49889E"/>
<path d="M191.404 233.81C191.404 233.81 184.681 233.615 181.661 231.179C178.641 228.743 175.766 227.915 173.233 231.179C170.7 234.443 169.434 234.881 169.044 237.415C168.654 240.045 166.511 243.65 168.995 243.065C171.48 242.432 172.308 237.756 172.308 237.756L175.279 234.784C175.279 234.784 173.038 240.094 173.964 242.432C174.89 244.77 181.125 247.45 182.976 246.816C184.827 246.183 184.925 243.747 184.925 243.747C184.925 243.747 191.55 248.229 199.003 242.53L208.697 224.846L196.129 221.485L191.404 233.81Z" fill="#92DDDA"/>
<path d="M180.589 238.096C180.345 238.876 180.101 239.655 179.907 240.434C179.712 241.214 179.517 241.993 179.468 242.773C179.419 243.114 179.468 243.552 179.468 243.698C179.517 244.039 179.712 244.38 179.858 244.721C180.248 245.403 180.686 246.085 181.173 246.767C180.442 246.378 179.76 245.842 179.176 245.208C178.884 244.867 178.591 244.526 178.396 244.088C178.153 243.455 178.299 243.016 178.396 242.578C178.64 241.75 178.981 240.97 179.322 240.24C179.76 239.558 180.15 238.827 180.589 238.096Z" fill="#49889E"/>
<path d="M177.033 236.878C176.789 237.657 176.546 238.437 176.351 239.216C176.156 239.996 175.961 240.775 175.913 241.554C175.864 241.895 175.913 242.334 175.913 242.48C175.961 242.821 176.156 243.162 176.302 243.503C176.692 244.185 177.13 244.867 177.618 245.549C176.887 245.159 176.205 244.623 175.62 243.99C175.328 243.649 175.036 243.308 174.841 242.87C174.597 242.236 174.743 241.798 174.841 241.36C175.084 240.531 175.425 239.752 175.766 239.021C176.156 238.291 176.595 237.56 177.033 236.878Z" fill="#49889E"/>
<path d="M184.778 240.434C184.632 240.921 184.437 241.409 184.145 241.847C183.999 242.091 183.853 242.285 183.609 242.529C183.414 242.724 183.073 242.967 182.684 243.016L182.732 241.896C183.025 241.944 183.219 242.042 183.463 242.139C183.707 242.237 183.901 242.383 184.145 242.529C184.34 242.675 184.535 242.87 184.681 243.065C184.827 243.26 184.876 243.503 184.924 243.747C184.681 243.357 184.291 243.114 183.901 243.016C183.707 242.967 183.512 242.967 183.268 242.967C183.073 242.967 182.83 242.967 182.684 243.016L182.732 241.896C182.83 241.944 182.976 241.944 183.171 241.847C183.366 241.75 183.56 241.652 183.755 241.506C184.096 241.214 184.437 240.824 184.778 240.434Z" fill="#49889E"/>
<path d="M196.177 164.294C192.378 160.787 188.091 158.985 188.091 158.985C187.019 158.254 174.354 176.181 181.173 184.949C182.83 187.092 192.962 199.904 196.567 204.873C196.567 204.873 196.031 206.237 196.129 206.675C196.226 207.163 197.298 207.65 197.298 207.65L191.744 230.935C196.567 232.542 203.241 238.291 203.241 238.291C203.241 238.291 217.806 211.888 217.806 202.096C217.806 196.446 199.344 167.168 196.177 164.294Z" fill="#BAE8E8"/>
<path d="M188.091 158.985C187.945 158.936 187.799 159.034 187.702 159.131C187.604 159.228 187.507 159.326 187.409 159.423C187.215 159.618 187.02 159.813 186.873 160.057C186.533 160.495 186.192 160.933 185.851 161.421C185.217 162.346 184.633 163.32 184.097 164.295C183.025 166.243 182.051 168.289 181.271 170.384C180.492 172.479 179.907 174.671 179.713 176.863C179.518 179.055 179.713 181.296 180.687 183.196C180.93 183.683 181.223 184.121 181.515 184.56C181.856 184.998 182.197 185.437 182.538 185.875L184.633 188.505L188.822 193.815C191.599 197.371 194.375 200.928 197.006 204.63L197.152 204.873L197.055 205.117C196.957 205.36 196.86 205.604 196.811 205.896C196.714 206.14 196.665 206.432 196.665 206.578C196.665 206.627 196.665 206.627 196.665 206.627C196.665 206.627 196.665 206.627 196.714 206.676C196.762 206.724 196.86 206.822 196.909 206.871C197.103 207.017 197.347 207.163 197.542 207.26L197.883 207.455L197.785 207.845L194.814 219.439C194.327 221.387 193.791 223.287 193.304 225.236C192.817 227.184 192.281 229.084 191.745 231.033C192.135 229.084 192.573 227.136 192.963 225.187C193.401 223.238 193.791 221.29 194.229 219.341L196.86 207.65L197.103 208.186C196.811 208.04 196.568 207.894 196.275 207.699C196.129 207.601 196.032 207.504 195.886 207.309C195.837 207.212 195.739 207.114 195.691 207.017C195.642 206.871 195.642 206.724 195.642 206.627C195.642 206.237 195.739 205.945 195.837 205.653C195.934 205.36 196.032 205.068 196.129 204.825L196.178 205.312C193.499 201.707 190.722 198.151 187.945 194.595L183.805 189.236L181.71 186.557C181.369 186.118 181.028 185.68 180.687 185.193C180.346 184.706 180.005 184.219 179.761 183.683C178.738 181.539 178.592 179.104 178.884 176.814C179.177 174.525 179.81 172.332 180.687 170.189C181.515 168.094 182.587 166.048 183.805 164.149C184.389 163.174 185.022 162.249 185.753 161.372C186.094 160.933 186.435 160.495 186.825 160.057C187.02 159.862 187.215 159.667 187.409 159.472C187.507 159.375 187.604 159.277 187.75 159.228C187.848 159.034 187.945 158.936 188.091 158.985Z" fill="#49889E"/>
<path d="M151.848 159.861C152.383 160.982 149.509 160.787 149.509 160.787C149.509 160.787 151.117 158.303 151.848 159.861Z" fill="#92DDDA"/>
<path d="M164.027 162.686C165.147 162.151 164.952 165.073 164.952 165.073C164.952 165.073 162.468 163.417 164.027 162.686Z" fill="#92DDDA"/>
<path d="M171.577 156.744C172.551 155.916 173.136 158.79 173.136 158.79C173.136 158.79 170.262 157.865 171.577 156.744Z" fill="#92DDDA"/>
<path d="M103.28 62.9214C102.744 63.0676 102.16 62.7266 101.77 62.2881C101.38 61.8497 101.185 61.3139 101.039 60.778C100.747 59.7063 100.747 58.6833 100.844 57.6116C100.942 56.5886 101.185 55.5656 101.624 54.5914C102.014 53.6658 102.549 52.7402 103.28 52.0095L102.744 54.9324C102.598 55.8579 102.452 56.8322 102.355 57.7578C102.257 58.6833 102.16 59.6576 102.208 60.5344C102.208 60.9729 102.257 61.4113 102.403 61.8497C102.549 62.3369 102.793 62.7266 103.28 62.9214Z" fill="#92DDDA"/>
<path d="M169.726 65.6979C170.603 65.4543 171.139 64.8698 171.577 64.1878C171.967 63.5058 172.259 62.7751 172.454 61.9957C172.551 61.6059 172.6 61.265 172.6 60.8752C172.649 60.4855 172.649 60.0958 172.649 59.7061C172.649 58.9267 172.649 58.0985 172.746 57.1243C173.428 57.7575 173.818 58.6344 174.013 59.56C174.208 60.4368 174.159 61.5085 173.721 62.3854C173.38 63.2135 172.941 64.0904 172.259 64.7236C171.577 65.4543 170.603 65.8928 169.726 65.6979Z" fill="#92DDDA"/>
<path d="M106.642 59.3651C106.204 59.2677 105.863 58.8779 105.619 58.4882C105.375 58.0985 105.229 57.6601 105.083 57.2217C104.986 56.7833 104.888 56.3448 104.888 55.9064C104.84 55.7115 104.888 55.468 104.888 55.2244C104.888 54.9808 104.937 54.786 104.986 54.5424C105.181 53.6169 105.522 52.7887 106.057 52.1067C106.545 51.376 107.178 50.7427 107.957 50.353L107.129 52.6913C106.886 53.422 106.642 54.1527 106.496 54.8834C106.447 55.2244 106.398 55.5654 106.35 55.9551C106.35 56.3448 106.301 56.7345 106.301 57.1242C106.301 57.514 106.301 57.9037 106.35 58.2934C106.35 58.5857 106.398 58.9754 106.642 59.3651Z" fill="#92DDDA"/>
<path d="M246.494 235.388C246.494 235.388 242.792 238.749 244.741 244.838C246.689 250.927 244.01 251.804 244.01 251.804L243.182 251.561C243.182 251.561 242.89 249.271 242.159 248.735C241.672 248.394 240.405 248.638 240.698 249.71C241.136 251.317 241.428 254.386 242.159 254.776C242.938 255.166 246.3 255.36 246.3 255.36C249.076 256.578 252.779 254.776 252.779 254.776L254.727 238.116L250.099 232.075L246.494 235.388Z" fill="#F9C1A7"/>
<path d="M248.541 253.46C248.589 253.801 248.492 254.045 248.346 254.289C248.2 254.532 248.053 254.727 247.859 254.922C247.664 255.068 247.42 255.214 247.177 255.312C246.933 255.409 246.641 255.409 246.3 255.36C246.446 255.068 246.592 254.873 246.738 254.678C246.884 254.483 247.03 254.337 247.225 254.191C247.42 254.045 247.566 253.899 247.81 253.801C248.005 253.655 248.2 253.509 248.541 253.46Z" fill="#DC918B"/>
<path d="M254.337 233.294L245.325 208.352L259.501 189.5L251.755 169.479C242.499 181.024 229.298 202.555 228.957 208.547C228.762 212.59 248.345 240.698 248.345 240.698" fill="#F9C1A7"/>
<path d="M250.927 240.844L250.878 256.237C250.878 256.237 267.344 263.788 279.327 265.152C288.388 309.871 286.732 315.62 287.56 319.955C287.95 322.099 291.603 350.499 291.993 352.009C292.285 353.129 291.506 359.024 291.506 359.024C291.506 359.024 293.357 359.949 298.033 360.485C302.71 361.021 304.951 358.878 306.753 358.878C306.753 358.878 306.899 355.76 306.753 353.763C306.461 348.55 310.358 314.694 308.068 303.198C308.604 270.364 309.481 258.771 309.432 257.114C309.238 249.515 309.043 242.646 309.043 240.6C309.043 238.554 304.318 239.236 304.318 239.236L250.927 240.844Z" fill="#474E64"/>
<path d="M250.878 256.188C250.878 256.188 252.827 306.802 252.827 308.653C252.827 310.504 255.896 349.037 255.36 350.352C254.824 351.668 253.704 358.439 253.704 358.439C253.704 358.439 257.357 360.728 260.913 360.972C264.129 361.216 261.985 361.264 270.754 359.218C270.023 353.957 270.072 348.063 270.072 346.26C270.072 344.458 274.602 321.952 272.995 306.315C272.751 304.123 276.258 264.713 276.258 264.713C276.258 264.713 265.882 262.083 250.878 256.188Z" fill="#343948"/>
<path d="M277.769 242.84C277.915 244.107 278.012 245.373 278.11 246.64C278.207 247.906 278.304 249.173 278.402 250.44C278.597 252.973 278.743 255.506 278.889 258.088V258.477H278.499H274.213H273.823V258.088C273.725 256.236 273.628 254.385 273.579 252.583C273.531 251.657 273.482 250.732 273.482 249.806L273.384 247.03L273.628 247.273C272.605 247.127 271.533 247.03 270.51 246.883L270.315 246.835V246.689C270.51 245.276 270.705 243.863 270.9 242.45C270.851 243.863 270.754 245.276 270.656 246.737L270.51 246.542C271.582 246.591 272.605 246.689 273.677 246.786H273.872V247.03L274.066 249.806C274.115 250.732 274.164 251.657 274.261 252.583C274.407 254.434 274.456 256.285 274.554 258.088L274.164 257.698H278.451L278.061 258.088C277.963 255.554 277.866 252.973 277.817 250.44C277.769 249.173 277.72 247.906 277.72 246.64C277.769 245.373 277.769 244.107 277.769 242.84Z" fill="#343948"/>
<path d="M307.776 188.768L324.534 206.695L338.758 190.376L320.004 169.575L307.776 188.768Z" fill="#F9C1A7"/>
<path d="M258.917 157.738C258.917 157.738 249.758 161.245 239.577 183.8C243.377 185.846 248.053 193.201 253.12 199.924L262.96 186.041L258.917 157.738Z" fill="#EF3F54"/>
<path d="M309.481 245.715L309.189 235.68L250.927 234.073V246.495C277.671 251.463 309.481 245.715 309.481 245.715Z" fill="#2B2E3A"/>
<path d="M270.072 249.856H276.746C278.889 249.856 280.643 248.102 280.643 245.959V241.769C280.643 239.626 278.889 237.872 276.746 237.872H270.072V240.503H276.746C277.428 240.503 278.012 241.087 278.012 241.769V245.959C278.012 246.641 277.428 247.225 276.746 247.225H270.072V249.856Z" fill="#545B72"/>
<path d="M274.652 242.548H269.537V245.179H274.652V242.548Z" fill="#545B72"/>
<path d="M311.04 167.335C309.871 160.125 305.682 153.452 298.375 153.5C294.429 153.5 289.46 150.577 284.589 151.211C277.623 152.234 263.885 155.546 258.916 157.738C250.635 176.006 254.922 214.1 249.758 240.162C261.547 241.38 291.068 243.67 310.115 239.626C308.166 199.194 315.473 194.42 311.04 167.335Z" fill="#EF3F54"/>
<path d="M315.961 159.784C312.307 156.374 304.172 155.108 304.172 155.108C303.149 154.377 292.675 164.607 299.252 173.034C302.759 177.565 310.602 190.961 316.837 198.365C318.201 189.792 324.778 183.118 331.159 181.023C324.096 172.596 321.66 165.094 315.961 159.784Z" fill="#EF3F54"/>
<path d="M303.392 183.068C304.804 183.555 306.12 184.384 307.386 185.26C308.019 185.699 308.604 186.186 309.14 186.673C309.724 187.16 310.26 187.696 310.796 188.232C311.868 189.304 312.842 190.473 313.67 191.788L313.963 192.275L314.255 192.762C314.45 193.103 314.596 193.444 314.791 193.785C315.132 194.467 315.424 195.149 315.765 195.831L315.716 195.734C315.96 196.124 316.203 196.513 316.398 196.952C316.593 197.39 316.788 197.829 316.837 198.365C316.349 198.121 315.96 197.829 315.57 197.536C315.18 197.244 314.888 196.903 314.547 196.513L314.498 196.416C313.622 195.247 312.745 194.078 311.868 192.957L309.286 189.499C308.848 188.963 308.36 188.378 307.922 187.842C307.678 187.55 307.435 187.306 307.191 187.014C306.948 186.722 306.704 186.478 306.461 186.186C305.486 185.163 304.512 184.091 303.392 183.068Z" fill="#BD1A3B"/>
<path d="M277.086 153.938C277.135 153.743 277.135 153.597 277.135 153.597C277.086 147.752 275.479 139.616 275.479 139.616L295.987 135.768L297.01 150.285C291.311 152.672 283.711 154.864 277.086 153.938Z" fill="#DC918B"/>
<path d="M297.01 150.284L297.205 152.818C297.205 152.818 292.772 165.337 278.206 166.604C275.089 164.217 276.696 155.643 277.086 153.889C283.711 154.864 291.31 152.671 297.01 150.284Z" fill="#F9C1A7"/>
<path d="M277.476 157.592C273.335 160.807 268.318 166.848 268.318 166.848C268.318 166.848 269.633 159.638 270.51 155.546C271.533 153.11 276.745 148.336 276.745 148.336C276.745 148.336 277.574 155.838 277.476 157.592Z" fill="#BD1A3B"/>
<path d="M353.47 171.914C353.47 171.914 343.289 194.955 339.684 202.019C337.784 205.721 330.721 208.254 328.626 209.131C327.749 209.521 322.537 206.257 322.244 201.921C322.196 201.044 322.196 199.973 322.342 198.804C322.683 195.929 343.63 164.071 343.63 164.071C344.848 156.764 354.834 164.314 353.47 171.914Z" fill="#F9C1A7"/>
<path d="M331.695 182.63C331.11 183.458 330.428 184.189 329.697 184.871C329.356 185.212 328.967 185.553 328.577 185.845C328.382 185.991 328.187 186.137 327.992 186.283C327.798 186.43 327.554 186.576 327.408 186.722C327.067 186.965 326.726 187.306 326.434 187.647C326.093 187.988 325.849 188.378 325.557 188.768C324.972 189.547 324.436 190.375 323.9 191.204C324.095 190.229 324.436 189.255 324.923 188.378C325.167 187.94 325.459 187.501 325.752 187.112C326.093 186.722 326.434 186.332 326.872 185.991C327.116 185.796 327.262 185.699 327.505 185.601L328.09 185.212L329.308 184.384C330.038 183.702 330.866 183.117 331.695 182.63Z" fill="#DC918B"/>
<path d="M290.337 182.729C290.142 182.729 289.996 182.778 289.801 183.021L287.658 185.895L286.83 183.07C286.732 182.778 286.537 182.68 286.391 182.68C286.148 182.68 286.002 182.778 285.855 183.021L283.956 186.772H285.027L286.294 184.19L287.073 186.772H287.95L289.85 184.19V186.772H290.776V183.167C290.776 182.875 290.581 182.729 290.337 182.729Z" fill="white"/>
<path d="M282.737 183.362L281.86 186.821H282.834L283.662 183.362H282.737Z" fill="white"/>
<path d="M281.081 184.337C281.13 183.898 280.886 183.362 279.912 183.362H278.061L277.233 186.821H278.207L278.499 185.506H278.987L279.815 186.821H280.838L279.912 185.457C280.74 185.262 281.033 184.824 281.081 184.337ZM279.328 184.921H278.646L278.889 183.898H279.62C280.01 183.898 280.204 184.093 280.156 184.385C280.107 184.726 279.766 184.921 279.328 184.921Z" fill="white"/>
<path d="M294.721 186.822H295.647L294.77 183.655C294.673 183.314 294.429 183.217 294.186 183.217C294.039 183.217 293.893 183.314 293.747 183.509L291.458 186.822H292.383L292.822 186.14H294.527L294.721 186.822ZM293.26 185.555L294.088 184.288L294.429 185.555H293.26Z" fill="white"/>
<path d="M298.569 186.189C297.79 186.189 297.352 185.75 297.4 185.166C297.498 184.435 298.18 183.948 299.105 183.996C299.398 183.996 299.739 183.996 300.08 184.094L300.226 183.412C299.933 183.363 299.495 183.314 299.203 183.314C297.546 183.314 296.523 184.045 296.377 185.214C296.28 186.189 296.962 186.919 298.472 186.919C298.764 186.919 299.057 186.871 299.398 186.822L299.592 186.091C299.3 186.14 299.008 186.189 298.569 186.189Z" fill="white"/>
<path d="M275.43 154.522L280.009 165.434L293.893 154.473L297.157 157.932L279.035 172.595L274.164 159.783L275.43 154.522Z" fill="#BD1A3B"/>
<path d="M298.326 148.287C298.326 148.287 292.821 155.74 285.904 161.147C286.829 163.193 295.208 168.552 295.208 168.552L304.61 153.499L298.326 148.287Z" fill="#BD1A3B"/>
<path d="M254.727 173.863C254.678 175.86 254.581 177.808 254.435 179.757C254.289 181.705 254.143 183.654 253.996 185.651L253.558 191.546L253.12 197.44C252.925 195.491 252.876 193.494 252.876 191.546C252.876 189.548 252.973 187.6 253.12 185.651C253.266 183.703 253.461 181.705 253.704 179.757C253.948 177.711 254.24 175.762 254.727 173.863Z" fill="#BD1A3B"/>
<path d="M240.064 109.025C240.161 108.538 240.308 108.294 240.502 108.099C240.697 107.904 240.892 107.807 241.136 107.661C241.331 107.515 241.574 107.417 241.818 107.271L242.597 106.833C242.695 107.174 242.646 107.563 242.5 107.856C242.354 108.148 242.159 108.44 241.964 108.684C241.72 108.927 241.477 109.122 241.184 109.22C240.843 109.268 240.502 109.317 240.064 109.025Z" fill="#DC918B"/>
<path d="M242.987 108.634C242.841 108.878 242.695 108.975 242.5 109.073C242.354 109.17 242.208 109.219 242.013 109.219C241.867 109.219 241.672 109.219 241.526 109.121C241.477 109.121 241.428 109.073 241.38 109.024C241.331 108.975 241.282 108.975 241.233 108.926L241.136 108.829C241.087 108.78 241.039 108.732 241.039 108.683C240.99 108.634 240.892 108.391 240.892 108.244C240.844 107.903 241.087 107.562 241.477 107.514C241.818 107.465 242.159 107.709 242.208 108.098C242.208 107.806 242.062 107.757 242.11 107.709C242.11 107.709 242.11 107.709 242.159 107.709C242.208 107.709 242.305 107.757 242.403 107.855C242.5 107.903 242.597 108.001 242.695 108.147C242.792 108.244 242.89 108.391 242.987 108.634Z" fill="#DC918B"/>
<path d="M248.053 91.488C248.053 91.488 245.471 77.4584 235.923 82.2811C226.375 87.1525 234.364 111.022 248.053 109.074C248.053 109.074 250.781 104.251 248.053 91.488Z" fill="#F7AB8D"/>
<path d="M247.664 27.3308C237.677 27.5744 236.752 39.4606 235.68 44.6242C232.514 60.1152 238.895 86.713 239.041 93.7278C239.09 93.7278 264.032 26.9411 247.664 27.3308Z" fill="#2B2E3A"/>
<path d="M244.107 31.6664C244.107 31.6664 235.972 120.423 238.554 126.951C241.136 133.478 260.378 144.683 271.728 147.313C283.078 149.944 307.289 135.329 311.235 130.945C313.33 128.607 319.127 107.319 323.657 85.5439C327.554 66.8865 334.861 48.9598 333.838 41.3117C333.887 41.3117 288.486 11.1092 244.107 31.6664Z" fill="#F9C1A7"/>
<path d="M288.068 82.8497C289.354 82.729 290.296 81.5671 290.173 80.2546C290.05 78.9421 288.908 77.976 287.622 78.0968C286.336 78.2175 285.394 79.3794 285.517 80.6919C285.64 82.0044 286.783 82.9705 288.068 82.8497Z" fill="#31374C"/>
<path d="M289.05 80.4044C289.451 80.3578 289.741 80.0166 289.697 79.6425C289.654 79.2684 289.294 79.0029 288.893 79.0496C288.492 79.0962 288.202 79.4373 288.246 79.8115C288.289 80.1856 288.65 80.4511 289.05 80.4044Z" fill="white"/>
<path d="M253.97 80.5143C255.256 80.3935 256.198 79.2316 256.075 77.9191C255.952 76.6066 254.809 75.6406 253.524 75.7613C252.238 75.8821 251.296 77.044 251.419 78.3565C251.542 79.6689 252.685 80.635 253.97 80.5143Z" fill="#31374C"/>
<path d="M255 78.0612C255.401 78.0145 255.691 77.6734 255.647 77.2993C255.604 76.9251 255.243 76.6597 254.843 76.7063C254.442 76.753 254.152 77.0941 254.196 77.4682C254.239 77.8423 254.599 78.1078 255 78.0612Z" fill="white"/>
<path d="M313.037 92.1205C313.037 92.1205 311.235 96.6509 309.043 101.181C303.587 112.288 288.437 97.8688 263.008 101.62C256.334 102.594 253.947 104.445 246.835 105.322C237.336 106.491 239.82 87.7363 239.772 84.2776C238.213 105.614 235.29 123.59 237.969 129.922C240.649 136.304 259.501 148.385 271.436 148.093C284.832 147.752 309.822 139.763 313.671 135.476C315.522 133.381 319.614 116.234 323.803 97.2355L327.505 85.057L313.037 92.1205Z" fill="#2B2E3A"/>
<path opacity="0.2" d="M284.248 89.3442C284.15 91.0979 287.024 92.7054 290.678 92.9003C294.283 93.0952 297.303 91.7799 297.4 90.0262C297.498 88.2725 294.624 86.6649 290.97 86.4701C287.316 86.2752 284.345 87.5905 284.248 89.3442Z" fill="#EF3F54"/>
<path opacity="0.2" d="M242.987 85.1547C242.597 86.6648 244.741 88.5159 247.81 89.2954C250.879 90.0748 253.655 89.4902 254.045 88.0288C254.435 86.5187 252.292 84.6675 249.223 83.8881C246.202 83.1087 243.377 83.6933 242.987 85.1547Z" fill="#EF3F54"/>
<path d="M243.913 59.5308C246.641 57.2412 249.661 55.7311 255.166 56.4131C257.894 57.0951 260.865 57.6309 258.819 54.3671C255.214 49.3009 243.182 52.7595 240.746 60.1153C239.285 63.233 242.257 61.3332 243.913 59.5308Z" fill="#2B2E3A"/>
<path d="M300.177 62.5507C297.547 59.774 294.526 57.7767 288.583 57.8254C285.563 58.2151 282.348 58.41 284.978 55.1949C289.46 50.2748 301.882 55.4384 303.587 63.5736C304.707 67.0323 301.736 64.6453 300.177 62.5507Z" fill="#2B2E3A"/>
<path opacity="0.56" d="M276.015 67.3247C276.015 67.3247 267.734 71.2218 259.257 69.8578C259.257 69.8578 267.831 83.9361 256.383 99.6707C256.383 99.6707 266.711 105.955 275.479 99.7194C275.479 99.7194 271.046 83.5951 276.015 67.3247Z" fill="url(#paint1_linear)"/>
<path d="M313.038 92.121C313.038 92.121 317.324 81.3553 311.82 68.982C307.776 59.9212 313.525 44.284 317.909 40.1921C317.909 40.1921 339.489 39.9972 340.317 40.8253C345.335 45.8429 349.963 59.9699 332.377 93.6799L313.038 92.121Z" fill="#2B2E3A"/>
<path d="M320.929 97.4307C320.929 97.4307 325.557 87.6392 333.789 93.0952C342.022 98.5998 335.689 125.003 316.447 114.968C316.447 114.968 312.258 109.707 320.929 97.4307Z" fill="#F9C1A7"/>
<path d="M332.815 99.8665C331.889 98.9896 330.818 98.2589 329.6 98.0154C328.382 97.7231 327.115 98.0154 326.19 98.7461C325.215 99.4768 324.485 100.451 323.851 101.474C323.218 102.497 322.78 103.617 322.293 104.787L321.952 104.299C323.169 104.446 324.339 104.884 325.215 105.81C326.092 106.686 326.433 107.953 326.238 109.073C326.19 109.658 325.946 110.194 325.605 110.681C325.264 111.168 324.777 111.509 324.241 111.753C323.169 112.24 322 112.337 320.88 112.191C322 112.142 323.169 111.996 324.095 111.46C324.533 111.217 324.972 110.876 325.264 110.437C325.508 109.999 325.703 109.512 325.703 109.025C325.8 108.002 325.459 106.979 324.728 106.248C323.998 105.517 322.926 105.128 321.903 105.03L321.416 104.981L321.562 104.543C322 103.374 322.536 102.253 323.218 101.182C323.9 100.11 324.68 99.0871 325.8 98.3076C326.872 97.5769 328.382 97.2847 329.648 97.7231C330.964 98.0641 332.035 98.8922 332.815 99.8665Z" fill="#DC918B"/>
<path d="M256.383 99.6716C256.383 99.6716 266.954 116.039 275.479 99.7203C275.479 99.7203 265.785 102.156 256.383 99.6716Z" fill="#DC918B"/>
<path d="M242.353 19.2444C250.391 13.2526 265.59 1.12287 281.958 3.46113C290.093 4.77641 295.744 6.23783 301.833 10.6221C301.297 9.20937 296.328 4.92255 296.767 3.99699C297.254 2.87657 339.83 19.829 339.294 40.1427C341.34 43.0168 342.412 45.2089 342.363 46.1345C342.168 50.5674 312.842 67.2276 315.96 56.608C318.98 47.6933 319.906 46.719 316.642 43.7475C310.845 38.4377 299.884 36.684 273.969 40.776C261.839 42.7245 224.573 39.2658 227.009 24.944C227.057 24.9927 234.316 25.2362 242.353 19.2444Z" fill="#2B2E3A"/>
<path d="M251.902 110.094C251.902 110.094 268.465 121.152 292.773 108.828C292.773 108.828 283.566 131.577 268.806 130.944C253.607 128.654 261.206 119.837 251.902 110.094Z" fill="#31374C"/>
<path d="M282.688 124.368C271.435 123.004 265.2 125.83 261.839 128.655C263.398 129.678 265.541 130.409 268.756 130.896C274.261 131.139 278.937 128.217 282.688 124.368Z" fill="#F97A7A"/>
<path d="M251.902 110.095C254.727 113.067 255.166 114.382 255.799 115.892C262.375 118.425 272.751 121.348 288.827 116.428C292.237 111.41 292.773 108.877 292.773 108.877C268.465 121.153 251.902 110.095 251.902 110.095Z" fill="white"/>
<path d="M253.119 111.41C253.509 111.849 253.85 112.336 254.24 112.823C254.581 113.31 254.922 113.846 255.214 114.382C255.506 114.918 255.799 115.453 256.042 115.989C257.065 118.181 257.601 120.568 258.283 122.858C258.624 123.978 259.063 125.099 259.696 126.122C259.988 126.609 260.378 127.047 260.816 127.486C261.255 127.875 261.693 128.265 262.18 128.557C262.424 128.704 262.667 128.85 262.96 128.996C263.203 129.142 263.496 129.239 263.739 129.386C264.275 129.629 264.859 129.775 265.395 129.97C265.98 130.116 266.564 130.262 267.149 130.409C267.734 130.555 268.318 130.603 268.903 130.701H268.854C271.679 130.798 274.456 130.019 276.941 128.606C279.425 127.193 281.568 125.294 283.468 123.199C285.368 121.104 287.024 118.766 288.534 116.33C289.265 115.112 289.996 113.895 290.678 112.628C291.36 111.361 291.993 110.095 292.529 108.78L292.967 109.218L290.532 110.387C289.704 110.728 288.875 111.118 288.047 111.41C287.219 111.702 286.391 112.092 285.514 112.336C284.686 112.628 283.809 112.92 282.981 113.164C282.104 113.407 281.276 113.651 280.399 113.846C279.522 114.041 278.646 114.187 277.769 114.382C276.892 114.528 276.015 114.674 275.138 114.723C274.261 114.82 273.336 114.869 272.459 114.918C271.582 114.966 270.656 114.966 269.78 114.966C268.903 114.966 267.977 114.918 267.1 114.82C266.223 114.771 265.347 114.625 264.421 114.528C263.544 114.382 262.667 114.236 261.791 114.041C260.037 113.651 258.332 113.164 256.676 112.531C255.019 111.897 253.412 111.167 251.902 110.192C252.291 110.533 252.73 110.972 253.119 111.41ZM256.724 112.287C258.381 112.872 260.086 113.359 261.839 113.7C262.716 113.846 263.593 113.992 264.47 114.138C265.347 114.236 266.223 114.333 267.1 114.382C267.977 114.43 268.854 114.479 269.731 114.479C270.608 114.479 271.485 114.43 272.361 114.382C273.238 114.284 274.115 114.236 274.992 114.138C275.869 114.041 276.746 113.895 277.623 113.748C278.499 113.602 279.376 113.407 280.204 113.213C281.081 112.969 281.909 112.774 282.737 112.531C283.566 112.287 284.442 111.995 285.271 111.702C286.099 111.41 286.927 111.069 287.755 110.777C288.583 110.436 289.363 110.095 290.191 109.754L292.578 108.585L293.357 108.195L293.016 108.974C292.432 110.338 291.847 111.605 291.165 112.92C290.483 114.187 289.801 115.453 289.022 116.671C287.511 119.107 285.806 121.494 283.858 123.637C281.909 125.781 279.669 127.729 277.135 129.142C274.602 130.555 271.679 131.432 268.708 131.237C268.123 131.139 267.49 131.042 266.905 130.896C266.321 130.75 265.736 130.603 265.152 130.457C264.567 130.262 263.983 130.068 263.447 129.824C263.155 129.727 262.911 129.58 262.619 129.434C262.326 129.288 262.083 129.142 261.839 128.996C261.303 128.655 260.816 128.265 260.378 127.827C259.939 127.388 259.55 126.901 259.257 126.365C258.575 125.342 258.186 124.173 257.845 123.004C257.504 121.835 257.26 120.666 256.919 119.497C256.627 118.328 256.237 117.207 255.75 116.087C255.506 115.551 255.263 115.015 254.971 114.479C254.678 113.943 254.386 113.456 254.045 112.92C253.704 112.433 253.363 111.946 252.973 111.459C252.632 110.972 252.194 110.533 251.804 110.095C253.412 111.02 255.068 111.702 256.724 112.287Z" fill="#494F66"/>
<path d="M288.729 107.659C288.729 107.659 289.314 107.611 290.191 107.659C290.386 107.659 290.629 107.708 290.873 107.757C291.116 107.757 291.36 107.854 291.604 107.903C291.847 108 292.091 108.049 292.334 108.195C292.432 108.244 292.578 108.293 292.675 108.39L293.016 108.634C293.26 108.78 293.406 108.975 293.65 109.121C293.844 109.316 293.991 109.511 294.137 109.705C294.283 109.949 294.429 110.144 294.526 110.339C294.624 110.534 294.721 110.777 294.819 110.972C294.916 111.167 295.014 111.362 295.062 111.508C295.111 111.654 295.16 111.8 295.208 111.946C295.306 112.19 295.355 112.336 295.355 112.336C295.355 112.336 295.355 112.19 295.355 111.946C295.306 111.703 295.355 111.313 295.208 110.875C295.16 110.68 295.111 110.436 295.014 110.192C294.916 109.949 294.77 109.705 294.673 109.462C294.526 109.218 294.332 108.975 294.137 108.731C293.893 108.536 293.698 108.293 293.455 108.098L293.065 107.854C292.919 107.757 292.773 107.708 292.627 107.659C292.334 107.513 292.042 107.465 291.75 107.416C291.457 107.367 291.165 107.318 290.922 107.367C290.678 107.367 290.434 107.367 290.191 107.416C289.217 107.367 288.729 107.659 288.729 107.659Z" fill="#494F66"/>
<path d="M341.584 166.166C340.61 164.412 339.44 162.317 339.733 160.271C340.025 158.225 342.899 152.38 344.02 151.503C345.14 150.626 346.699 150.041 347.186 148.531C347.722 147.07 348.16 144.098 349.963 144.878C353.616 146.436 352.057 150.723 350.011 153.597C349.963 154.718 349.963 155.741 349.914 156.813C350.937 156.813 351.424 157.056 352.593 156.959C353.762 156.861 355.906 156.325 357.124 156.131C358.341 155.936 363.797 155.643 365.21 155.302C366.623 154.961 367.548 155.156 368.815 154.231C370.081 153.305 374.076 149.408 378.314 151.746C379.288 152.282 378.899 152.915 378.996 153.597C379.922 154.182 381.627 154.62 381.87 155.887C382.114 157.154 379.824 158.225 378.996 158.81C379.24 159.443 380.311 159.735 380.019 160.661C379.727 161.586 375.05 163.876 374.173 164.899C373.297 165.922 369.497 171.524 367.889 171.914C366.282 172.304 359.949 173.424 358.293 173.911C356.636 174.447 355.224 175.275 352.934 175.567C350.645 175.86 347.478 175.373 345.432 173.473C343.386 171.573 342.217 168.894 341.584 166.166Z" fill="#F9C1A7"/>
<path d="M349.817 157.008C350.255 158.47 350.547 159.98 350.401 161.539C350.353 162.318 350.207 163.098 349.817 163.828C349.476 164.559 348.843 165.144 348.112 165.436C348.648 164.851 348.989 164.267 349.232 163.585C349.476 162.903 349.622 162.221 349.719 161.49C349.914 160.029 349.817 158.518 349.817 157.008Z" fill="#DC918B"/>
<path d="M373.979 165.045C373.735 164.461 373.589 164.071 373.248 163.828C372.956 163.584 372.468 163.438 371.981 163.438C371.007 163.438 369.935 163.828 369.156 164.315C368.328 164.899 367.548 165.679 366.964 166.507C366.33 167.335 365.843 168.261 365.648 169.332C365.502 168.796 365.551 168.212 365.746 167.676C365.892 167.14 366.184 166.604 366.477 166.166C367.11 165.24 367.889 164.412 368.815 163.73C369.302 163.389 369.838 163.146 370.374 162.999C370.91 162.853 371.494 162.756 372.079 162.756C372.663 162.756 373.296 162.805 373.832 163.292C374.076 163.535 374.271 163.828 374.319 164.169C374.222 164.51 374.173 164.802 373.979 165.045Z" fill="#DC918B"/>
<path d="M366.281 167.091C364.284 167.237 362.287 167.384 360.29 167.481" stroke="#DC918B" stroke-width="1.3957" stroke-miterlimit="10"/>
<path d="M378.996 158.81C378.217 158.42 377.388 158.323 376.56 158.274C375.732 158.226 374.904 158.226 374.076 158.372C373.248 158.469 372.517 158.761 371.835 159.151C371.153 159.541 370.52 160.077 369.984 160.71C369.838 160.856 369.74 161.002 369.643 161.197L369.302 161.733C369.253 161.83 369.156 161.928 369.01 162.025C368.912 162.123 368.717 162.22 368.62 162.269C368.376 162.366 368.181 162.366 367.987 162.464C367.158 162.658 366.33 162.902 365.502 163.097C363.846 163.535 362.19 163.974 360.533 164.315L360.387 163.73C362.043 163.292 363.651 162.805 365.307 162.317C366.135 162.074 366.964 161.879 367.792 161.635C367.987 161.587 368.23 161.538 368.376 161.489C368.474 161.441 368.474 161.441 368.522 161.392C368.571 161.343 368.62 161.294 368.669 161.197L369.01 160.661C369.156 160.466 369.302 160.271 369.448 160.125C370.033 159.443 370.763 158.859 371.543 158.42C372.322 157.982 373.199 157.641 374.076 157.592C374.953 157.495 375.829 157.446 376.706 157.592C377.486 157.787 378.411 158.128 378.996 158.81Z" fill="#DC918B"/>
<path d="M378.46 153.744C377.583 153.744 376.706 153.792 375.927 154.133C375.732 154.231 375.586 154.328 375.342 154.426C375.148 154.523 374.953 154.62 374.758 154.718L373.54 155.254C372.761 155.595 371.981 155.984 371.25 156.423C370.52 156.861 369.838 157.397 369.497 158.079L369.399 158.225L369.302 158.274C366.476 159.443 363.456 160.076 360.485 160.563L360.387 159.881C363.359 159.394 366.33 158.761 369.058 157.641L368.863 157.787C369.058 157.348 369.399 156.959 369.74 156.618C370.081 156.325 370.471 156.033 370.861 155.79C371.64 155.302 372.468 154.961 373.296 154.62C373.686 154.474 374.125 154.279 374.514 154.133L375.099 153.89C375.294 153.792 375.537 153.695 375.732 153.646C376.658 153.451 377.583 153.5 378.46 153.744Z" fill="#DC918B"/>
<path d="M360.095 158.275C360.29 159.249 360.436 160.223 360.533 161.197C360.631 162.172 360.728 163.146 360.728 164.169C360.777 166.166 360.533 168.212 359.705 170.015C359.851 169.04 359.949 168.066 359.997 167.092C360.046 166.118 360.046 165.143 360.046 164.169L359.997 161.246C359.997 160.272 359.997 159.298 360.095 158.275Z" fill="#DC918B"/>
</g>
</g>
<defs>
<linearGradient id="paint0_linear" x1="129.792" y1="75.8655" x2="134.559" y2="115.941" gradientUnits="userSpaceOnUse">
<stop stop-color="#CE7F67"/>
<stop offset="0.3346" stop-color="#CB7D66"/>
<stop offset="0.59" stop-color="#C17663"/>
<stop offset="0.8183" stop-color="#B16B5D"/>
<stop offset="1" stop-color="#9E5E57"/>
</linearGradient>
<linearGradient id="paint1_linear" x1="270.586" y1="66.2688" x2="263.956" y2="102.255" gradientUnits="userSpaceOnUse">
<stop stop-color="#F9C1A7"/>
<stop offset="0.2907" stop-color="#F4B8A2"/>
<stop offset="0.7644" stop-color="#E5A094"/>
<stop offset="1" stop-color="#DC918B"/>
</linearGradient>
</defs>
</svg>
