<svg width="106" height="136" viewBox="0 0 106 136" fill="none" xmlns="http://www.w3.org/2000/svg">
<path d="M2.97415 96.6241L10.8583 66.9649C14.3623 53.5744 28.1282 45.6903 41.5186 49.1943L71.1779 57.2036C84.5683 60.7076 92.5776 74.3484 88.9484 87.7388L81.0643 117.398C77.5603 130.789 63.7944 138.673 50.4039 135.169L20.7447 127.159C7.35421 123.655 -0.529892 109.889 2.97415 96.6241Z" fill="#EDEFF5"/>
<mask id="mask0" mask-type="alpha" maskUnits="userSpaceOnUse" x="2" y="48" width="88" height="88">
<path d="M2.97415 96.6241L10.8583 66.9649C14.3623 53.5744 28.1282 45.6903 41.5186 49.1943L71.1779 57.2036C84.5683 60.7076 92.5776 74.3484 88.9484 87.7388L81.0643 117.398C77.5603 130.789 63.7944 138.673 50.4039 135.169L20.7447 127.159C7.35421 123.655 -0.529892 109.889 2.97415 96.6241Z" fill="#EDEFF5"/>
</mask>
<g mask="url(#mask0)">
<path d="M87.3711 113.143C87.3711 113.143 86.1196 117.148 82.4905 116.522C77.4847 115.646 76.9841 110.265 76.9841 110.265C76.9841 110.265 77.4847 109.514 80.363 110.015C86.3699 111.016 87.3711 113.143 87.3711 113.143Z" fill="#31374C"/>
<path d="M88.3726 106.761C88.3726 106.761 81.865 123.03 79.237 127.785C77.8604 130.288 70.3518 127.285 70.4769 126.534C70.7272 124.657 80.4885 107.136 80.4885 107.136C81.3645 102.131 89.3737 101.63 88.3726 106.761Z" fill="#FAC2A8"/>
<path d="M76.8601 110.265L72.8555 120.152C72.8555 120.152 72.48 118.775 72.2297 118.65C71.9794 118.525 70.8531 118.775 70.8531 118.775C70.2274 117.148 67.224 111.892 65.7222 109.264C62.969 104.509 61.5925 103.758 59.0896 103.007C47.2008 109.389 66.5982 132.541 72.7303 133.918C80.8647 135.92 87.2471 113.269 87.2471 113.269C86.6213 114.645 79.8635 113.144 76.8601 110.265Z" fill="#D8DBED"/>
<path d="M72.3542 120.527C72.3542 120.527 71.1028 121.779 70.8525 122.529C70.3519 123.405 68.9753 120.777 72.3542 120.527Z" fill="#F7F7FA"/>
<path d="M67.2233 147.683L69.7261 176.091C69.8513 177.343 68.9753 178.594 67.7238 178.844C61.7169 180.096 44.447 182.849 24.2987 176.592L63.0935 112.893L67.2233 147.683Z" fill="#8698BF"/>
<path d="M81.9905 74.4738C81.9905 74.4738 79.9882 87.8643 84.4934 88.8654C84.4934 88.8654 81.3648 93.7461 75.9836 92.1192C75.9836 92.1192 77.235 93.9963 78.6116 94.1215C78.6116 94.1215 75.2327 96.9998 72.3544 96.1238C72.3544 96.1238 68.0995 99.5027 64.22 100.254C52.7067 102.756 39.4414 97.125 43.3209 91.8689C49.5781 82.9836 81.9905 74.4738 81.9905 74.4738Z" fill="#2B2E3A"/>
<path d="M21.545 92.9952C21.545 92.9952 30.0549 104.508 43.4453 99.2524C52.3306 95.7484 35.1858 83.6094 35.1858 83.6094C35.1858 83.6094 11.7838 89.2409 21.545 92.9952Z" fill="#2B2E3A"/>
<path d="M44.9475 97.0001C44.9475 97.0001 40.3172 95.8738 37.0634 99.1276L43.1955 103.633L44.9475 97.0001Z" fill="#BFC6F2"/>
<path d="M51.4554 94.6224L51.7056 101.505L56.7114 102.757L50.5793 109.139L38.8158 103.007L42.6952 100.88L42.1947 86.488L51.4554 94.6224Z" fill="#FAC2A8"/>
<path d="M51.5815 99.8785C51.5815 99.8785 45.1992 99.5031 42.446 96.8751L41.9454 81.4823L51.3313 93.1207L51.5815 99.8785Z" fill="#DC918B"/>
<path d="M42.6958 100.88C46.5753 101.756 51.2056 105.635 51.2056 105.635C51.2056 105.635 52.7074 102.381 52.3319 101.756C53.2079 102.006 57.0874 103.508 57.0874 103.508C57.0874 103.508 61.2172 112.643 61.8429 116.147C61.9681 117.649 60.9669 132.791 60.9669 132.791C60.9669 132.791 61.9681 139.299 64.4709 149.686C59.8406 154.441 38.8163 155.317 33.4351 149.811C35.3123 144.43 37.4397 136.671 37.5649 134.543C37.69 132.666 35.8129 119.151 33.8106 111.892C31.6831 106.761 36.0632 103.257 36.0632 103.257L42.6958 100.88Z" fill="#FFB75E"/>
<path d="M55.085 135.544C54.7394 135.544 54.4592 135.264 54.4592 134.919C54.4592 134.573 54.7394 134.293 55.085 134.293C55.4305 134.293 55.7107 134.573 55.7107 134.919C55.7107 135.264 55.4305 135.544 55.085 135.544Z" fill="#E88636"/>
<path d="M54.3325 120.652C53.987 120.652 53.7068 120.372 53.7068 120.026C53.7068 119.681 53.987 119.401 54.3325 119.401C54.6781 119.401 54.9583 119.681 54.9583 120.026C54.9583 120.372 54.6781 120.652 54.3325 120.652Z" fill="#E88636"/>
<path d="M51.0796 110.39C50.734 110.39 50.4539 110.11 50.4539 109.765C50.4539 109.419 50.734 109.139 51.0796 109.139C51.4252 109.139 51.7053 109.419 51.7053 109.765C51.7053 110.11 51.4252 110.39 51.0796 110.39Z" fill="#E88636"/>
<path d="M57.9629 153.065C58.2132 153.065 58.3384 152.814 58.3384 152.689C58.3384 152.439 56.3361 132.791 57.2121 122.404C57.9629 114.145 51.8309 105.76 51.5806 105.51C51.4554 105.385 51.2051 105.26 51.08 105.385C50.9549 105.51 50.8297 105.76 50.9549 105.885C50.9549 106.01 57.2121 114.27 56.4612 122.404C55.5852 132.666 57.5875 152.564 57.5875 152.689C57.5875 152.94 57.7127 153.065 57.9629 153.065Z" fill="#E88636"/>
<path d="M42.5691 98.7521C44.3211 99.8784 46.4486 101.255 49.3269 102.506L48.0755 108.138C44.6966 107.137 41.9434 104.258 39.5656 100.254L42.5691 97.2504V98.7521Z" fill="#FFD385"/>
<path d="M49.4521 102.506L51.2041 105.635L48.9515 104.509L49.4521 102.506Z" fill="#E88636"/>
<path d="M51.7055 102.256L51.205 105.635L53.2073 103.382L51.7055 102.256Z" fill="#E88636"/>
<path d="M52.8316 101.13C52.8316 101.13 57.7123 107.011 60.7157 114.395C63.8443 122.279 64.0946 139.924 67.3484 147.683C67.3484 147.683 66.2221 138.047 65.7215 128.411C65.3461 121.528 65.0958 118.9 64.8455 115.897C64.5952 111.391 58.338 102.631 58.338 102.631C58.338 102.631 56.7111 102.757 52.8316 101.13Z" fill="#F7F7FA"/>
<path d="M60.5906 114.27C58.7134 110.14 56.0854 105.26 52.5813 101.756L51.5802 101.38V99.0024C53.2071 99.3778 56.4608 101.005 57.9625 103.633C60.4654 108.138 60.5906 114.27 60.5906 114.27Z" fill="#E1E4F4"/>
<path d="M62.9681 119.025L64.595 118.9C63.4687 107.137 58.0875 98.5017 51.58 98.3765V100.003C56.2103 100.003 61.8418 106.761 62.9681 119.025Z" fill="#8698BF"/>
<path d="M63.1126 121.491C62.4379 120.206 62.8334 118.669 63.9961 118.058C65.1588 117.448 66.6484 117.995 67.3231 119.28C67.9979 120.565 67.6024 122.102 66.4397 122.712C65.277 123.323 63.7874 122.776 63.1126 121.491Z" fill="#57617F"/>
<path d="M60.5578 122.814C59.4332 120.672 59.7618 118.284 61.2916 117.481C62.8215 116.678 64.9734 117.763 66.098 119.905C67.2226 122.046 66.8941 124.434 65.3642 125.237C63.8343 126.041 61.6825 124.955 60.5578 122.814Z" fill="#8698BF"/>
<path d="M38.8154 98.1264C38.8154 98.1264 45.3229 115.647 46.1989 132.291C46.9498 146.057 48.0761 180.221 45.8235 181.723C41.3183 184.726 33.5593 182.724 29.0541 181.222C24.5489 179.721 21.6706 178.219 20.7946 174.465C20.0437 171.211 35.8119 142.302 30.5559 103.132C33.1839 101.255 35.8119 100.129 35.8119 100.129L38.8154 98.1264Z" fill="#F7F7FA"/>
<path d="M39.0666 98.5019L37.0643 99.1276C37.0643 99.1276 45.0736 122.029 45.8244 127.786C45.8244 127.786 49.8291 109.139 39.0666 98.5019Z" fill="#E1E4F4"/>
<path d="M44.6973 124.407L46.3242 124.031C45.1979 118.9 42.8202 113.269 40.943 108.764C39.4413 105.134 37.8144 101.255 38.0647 100.254C38.6904 97.2503 42.695 96.8749 42.8202 96.8749L42.695 95.248C42.4447 95.248 37.439 95.7486 36.563 99.8783C36.1875 101.38 37.3138 104.133 39.5664 109.389C41.1933 113.895 43.4459 119.401 44.6973 124.407Z" fill="#8698BF"/>
<path d="M52.832 134.293C51.5806 129.162 49.328 124.281 45.4485 124.281C41.8193 124.281 40.5679 129.162 40.0673 134.543" stroke="#8698BF" stroke-width="1.7154" stroke-miterlimit="10" stroke-linecap="round"/>
<path d="M40.0669 134.543C39.6915 138.047 39.6915 141.426 39.8167 143.428C39.8167 146.307 43.1956 145.806 43.1956 145.806" stroke="#E1E4F4" stroke-width="1.1436" stroke-miterlimit="10" stroke-linecap="round"/>
<path d="M51.0796 145.306C51.0796 145.306 54.2082 146.056 53.9579 141.802C53.8328 140.05 53.4573 137.171 52.7065 134.293" stroke="#E1E4F4" stroke-width="1.1436" stroke-miterlimit="10" stroke-linecap="round"/>
<path d="M30.8061 144.93C30.8061 144.93 34.0599 144.805 35.5616 143.679C37.0634 142.553 38.44 142.052 39.6914 143.679C40.9428 145.306 41.5686 145.431 41.6937 146.682C41.944 147.934 42.9452 149.686 41.6937 149.436C40.4423 149.185 40.0668 146.808 40.0668 146.808L38.5651 145.306C38.5651 145.306 39.6914 147.934 39.1908 149.06C38.6902 150.186 35.6868 151.563 34.8108 151.188C33.9348 150.812 33.8096 149.686 33.8096 149.686C33.8096 149.686 30.5559 151.938 26.9267 149.06L16.2894 129.663L25.2998 130.539L30.8061 144.93Z" fill="#FAC2A8"/>
<path d="M29.1796 104.133C31.3071 102.131 33.81 101.13 33.81 101.13C34.4357 100.754 41.6941 110.891 37.8146 115.897C36.8134 117.148 30.3059 126.284 28.1785 129.162C28.1785 129.162 28.4287 129.913 28.4287 130.163C28.4287 130.414 27.803 130.664 27.803 130.664L30.9316 143.929C28.1785 144.805 24.4241 148.059 24.4241 148.059C24.4241 148.059 16.1646 133.042 16.1646 127.41C16.0394 124.407 27.3024 105.885 29.1796 104.133Z" fill="#D8DBED"/>
<path d="M51.5809 99.3776L54.4592 101.505L55.9609 105.76L51.706 102.256V101.505L51.5809 99.3776Z" fill="#FFD385"/>
</g>
<path d="M18.4185 16.1564C18.4185 16.1564 -2.98117 24.2908 1.64917 52.8237C3.52634 64.0867 7.03038 71.5954 14.9145 81.1063C14.9145 81.1063 16.1659 84.3601 11.7859 86.6127C9.15784 87.9893 7.15552 85.8618 7.15552 85.8618C7.15552 85.8618 8.65726 98.8769 21.5471 92.9951L35.0627 83.7344L18.4185 16.1564Z" fill="#2B2E3A"/>
<path d="M80.1154 18.534C80.1154 18.534 88.1246 22.4135 92.2544 36.5548C96.3841 50.6961 92.5047 58.0796 87.3737 63.2106C82.2428 68.3415 81.6171 74.0981 81.6171 74.0981C81.6171 74.0981 81.3668 73.2221 82.2428 69.9684C82.2428 69.9684 84.2451 70.0935 83.1188 69.3426C79.4896 67.09 75.1096 29.4216 75.1096 29.4216L80.1154 18.534Z" fill="#2B2E3A"/>
<path d="M74.4838 23.5396C74.4838 23.5396 86.748 36.3044 86.6228 50.9463C86.4977 67.2151 82.3679 93.3702 63.8465 98.2509C55.8373 100.378 38.8176 92.3691 35.1885 83.7341C27.0541 65.0876 14.9151 45.0645 16.6671 40.5593C19.6705 32.6752 56.463 5.64397 74.4838 23.5396Z" fill="#FAC2A8"/>
<path d="M68.9778 79.3545L72.1064 81.2316C72.1064 81.2316 69.2281 87.3637 61.7195 86.4877C56.7137 85.9871 55.4622 80.2305 55.4622 80.2305V79.855C55.3371 79.3545 55.8377 78.8539 56.3382 78.8539L68.9778 79.3545Z" fill="#31374C"/>
<path d="M57.0894 82.8585C61.7197 83.2339 64.8483 83.6093 66.9758 85.4865C68.1021 86.3625 63.5969 86.3625 61.3443 86.3625C57.4648 85.8619 56.5888 82.8585 57.0894 82.8585Z" fill="#F97A7A"/>
<path d="M56.2131 78.7283L55.5874 79.4792C56.5885 80.6055 70.1041 81.9821 71.3556 80.4804L72.1064 81.1061C65.7241 76.3506 56.2131 78.7283 56.2131 78.7283Z" fill="white"/>
<path d="M56.7135 78.2279C56.0878 78.3531 55.5872 78.7285 55.3369 79.2291C55.2118 79.4794 55.0866 79.8548 55.2118 80.1051C55.2118 80.4805 55.3369 80.7308 55.3369 80.856C55.5872 81.8571 56.0878 82.7331 56.7135 83.6091C57.9649 85.3612 59.9672 86.3623 62.0947 86.6126C64.097 86.8629 66.2245 86.4875 68.1016 85.4863C69.8537 84.4852 71.3554 82.9834 72.3565 81.2314L72.4817 81.1063L72.3565 80.9811C71.3554 79.9799 70.1039 79.4794 68.8525 78.9788C67.6011 78.6034 66.2245 78.3531 64.973 78.1028C62.0947 77.8525 59.4667 77.8525 56.7135 78.2279ZM56.8386 78.8536C59.4667 78.3531 62.0947 78.3531 64.7227 78.7285C65.9742 78.8536 67.3508 79.1039 68.6022 79.6045C69.8537 79.9799 71.1051 80.6057 71.9811 81.4817V81.2314C71.1051 82.9834 69.6034 84.36 67.8513 85.236C66.0993 86.112 64.097 86.3623 62.2198 86.112C60.3427 85.8617 58.5907 84.9857 57.4644 83.484C56.8386 82.7331 56.4632 81.8571 56.0878 80.9811C55.9626 80.4805 55.8375 80.1051 55.9626 79.7297C56.0878 79.2291 56.4632 78.9788 56.8386 78.8536Z" fill="#DC918B"/>
<path d="M75.9859 57.2036C76.7367 56.703 77.7379 56.9533 78.2385 57.579C78.739 58.3299 78.6139 59.3311 77.863 59.8316C77.1122 60.3322 76.111 60.0819 75.6104 59.4562C75.1099 58.8305 75.235 57.7042 75.9859 57.2036Z" fill="#31374C"/>
<path d="M75.9859 57.8294C76.2362 57.7043 76.4865 57.7042 76.6116 57.9545C76.7368 58.2048 76.7368 58.4551 76.4865 58.5803C76.2362 58.7054 75.9859 58.7054 75.8608 58.4551C75.7356 58.2048 75.7356 57.9545 75.9859 57.8294Z" fill="white"/>
<path d="M56.4635 54.5758C57.2144 54.0752 58.3407 54.2004 58.8413 55.0764C59.3418 55.8272 59.2167 56.9536 58.3407 57.4541C57.5898 57.9547 56.4635 57.8296 55.9629 56.9535C55.4624 56.0775 55.7126 55.0764 56.4635 54.5758Z" fill="#31374C"/>
<path d="M56.3387 55.0763C56.589 54.9512 56.8393 54.9512 56.9644 55.2015C57.0896 55.4518 57.0896 55.7021 56.8393 55.8272C56.589 55.9524 56.3387 55.9524 56.2136 55.7021C56.0884 55.5769 56.2136 55.2015 56.3387 55.0763Z" fill="white"/>
<path d="M86.4978 47.5674C84.7458 48.6937 82.368 43.4377 77.2371 45.1897C76.7365 45.3148 76.3611 44.6891 76.7365 44.4388C78.9891 42.3114 82.9938 40.4342 86.4978 47.5674Z" fill="#2B2E3A"/>
<path opacity="0.3" d="M57.5901 61.9591C57.2147 63.2105 54.4615 63.586 51.5832 62.8351C48.5797 61.9591 46.4523 60.3322 46.8277 58.9556C47.2031 57.7042 49.9563 57.3287 52.8346 58.0796C55.8381 58.9556 57.9655 60.7076 57.5901 61.9591Z" fill="#F0808E"/>
<path opacity="0.3" d="M83.8698 62.4599C84.3703 63.7114 82.6183 65.4634 80.2406 66.3394C77.7377 67.2154 75.3599 66.84 74.9845 65.5885C74.4839 64.3371 76.2359 62.5851 78.6137 61.709C80.9914 60.833 83.3692 61.2085 83.8698 62.4599Z" fill="#F0808E"/>
<path d="M49.7058 44.0637C50.9573 45.4403 56.2133 40.5597 61.094 42.4368C61.5946 42.6871 61.97 42.0614 61.5946 41.686C59.4671 39.6836 53.4602 37.3059 49.7058 44.0637Z" fill="#2B2E3A"/>
<path d="M73.2322 71.8455C73.2322 71.8455 69.1024 78.2278 62.9703 71.0946C63.0955 71.2197 67.6007 73.3472 73.2322 71.8455Z" fill="#DC918B"/>
<path opacity="0.56" d="M72.2308 49.9453C72.2308 49.9453 68.977 57.5791 73.2319 71.8456C73.2319 71.8456 67.8507 73.4725 62.9701 71.0947C62.9701 71.0947 66.9747 60.4574 64.2215 54.4505C64.2215 54.4505 67.6004 50.6962 72.2308 49.9453Z" fill="url(#paint0_linear)"/>
<path d="M67.8511 24.541C67.8511 24.541 76.8615 40.1841 89.376 42.9373L89.0006 31.5491C89.0006 31.5491 93.5058 21.4124 81.9925 12.0266C62.9705 -3.74163 31.6844 -5.6188 18.4191 16.1563C8.28237 32.8006 7.15607 39.0578 7.15607 39.0578L18.7945 82.1075C18.7945 82.1075 34.0621 96.9997 43.9485 83.9846C43.9485 83.9846 35.3136 89.8664 30.4329 74.8491C25.5523 59.8318 28.9312 66.7147 28.9312 66.7147C28.9312 66.7147 31.1838 68.3416 38.6925 59.7066C46.2011 51.0716 44.8246 40.1841 44.8246 40.1841C44.8246 40.1841 65.974 38.4321 67.8511 24.541Z" fill="#2B2E3A"/>
<path d="M34.6873 71.3451C33.9364 62.4598 28.6803 58.2049 24.8008 59.8318C18.9191 62.2095 18.5436 83.2338 31.8089 81.6069C35.313 81.1063 35.1878 75.6 34.6873 71.3451Z" fill="#FAC2A8"/>
<path d="M23.4256 68.3415C23.5507 67.09 24.1764 65.9637 25.0524 65.0877C25.4279 64.7123 25.9285 64.3368 26.5542 64.3368C27.0548 64.3368 27.5553 64.462 28.0559 64.8374C28.9319 65.5883 29.4325 66.7146 29.8079 67.8409C30.0582 68.9672 30.3085 70.0935 30.5588 71.3449L31.3097 70.8444C30.5588 70.3438 29.8079 70.3438 29.1822 70.3438C28.4313 70.4689 27.8056 70.5941 27.1799 70.9695C26.5542 71.3449 26.0536 71.8455 25.6782 72.5964C25.3027 73.2221 25.3027 73.973 25.4279 74.7238C25.553 75.3496 25.8033 76.1004 26.3039 76.601C26.8045 77.1016 27.4302 77.477 28.1811 77.6022C28.8068 77.6022 29.4325 77.477 30.0582 77.2267C30.6839 76.9764 31.1845 76.4759 31.3097 75.8501C30.8091 77.1016 29.3074 77.477 28.0559 77.2267C26.8045 76.9764 26.0536 75.8501 26.0536 74.7238C25.9285 73.5975 26.429 72.4712 27.5553 71.8455C28.5565 71.3449 29.9331 71.0946 30.6839 71.7204C30.9342 71.8455 31.1845 71.8455 31.3097 71.5952C31.4348 71.4701 31.4348 71.3449 31.4348 71.2198C31.1845 69.9683 30.8091 68.7169 30.4337 67.5906C29.9331 66.4643 29.4325 65.2129 28.3062 64.3368C27.8056 63.9614 27.0548 63.7111 26.3039 63.8363C25.553 63.9614 25.0524 64.462 24.5519 64.8374C23.801 65.7134 23.3004 67.09 23.4256 68.3415Z" fill="#DC918B"/>
<path d="M30.8086 80.105C30.6835 80.8559 31.184 81.4816 31.9349 81.6067C32.6858 81.7319 33.3115 81.2313 33.4366 80.4804C33.5618 79.7296 33.0612 79.1038 32.3103 78.9787C31.5595 78.9787 30.9338 79.4793 30.8086 80.105Z" fill="#FFA84A"/>
<path d="M32.0599 86.7378C32.9359 86.7378 33.5616 85.9869 33.4364 85.1109L33.061 82.2326C33.061 81.732 32.6856 81.4817 32.185 81.4817H31.8096C31.4341 81.4817 31.0587 81.8571 30.9336 82.2326L30.5581 85.1109C30.433 85.9869 31.1838 86.7378 32.0599 86.7378Z" fill="#FFA84A"/>
<path d="M81.7423 106.761C81.2417 105.76 80.616 104.508 80.8663 103.382C81.1166 102.256 82.8686 98.8768 83.4944 98.3762C84.1201 97.8756 84.9961 97.6253 85.3715 96.7493C85.747 95.8733 85.9972 94.2464 86.9984 94.747C89.1259 95.7482 87.9995 98.1259 86.8733 99.7528C86.8733 100.379 86.7481 101.004 86.7481 101.63C87.3738 101.63 87.6241 101.755 88.2498 101.755C88.8756 101.755 90.127 101.38 90.8779 101.255C91.6287 101.129 94.7574 101.129 95.5082 101.004C96.3842 100.879 96.8848 101.004 97.6357 100.504C98.3865 100.003 100.764 97.8756 103.142 99.2522C103.643 99.6277 103.392 100.003 103.517 100.379C104.018 100.754 105.019 101.004 105.144 101.755C105.269 102.506 103.893 103.007 103.392 103.382C103.517 103.757 104.143 103.883 103.893 104.508C103.643 105.009 101.015 106.26 100.389 106.761C99.8883 107.261 97.5105 110.515 96.6345 110.64C95.7585 110.891 92.0042 111.266 91.1282 111.516C90.127 111.767 89.3761 112.267 87.9996 112.392C86.7481 112.518 84.8709 112.142 83.7446 111.016C82.6183 109.889 81.9926 108.263 81.7423 106.761Z" fill="#FAC2A8"/>
<path d="M86.6222 101.63C86.6222 102.381 86.6222 103.132 86.4971 103.758C86.372 104.383 85.9965 105.009 85.4959 105.51C85.8714 105.384 86.2468 105.134 86.372 104.884C86.6222 104.634 86.7474 104.258 86.8725 103.883C86.9977 103.007 86.8725 102.381 86.6222 101.63Z" fill="#DC918B"/>
<path d="M85.7463 112.017C85.1206 111.767 84.4949 111.516 83.8692 111.141C83.3686 110.766 82.9932 110.265 82.4926 109.639C82.6177 110.39 82.9932 111.016 83.6189 111.391C84.3697 111.767 85.1206 111.892 85.7463 112.017Z" fill="#DC918B"/>
<path d="M100.389 106.886C100.64 106.636 100.64 106.135 100.264 105.885C100.014 105.634 99.6384 105.509 99.263 105.509C98.6373 105.509 97.8864 105.634 97.3858 106.01C96.7601 106.385 96.3847 106.761 96.0092 107.261C95.6338 107.762 95.3835 108.388 95.5087 109.139C95.6338 108.513 96.0092 108.012 96.3847 107.512C96.7601 107.011 97.2607 106.636 97.7613 106.26C98.2618 106.01 98.8876 105.76 99.3881 105.885C99.6384 105.885 99.8887 106.01 100.139 106.135C100.139 106.26 100.264 106.51 100.389 106.886Z" fill="#DC918B"/>
<path d="M95.8843 107.887C94.758 107.887 93.6317 107.887 92.3802 108.012" stroke="#DC918B" stroke-width="0.3377" stroke-miterlimit="10"/>
<path d="M103.393 103.382C103.142 102.881 102.642 102.756 102.141 102.631C101.641 102.506 101.14 102.506 100.639 102.506C99.5131 102.631 98.5119 103.132 97.7611 103.882C97.6359 104.008 97.3856 104.383 97.2605 104.508C97.1354 104.633 97.1354 104.633 97.1354 104.633L96.7599 104.758L95.3833 105.134L92.505 105.885L92.6302 106.135L95.5085 105.509L97.0102 105.259C97.1354 105.259 97.2605 105.259 97.3856 105.134C97.5108 105.134 97.7611 104.884 97.7611 104.758C97.8862 104.508 98.0114 104.383 98.1365 104.133C98.7622 103.507 99.6382 103.006 100.514 102.881C101.015 102.881 101.515 102.881 101.891 102.881C102.517 103.132 103.017 103.132 103.393 103.382Z" fill="#DC918B"/>
<path d="M103.266 100.504C102.766 100.378 102.265 100.253 101.765 100.378L100.263 100.879C99.7623 101.004 99.2617 101.254 98.8863 101.505C98.3857 101.755 98.0103 102.13 97.6349 102.631L97.76 102.506C96.1331 103.132 94.3811 103.382 92.7542 103.632V104.008C94.5062 103.757 96.2583 103.507 97.8851 102.881V102.756C98.1354 102.381 98.5109 102.13 98.8863 101.88C99.2617 101.63 99.7623 101.38 100.263 101.254C100.763 101.129 101.264 100.879 101.639 100.629C102.14 100.504 102.766 100.378 103.266 100.504Z" fill="#DC918B"/>
<path d="M92.6291 102.631C92.504 103.757 92.504 104.884 92.504 106.01C92.504 107.136 92.3788 108.262 92.1285 109.389C92.6291 108.388 92.8794 107.136 92.8794 106.01C92.8794 104.884 92.7543 103.757 92.6291 102.631Z" fill="#DC918B"/>
<defs>
<linearGradient id="paint0_linear" x1="67.5149" y1="54.8837" x2="67.1219" y2="70.6602" gradientUnits="userSpaceOnUse">
<stop stop-color="#FAC2A8"/>
<stop offset="1" stop-color="#DC918B"/>
</linearGradient>
</defs>
</svg>
