<svg width="240" height="304" viewBox="0 0 240 304" fill="none" xmlns="http://www.w3.org/2000/svg">
<mask id="mask0" mask-type="alpha" maskUnits="userSpaceOnUse" x="0" y="0" width="240" height="304">
<rect width="240" height="304" fill="#C4C4C4"/>
</mask>
<g mask="url(#mask0)">
<path d="M26.122 165.09C26.122 165.09 23.6445 166.789 25.5714 170.369C27.4983 173.95 26.7643 174.455 26.7643 174.455L25.8467 173.858C25.8467 173.858 23.461 171.15 22.4058 171.609C21.4423 172.022 23.2775 173.858 25.1585 176.659C26.3972 178.541 31.6274 176.383 33.5543 175.695C36.9953 174.409 32.4991 163.713 32.4991 163.713L29.7005 160.591L26.122 165.09Z" fill="#CE7F67"/>
<path opacity="0.15" d="M27.4066 286.102C16.1663 286.837 9.9726 294.136 17.6344 297.441C23.5986 300.012 37.5917 302.124 48.1438 301.986C65.7613 301.711 72.1844 293.677 63.238 289.591C58.0537 287.204 52.0435 284.541 27.4066 286.102Z" fill="#001177"/>
<path d="M35.3436 247.724L43.8312 273.845L40.7573 281.879L44.8864 285.322L52.6858 277.334L52.1812 273.294L46.7216 247.724H35.3436Z" fill="#9E5E57"/>
<path d="M30.5263 287.617C31.1687 286.561 38.0046 280.961 38.1881 280.823C39.2433 280.18 40.9867 278.849 42.1337 279.446C42.776 279.767 43.3724 284.082 44.1524 284.404C49.0156 280.226 51.8142 275.819 52.1812 271.136C52.1812 271.136 54.8422 273.202 55.9891 276.37C56.2644 277.15 55.9891 278.527 55.2092 279.262C47.4098 286.699 49.1532 290.142 41.6749 290.968C34.1508 291.795 28.6453 290.693 30.5263 287.617Z" fill="#2B2E3A"/>
<path d="M47.6392 249.698L47.8686 280.318L41.1244 285.689L48.9697 291.795L56.7691 283.807L56.2644 279.767L59.0171 249.698H47.6392Z" fill="#CE7F67"/>
<path d="M56.2644 279.767C56.2644 279.767 58.1455 285.23 57.2279 288.489C56.9985 289.27 55.8515 290.004 54.888 290.326C46.8134 293.08 49.8414 294.687 42.3631 295.467C34.7472 296.294 31.5357 295.513 33.4167 292.437C34.059 291.381 40.895 285.781 41.0785 285.643C42.1337 285 43.8771 283.669 45.0241 284.266C45.6664 284.587 46.2628 288.902 47.0428 289.224C47.0886 289.224 57.4573 286.607 56.2644 279.767Z" fill="#2B2E3A"/>
<path d="M56.035 106.053C56.035 106.053 51.0801 102.793 43.2348 106.053L42.4548 109.955L56.9067 109.22L56.035 106.053Z" fill="#B92B36"/>
<path d="M71.6123 7.17115C71.6123 7.17115 67.719 -0.811013 50.3713 2.95298C33.0237 6.71696 24.3828 34.5337 21.4833 43.4048C18.5838 52.2759 2.34665 65.3675 4.72684 79.8832C8.6812 103.946 43.476 110.227 50.7117 107.508C57.9473 104.79 45.9818 79.9587 45.9818 79.9587C45.9818 79.9587 43.0162 54.6877 49.6497 31.7036C56.3157 8.77568 71.6123 7.17115 71.6123 7.17115Z" fill="#31374C"/>
<path d="M81.9917 94.6453L85.7165 76.49L45.9824 57.6211L29.3451 89.046C29.3451 89.046 51.123 118.027 66.3962 111.901C81.6693 105.775 81.9917 94.6453 81.9917 94.6453Z" fill="#2A2D39"/>
<path d="M44.8333 109.593C44.0183 109.09 43.3362 108.622 42.7752 108.234C43.7479 107.972 44.5196 107.751 44.5196 107.751L45.7743 93.496L57.8798 95.6465L55.9302 110.19C55.9302 110.19 55.9627 110.246 55.9832 110.347C53.2077 110.601 47.246 111.048 44.8333 109.593Z" fill="#9E5E57"/>
<path d="M39.2892 109.404C39.7939 109.175 41.0785 108.394 42.1337 107.798C42.776 108.073 43.5559 108.348 44.4735 108.578C47.1804 109.358 52.7776 107.384 55.4386 106.374C55.8974 107.109 58.5583 111.241 59.4759 111.7C63.1921 113.628 60.4394 116.933 60.4394 116.933L48.2815 124.324L32.178 115.923C32.2239 115.923 32.9579 112.572 39.2892 109.404Z" fill="#CE7F67"/>
<path d="M48.7011 14.1497C48.7011 14.1497 37.2034 21.4298 32.8351 36.8462C28.4668 52.2626 11.0931 88.3855 34.7005 102.03C41.0823 105.689 62.7883 104.804 75.9908 93.4653C92.7736 79.0465 104.202 55.541 103.833 50.357C103.145 41.0475 73.2519 1.05189 48.7011 14.1497Z" fill="#CE7F67"/>
<path d="M66.8024 58.4471C65.7333 57.828 64.3467 58.2169 63.76 59.3429C63.1409 60.4127 63.5291 61.8 64.6425 62.431C65.7115 63.0501 67.0981 62.6612 67.7291 61.5471C68.2715 60.4092 67.8833 59.0219 66.8024 58.4471Z" fill="#2A2D39"/>
<path d="M65.2234 59.0221C64.937 58.8503 64.523 58.977 64.3955 59.2755C64.2237 59.5622 64.3503 59.9763 64.6486 60.1038C64.935 60.2756 65.349 60.1488 65.4764 59.8503C65.6039 59.5518 65.5098 59.1939 65.2234 59.0221Z" fill="white"/>
<path d="M39.9478 48.5901C38.8787 47.9709 37.4921 48.3598 36.9054 49.4858C36.2863 50.5556 36.6745 51.9429 37.7878 52.5739C38.8569 53.1931 40.2435 52.8042 40.8745 51.69C41.4169 50.5521 41.0168 49.2092 39.9478 48.5901Z" fill="#2A2D39"/>
<path d="M38.3688 49.165C38.0823 48.9932 37.6684 49.1199 37.5409 49.4185C37.3691 49.7051 37.4956 50.1192 37.794 50.2467C38.0804 50.4185 38.4943 50.2918 38.6218 49.9933C38.7493 49.6947 38.6552 49.3368 38.3688 49.165Z" fill="white"/>
<path d="M36.0997 39.9069C36.0997 39.9069 41.8903 37.086 46.4811 40.6925C46.9092 41.0448 47.5187 40.5428 47.2268 40.0368C45.6613 37.1934 42.1902 33.8395 36.0997 39.9069Z" fill="#31374C"/>
<path opacity="0.2" d="M60.8192 66.0643C60.2617 67.4357 62.0205 69.3804 64.6849 70.427C67.3493 71.4736 69.9357 71.216 70.4931 69.8446C71.0506 68.4731 69.2918 66.5285 66.6274 65.4819C63.963 64.4352 61.3323 64.6809 60.8192 66.0643Z" fill="#EF3F54"/>
<path opacity="0.2" d="M29.6335 54.9991C29.1797 56.1608 30.6759 57.8449 32.9414 58.7846C35.2632 59.6919 37.5037 59.4843 37.9574 58.3226C38.4112 57.161 36.9269 55.4326 34.6495 54.5372C32.3721 53.6418 30.1315 53.8494 29.6335 54.9991Z" fill="#EF3F54"/>
<path d="M75.4745 55.6853C75.4745 55.6853 73.2144 48.521 66.498 47.5293C65.8538 47.4518 65.8137 46.538 66.4286 46.3701C70.1508 45.4188 75.7333 45.679 75.4745 55.6853Z" fill="#31374C"/>
<path d="M35.7465 67.283C35.7465 67.283 39.2073 73.866 46.1825 71.4101C46.1825 71.4101 40.6173 71.4397 35.7465 67.283Z" fill="#9E5E57"/>
<path opacity="0.56" d="M47.1122 46.137C47.1122 46.137 46.7807 55.1734 35.7465 67.2828C35.7465 67.2828 40.3958 71.3802 46.2387 71.3774C46.2387 71.3774 48.9766 59.5639 54.4653 54.8561C54.4653 54.8561 51.3138 49.0688 47.1122 46.137Z" fill="url(#paint0_linear)"/>
<path d="M52.1353 267.142C47.4557 270.494 41.7667 269.943 41.7667 269.943C41.7667 269.943 32.0404 242.903 30.4805 236.568C28.9665 230.325 25.7549 199.429 26.9937 185.06L44.6112 192.772L44.9323 202.642L44.29 231.656C48.6944 239.736 51.2177 263.011 52.0894 266.775" fill="#343948"/>
<path d="M26.9937 185.06C27.2689 182.076 27.4524 179.597 27.636 177.852C27.9571 174.18 30.8934 165.457 30.8934 165.457L40.6656 161.463L53.0987 161.785L61.9993 161.326L67.3671 169.864C67.3671 169.864 69.6151 179.643 69.661 183.269C69.7069 198.189 60.8982 225.78 60.944 232.023C62.1369 246.3 59.0171 257.456 57.6408 275.498C57.6408 275.498 52.3188 277.242 46.8592 275.819C46.8592 275.819 46.8592 275.819 46.6757 270.494L45.9416 229.865L44.7029 192.818L26.9937 185.06Z" fill="#474E64"/>
<path d="M30.4804 174.868L30.6181 171.93C30.6181 171.563 30.9392 171.334 31.2604 171.334L31.9486 171.379C32.3156 171.379 32.545 171.701 32.545 172.022L32.4074 174.96C32.4074 175.327 32.0862 175.557 31.7651 175.557L31.0769 175.511C30.7557 175.511 30.4804 175.19 30.4804 174.868Z" fill="#323847"/>
<path d="M63.4215 174.96L63.1921 172.022C63.1462 171.655 63.4215 171.379 63.7885 171.333L64.4767 171.287C64.8438 171.242 65.119 171.517 65.1649 171.884L65.3943 174.822C65.4402 175.19 65.1649 175.465 64.7979 175.511L64.1097 175.557C63.7427 175.603 63.4215 175.327 63.4215 174.96Z" fill="#323847"/>
<path d="M52.9611 175.557L53.0529 172.619C53.0529 172.252 53.374 171.976 53.6952 172.022L54.3834 172.068C54.7504 172.068 55.0257 172.389 54.9798 172.711L54.888 175.649C54.888 176.016 54.5669 176.291 54.2457 176.246H53.5575C53.2364 176.2 52.9611 175.878 52.9611 175.557Z" fill="#323847"/>
<path d="M35.6648 120.422C35.3436 115.785 34.6096 111.608 33.6002 111.929C32.1321 112.434 30.5722 113.123 29.517 114.087C25.6632 117.622 13.7806 140.667 13.1383 141.907C12.3583 143.422 12.2666 145.258 12.9547 146.819C15.1569 151.96 21.4423 159.26 26.0761 166.146L29.1041 162.29L30.2511 161.28C27.6819 157.148 25.9385 149.527 23.5069 144.248C23.5069 144.248 29.2876 135.204 34.7472 131.577C35.8024 130.981 35.9859 125.426 35.6648 120.422Z" fill="#CE7F67"/>
<path d="M33.2332 111.103C33.2332 111.103 29.8382 111.929 27.0854 115.602C25.7549 117.392 19.2401 129.19 19.2401 129.19C19.2401 129.19 24.8374 138.555 29.9758 139.795L38.1881 129.558C38.1881 129.604 39.8398 111.47 33.2332 111.103Z" fill="white"/>
<path d="M29.2876 169.819C33.6002 156.138 32.2697 145.304 30.4805 138.969C27.4983 128.364 32.7744 119.458 32.7744 119.458L33.2332 111.103C33.2332 111.103 35.1142 110.414 36.9953 109.726C38.9222 109.037 41.3537 108.394 41.3537 108.394C41.3537 108.394 43.6477 120.422 45.0241 120.376C45.8499 120.376 55.0715 108.027 55.0715 108.027C55.0715 108.027 58.3289 108.532 59.43 108.945C59.43 108.945 67.3212 111.883 68.8811 112.847C68.3764 112.618 69.5693 137.546 69.5693 137.546C61.6322 158.433 68.6517 162.887 68.0094 170.002C67.8259 172.573 28.7829 171.379 29.2876 169.819Z" fill="white"/>
<path d="M43.2348 113.995C40.6656 116.474 37.4999 119.458 37.4999 119.458C37.4999 119.458 38.0046 112.939 38.5093 109.771C38.8763 108.899 43.1889 106.053 43.1889 106.053C43.1889 106.053 43.2807 112.664 43.2348 113.995Z" fill="#EF3F54"/>
<path d="M42.4549 109.955L45.2994 118.356L53.9705 109.909L56.035 112.572L44.7029 123.865L41.6749 113.995L42.4549 109.955Z" fill="#EF3F54"/>
<path d="M56.035 106.053C56.035 106.053 53.4199 110.552 49.1073 114.73C49.7037 116.29 54.9339 120.468 54.9339 120.468L60.8064 108.853L56.035 106.053Z" fill="#EF3F54"/>
<path d="M73.9736 120.973C73.9736 114.27 68.927 112.847 68.927 112.847C67.1377 112.48 61.8157 112.067 60.577 119.228C59.8888 123.039 57.1361 129.19 56.2185 135.709C60.7146 137.499 66.8624 141.402 71.4962 140.897C72.5973 133.551 73.9736 126.252 73.9736 120.973Z" fill="white"/>
<path d="M58.4666 126.62C59.4759 126.895 60.3935 127.492 61.1735 128.18C61.5864 128.548 61.9534 128.915 62.2746 129.374C62.5957 129.787 62.871 130.292 63.1004 130.797C63.2839 131.302 63.4215 131.853 63.4215 132.45C63.4215 132.725 63.4215 133.001 63.4215 133.276V134.011C63.4215 135.021 63.3756 136.031 63.1921 137.04C62.8251 136.076 62.5957 135.066 62.4581 134.102L62.3663 133.368C62.3204 133.138 62.2287 132.909 62.1369 132.725C61.9534 132.312 61.7699 131.899 61.5864 131.486C61.2193 130.659 60.8064 129.879 60.2559 129.053C59.6595 128.226 59.1089 127.446 58.4666 126.62Z" fill="#BFC6F2"/>
<path d="M30.4805 138.923C30.2511 138.555 30.0675 138.188 29.8381 137.775L29.5629 137.178C29.4711 136.995 29.4252 136.765 29.3335 136.581C29.1958 136.168 29.0582 135.755 28.9206 135.342C28.8288 134.929 28.7371 134.47 28.6453 134.056C28.37 132.312 28.37 130.568 28.6453 128.823C28.9206 127.079 29.3794 125.426 30.0675 123.819C30.7557 122.258 31.5815 120.697 32.7285 119.412C31.4898 122.58 30.5722 125.793 30.1134 129.053C29.884 130.659 29.8381 132.312 29.884 133.919C29.9299 135.617 30.2511 137.224 30.4805 138.923Z" fill="#BFC6F2"/>
<path d="M108.441 14.9007C137.944 42.5295 108.141 75.227 107.663 94.2048C107.13 115.164 107.053 123.603 87.8613 125.209C63.5205 127.242 45.371 105.459 62.8223 94.9269C76.9905 86.3663 80.0807 74.1244 80.0807 74.1244C80.0807 74.1244 77.8094 64.3431 78.9263 53.6161C80.0432 42.8891 81.4253 21.7773 45.565 16.6361C45.565 16.6361 54.2868 1.10295 71.3615 0.307556C83.5357 -0.280041 100.773 7.71306 108.441 14.9007Z" fill="#31374C"/>
<path d="M32.777 77.6563C34.4687 78.9651 36.276 80.0196 38.1633 80.9531C40.0624 81.8422 41.9972 82.5982 43.9709 83.032C45.9769 83.522 48.01 83.7341 50.1025 83.7245C52.1949 83.7148 54.2582 83.4597 56.3571 83.0715C54.4496 83.9862 52.3032 84.5518 50.1513 84.7831C49.0813 84.8766 47.9788 84.9139 46.9002 84.8625C45.8334 84.7668 44.7342 84.6149 43.6587 84.3742C42.5951 84.0892 41.5435 83.7599 40.5598 83.3538C39.5319 82.9357 38.5721 82.4409 37.636 81.8574C35.7962 80.7466 34.084 79.3372 32.777 77.6563Z" fill="#9E5E57"/>
<path d="M53.7033 80.7443C54.3388 80.6769 54.9592 80.8432 55.4997 81.1306C56.0844 81.4299 56.5774 81.8946 56.878 82.5455C57.1904 83.152 57.29 83.8441 57.1679 84.4767C57.1291 84.799 57.0016 85.0975 56.9303 85.3636C56.8028 85.6621 56.6429 85.9044 56.483 86.1467C56.4656 85.8569 56.4602 85.5228 56.4871 85.2449L56.4611 84.8101C56.4525 84.6652 56.4881 84.5322 56.4232 84.4198C56.3767 83.8845 56.2177 83.4142 56.0144 82.932C55.7993 82.4941 55.4836 82.0768 55.0999 81.7364C54.7161 81.3959 54.2319 81.076 53.7033 80.7443Z" fill="#9E5E57"/>
<path d="M53.1905 129.328C53.0529 129.328 52.9611 129.374 52.8693 129.512L51.5847 131.164L51.126 129.466C51.0801 129.282 50.9883 129.236 50.8507 129.236C50.713 129.236 50.6213 129.282 50.5295 129.42L49.3826 131.624H49.979L50.7589 130.109L51.1718 131.669H51.6765L52.8235 130.154L52.7776 131.669H53.3281L53.374 129.558C53.4658 129.42 53.3281 129.328 53.1905 129.328Z" fill="#EF3F54"/>
<path d="M48.6944 129.604L48.1438 131.624H48.7403L49.2449 129.604H48.6944Z" fill="#EF3F54"/>
<path d="M46.6757 130.48H46.2628L46.4463 129.883H46.8592C47.0886 129.883 47.1804 129.975 47.1804 130.204C47.1345 130.388 46.951 130.48 46.6757 130.48ZM47.7309 130.158C47.7768 129.883 47.6392 129.562 47.0428 129.562L45.9417 129.516L45.3911 131.536H45.9417L46.1252 130.755H46.4004L46.8592 131.536H47.4557L46.9051 130.709C47.5015 130.663 47.6851 130.434 47.7309 130.158Z" fill="#EF3F54"/>
<path d="M54.888 131.027L55.3927 130.292L55.5762 131.027H54.888ZM55.7138 131.807H56.2644L55.8056 129.925C55.7597 129.695 55.6221 129.65 55.4845 129.65C55.3927 129.65 55.3009 129.695 55.2092 129.787L53.8328 131.715H54.3833L54.6586 131.302L55.668 131.348L55.7138 131.807Z" fill="#EF3F54"/>
<path d="M57.9619 131.486C57.5032 131.486 57.2738 131.21 57.3196 130.889C57.3655 130.43 57.7784 130.2 58.329 130.2C58.5125 130.2 58.696 130.2 58.8795 130.292L58.9713 129.879C58.8336 129.833 58.5584 129.787 58.3749 129.787C57.4114 129.741 56.7691 130.2 56.6773 130.843C56.5856 131.44 56.9985 131.853 57.8702 131.899C58.0537 131.899 58.1913 131.899 58.4207 131.853L58.5584 131.394C58.4207 131.486 58.2372 131.486 57.9619 131.486Z" fill="#EF3F54"/>
<path opacity="0.15" d="M101.776 289.454C101.776 289.454 101.776 289.454 114.76 290.693C119.577 289.545 125.22 288.949 128.34 288.627C141.37 287.204 185.368 289.683 197.159 297.304C208.904 304.878 175.183 304.006 148.848 303.914C129.717 303.868 126.505 304.787 120.954 301.527C118.155 302.078 108.153 302.078 104.667 302.17C80.8096 302.767 80.8555 304.878 64.4767 296.523C48.0521 288.122 88.4255 288.444 101.776 289.454Z" fill="#001177"/>
<path d="M76.497 263.057L79.7544 284.358H86.7738L90.3983 262.093L76.497 263.057Z" fill="#E09E7D"/>
<path d="M100.446 262.735L103.611 287.25L111.594 286.378L112.604 262.047L100.446 262.735Z" fill="#E09E7D"/>
<path d="M91.3618 254.885C94.3439 255.023 95.9038 254.747 95.9038 254.747L97.5096 266.592C104.713 268.244 108.842 267.28 115.311 265.995L114.531 258.787C114.164 252.085 113.475 246.851 112.833 236.155L112.604 233.125C98.3813 231.013 90.8112 232.39 77.6899 235.512L76.497 248.734C76.497 248.734 74.616 262.047 74.5242 266.637C81.1308 268.336 85.8104 268.198 91.2241 266.821L91.3618 254.885Z" fill="#49889E"/>
<path d="M88.609 235.742L88.4255 239.965L88.1961 239.736H92.004H92.2334V239.965L92.4628 250.57L91.7746 240.011L92.004 240.195H88.1961H87.9667V239.965L88.1502 235.696L88.609 235.742Z" fill="#035279"/>
<path d="M120.174 213.155C120.174 213.155 119.715 214.532 114.806 216.874C109.897 219.215 107.832 219.858 107.419 216.415C107.006 212.971 105.951 209.437 107.373 208.84C108.842 208.197 117.421 206.728 120.174 213.155Z" fill="#035279"/>
<path d="M123.844 231.931C124.578 232.482 125.633 233.079 126.322 233.584C127.927 234.64 129.579 235.558 129.946 235.788C131.368 236.752 131.506 242.444 130.726 243.5C130.405 243.913 127.652 244.831 127.652 244.831C127.652 244.831 126.643 246.117 125.954 246.254C125.266 246.392 124.716 246.254 124.716 246.254C124.716 246.254 123.018 246.943 122.697 246.805C122.376 246.668 121.963 246.346 121.963 246.346C121.963 246.346 119.486 245.933 119.348 245.474C119.256 245.153 119.256 243.729 119.256 242.811C119.256 242.306 119.531 241.847 119.99 241.572L119.669 240.883C119.669 240.883 118.063 240.608 117.605 238.083C117.421 236.843 118.155 234.502 119.669 232.758C121.137 231.105 122.697 231.059 123.844 231.931Z" fill="#E09E7D"/>
<path d="M120.449 238.726L119.715 240.837L120.036 241.572L120.862 243.316L123.339 243.73L126.046 241.251L124.991 239.139L120.449 238.726Z" fill="#E08B6E"/>
<path d="M120.128 241.71C120.128 241.71 119.715 243.133 120.174 244.28C120.633 245.428 121.183 246.163 121.183 246.163C121.458 246.254 121.963 246.3 122.468 246.392L120.403 241.664L120.128 241.71Z" fill="#BD7A66"/>
<path d="M125.037 246.3C125.037 246.3 122.926 247.081 122.514 246.851C122.101 246.622 120.678 244.785 120.128 243.592C120.587 242.444 121.963 242.811 121.963 242.811" fill="#E09E7D"/>
<path fill-rule="evenodd" clip-rule="evenodd" d="M121.596 236.476L121 238.771C121 238.771 123.248 239.231 123.752 239.69C124.257 240.149 124.991 241.159 125.679 241.618C126.367 242.077 130.68 242.903 127.836 239.46C126.734 238.083 124.073 234.64 124.073 234.64L121.596 236.476Z" fill="#E09E7D"/>
<path d="M119.44 238.037C120.128 238.358 120.724 238.542 121.412 238.726C121.734 238.817 122.101 238.863 122.422 238.955C122.789 239.047 123.156 239.093 123.523 239.231C123.89 239.368 124.257 239.598 124.532 239.873C124.807 240.149 125.037 240.424 125.266 240.7C125.725 241.205 126.276 241.572 126.918 241.71C127.239 241.755 127.514 241.755 127.835 241.71C127.973 241.664 128.111 241.618 128.294 241.572C128.386 241.526 128.478 241.48 128.478 241.388C128.524 241.251 128.478 240.929 128.294 240.654C128.157 240.378 127.927 240.103 127.744 239.781C127.331 239.231 126.872 238.68 126.367 238.175C126.138 237.899 125.909 237.624 125.679 237.348C125.496 237.027 125.22 236.752 125.175 236.338C125.45 236.614 125.725 236.798 126 237.027C126.276 237.257 126.551 237.486 126.826 237.762C127.331 238.267 127.835 238.817 128.294 239.414C128.524 239.69 128.753 240.011 128.937 240.378C129.028 240.562 129.12 240.746 129.166 240.975C129.212 241.205 129.258 241.434 129.12 241.71C129.028 241.985 128.753 242.169 128.57 242.26C128.386 242.352 128.203 242.398 127.973 242.444C127.56 242.536 127.147 242.536 126.734 242.444C125.954 242.26 125.266 241.755 124.762 241.205C124.486 240.929 124.303 240.654 124.073 240.424C123.844 240.195 123.569 240.011 123.293 239.873C123.018 239.736 122.651 239.736 122.33 239.644C121.963 239.598 121.596 239.506 121.229 239.414C120.862 239.277 120.495 239.139 120.174 238.955C119.898 238.68 119.623 238.404 119.44 238.037Z" fill="#BD7A66"/>
<path d="M82.4154 209.804L79.6626 219.582C79.6626 219.582 79.9838 227.57 73.3314 234.686C71.5421 236.568 65.5778 243.821 67.413 234.777C69.294 225.458 71.8173 218.113 71.8173 218.113L74.5242 206.361L82.4154 209.804Z" fill="#E09E7D"/>
<path d="M72.1385 230.784C72.1385 230.784 75.6253 238.404 71.4962 241.205C69.2022 242.765 68.3764 243.27 67.5506 244.235C67.0001 244.831 66.9083 245.612 66.7707 246.163C66.4495 247.356 65.8531 246.989 65.8531 246.989C65.3484 248.779 63.5591 246.713 64.4767 244.189C64.4767 244.189 64.0638 244.739 63.605 246.484C63.1921 248.228 61.4487 247.861 61.6322 246.484C61.6322 246.484 60.577 246.438 60.9441 244.694C61.3111 242.995 61.1276 241.526 62.5498 239.781C63.9721 238.037 67.5506 233.63 67.5506 233.63L72.1385 230.784Z" fill="#E09E7D"/>
<path d="M67.5047 235.604C67.3671 236.384 67.1836 237.165 67 237.899C66.7706 238.68 66.5413 239.414 66.1742 240.149C66.0825 240.332 65.9907 240.516 65.8531 240.7L65.6695 240.929C65.6237 240.975 65.5778 241.067 65.5319 241.159C65.3943 241.434 65.3025 241.801 65.3484 242.077C65.3943 242.352 65.5778 242.582 65.8072 242.536C66.0366 242.536 66.3577 242.398 66.5412 242.169C66.7706 241.939 66.9542 241.618 67.1836 241.25C67.413 240.929 67.6882 240.608 68.0094 240.332C68.6517 239.781 69.4316 239.414 70.1657 239.139L70.7162 238.955C70.8998 238.909 71.0374 238.817 71.2209 238.726C71.5421 238.542 71.8173 238.312 72.0467 238.037C72.5055 237.486 72.689 236.706 72.5055 235.925C72.8726 236.614 72.8267 237.578 72.4138 238.312C72.1844 238.68 71.8632 238.955 71.5421 239.231C71.2209 239.46 70.808 239.644 70.441 239.827C69.7528 240.103 69.0646 240.47 68.5599 240.975C68.2847 241.205 68.0553 241.48 67.8259 241.801C67.5965 242.077 67.413 242.444 67.0918 242.765C66.9542 242.949 66.7248 243.087 66.4954 243.179C66.4036 243.224 66.266 243.27 66.1283 243.316C65.9907 243.316 65.8531 243.362 65.7154 243.316C65.4402 243.316 65.1649 243.133 64.9814 242.949C64.7978 242.719 64.7061 242.49 64.6602 242.26C64.5685 241.755 64.7061 241.296 64.9355 240.929C64.9814 240.837 65.0731 240.745 65.119 240.654L65.3025 240.424C65.4402 240.286 65.5319 240.149 65.6237 239.965C66.0366 239.322 66.3119 238.588 66.633 237.899C66.9542 237.073 67.2294 236.338 67.5047 235.604Z" fill="#BD7A66"/>
<path d="M64.2015 241.755C64.0638 242.306 63.7886 242.719 63.6051 243.133C63.4215 243.5 63.4215 243.913 63.4215 244.418C63.4215 244.648 63.4215 244.923 63.4215 245.198C63.3757 245.474 63.3298 245.795 63.1463 246.025C62.9627 246.254 62.7333 246.438 62.4581 246.53C62.1828 246.622 61.9075 246.622 61.6781 246.576C62.1828 246.484 62.5957 246.208 62.7792 245.795C62.871 245.612 62.871 245.382 62.871 245.153L62.8251 244.418C62.7792 244.143 62.7792 243.913 62.8251 243.638C62.8251 243.362 62.9169 243.041 63.0545 242.765C63.2839 242.306 63.6968 241.985 64.2015 241.755Z" fill="#BD7A66"/>
<path d="M66.7707 243.5C66.5872 243.775 66.4954 244.051 66.4037 244.372C66.3119 244.648 66.3578 244.923 66.3578 245.198C66.3119 245.52 66.2201 245.841 66.1284 246.163C66.0366 246.484 65.9449 246.759 65.8072 247.081C65.8072 246.759 65.7614 246.438 65.7155 246.117C65.6696 245.795 65.6237 245.52 65.5779 245.198C65.6237 244.831 65.8072 244.464 65.9908 244.234C66.266 243.913 66.4954 243.684 66.7707 243.5Z" fill="#BD7A66"/>
<path d="M72.4597 212.926C72.4597 212.926 74.8454 212.971 78.4239 215.267C84.3882 219.077 85.2599 219.582 85.2599 219.582C85.2599 219.582 85.0305 213.476 86.4527 207.003C87.2327 203.331 88.8384 196.215 85.1681 196.077C85.1681 196.077 83.0577 193.323 81.3143 194.012C74.6618 196.445 74.2948 208.61 72.4597 212.926Z" fill="#FFB75E"/>
<path d="M100.308 190.339C100.308 190.339 92.9675 187.493 81.3601 194.012C78.9286 198.832 78.7909 206.177 78.5157 211.181C78.1027 218.618 79.4791 223.301 76.864 236.614C76.864 236.614 88.7008 236.292 93.6098 236.292C107.052 236.338 113.475 237.211 113.475 237.211C112.237 228.58 113.429 202.55 109.117 194.149C105.171 192.038 100.308 190.339 100.308 190.339Z" fill="#FFB75E"/>
<path d="M105.538 208.427L110.447 219.307C110.447 219.307 111.227 224.311 113.2 227.34C115.173 230.37 118.66 236.614 120.082 236.43C121.504 236.246 125.954 239.185 123.248 230.416C120.541 221.648 118.797 216.782 118.797 216.782L114.852 204.8L105.538 208.427Z" fill="#E09E7D"/>
<path d="M120.174 213.155C120.174 213.155 120.357 212.237 114.806 215.037C109.897 217.516 109.713 220.041 109.713 220.041C109.713 220.041 105.309 212.834 103.52 206.453C102.51 202.826 105.492 194.517 109.117 194.149C109.117 194.149 109.989 194.517 111.686 195.481C115.632 197.868 119.715 211.181 120.174 213.155Z" fill="#FFB75E"/>
<path d="M116.916 214.073L115.907 214.716C115.586 214.946 115.265 215.129 114.943 215.359C114.301 215.818 113.705 216.323 113.108 216.828C112.512 217.333 111.961 217.884 111.503 218.48C110.998 219.031 110.539 219.674 110.218 220.317L109.713 221.327L109.346 220.271C108.979 219.169 108.566 218.067 108.153 216.965C107.924 216.415 107.74 215.864 107.511 215.359C107.282 214.808 107.052 214.257 106.823 213.752C106.364 212.696 105.859 211.64 105.309 210.584C104.758 209.574 104.162 208.564 103.428 207.6C104.345 208.381 105.08 209.299 105.768 210.309C106.456 211.273 107.052 212.329 107.603 213.385C108.153 214.441 108.658 215.542 109.071 216.644C109.53 217.746 109.897 218.848 110.264 219.995L109.392 219.904C109.851 219.123 110.356 218.526 110.906 217.93C111.457 217.333 112.099 216.828 112.741 216.323C113.384 215.864 114.072 215.405 114.806 215.037C115.402 214.624 116.136 214.349 116.916 214.073Z" fill="#E88636"/>
<path d="M78.4239 215.267C78.2404 214.211 78.1486 213.201 78.1028 212.145C78.0569 211.089 78.0569 210.079 78.1028 209.023C78.1486 207.968 78.2404 206.958 78.4239 205.902C78.6074 204.846 78.791 203.836 79.158 202.826C79.2039 203.882 79.2039 204.938 79.2039 205.948C79.2039 207.004 79.158 208.013 79.1121 209.069C79.0662 210.125 78.9745 211.135 78.8827 212.191C78.791 213.201 78.6533 214.257 78.4239 215.267Z" fill="#E88636"/>
<path d="M106.59 194.777C106.178 197.807 101.434 199.636 96.0774 198.866C90.6642 198.128 87.3231 195.582 87.6337 192.572C87.8344 190.817 88.9465 189.554 89.7248 189.15C89.7248 189.15 91.9644 188.627 97.5252 189.692C101.988 190.596 106.702 193.856 106.59 194.777Z" fill="#E88636"/>
<path d="M98.0177 193.068C100.243 193.114 102.06 192.569 103.411 191.991L104.709 184.729C104.709 184.729 104.732 181.21 98.6412 179.998C92.5622 178.742 92.0159 182.258 92.4536 183.428L91.3142 190.115C93.0266 191.495 95.4144 193.014 98.0177 193.068Z" fill="#BD7A66"/>
<path d="M103.381 192.268L103.411 191.991C102.06 192.569 100.243 193.113 98.0177 193.068C95.4144 193.014 92.9824 191.482 91.3585 190.127L91.3217 190.26C89.1928 191.242 89.8722 195.146 95.116 195.98C104.582 197.555 104.705 193.159 103.381 192.268Z" fill="#E09E7D"/>
<path d="M105.584 287.204L110.585 286.469L110.768 286.378C112.099 285.781 112.833 284.404 112.65 282.98L112.879 281.282C112.971 280.639 112.695 280.272 112.053 280.318C109.117 281.97 105.814 282.613 102.969 281.098C102.464 281.144 102.097 281.603 102.189 282.108C102.235 282.613 102.556 283.118 102.74 283.715C103.153 284.909 102.235 284.633 102.464 285.459C102.556 285.689 102.877 285.964 103.336 286.24C103.611 288.168 105.584 287.204 105.584 287.204Z" fill="#F7F7FA"/>
<path d="M103.29 286.194C103.29 286.194 103.474 289.545 103.703 291.978C103.795 293.126 104.3 293.769 104.437 294.044C104.804 295.008 105.355 294.871 105.859 296.294C106.639 298.497 106.41 300.425 112.466 300.517C118.201 300.609 119.715 299.599 119.531 298.038C119.486 297.717 119.898 297.258 119.761 296.891C119.164 295.422 117.926 293.631 117.008 292.529C115.861 291.106 111.732 284.587 111.732 284.587C109.254 283.669 106.456 284.541 105.034 286.929C104.391 286.929 103.795 286.745 103.29 286.194Z" fill="#2B2E3A"/>
<path d="M111.273 298.727C106.548 298.956 106.226 295.33 105.492 293.815C104.988 292.805 104.162 292.208 103.703 291.978C103.795 293.126 103.933 294.09 104.024 294.366C104.391 295.33 105.125 294.917 105.63 296.386C106.41 298.589 106.135 300.839 112.145 300.93C117.88 301.022 120.22 299.599 120.036 297.992C119.99 297.671 119.898 297.304 119.715 296.891C118.568 298.13 115.127 298.543 111.273 298.727Z" fill="#F7F7FA"/>
<path d="M103.107 287.525C103.107 287.525 103.657 288.948 105.997 289.04C107.144 289.086 108.016 288.03 107.786 286.929L107.419 284.909C107.373 284.541 106.961 284.404 106.685 284.587C105.905 285.092 104.758 285.964 104.988 286.883L103.244 286.194L103.107 287.525Z" fill="#6677A3"/>
<path d="M110.998 286.378L110.539 284.863C110.402 284.404 110.86 283.944 111.319 284.128C111.686 284.312 112.145 284.633 112.65 285.23L113.613 287.388C112.604 287.938 111.319 287.433 110.998 286.378Z" fill="#6677A3"/>
<path d="M107.374 289.591C108.337 288.903 110.447 287.709 113.246 288.168C113.43 288.214 113.613 288.306 113.751 288.49L113.888 288.673C114.255 289.178 113.888 289.913 113.246 289.867C111.916 289.821 110.08 290.004 108.429 291.152C108.062 291.427 107.557 291.29 107.328 290.877L107.144 290.555C106.961 290.234 107.052 289.821 107.374 289.591Z" fill="#6677A3"/>
<path d="M108.842 292.346C109.805 291.657 111.916 290.463 114.714 290.922C114.898 290.968 115.081 291.06 115.219 291.244L115.356 291.427C115.723 291.932 115.356 292.667 114.714 292.621C113.384 292.575 111.548 292.759 109.897 293.906C109.53 294.182 109.025 294.044 108.796 293.631L108.612 293.31C108.429 292.988 108.52 292.575 108.842 292.346Z" fill="#6677A3"/>
<path d="M121.78 242.306C121.78 242.306 121.367 244.739 124.257 246.576L125.725 246.117L121.78 242.306Z" fill="#BD7A66"/>
<path d="M123.706 242.215C123.706 242.215 122.238 241.572 121.963 242.857C122.192 243.821 124.808 246.346 125.45 246.346C126.551 246.346 127.973 244.694 127.973 244.694L123.706 242.215Z" fill="#E09E7D"/>
<path d="M123.569 242.169C123.569 242.169 123.844 244.648 125.817 245.061C127.331 245.382 127.423 245.29 127.423 245.29C127.698 245.061 127.881 244.831 128.019 244.602L123.569 242.169Z" fill="#BD7A66"/>
<path d="M125.496 241.342C125.496 241.342 123.89 240.7 123.569 242.169C123.752 242.995 126.276 244.694 127.193 244.923C127.193 244.923 127.836 244.923 128.982 244.326L125.496 241.342Z" fill="#E09E7D"/>
<path d="M83.137 156.407C83.0028 158.609 82.2882 164.794 81.3407 166.151C80.3933 167.508 78.6248 167.018 77.2814 166.884C74.5625 166.559 72.579 162.722 72.8474 158.319C73.1157 153.915 75.4844 150.522 78.2032 150.847C80.8901 151.116 83.4177 151.959 83.137 156.407Z" fill="#E08B6E"/>
<path d="M122.33 171.701C122.33 171.701 120.587 180.653 111.686 180.102C111.686 180.102 118.706 171.792 118.568 166.054" fill="#2A2D39"/>
<path d="M85.5601 129.972C85.5601 129.972 74.1823 155.735 76.27 168.128C80.3346 192.454 113.119 197.158 127.192 175.239C134.164 168.12 131.747 160.352 131.747 160.352L133.423 138.331C133.423 138.331 106.743 112.12 85.5601 129.972Z" fill="#E09E7D"/>
<path d="M109.594 159.548C108.398 159.74 107.295 158.91 107.115 157.67C106.923 156.473 107.753 155.369 108.949 155.177C110.145 154.984 111.248 155.814 111.427 157.055C111.619 158.251 110.778 159.399 109.594 159.548Z" fill="#2B2E3A"/>
<path d="M108.36 157.3C108.014 157.347 107.741 157.129 107.694 156.782C107.647 156.436 107.866 156.163 108.212 156.116C108.558 156.069 108.831 156.287 108.878 156.634C108.893 156.924 108.662 157.241 108.36 157.3Z" fill="white"/>
<path d="M89.7526 154.525C88.5566 154.717 87.4536 153.887 87.2738 152.647C87.0817 151.45 87.9114 150.346 89.1074 150.154C90.3033 149.961 91.4064 150.791 91.5862 152.032C91.766 153.272 90.9363 154.376 89.7526 154.525Z" fill="#2B2E3A"/>
<path d="M88.5188 152.277C88.1725 152.324 87.8998 152.106 87.853 151.759C87.8062 151.413 88.0247 151.14 88.3709 151.093C88.7172 151.046 88.9899 151.264 89.0367 151.611C89.0958 151.913 88.8651 152.23 88.5188 152.277Z" fill="white"/>
<path d="M127.068 173.109C125.047 167.69 127.13 160.692 127.13 160.692C127.13 160.692 119.115 152.85 120.627 137.262C120.627 137.262 110.463 140.781 105.806 133.535C105.806 133.535 94.9107 137.804 88.8783 130.368C88.8783 130.368 81.8833 135.337 77.7521 152.818C77.7521 152.818 74.8272 147.053 75.793 142.367C74.5172 139.583 73.5751 135.94 74.6025 131.89C74.6025 131.89 69.5872 131.262 69.9746 123.509C69.9746 123.509 71.6047 128.105 78.159 126.444C78.159 126.444 76.2943 124.927 76.7525 122.243C76.7525 122.243 78.5614 125.508 80.9039 124.442C80.9039 124.442 86.4159 114.346 92.0417 112.428C97.6675 110.509 102.357 113 102.357 113C102.357 113 110.108 108.05 120.682 111.124C127.688 113.161 131.208 116.09 137.761 129.721C137.761 129.721 150.238 131.94 148.3 149.41C146.915 161.794 141.96 164.898 141.96 164.898C141.96 164.898 143.801 173.03 137.619 177.986C133.835 180.987 129.149 179.688 129.149 179.688" fill="#2A2D39"/>
<path opacity="0.5" d="M99.2781 163.787C99.2781 163.787 100.221 156.95 100.387 155.662C100.554 154.374 95.6017 152.144 94.5439 153.9C93.4861 155.655 90.9246 161.805 90.9246 161.805C90.9246 161.805 93.3721 165.341 99.2781 163.787Z" fill="url(#paint1_linear)"/>
<path d="M90.8926 161.748C92.82 166.475 96.2507 165.949 99.278 163.787C99.278 163.787 97.1094 163.71 95.0314 163.134C92.6317 162.516 90.8926 161.748 90.8926 161.748Z" fill="#BD7A66"/>
<path d="M110.532 148.089C110.532 148.089 115.135 148.316 116.48 152.738C117.748 155.377 118.044 151.219 117.653 149.538C117.249 147.902 114.566 144.014 110.141 145.551C108.93 146.311 109.8 147.981 110.532 148.089Z" fill="#2A2D39"/>
<path d="M93.894 144.049C93.894 144.049 90.143 142.295 86.7085 145.583C86.0579 146.212 86.023 144.964 86.2044 143.966C86.3415 142.956 87.1786 141.997 87.5616 141.817C87.9447 141.638 91.1808 139.581 93.871 141.899C94.8589 143.316 94.9454 144.721 93.894 144.049Z" fill="#2A2D39"/>
<path d="M122.661 170.458C120.21 174.495 119.445 179.142 122.096 181.258C124.791 183.387 129.931 182.191 132.339 178.143C134.79 174.106 134.594 169.145 131.899 167.016C129.261 164.856 125.113 166.422 122.661 170.458Z" fill="#E09E7D"/>
<path d="M130.923 175.178C131.281 174.229 131.575 173.167 131.467 172.184C131.412 171.693 131.213 171.209 130.877 170.878C130.552 170.502 130.135 170.291 129.648 170.156C128.72 169.899 127.765 170.253 126.937 170.834C126.53 171.102 126.186 171.483 125.842 171.864C125.543 172.257 125.288 172.663 125.165 173.106L124.728 172.794C125.268 172.562 125.811 172.665 126.241 172.832C126.671 172.999 127.064 173.298 127.4 173.63C127.737 173.961 127.992 174.413 128.091 174.917C128.202 175.376 128.099 175.919 127.888 176.337C127.554 177.198 126.79 177.891 125.948 178.182C125.062 178.46 124.141 178.348 123.337 177.982C124.177 178.215 125.079 178.227 125.833 177.911C126.586 177.596 127.193 176.955 127.458 176.171C127.767 175.399 127.553 174.625 127 174.043C126.74 173.78 126.379 173.537 126.037 173.395C125.696 173.253 125.273 173.231 125.047 173.359L124.438 173.666L124.61 173.047C124.782 172.428 125.049 171.978 125.405 171.552C125.761 171.127 126.149 170.758 126.625 170.414C127.089 170.114 127.585 169.87 128.145 169.739C128.705 169.609 129.285 169.579 129.847 169.782C130.366 169.974 130.904 170.266 131.26 170.698C131.616 171.13 131.791 171.703 131.833 172.238C131.875 172.774 131.772 173.317 131.625 173.848C131.382 174.209 131.19 174.728 130.923 175.178Z" fill="#BD7A66"/>
<path opacity="0.2" d="M88.6207 157.846C89.0701 156.937 88.1456 155.563 86.5558 154.776C84.9659 153.99 83.3128 154.09 82.8634 154.999C82.414 155.908 83.3386 157.282 84.9284 158.069C86.5182 158.855 88.1714 158.755 88.6207 157.846Z" fill="#EF3F54"/>
<path opacity="0.2" d="M111.031 164.432C112.951 164.575 114.569 163.871 114.645 162.859C114.72 161.848 113.225 160.913 111.304 160.77C109.384 160.627 107.766 161.331 107.691 162.342C107.615 163.354 109.111 164.289 111.031 164.432Z" fill="#EF3F54"/>
<path d="M108.661 129.42C107.951 129.747 107.165 130.006 106.404 130.176C105.643 130.346 104.817 130.403 104.017 130.372C103.228 130.296 102.364 130.152 101.585 129.698C101.224 129.455 100.863 129.212 100.583 128.848C100.303 128.485 100.123 128.102 99.9438 127.718L100.813 127.674C100.723 128.172 100.62 128.716 100.573 129.227C100.527 129.738 100.468 130.293 100.522 130.785C100.52 131.308 100.618 131.812 100.749 132.372C100.891 132.888 101.091 133.372 101.39 133.836C100.965 133.48 100.621 133.004 100.378 132.507C100.135 132.011 100.004 131.451 99.8738 130.891C99.7877 130.343 99.758 129.763 99.7725 129.195C99.787 128.628 99.8457 128.072 99.9609 127.485L100.277 126.001L100.83 127.44C101.081 128.081 101.501 128.626 102.115 128.987C102.685 129.336 103.393 129.532 104.125 129.639C105.512 129.786 107.074 129.647 108.661 129.42Z" fill="#57617F"/>
<path d="M90.3067 176.401C91.1697 178.784 93.5991 179.981 96.1234 178.775C98.7606 177.506 99.2232 173.775 97.8642 171.636C96.5052 169.497 93.0812 168.452 91.0117 170.594C89.2171 172.431 89.7535 174.961 90.3067 176.401Z" fill="#273238"/>
<path d="M91.0138 170.595C93.0833 168.453 96.053 169.419 97.402 171.079C97.6501 171.386 98.1268 171.9 98.1613 172.29C96.0198 172.459 93.8341 172.615 90.513 171.028C90.6995 170.698 90.6824 170.932 91.0138 170.595Z" fill="white"/>
<path d="M93.9585 175.937C96.11 176.247 96.6628 176.829 97.3951 177.794C97.1569 177.967 96.3492 178.648 96.0791 178.764C93.6678 179.905 91.3785 178.89 90.4099 176.716C91.2693 176.192 92.4504 175.709 93.9585 175.937Z" fill="#F97A7A"/>
<path d="M90.3067 176.401C91.1697 178.784 93.5991 179.981 96.1234 178.775C98.7606 177.506 99.2232 173.775 97.8642 171.636C96.5052 169.497 93.0812 168.452 91.0117 170.594C89.2171 172.431 89.7535 174.961 90.3067 176.401Z" stroke="#BD7A66" stroke-width="0.7275" stroke-miterlimit="10" stroke-linejoin="round"/>
<path d="M73.5607 261.863L91.9582 262.23L92.1876 267.877C88.4714 269.438 80.3967 269.071 73.0102 267.372L73.5607 261.863Z" fill="#7FB9C6"/>
<path d="M96.0414 262.552L115.815 262.322L116.045 267.969C113.751 269.759 106.869 270.035 96.5002 268.244L96.0414 262.552Z" fill="#7FB9C6"/>
<path d="M90.3983 238.955C90.9557 238.955 91.4076 238.503 91.4076 237.945C91.4076 237.387 90.9557 236.935 90.3983 236.935C89.8408 236.935 89.3889 237.387 89.3889 237.945C89.3889 238.503 89.8408 238.955 90.3983 238.955Z" fill="#035279"/>
<path d="M89.3889 286.791L82.2777 286.148L82.186 286.102C81.6354 285.827 81.3143 285.23 81.406 284.633L81.5895 283.256L80.5343 281.328C80.1673 280.685 80.672 279.859 81.4519 279.905L89.8477 280.364C90.5818 280.41 91.0406 281.098 90.8112 281.787C90.49 282.705 90.123 283.853 89.8936 284.541C89.5266 285.781 90.4441 285.459 90.2148 286.24C89.9395 287.066 89.3889 286.791 89.3889 286.791Z" fill="#F7F7FA"/>
<path d="M89.389 286.791C89.389 286.791 90.4442 292.254 90.4442 295.238C90.4442 295.972 90.0313 296.248 89.8477 296.569C88.976 298.038 84.7552 296.707 82.8283 297.074C80.9014 297.441 70.0281 298.91 67.1836 296.844C67.2753 296.248 66.7706 295.789 66.9083 295.375C67.6423 293.447 68.9728 293.31 70.0739 292.942C76.9558 290.647 80.0755 283.485 81.406 284.633C82.92 285.964 89.389 286.791 89.389 286.791Z" fill="#2B2E3A"/>
<path d="M77.2311 296.431C72.9643 297.12 68.6517 295.972 66.8624 295.376C66.7248 295.789 66.5871 296.294 66.4954 296.845C69.3399 298.91 80.7179 297.992 82.6448 297.625C84.5717 297.258 89.2972 298.314 90.1689 296.89C90.3524 296.615 90.3983 296.018 90.3983 295.238C85.8563 294.503 82.6907 295.559 77.2311 296.431Z" fill="#F7F7FA"/>
<path d="M77.9651 286.469L76.6346 287.938C76.4052 288.214 76.4511 288.627 76.7264 288.811L78.5616 290.142C79.5709 290.831 80.9472 290.601 81.6354 289.591C81.9107 289.178 81.7731 288.581 81.3602 288.306C80.5802 287.847 79.4791 287.158 78.7909 286.469C78.6074 286.194 78.1945 286.194 77.9651 286.469Z" fill="#6677A3"/>
<path d="M74.3866 289.683L73.3772 290.785C73.1478 291.06 73.1937 291.473 73.469 291.657L75.3041 292.988C76.3135 293.677 77.6898 293.447 78.378 292.438C78.6533 292.024 78.5157 291.428 78.1028 291.152C77.4604 290.785 76.5429 290.188 75.8547 289.591C75.4418 289.224 74.7995 289.27 74.3866 289.683Z" fill="#6677A3"/>
<path d="M79.158 286.01C79.158 286.01 83.8835 289.224 89.7101 288.811V287.204C89.7101 286.699 89.3431 286.286 88.8384 286.24C87.5538 286.148 84.9846 285.735 82.0483 284.358C81.4978 284.082 80.8096 284.22 80.3967 284.679L79.158 286.01Z" fill="#6677A3"/>
<path d="M139.718 227.249C136.139 217.47 142.975 209.528 144.673 191.074C145.269 184.325 147.793 181.892 150.545 179.459C157.29 176.383 161.006 189.559 165.594 194.058C166.741 207.738 166.557 214.946 165.915 227.983C162.658 230.6 167.016 232.574 160.272 232.62C153.298 232.666 141.461 232.023 139.718 227.249Z" fill="white"/>
<path d="M197.893 187.952C192.433 172.297 178.21 167.156 178.027 167.202C164.814 169.451 156.923 172.527 150.546 179.505C149.811 183.82 149.49 194.608 150.683 200.944C151.876 207.279 157.152 214.854 158.161 221.051C158.483 224.907 158.161 224.77 157.336 228.259C153.619 243.959 150.224 221.694 149.444 233.4C149.353 235.145 163.025 267.005 163.025 267.005L167.75 270.861C167.75 270.861 188.35 269.392 196.608 259.889C203.765 251.717 204.361 206.453 197.893 187.952Z" fill="#F0F2FA"/>
<path d="M150.546 179.505C150.316 181.158 150.224 182.81 150.133 184.463C150.041 186.116 150.041 187.768 150.041 189.421C150.087 192.726 150.178 196.078 150.637 199.337C151.188 202.596 151.83 205.856 152.427 209.115C153.023 212.375 153.573 215.68 153.986 218.985C153.344 215.726 152.702 212.467 152.06 209.207L151.096 204.295C150.775 202.642 150.408 201.036 150.178 199.383C149.949 197.73 149.811 196.078 149.766 194.379C149.674 192.726 149.674 191.028 149.72 189.375C149.811 186.116 149.949 182.764 150.546 179.505Z" fill="#BFC6F2"/>
<path d="M165.043 220.271L167.475 226.055L161.006 226.927L154.904 219.031L165.043 220.271Z" fill="#FFB75E"/>
<path d="M175.182 169.819C175.366 170.599 176.421 176.2 176.421 176.2L170.916 190.156L166.144 207.555L155.959 206.131L153.344 196.858L153.803 183.407L152.518 179L158.024 174.731L175.182 169.819Z" fill="#FFB75E"/>
<path d="M143.271 131.38C143.271 131.38 138.347 145.537 133.427 144.205C133.427 144.205 133.929 150.55 140.042 151.803C140.042 151.803 137.803 152.932 136.386 152.366C136.386 152.366 138.21 156.871 141.49 157.567C142.203 157.696 150.272 165.41 150.882 166.111C161.883 178.883 173.135 175.622 172.169 168.499C170.564 156.526 143.271 131.38 143.271 131.38Z" fill="#2B2E3A"/>
<path d="M233.064 106.844C233.064 106.844 249.843 125.972 230.506 151.551C222.901 161.623 215.505 167.204 202.807 172.343C202.807 172.343 199.858 174.863 202.956 179.333C204.866 182.053 207.926 180.954 207.926 180.954C207.926 180.954 199.709 193.099 190.092 180.665C190.092 180.665 173.566 182.191 168.283 173.019C163.085 163.788 181.683 164.496 181.683 164.496L233.064 106.844Z" fill="#2B2E3A"/>
<path d="M160.118 174.463C162.831 174.954 169.082 174.712 172.835 173.208C174.406 169.096 177.191 161.619 177.9 158.605L159.663 168.51L158.661 172.252L157.857 173.435C158.394 173.886 159.119 174.282 160.118 174.463Z" fill="#DC918B"/>
<path d="M160.118 174.463C159.119 174.282 158.354 173.864 157.839 173.372L155.862 176.791C155.862 176.791 156.157 179.884 156.847 181.203C162.237 179.287 171.768 175.921 171.768 175.921C171.768 175.921 172.221 174.808 172.839 173.105C169.104 174.672 162.831 174.954 160.118 174.463Z" fill="#FAC2A8"/>
<path d="M181.33 168.992L175.32 165.595C175.32 165.595 174.403 172.481 171.604 177.944C164.217 192.497 166.144 207.554 166.144 207.554L174.357 182.443C174.357 182.443 183.257 171.471 181.33 168.992Z" fill="#E1E4F4"/>
<path d="M158.207 183.636C158.765 183.636 159.217 183.184 159.217 182.627C159.217 182.069 158.765 181.617 158.207 181.617C157.65 181.617 157.198 182.069 157.198 182.627C157.198 183.184 157.65 183.636 158.207 183.636Z" fill="#E88636"/>
<path d="M155.5 194.425C156.058 194.425 156.51 193.973 156.51 193.415C156.51 192.857 156.058 192.405 155.5 192.405C154.943 192.405 154.491 192.857 154.491 193.415C154.491 193.973 154.943 194.425 155.5 194.425Z" fill="#E88636"/>
<path d="M156.189 205.856C156.746 205.856 157.198 205.404 157.198 204.846C157.198 204.288 156.746 203.836 156.189 203.836C155.631 203.836 155.179 204.288 155.179 204.846C155.179 205.404 155.631 205.856 156.189 205.856Z" fill="#E88636"/>
<path d="M162.612 178.633C162.612 178.633 155.73 193.644 159.584 206.085C164.401 221.786 167.888 252.911 167.888 252.911" stroke="#E88636" stroke-width="2.4448" stroke-miterlimit="10" stroke-linecap="round"/>
<path d="M159.675 169.038C157.611 169.589 150.178 178.082 149.077 190.385" stroke="#8698BF" stroke-width="3.7161" stroke-miterlimit="10"/>
<path d="M149.72 193.042C150.403 191.74 149.993 190.178 148.804 189.554C147.615 188.929 146.097 189.478 145.414 190.78C144.731 192.082 145.141 193.644 146.33 194.269C147.519 194.893 149.037 194.344 149.72 193.042Z" fill="#57617F"/>
<path d="M152.417 194.473C153.583 192.251 153.219 189.762 151.604 188.913C149.989 188.064 147.734 189.178 146.568 191.4C145.402 193.623 145.766 196.112 147.381 196.961C148.996 197.81 151.251 196.696 152.417 194.473Z" fill="#8698BF"/>
<path d="M173.485 163.345C173.485 163.345 178.578 164.034 179.312 167.798C180.55 174.134 170.549 185.611 168.163 195.94" stroke="#8698BF" stroke-width="3.7161" stroke-miterlimit="10" stroke-linecap="round"/>
<path d="M160.318 205.121C161.74 200.209 164.172 195.664 168.255 196.583C172.154 197.409 173.439 202.688 173.852 208.289" stroke="#8698BF" stroke-width="4.8757" stroke-miterlimit="10" stroke-linecap="round"/>
<path d="M173.852 208.289C174.173 211.87 174.081 215.405 173.99 217.425C173.898 220.363 170.365 219.031 170.365 219.031" stroke="#E1E4F4" stroke-width="3.2504" stroke-miterlimit="10" stroke-linecap="round"/>
<path d="M161.923 216.644C161.923 216.644 158.574 216.736 158.895 212.421C159.033 210.63 159.492 207.876 160.318 205.121" stroke="#E1E4F4" stroke-width="3.2504" stroke-miterlimit="10" stroke-linecap="round"/>
<path d="M161.327 216.047L161.465 217.195C161.511 217.516 161.74 217.838 162.107 217.93L163.208 218.297C163.667 218.435 164.08 218.159 164.034 217.654L163.805 216.047C163.759 215.634 163.3 215.267 162.887 215.313L161.923 215.405C161.511 215.405 161.281 215.68 161.327 216.047Z" fill="#E1E4F4"/>
<path d="M171.512 218.848L171.329 219.949C171.283 220.271 171.007 220.454 170.686 220.409L169.585 220.271C169.081 220.225 168.714 219.72 168.805 219.261L169.172 217.792C169.264 217.379 169.723 217.241 170.136 217.47L171.099 218.021C171.374 218.159 171.558 218.526 171.512 218.848Z" fill="#E1E4F4"/>
<path d="M172.98 165.503C170.732 167.753 168.347 170.415 164.309 173.216L168.117 181.341C172.889 178.679 176.146 173.307 178.669 166.467L172.659 162.841L172.98 165.503Z" fill="#FFD385"/>
<path d="M164.309 173.216L162.612 178.633L165.64 176.016L164.309 173.216Z" fill="#E88636"/>
<path d="M160.18 172.802L162.612 178.633L158.207 175.327L160.18 172.802Z" fill="#E88636"/>
<path d="M156.005 206.131C155.868 205.397 150.637 188.411 157.749 171.747C155.73 173.812 153.711 175.603 153.711 175.603C153.711 175.603 150.546 179.459 151.326 187.585C151.784 192.221 154.721 205.902 154.721 205.902L156.005 206.131Z" fill="#E1E4F4"/>
<path d="M181.927 271.504C181.927 271.504 195.644 268.015 197.25 269.116C198.856 270.218 200.049 284.174 200.324 288.994C200.645 293.815 195.002 299.048 188.166 298.681C180.734 298.268 175.274 298.865 175.641 296.707C176.008 294.549 177.66 291.473 179.495 289.867C181.33 288.26 186.652 290.464 184.679 286.653C182.707 282.843 181.422 282.154 181.422 282.154C181.422 282.154 180.871 273.065 181.927 271.504Z" fill="#2B2E3A"/>
<path d="M147.793 243.362L139.122 248.091C139.122 248.091 134.947 261.863 140.315 266.913C147.288 273.432 151.05 247.219 151.05 247.219L147.793 243.362Z" fill="#B6C7DA"/>
<path d="M177.247 257.318C177.247 257.318 175.137 263.837 171.925 269.53L168.163 254.61C168.117 254.656 174.861 257.226 177.247 257.318Z" fill="#6677A3"/>
<path d="M157.29 243.913C157.978 243.867 168.163 251.947 162.612 263.837C160.364 268.657 154.308 271.641 154.308 271.641C162.658 269.208 170.457 271.871 171.833 272.1C173.21 272.33 175.687 272.33 175.687 272.33C175.687 272.33 178.715 269.989 179.495 269.989C180.275 269.989 183.257 272.559 183.9 273.523C184.496 274.488 185.184 276.416 184.45 278.665C183.716 280.915 184.175 284.633 183.12 286.424C182.569 286.791 179.541 285.505 179.541 285.505C179.541 285.505 160.088 289.224 144.49 291.06C125.863 293.264 126.734 282.98 127.835 276.875C129.533 266.683 157.29 243.913 157.29 243.913Z" fill="#6677A3"/>
<path d="M145.866 277.793L149.169 275.773C150.27 275.084 151.325 274.396 152.381 273.707C153.436 272.973 154.445 272.238 155.455 271.458C156.418 270.631 157.382 269.805 158.253 268.841C157.611 269.943 156.739 270.953 155.822 271.871C154.904 272.789 153.849 273.569 152.794 274.304C151.738 275.039 150.591 275.681 149.444 276.278C148.252 276.829 147.059 277.38 145.866 277.793Z" fill="#57617F"/>
<path d="M175.825 284.771C175.825 284.771 179.266 298.314 177.935 299.37C176.605 300.425 170.778 300.517 166.649 299.507C162.52 298.497 158.391 299.737 152.656 299.416C146.921 299.094 140.865 297.809 141.783 296.064C142.7 294.32 145.774 290.509 147.747 289.637C149.72 288.765 155.088 289.729 158.62 288.49C162.199 287.204 167.016 281.512 167.016 281.512C167.016 281.512 174.815 283.532 175.825 284.771Z" fill="#2B2E3A"/>
<path d="M177.247 257.318C177.843 258.099 168.943 255.711 168.943 255.711C170.549 262.093 172.476 272.284 172.659 273.478C172.843 274.671 174.77 277.931 174.77 277.931C174.77 277.931 177.843 279.354 178.073 279.996C178.302 280.639 176.467 282.705 175.825 283.485C175.182 284.266 174.632 283.99 172.154 285.276C170.273 286.24 164.034 286.194 162.291 285.827C160.593 285 161.465 281.006 161.465 281.006C161.465 281.006 157.703 278.941 157.703 277.058C157.703 275.176 148.619 264.985 139.672 251.075C131.506 238.358 133.433 228.764 145.728 226.055C157.794 223.392 187.753 227.891 188.809 228.764C198.168 236.522 196.333 250.662 194.819 251.534C181.422 259.246 177.247 257.318 177.247 257.318Z" fill="#8698BF"/>
<path d="M162.382 244.143C163.3 244.786 164.126 245.612 164.86 246.438C165.594 247.31 166.236 248.229 166.787 249.239C167.337 250.249 167.842 251.258 168.163 252.36C168.53 253.416 168.759 254.564 168.851 255.666C168.438 254.61 168.117 253.554 167.658 252.544C167.245 251.534 166.741 250.524 166.19 249.56C165.64 248.596 165.043 247.678 164.401 246.76C163.805 245.887 163.162 245.015 162.382 244.143Z" fill="#6677A3"/>
<path d="M162.107 225.367C168.438 226.56 177.614 238.129 176.1 261.679L181.743 260.532L196.012 252.865L202.251 231.84L181.284 225.78L162.107 225.367Z" fill="white"/>
<path d="M190.965 232.298C189.038 231.426 187.111 230.692 185.138 229.957C183.165 229.223 181.193 228.58 179.174 227.983C177.155 227.386 175.137 226.881 173.118 226.422C171.053 226.009 169.035 225.688 166.924 225.458H166.787L166.741 225.366C166.007 223.897 165.318 222.474 164.722 220.959C164.126 219.444 163.529 217.929 163.254 216.277C163.116 215.45 163.07 214.67 162.979 213.844C162.887 213.017 162.841 212.237 162.795 211.411C162.749 209.804 162.703 208.151 162.933 206.544C162.979 207.371 163.025 208.151 163.07 208.977C163.116 209.804 163.208 210.584 163.3 211.365C163.483 212.971 163.667 214.578 163.896 216.139C164.172 217.7 164.722 219.215 165.273 220.73C165.869 222.245 166.465 223.714 167.154 225.183L166.97 225.045C169.081 225.275 171.145 225.596 173.21 226.055C175.274 226.514 177.293 227.065 179.266 227.708C183.257 228.993 187.157 230.508 190.965 232.298Z" fill="#BFC6F2"/>
<path d="M145.728 217.792C142.563 214.67 146.875 203.055 150.591 205.075C154.353 207.095 153.252 210.768 155.271 213.476C154.17 215.129 153.298 216.69 152.381 218.389" fill="#035279"/>
<path d="M143.021 208.932C143.939 208.059 144.994 207.004 145.178 205.718C145.361 204.433 145.499 202.367 144.673 201.173C143.939 200.163 142.792 197.684 142.746 196.674C142.7 195.71 143.159 193.231 141.92 193.415C139.443 193.69 139.397 197.73 140.131 199.842C139.948 200.531 139.764 201.127 139.626 201.816C138.984 201.632 138.663 201.678 137.975 201.403C137.287 201.127 136.094 200.439 135.406 200.117C134.717 199.796 131.46 198.648 130.68 198.189C129.854 197.73 129.304 197.684 128.707 196.904C128.111 196.123 126.367 193.094 123.431 193.736C122.743 193.874 122.881 194.333 122.697 194.7C122.009 194.884 120.954 194.838 120.541 195.573C120.174 196.307 121.367 197.317 121.734 197.868C121.458 198.189 120.77 198.189 120.77 198.786C120.816 199.383 123.202 201.586 123.569 202.367C123.936 203.147 125.771 206.912 126.505 207.692C127.423 208.61 130.451 210.079 131.552 210.63C132.515 211.135 138.938 213.063 140.498 212.329C142.058 211.594 142.196 210.493 143.021 208.932Z" fill="#FAC2A8"/>
<path d="M123.523 202.183C124.257 202.504 124.762 203.147 125.22 203.698C125.679 204.295 126.138 204.892 126.734 205.305C126.872 205.397 127.056 205.488 127.193 205.58L127.698 205.856L128.707 206.407L129.671 207.003C129.992 207.187 130.313 207.417 130.542 207.738C130.175 207.6 129.808 207.462 129.487 207.279L128.478 206.728L127.514 206.177L127.01 205.902C126.826 205.81 126.689 205.718 126.505 205.626C125.863 205.167 125.358 204.57 124.899 203.974C124.44 203.377 123.936 202.826 123.523 202.183Z" fill="#DC918B"/>
<path d="M121.78 197.914C122.651 198.465 123.385 199.199 124.119 199.934L126.322 202.091L126.872 202.596L127.01 202.734C127.056 202.78 127.056 202.78 127.147 202.826L127.468 203.01C127.927 203.239 128.386 203.469 128.845 203.698C129.304 203.928 129.762 204.203 130.221 204.479C130.68 204.754 131.093 205.075 131.368 205.534C130.818 205.397 130.405 205.121 129.992 204.846C129.579 204.57 129.12 204.341 128.661 204.157C128.203 203.928 127.744 203.744 127.285 203.469L126.918 203.285C126.872 203.239 126.78 203.193 126.734 203.147L126.597 203.01C126.413 202.826 126.23 202.642 126.046 202.459L123.89 200.255C123.11 199.475 122.376 198.786 121.78 197.914Z" fill="#DC918B"/>
<path d="M122.697 194.746C122.743 194.884 122.881 194.976 122.972 195.067L123.294 195.343C123.523 195.527 123.752 195.71 123.936 195.94C124.349 196.353 124.762 196.812 125.129 197.225C125.909 198.097 126.643 199.016 127.423 199.934L127.377 199.888C128.065 200.439 128.845 200.944 129.579 201.403C129.946 201.632 130.359 201.862 130.772 202.091C131.185 202.321 131.552 202.505 131.919 202.872C131.414 202.826 131.001 202.642 130.634 202.413C130.221 202.229 129.808 202 129.441 201.77C128.661 201.311 127.927 200.76 127.193 200.163C126.413 199.245 125.679 198.373 124.899 197.455C124.532 196.996 124.165 196.537 123.798 196.077C123.615 195.848 123.431 195.618 123.202 195.435C123.11 195.343 123.018 195.205 122.926 195.113C122.835 195.022 122.697 194.884 122.697 194.746Z" fill="#DC918B"/>
<path d="M151.784 207.233C151.601 207.279 143.618 205.443 143.618 205.443L138.938 212.375L149.353 214.716L151.784 207.233Z" fill="#FAC2A8"/>
<path d="M150.591 205.075C156.969 206.545 164.447 207.554 170.09 207.646C174.907 203.561 177.614 199.521 179.495 194.792C182.248 187.998 183.533 182.948 186.148 179.964C192.984 177.118 196.746 183.407 197.526 194.884C197.021 202.091 191.332 208.794 183.532 219.123C181.009 222.429 180.137 224.127 173.347 223.943C166.42 223.76 154.032 220.684 145.728 217.838C148.481 214.027 151.096 210.125 150.591 205.075Z" fill="white"/>
<path d="M197.526 194.884C197.571 196.307 197.342 197.776 196.929 199.153C196.516 200.531 195.92 201.862 195.232 203.147C193.855 205.672 192.249 208.059 190.552 210.401C188.854 212.742 187.111 214.991 185.368 217.287L182.753 220.73C182.294 221.281 181.835 221.878 181.284 222.383C180.734 222.888 180.046 223.301 179.358 223.576C178.99 223.714 178.623 223.806 178.302 223.943C177.935 224.035 177.568 224.127 177.201 224.173C176.834 224.219 176.467 224.265 176.1 224.311C175.733 224.357 175.366 224.357 174.999 224.357C173.531 224.403 172.109 224.311 170.686 224.173C167.796 223.852 164.997 223.347 162.199 222.75C159.4 222.153 156.602 221.419 153.849 220.638C151.096 219.858 148.343 219.031 145.636 218.067L145.774 217.654C151.234 219.399 156.739 220.914 162.336 222.061C165.135 222.658 167.934 223.163 170.778 223.438C172.2 223.576 173.623 223.622 174.999 223.622C175.366 223.622 175.687 223.622 176.054 223.576C176.421 223.576 176.742 223.53 177.109 223.438C177.476 223.393 177.798 223.301 178.119 223.255C178.44 223.163 178.761 223.071 179.082 222.933C179.725 222.658 180.275 222.337 180.78 221.878C181.284 221.419 181.743 220.868 182.156 220.317L184.771 216.92C186.515 214.624 188.258 212.375 189.956 210.079C193.305 205.351 196.47 200.531 197.526 194.884Z" fill="#BFC6F2"/>
<path d="M150.591 205.075C153.803 205.672 157.06 206.223 160.318 206.59C161.924 206.774 163.575 206.958 165.227 207.049C166.878 207.187 168.484 207.187 170.136 207.417L169.998 207.463C171.008 206.59 172.017 205.672 172.98 204.754C173.898 203.79 174.77 202.734 175.55 201.678C177.155 199.521 178.394 197.133 179.403 194.608C179.862 193.369 180.367 192.084 180.78 190.798C181.193 189.513 181.651 188.227 182.11 186.942C182.569 185.657 183.074 184.417 183.67 183.178C184.267 181.938 185.046 180.744 186.239 179.964C185.643 181.249 185.092 182.397 184.496 183.591C183.945 184.784 183.441 186.024 182.89 187.263C181.881 189.742 180.872 192.267 179.816 194.792C178.807 197.317 177.522 199.75 175.871 201.908C175.045 203.01 174.173 204.02 173.256 205.029C172.338 206.039 171.329 206.958 170.319 207.83L170.273 207.876H170.182C168.53 208.059 166.878 207.876 165.227 207.692C163.575 207.508 161.969 207.325 160.318 207.049C157.014 206.544 153.757 205.902 150.591 205.075Z" fill="#BFC6F2"/>
<path d="M170.09 207.646C170.778 207.876 171.512 208.151 172.109 208.564C172.751 208.978 173.347 209.483 173.76 210.125C174.173 210.768 174.448 211.502 174.586 212.237C174.77 212.972 174.861 213.706 174.907 214.441L174.265 212.329C174.036 211.64 173.76 210.952 173.393 210.355C172.659 209.161 171.375 208.427 170.09 207.646Z" fill="#BFC6F2"/>
<path d="M176.513 210.217C175.595 209.391 174.632 208.748 173.531 208.335C172.43 207.922 171.283 207.784 170.044 207.646C171.237 207.417 172.521 207.463 173.668 207.922C174.265 208.151 174.815 208.473 175.274 208.84C175.825 209.253 176.192 209.712 176.513 210.217Z" fill="#BFC6F2"/>
<path d="M161.419 225.596C162.153 223.025 155.225 219.95 155.225 219.95C155.225 219.95 144.673 214.119 141.324 215.634C137.975 217.149 140.131 228.075 140.131 228.075C141.92 230.83 150.27 232.299 156.28 234.227C156.326 234.227 159.675 231.84 161.419 225.596Z" fill="white"/>
<path d="M161.419 225.596C161.557 225.045 161.373 224.448 160.96 223.898C159.446 221.878 156.28 226.468 155.73 230.187C155.133 233.905 156.326 234.273 156.326 234.273C156.326 234.273 159.675 231.84 161.419 225.596Z" fill="#035279"/>
<path d="M158.253 224.586C156.647 225.963 155.455 228.305 155.684 231.243C155.73 231.794 157.84 231.84 157.886 232.299C157.978 234.135 160.868 235.65 161.419 236.063C161.235 237.394 159.905 238.175 159.125 239.093C158.345 240.011 159.63 240.746 160.272 241.067C160.914 241.388 160.868 241.251 160.272 241.388C159.675 241.526 158.941 242.261 159.4 242.903C159.905 243.546 160.409 243.684 161.098 243.776C160.547 244.189 160.18 244.326 160.776 245.061C161.373 245.796 162.015 246.163 163.116 245.933C164.263 245.704 166.328 245.336 167.383 245.015C168.438 244.694 168.576 244.602 169.264 243.776C169.952 242.949 170.916 241.434 171.787 240.608C172.522 241.434 173.072 241.664 173.256 242.582C173.577 244.464 172.063 244.831 171.971 246.484C171.925 247.31 172.109 248.504 172.797 248.137C173.76 247.678 175.825 244.418 176.238 243.684C176.651 242.949 176.788 242.169 176.467 241.342C176.008 240.103 175.412 238.129 174.494 237.303C173.577 236.476 172.934 236.155 171.742 234.961C170.549 233.722 166.924 229.774 165.686 228.58C164.493 227.432 159.4 224.403 158.253 224.586Z" fill="#FAC2A8"/>
<path d="M161.006 241.342C161.465 240.792 162.015 240.47 162.566 240.149C162.841 240.011 163.116 239.782 163.346 239.598C163.575 239.414 163.759 239.185 163.942 238.909C164.309 238.404 164.63 237.808 165.043 237.257C165.135 237.119 165.273 236.981 165.364 236.89C165.456 236.752 165.594 236.66 165.64 236.522C165.686 236.385 165.686 236.201 165.64 236.063C165.594 235.925 165.456 235.788 165.456 235.604C165.502 235.788 165.594 235.88 165.686 236.017C165.777 236.155 165.777 236.385 165.777 236.522C165.731 236.706 165.594 236.844 165.502 236.981C165.41 237.119 165.318 237.257 165.227 237.394C164.906 237.945 164.676 238.542 164.355 239.139C164.172 239.414 163.988 239.736 163.713 239.965C163.483 240.241 163.208 240.424 162.933 240.608C162.658 240.837 162.382 240.975 162.061 241.113C161.74 241.297 161.373 241.388 161.006 241.342Z" fill="#DC918B"/>
<path d="M162.428 244.051C163.254 243.73 164.172 243.546 164.997 243.225C165.41 243.041 165.777 242.857 166.053 242.628C166.328 242.352 166.603 242.031 166.833 241.664C167.062 241.297 167.291 240.929 167.521 240.562C167.75 240.195 168.025 239.782 168.255 239.414C168.53 239.047 168.759 238.726 168.805 238.313C168.851 238.129 168.805 237.899 168.714 237.716C168.622 237.532 168.53 237.257 168.576 237.027C168.622 237.257 168.759 237.44 168.897 237.624C169.035 237.808 169.126 238.083 169.126 238.313C169.172 238.818 168.943 239.322 168.714 239.69C168.484 240.103 168.255 240.47 168.071 240.883C167.842 241.297 167.612 241.664 167.383 242.077C167.108 242.444 166.833 242.812 166.42 243.133C166.007 243.454 165.548 243.638 165.089 243.776C164.217 243.959 163.346 243.959 162.428 244.051Z" fill="#DC918B"/>
<path d="M171.65 240.791C171.696 240.47 171.742 240.195 171.833 239.919L172.017 239.139C172.063 238.909 172.063 238.772 171.971 238.542C171.879 238.312 171.696 237.991 171.742 237.67C171.971 237.899 172.154 237.991 172.43 238.267C172.567 238.404 172.659 238.542 172.705 238.726C172.751 238.909 172.751 239.139 172.705 239.276C172.659 239.598 172.522 239.873 172.338 240.149C172.154 240.378 171.971 240.608 171.65 240.791Z" fill="#DC918B"/>
<path d="M171.377 77.2639C171.377 77.2639 161.432 76.8964 150.168 88.682C138.927 100.427 138.787 109.666 141.146 117.395C143.546 125.146 141.21 131.037 141.21 131.037L170.789 90.7588L171.377 77.2639Z" fill="#2B2E3A"/>
<path d="M174.33 85.0557C174.33 85.0557 155.661 91.1652 148.22 105.619C139.937 121.705 130.437 149.476 145.997 163.855C152.707 170.04 173.553 171.036 181.639 164.577C199.168 150.516 221.582 137.089 222.21 131.832C223.303 122.383 201.334 76.8098 174.33 85.0557Z" fill="#FAC2A8"/>
<path d="M155.337 117.365C154.877 116.485 153.76 116.136 152.921 116.618C152.041 117.079 151.691 118.195 152.151 119.075C152.611 119.955 153.727 120.304 154.607 119.844C155.469 119.321 155.796 118.244 155.337 117.365Z" fill="#31374C"/>
<path d="M153.73 116.956C153.595 116.725 153.291 116.611 153.06 116.747C152.829 116.882 152.715 117.186 152.85 117.417C152.985 117.648 153.289 117.762 153.52 117.626C153.751 117.491 153.865 117.187 153.73 116.956Z" fill="white"/>
<path d="M175.941 124.823C175.441 123.921 174.324 123.572 173.383 124.05C172.481 124.551 172.131 125.668 172.609 126.61C173.109 127.512 174.225 127.861 175.167 127.382C176.069 126.882 176.379 125.743 175.941 124.823Z" fill="#31374C"/>
<path d="M174.312 124.455C174.177 124.224 173.873 124.11 173.602 124.223C173.371 124.358 173.257 124.662 173.37 124.933C173.505 125.164 173.809 125.278 174.08 125.165C174.351 125.052 174.425 124.726 174.312 124.455Z" fill="white"/>
<path d="M150.17 102.343C151.324 104.439 156.443 100.438 160.449 104.777C160.844 105.202 161.496 104.774 161.31 104.254C160.133 101.15 157.199 97.241 150.17 102.343Z" fill="#2B2E3A"/>
<path opacity="0.3" d="M170.967 131.521C170.646 132.967 173.126 134.743 176.446 135.462C179.806 136.202 182.744 135.612 183.066 134.166C183.387 132.719 180.907 130.943 177.587 130.225C174.226 129.484 171.288 130.074 170.967 131.521Z" fill="#F0808E"/>
<path opacity="0.3" d="M145.011 118.359C143.926 119.388 144.632 121.92 146.605 124.047C148.579 126.174 151.072 127.067 152.176 126.101C153.261 125.073 152.555 122.541 150.582 120.414C148.59 118.225 146.097 117.331 145.011 118.359Z" fill="#F0808E"/>
<path d="M188.001 118.079C186.128 118.729 183.494 111.216 177.643 110.63C177.09 110.589 176.996 109.805 177.557 109.641C180.693 108.688 187.833 109.404 188.001 118.079Z" fill="#2B2E3A"/>
<path d="M150.435 133.103C150.435 133.103 151.252 141.453 160.838 137.699C160.838 137.699 155.177 137.531 150.435 133.103Z" fill="#DC918B"/>
<path opacity="0.56" d="M162.842 112.157C162.842 112.157 162.13 121.293 150.435 133.104C150.435 133.104 154.954 137.461 160.878 137.721C160.878 137.721 162.515 125.272 168.291 120.74C168.251 120.718 166.975 115.309 162.842 112.157Z" fill="url(#paint2_linear)"/>
<path d="M180.266 89.4041C180.266 89.4041 163.313 100.117 149.599 96.2205L155.906 85.1761C155.906 85.1761 156.755 72.9234 172.851 69.6974C199.77 64.2831 231.411 78.6198 233.126 106.826C234.392 128.4 232.311 135.164 232.311 135.164L198.616 171.305C198.616 171.305 175.917 178.087 172.917 160.064C172.917 160.064 178.362 170.372 190.857 158.056C203.352 145.741 196.546 150.912 196.546 150.912C196.546 150.912 193.553 151.315 190.645 139.047C187.737 126.779 194.785 116.768 194.785 116.768C194.785 116.768 174.934 104.018 180.266 89.4041Z" fill="#2B2E3A"/>
<path d="M188.596 152.632C194.001 144.286 201.262 142.87 204.251 146.39C208.772 151.796 198.24 172.565 186.053 164.062C182.83 161.827 185.74 156.511 188.596 152.632Z" fill="#FAC2A8"/>
<path d="M201.181 155.439C201.619 154.161 201.713 152.747 201.309 151.479C201.127 150.856 200.758 150.287 200.297 149.983C199.796 149.656 199.203 149.593 198.624 149.695C197.423 149.979 196.344 150.802 195.387 151.691C194.39 152.558 193.509 153.594 192.628 154.629L192.168 153.75C193.095 153.681 193.885 153.957 194.547 154.372C195.21 154.786 195.784 155.362 196.189 156.055C196.594 156.748 196.831 157.558 196.8 158.378C196.769 159.199 196.391 159.986 195.957 160.586C195.462 161.205 194.908 161.739 194.117 162.038C193.387 162.32 192.505 162.308 191.817 162.036C191.089 161.742 190.471 161.246 190.061 160.656C189.652 160.066 189.353 159.274 189.523 158.582C189.49 158.93 189.558 159.282 189.69 159.615C189.821 159.949 190.037 160.224 190.252 160.499C190.705 161.009 191.327 161.401 191.957 161.589C192.586 161.777 193.246 161.719 193.81 161.452C194.374 161.185 194.844 160.71 195.255 160.15C195.604 159.608 195.832 159 195.855 158.385C195.878 157.769 195.696 157.146 195.305 156.618C194.977 156.072 194.501 155.603 193.96 155.254C193.419 154.905 192.789 154.718 192.273 154.801C191.983 154.852 191.724 154.658 191.695 154.328C191.68 154.163 191.706 154.02 191.813 153.921C192.715 152.846 193.636 151.832 194.718 150.906C195.268 150.475 195.841 150.003 196.449 149.656C197.08 149.268 197.769 148.965 198.512 148.849C199.256 148.732 200.134 148.847 200.752 149.342C201.37 149.838 201.691 150.589 201.851 151.252C202.123 152.762 201.883 154.252 201.181 155.439Z" fill="#DC918B"/>
<path d="M187.768 163.221C187.514 163.972 186.678 164.352 185.928 164.098C185.178 163.845 184.798 163.009 185.075 162.218C185.329 161.467 186.164 161.087 186.955 161.363C187.643 161.635 188.022 162.471 187.768 163.221Z" fill="#FFA84A"/>
<path d="M183.177 169.029C182.372 168.589 182.125 167.511 182.646 166.75L184.493 164.045C184.776 163.624 185.314 163.5 185.757 163.743L186.159 163.963C186.562 164.183 186.729 164.641 186.589 165.088L185.489 168.149C185.125 169.101 184.062 169.514 183.177 169.029Z" fill="#FFA84A"/>
<path d="M150.338 142.262L146.042 142.37C146.042 142.37 145.542 150.26 153.691 153.622C159.151 155.878 163.635 150.744 163.635 150.744L163.892 150.466C164.321 149.968 164.143 149.243 163.58 148.934L150.338 142.262Z" fill="#31374C"/>
<path d="M160.57 152.521C155.605 150.221 152.183 148.924 148.894 149.583C147.26 149.892 151.892 152.323 154.266 153.623C158.511 155.423 161.053 152.785 160.57 152.521Z" fill="#F97A7A"/>
<path d="M163.792 148.737L163.973 149.935C162.288 150.53 147.694 144.321 147.182 142.104L146.002 142.348C155.295 140.945 163.792 148.737 163.792 148.737Z" fill="white"/>
<path d="M163.534 147.967C164.071 148.418 164.414 149.129 164.347 149.825C164.314 150.173 164.218 150.539 164.063 150.821C163.975 150.982 163.847 151.121 163.74 151.22L163.421 151.516C162.548 152.347 161.577 153.071 160.448 153.605C159.319 154.138 158.117 154.422 156.865 154.417C155.612 154.412 154.412 154.121 153.299 153.669C152.995 153.555 152.754 153.423 152.472 153.269L151.667 152.828L150.907 152.307L150.526 152.046C150.405 151.98 150.307 151.874 150.168 151.746L149.491 151.166L148.859 150.506C148.662 150.293 148.486 150.04 148.289 149.827C148.114 149.574 147.916 149.362 147.763 149.068C146.463 147.048 145.771 144.681 145.779 142.278L145.765 142.113L145.889 142.077C147.446 141.621 149.083 141.784 150.635 142.006C152.206 142.29 153.728 142.757 155.207 143.304C156.686 143.852 158.098 144.52 159.506 145.291C160.973 146.147 162.298 146.976 163.534 147.967ZM163.123 148.527C161.927 147.558 160.625 146.688 159.319 145.921C157.972 145.132 156.56 144.464 155.144 143.898C153.687 143.31 152.227 142.824 150.697 142.562C149.188 142.26 147.61 142.181 146.137 142.579L146.288 142.399C146.246 143.528 146.449 144.686 146.798 145.767C147.148 146.848 147.6 147.933 148.305 148.842C149.631 150.719 151.552 152.084 153.656 152.922C154.688 153.33 155.808 153.577 156.918 153.556C158.027 153.536 159.145 153.31 160.127 152.853C161.149 152.418 162.077 151.775 162.928 150.985L163.247 150.688C163.353 150.59 163.397 150.509 163.464 150.388C163.574 150.187 163.644 149.963 163.673 149.718C163.689 149.308 163.481 148.828 163.123 148.527Z" fill="#DC918B"/>
<path d="M153.482 168.533L150.408 172.665L148.986 179.413L154.124 172.802L153.895 170.002L153.482 168.533Z" fill="#FFD385"/>
<path d="M107.695 111.332C108.429 107.017 104.942 108.578 104.942 108.578C104.942 108.578 103.015 104.722 100.583 107.384C100.583 107.384 99.3447 103.436 96.6378 106.42C96.6378 106.42 95.1238 101.875 92.417 105.869C92.417 105.869 92.0499 106.742 92.0499 107.843C92.0499 109.817 92.0041 112.847 93.3345 113.49C94.665 114.087 95.445 112.572 95.812 110.919C95.7661 112.618 95.9496 114.592 96.9131 114.821C97.9224 115.051 98.84 113.995 99.4364 112.48C99.3906 113.536 99.4823 114.454 100.033 114.729C101.134 115.326 102.877 115.326 103.887 113.26C103.795 113.719 103.749 114.087 103.887 114.179C104.85 115.051 106.961 115.602 107.695 111.332Z" fill="#CE7F67"/>
<path d="M99.8494 111.286C100.079 110.414 100.538 108.532 100.492 107.66C100.492 107.66 99.5741 110.69 99.4365 112.434C99.62 112.067 99.7117 111.7 99.8494 111.286Z" fill="#9E5E57"/>
<path d="M96.0873 110.185C96.3167 109.312 96.6378 107.43 96.6378 106.558C96.6378 106.558 95.9496 109.175 95.8579 110.919C95.9496 110.506 95.9496 110.552 96.0873 110.185Z" fill="#9E5E57"/>
<path d="M104.988 108.807C104.988 108.807 104.116 112.388 103.933 113.352C104.162 112.755 105.125 110.322 104.988 108.807Z" fill="#9E5E57"/>
</g>
<defs>
<linearGradient id="paint0_linear" x1="49.0448" y1="52.3898" x2="41.9973" y2="68.1482" gradientUnits="userSpaceOnUse">
<stop stop-color="#CE7F67"/>
<stop offset="1" stop-color="#9E5E57"/>
</linearGradient>
<linearGradient id="paint1_linear" x1="96.6218" y1="156.827" x2="94.2201" y2="165.97" gradientUnits="userSpaceOnUse">
<stop stop-color="#E09E7D"/>
<stop offset="0.2935" stop-color="#D08E73"/>
<stop offset="0.6799" stop-color="#C27F69"/>
<stop offset="1" stop-color="#BD7A66"/>
</linearGradient>
<linearGradient id="paint2_linear" x1="164.217" y1="118.885" x2="156.416" y2="134.569" gradientUnits="userSpaceOnUse">
<stop stop-color="#FAC2A8"/>
<stop offset="1" stop-color="#DC918B"/>
</linearGradient>
</defs>
</svg>
