<svg width="247" height="352" viewBox="0 0 247 352" fill="none" xmlns="http://www.w3.org/2000/svg">
<path d="M33.8914 193.979C33.8914 193.979 31.0827 195.905 33.2672 199.964C35.4518 204.024 34.6196 204.597 34.6196 204.597L33.5793 203.92C33.5793 203.92 30.8746 200.849 29.6783 201.37C28.586 201.838 30.6666 203.92 32.7991 207.095C34.2035 209.229 40.133 206.782 42.3176 206.002C46.2186 204.545 41.1213 192.418 41.1213 192.418L37.9485 188.879L33.8914 193.979Z" fill="#CE7F67"/>
<path opacity="0.15" d="M35.3478 331.172C22.6046 332.005 15.5827 340.28 24.269 344.027C31.0307 346.942 46.8948 349.336 58.8579 349.18C78.8311 348.868 86.113 339.76 75.9703 335.128C70.0928 332.421 63.2791 329.403 35.3478 331.172Z" fill="#001177"/>
<path d="M44.3462 287.662L53.9687 317.276L50.4838 326.384L55.165 330.287L64.0073 321.231L63.4351 316.651L57.2455 287.662H44.3462Z" fill="#9E5E57"/>
<path d="M38.8847 332.89C39.6129 331.693 47.3629 325.343 47.5709 325.187C48.7672 324.458 50.7438 322.949 52.0441 323.625C52.7723 323.99 53.4485 328.882 54.3327 329.246C59.8461 324.51 63.0189 319.514 63.435 314.205C63.435 314.205 66.4518 316.547 67.7522 320.138C68.0642 321.023 67.7522 322.585 66.8679 323.417C58.0256 331.849 60.0021 335.752 51.524 336.689C42.9938 337.626 36.7521 336.377 38.8847 332.89Z" fill="#2B2E3A"/>
<path d="M58.2858 289.9L58.5459 324.614L50.8999 330.704L59.7942 337.626L68.6365 328.57L68.0643 323.99L71.1851 289.9H58.2858Z" fill="#CE7F67"/>
<path d="M68.0644 323.99C68.0644 323.99 70.197 330.183 69.1567 333.878C68.8966 334.763 67.5963 335.596 66.504 335.96C57.3496 339.083 60.7825 340.905 52.3043 341.789C43.6701 342.726 40.0292 341.841 42.1617 338.354C42.8899 337.157 50.6399 330.808 50.8479 330.652C52.0443 329.923 54.0208 328.414 55.3211 329.09C56.0493 329.455 56.7255 334.347 57.6097 334.711C57.6617 334.711 69.4167 331.745 68.0644 323.99Z" fill="#2B2E3A"/>
<path d="M67.8042 127.048C67.8042 127.048 62.1867 123.353 53.2924 127.048L52.4082 131.472L68.7924 130.639L67.8042 127.048Z" fill="#B92B36"/>
<path d="M53.9686 9.89296C53.9686 9.89296 47.3629 2.29426 29.4703 11.5064C11.5777 20.7185 10.2774 53.7156 9.7052 64.2809C9.13306 74.8462 -4.80655 93.9471 2.05923 109.144C13.4502 134.335 53.3965 131.004 60.5223 125.903C67.6482 120.803 47.2589 97.1218 47.2589 97.1218C47.2589 97.1218 36.5962 70.3182 37.1163 43.2023C37.6884 16.1385 53.9686 9.89296 53.9686 9.89296Z" fill="#31374C"/>
<path d="M91.0021 102.639L89.7538 81.6642L40.7051 72.6603L31.7068 111.955C31.7068 111.955 64.0591 137.301 78.987 126.111C93.9149 114.921 91.0021 102.639 91.0021 102.639Z" fill="#2A2D39"/>
<path d="M54.6969 129.911C53.6566 129.599 52.7724 129.286 52.0442 129.026C53.0324 128.454 53.8126 127.985 53.8126 127.985L51.0039 112.007L64.8915 110.81L67.024 127.308C67.024 127.308 67.0761 127.361 67.1281 127.465C64.1633 128.558 57.7657 130.796 54.6969 129.911Z" fill="#9E5E57"/>
<path d="M48.8194 130.848C49.3916 130.587 50.8479 129.703 52.0442 129.026C52.7724 129.338 53.6567 129.651 54.6969 129.911C57.7657 130.796 64.1114 128.558 67.1281 127.413C67.6483 128.245 70.6651 132.929 71.7053 133.45C75.9184 135.636 72.7976 139.383 72.7976 139.383L59.014 147.762L40.7573 138.238C40.8093 138.238 41.6416 134.439 48.8194 130.848Z" fill="#CE7F67"/>
<path d="M30.9267 24.2576C30.9267 24.2576 20.472 35.6036 20.2119 53.7676C19.9518 71.9316 11.5257 116.587 41.3814 124.602C49.4434 126.736 72.9535 119.397 84.0844 103.107C98.2321 82.3929 103.85 53.2992 101.925 47.7303C98.4401 37.7375 53.9686 2.71062 30.9267 24.2576Z" fill="#CE7F67"/>
<path d="M63.7473 67.4557C62.3949 67.0914 60.9905 67.9241 60.6785 69.3293C60.3144 70.6825 61.1466 72.0878 62.551 72.4521C63.9033 72.8164 65.3077 71.9837 65.6718 70.5784C65.9318 69.1732 65.0996 67.768 63.7473 67.4557Z" fill="#2A2D39"/>
<path d="M62.1866 68.5487C61.8225 68.4446 61.4064 68.7048 61.3544 69.0691C61.2504 69.4334 61.5105 69.8498 61.8745 69.9019C62.2386 70.0059 62.6547 69.7457 62.7068 69.3814C62.7588 69.0171 62.5507 68.6528 62.1866 68.5487Z" fill="white"/>
<path d="M31.4467 64.5411C30.0944 64.1768 28.69 65.0095 28.3779 66.4148C28.0138 67.768 28.8461 69.1732 30.2504 69.5375C31.6028 69.9018 33.0071 69.0691 33.3712 67.6639C33.6313 66.2586 32.7991 64.9054 31.4467 64.5411Z" fill="#2A2D39"/>
<path d="M29.8863 65.6341C29.5222 65.53 29.1061 65.7902 29.0541 66.1546C28.9501 66.5189 29.2102 66.9352 29.5743 66.9873C29.9383 67.0914 30.3545 66.8311 30.4065 66.4668C30.4585 66.1025 30.2504 65.7382 29.8863 65.6341Z" fill="white"/>
<path d="M24.6851 56.1617C24.6851 56.1617 30.1985 51.3735 36.2841 53.9758C36.8562 54.236 37.3763 53.5074 36.9082 53.039C34.3596 50.3846 29.5743 47.7303 24.6851 56.1617Z" fill="#31374C"/>
<path opacity="0.2" d="M59.4301 77.5526C59.222 79.2181 61.7187 80.8315 64.9435 81.1958C68.1683 81.5601 70.925 80.5192 71.1331 78.8537C71.3412 77.1883 68.8445 75.5748 65.6197 75.2105C62.3949 74.8462 59.5861 75.8871 59.4301 77.5526Z" fill="#EF3F54"/>
<path opacity="0.2" d="M22.0325 74.586C21.8764 75.9912 24.009 77.3965 26.7657 77.7608C29.5744 78.0731 31.967 77.1883 32.1231 75.783C32.2791 74.3778 30.1466 72.9205 27.3898 72.6083C24.6331 72.296 22.2405 73.1808 22.0325 74.586Z" fill="#EF3F54"/>
<path d="M72.4334 61.8868C72.4334 61.8868 67.8562 54.7044 60.2102 55.5892C59.4821 55.6933 59.17 54.7044 59.7941 54.3401C63.5911 52.2062 69.7807 50.853 72.4334 61.8868Z" fill="#31374C"/>
<path d="M32.3311 86.2442C32.3311 86.2442 38.0525 92.4377 44.9703 87.7015C44.9703 87.7015 38.8848 89.367 32.3311 86.2442Z" fill="#9E5E57"/>
<path opacity="0.56" d="M38.5727 59.7529C38.5727 59.7529 40.8613 69.7457 32.3311 86.2443C32.3311 86.2443 38.6247 89.367 45.0223 87.6495C45.0223 87.6495 44.5542 73.9094 49.1834 67.1434C49.1834 67.1434 44.0341 61.7307 38.5727 59.7529Z" fill="url(#paint0_linear)"/>
<path d="M63.3832 309.677C58.0778 313.476 51.6281 312.852 51.6281 312.852C51.6281 312.852 40.6013 282.197 38.8328 275.015C37.1164 267.936 33.4754 232.91 34.8798 216.619L54.853 225.363L55.2171 236.553L54.4889 269.446C59.4822 278.606 62.3429 304.993 63.3312 309.261" fill="#343948"/>
<path d="M34.8796 216.619C35.1917 213.236 35.3998 210.426 35.6078 208.448C35.9719 204.284 39.3008 194.396 39.3008 194.396L50.3796 189.868L64.4753 190.232L74.5659 189.711L80.6515 199.392C80.6515 199.392 83.2001 210.478 83.2521 214.589C83.3041 231.504 73.3176 262.784 73.3696 269.862C74.7219 286.048 71.185 298.695 69.6246 319.149C69.6246 319.149 63.5911 321.127 57.4015 319.514C57.4015 319.514 57.4015 319.514 57.1934 313.476L56.3612 267.416L54.9568 225.415L34.8796 216.619Z" fill="#474E64"/>
<path d="M38.8328 205.065L38.9888 201.734C38.9888 201.318 39.3529 201.057 39.717 201.057L40.4972 201.11C40.9133 201.11 41.1734 201.474 41.1734 201.838L41.0173 205.169C41.0173 205.585 40.6532 205.846 40.2891 205.846L39.5089 205.794C39.1448 205.794 38.8328 205.429 38.8328 205.065Z" fill="#323847"/>
<path d="M76.1783 205.169L75.9183 201.838C75.8663 201.422 76.1783 201.109 76.5944 201.057L77.3746 201.005C77.7908 200.953 78.1028 201.266 78.1548 201.682L78.4149 205.013C78.4669 205.429 78.1549 205.742 77.7387 205.794L76.9585 205.846C76.5424 205.898 76.1783 205.585 76.1783 205.169Z" fill="#323847"/>
<path d="M64.3193 205.846L64.4234 202.515C64.4234 202.098 64.7875 201.786 65.1516 201.838L65.9318 201.89C66.3479 201.89 66.6599 202.255 66.6079 202.619L66.5039 205.95C66.5039 206.366 66.1398 206.678 65.7757 206.626H64.9955C64.6314 206.574 64.3193 206.21 64.3193 205.846Z" fill="#323847"/>
<path d="M44.7102 143.339C44.3462 138.082 43.5139 133.346 42.3696 133.71C40.7052 134.283 38.9368 135.063 37.7404 136.156C33.3713 140.164 19.8998 166.291 19.1717 167.696C18.2874 169.414 18.1834 171.495 18.9636 173.265C21.4602 179.094 28.5861 187.369 33.8394 195.176L37.2723 190.804L38.5727 189.659C35.6599 184.975 33.6834 176.336 30.9267 170.35C30.9267 170.35 37.4804 160.097 43.67 155.986C44.8663 155.309 45.0743 149.012 44.7102 143.339Z" fill="#CE7F67"/>
<path d="M41.9535 132.773C41.9535 132.773 38.1045 133.71 34.9837 137.874C33.4753 139.904 26.0894 153.279 26.0894 153.279C26.0894 153.279 32.435 163.897 38.2605 165.302L47.5709 153.696C47.5709 153.748 49.4434 133.19 41.9535 132.773Z" fill="white"/>
<path d="M37.4804 199.34C42.3696 183.83 40.8612 171.547 38.8327 164.365C35.4518 152.343 41.4334 142.246 41.4334 142.246L41.9535 132.773C41.9535 132.773 44.0861 131.993 46.2186 131.212C48.4032 130.431 51.1599 129.703 51.1599 129.703C51.1599 129.703 53.7606 143.339 55.321 143.287C56.2572 143.287 66.7119 129.286 66.7119 129.286C66.7119 129.286 70.4049 129.859 71.6532 130.327C71.6532 130.327 80.5995 133.658 82.3679 134.751C81.7958 134.491 83.1481 162.752 83.1481 162.752C74.1498 186.433 82.1079 191.481 81.3797 199.548C81.1716 202.463 36.9082 201.11 37.4804 199.34Z" fill="white"/>
<path d="M53.2925 136.052C50.3797 138.863 46.7908 142.246 46.7908 142.246C46.7908 142.246 47.3629 134.855 47.9351 131.264C48.3512 130.275 53.2404 127.048 53.2404 127.048C53.2404 127.048 53.3445 134.543 53.2925 136.052Z" fill="#EF3F54"/>
<path d="M52.4082 131.472L55.633 140.997L65.4635 131.42L67.8041 134.439L54.9568 147.242L51.5239 136.052L52.4082 131.472Z" fill="#EF3F54"/>
<path d="M67.8042 127.048C67.8042 127.048 64.8395 132.149 59.9502 136.885C60.6264 138.654 66.5559 143.391 66.5559 143.391L73.2136 130.223L67.8042 127.048Z" fill="#EF3F54"/>
<path d="M88.1414 143.963C88.1414 136.364 82.4199 134.751 82.4199 134.751C80.3914 134.335 74.3578 133.866 72.9535 141.985C72.1733 146.305 69.0525 153.279 68.0122 160.67C73.1095 162.7 80.0793 167.124 85.3327 166.551C86.581 158.224 88.1414 149.948 88.1414 143.963Z" fill="white"/>
<path d="M70.561 150.365C71.7053 150.677 72.7456 151.354 73.6298 152.134C74.0979 152.551 74.5141 152.967 74.8781 153.488C75.2422 153.956 75.5543 154.528 75.8144 155.101C76.0224 155.673 76.1785 156.298 76.1785 156.975C76.1785 157.287 76.1785 157.599 76.1785 157.911V158.744C76.1785 159.889 76.1265 161.034 75.9184 162.179C75.5023 161.086 75.2422 159.941 75.0862 158.848L74.9822 158.015C74.9302 157.755 74.8261 157.495 74.7221 157.287C74.5141 156.818 74.306 156.35 74.0979 155.882C73.6818 154.945 73.2137 154.06 72.5896 153.123C71.9134 152.186 71.2892 151.302 70.561 150.365Z" fill="#BFC6F2"/>
<path d="M38.8327 164.313C38.5726 163.897 38.3645 163.48 38.1045 163.012L37.7924 162.335C37.6884 162.127 37.6364 161.867 37.5323 161.659C37.3763 161.19 37.2202 160.722 37.0642 160.253C36.9602 159.785 36.8562 159.265 36.7521 158.796C36.44 156.818 36.44 154.841 36.7521 152.863C37.0642 150.885 37.5843 149.012 38.3645 147.19C39.1447 145.42 40.081 143.651 41.3813 142.194C39.977 145.785 38.9367 149.428 38.4166 153.123C38.1565 154.945 38.1045 156.818 38.1565 158.64C38.2085 160.566 38.5726 162.387 38.8327 164.313Z" fill="#BFC6F2"/>
<path d="M96.5676 7.55088C136.982 29.1499 113.94 73.7012 118.985 94.6236C124.551 117.732 126.943 126.996 106.398 134.387C80.3394 143.755 54.0726 125.227 70.0927 108.572C83.0961 95.04 82.888 80.7274 82.888 80.7274C82.888 80.7274 77.5307 70.6825 75.6062 58.6079C73.6817 46.5332 69.0005 23.0085 28.2219 27.9008C28.2219 27.9008 33.2152 8.33157 51.68 2.45038C64.8394 -1.76533 86.0609 1.92992 96.5676 7.55088Z" fill="#31374C"/>
<path d="M32.123 98.475C34.3596 99.4118 36.6482 100.036 38.9888 100.505C41.3294 100.921 43.67 101.181 45.9586 101.077C48.2992 101.025 50.5878 100.661 52.8764 100.036C55.165 99.4118 57.3496 98.5271 59.5341 97.4861C57.7137 99.0475 55.5291 100.297 53.2405 101.181C52.0962 101.598 50.8999 101.962 49.7036 102.222C48.5073 102.431 47.259 102.587 46.0106 102.639C44.7623 102.639 43.514 102.587 42.3177 102.431C41.0694 102.274 39.873 102.014 38.6767 101.65C36.3361 100.973 34.0475 99.9323 32.123 98.475Z" fill="#9E5E57"/>
<path d="M55.9451 95.7166C56.6212 95.4564 57.3494 95.4564 58.0256 95.6125C58.7538 95.7686 59.43 96.133 59.9501 96.7575C60.4702 97.33 60.7823 98.0587 60.8343 98.7873C60.8863 99.1516 60.8343 99.516 60.8343 99.8282C60.7823 100.193 60.6783 100.505 60.5743 100.817C60.4702 100.505 60.3662 100.141 60.3142 99.8282L60.1582 99.3598C60.1061 99.2037 60.1061 99.0475 60.0021 98.9434C59.7941 98.3709 59.482 97.9025 59.1179 97.4341C58.7538 97.0177 58.2857 96.6534 57.7655 96.3932C57.2454 96.133 56.6212 95.9248 55.9451 95.7166Z" fill="#9E5E57"/>
<path d="M64.5793 153.435C64.4233 153.435 64.3193 153.488 64.2152 153.644L62.7589 155.517L62.2387 153.592C62.1867 153.383 62.0827 153.331 61.9266 153.331C61.7706 153.331 61.6666 153.383 61.5625 153.54L60.2622 156.038H60.9384L61.8226 154.32L62.2907 156.09H62.8629L64.1632 154.372L64.1112 156.09H64.7354L64.7874 153.696C64.8914 153.54 64.7354 153.435 64.5793 153.435Z" fill="#EF3F54"/>
<path d="M59.4821 153.748L58.8579 156.038H59.5341L60.1062 153.748H59.4821Z" fill="#EF3F54"/>
<path d="M57.1934 154.741H56.7253L56.9334 154.064H57.4015C57.6616 154.064 57.7656 154.168 57.7656 154.429C57.7136 154.637 57.5055 154.741 57.1934 154.741ZM58.3897 154.377C58.4418 154.064 58.2857 153.7 57.6095 153.7L56.3612 153.648L55.7371 155.938H56.3612L56.5693 155.053H56.8814L57.4015 155.938H58.0777L57.4535 155.001C58.1297 154.949 58.3377 154.689 58.3897 154.377Z" fill="#EF3F54"/>
<path d="M66.5039 155.361L67.0761 154.528L67.2841 155.361H66.5039ZM67.4402 156.246H68.0643L67.5442 154.112C67.4922 153.852 67.3362 153.8 67.1801 153.8C67.0761 153.8 66.9721 153.852 66.868 153.956L65.3076 156.142H65.9318L66.2439 155.673L67.3882 155.726L67.4402 156.246Z" fill="#EF3F54"/>
<path d="M69.9887 155.882C69.4685 155.882 69.2085 155.569 69.2605 155.205C69.3125 154.685 69.7806 154.424 70.4048 154.424C70.6128 154.424 70.8209 154.424 71.0289 154.528L71.1329 154.06C70.9769 154.008 70.6648 153.956 70.4568 153.956C69.3645 153.904 68.6363 154.424 68.5323 155.153C68.4283 155.83 68.8964 156.298 69.8846 156.35C70.0927 156.35 70.2487 156.35 70.5088 156.298L70.6648 155.778C70.5088 155.882 70.3007 155.882 69.9887 155.882Z" fill="#EF3F54"/>
<path opacity="0.15" d="M119.662 334.971C119.662 334.971 119.662 334.971 134.381 336.377C139.843 335.076 146.24 334.399 149.777 334.035C164.549 332.421 214.43 335.232 227.798 343.871C241.113 352.459 202.883 351.47 173.027 351.366C151.338 351.314 147.697 352.355 141.403 348.66C138.23 349.284 126.891 349.284 122.938 349.388C95.8915 350.065 95.9435 352.459 77.3747 342.987C58.7539 333.462 104.526 333.826 119.662 334.971Z" fill="#001177"/>
<path d="M91.0022 305.045L94.6951 329.194H102.653L106.762 303.952L91.0022 305.045Z" fill="#E09E7D"/>
<path d="M118.153 304.681L121.742 332.473L130.792 331.484L131.937 303.9L118.153 304.681Z" fill="#E09E7D"/>
<path d="M107.855 295.781C111.235 295.937 113.004 295.625 113.004 295.625L114.824 309.053C122.99 310.926 127.672 309.833 135.006 308.376L134.121 300.205C133.705 292.606 132.925 286.673 132.197 274.546L131.937 271.111C115.813 268.717 107.23 270.278 92.3545 273.818L91.0022 288.807C91.0022 288.807 88.8697 303.9 88.7656 309.105C96.2556 311.03 101.561 310.874 107.699 309.313L107.855 295.781Z" fill="#49889E"/>
<path d="M104.734 274.078L104.526 278.866L104.265 278.606H108.583H108.843V278.866L109.103 290.889L108.322 278.918L108.583 279.126H104.265H104.005V278.866L104.213 274.026L104.734 274.078Z" fill="#035279"/>
<path d="M140.519 248.471C140.519 248.471 139.999 250.033 134.433 252.687C128.868 255.341 126.527 256.07 126.059 252.166C125.591 248.263 124.395 244.255 126.007 243.579C127.672 242.85 137.398 241.185 140.519 248.471Z" fill="#035279"/>
<path d="M144.68 269.758C145.512 270.382 146.709 271.059 147.489 271.632C149.309 272.829 151.182 273.87 151.598 274.13C153.21 275.223 153.366 281.676 152.482 282.873C152.118 283.342 148.997 284.383 148.997 284.383C148.997 284.383 147.853 285.84 147.073 285.996C146.293 286.152 145.668 285.996 145.668 285.996C145.668 285.996 143.744 286.777 143.38 286.621C143.016 286.465 142.548 286.1 142.548 286.1C142.548 286.1 139.739 285.632 139.583 285.111C139.479 284.747 139.479 283.134 139.479 282.093C139.479 281.52 139.791 281 140.311 280.688L139.947 279.907C139.947 279.907 138.126 279.595 137.606 276.732C137.398 275.327 138.23 272.672 139.947 270.695C141.611 268.821 143.38 268.769 144.68 269.758Z" fill="#E09E7D"/>
<path d="M140.831 277.461L139.999 279.855L140.363 280.688L141.299 282.665L144.108 283.134L147.177 280.323L145.981 277.929L140.831 277.461Z" fill="#E08B6E"/>
<path d="M140.467 280.844C140.467 280.844 139.999 282.457 140.519 283.758C141.039 285.059 141.663 285.892 141.663 285.892C141.976 285.996 142.548 286.048 143.12 286.152L140.779 280.792L140.467 280.844Z" fill="#BD7A66"/>
<path d="M146.033 286.048C146.033 286.048 143.64 286.933 143.172 286.673C142.704 286.413 141.091 284.331 140.467 282.978C140.987 281.676 142.548 282.093 142.548 282.093" fill="#E09E7D"/>
<path fill-rule="evenodd" clip-rule="evenodd" d="M142.131 274.91L141.455 277.513C141.455 277.513 144.004 278.033 144.576 278.554C145.148 279.074 145.98 280.219 146.761 280.74C147.541 281.26 152.43 282.197 149.205 278.293C147.957 276.732 144.94 272.829 144.94 272.829L142.131 274.91Z" fill="#E09E7D"/>
<path d="M139.687 276.68C140.467 277.044 141.143 277.253 141.923 277.461C142.287 277.565 142.704 277.617 143.068 277.721C143.484 277.825 143.9 277.877 144.316 278.033C144.732 278.189 145.148 278.45 145.46 278.762C145.772 279.074 146.032 279.386 146.292 279.699C146.813 280.271 147.437 280.688 148.165 280.844C148.529 280.896 148.841 280.896 149.205 280.844C149.361 280.792 149.517 280.74 149.725 280.688C149.829 280.636 149.933 280.583 149.933 280.479C149.985 280.323 149.933 279.959 149.725 279.647C149.569 279.334 149.309 279.022 149.101 278.658C148.633 278.033 148.113 277.409 147.541 276.836C147.281 276.524 147.021 276.212 146.761 275.899C146.553 275.535 146.24 275.223 146.188 274.754C146.501 275.067 146.813 275.275 147.125 275.535C147.437 275.795 147.749 276.056 148.061 276.368C148.633 276.94 149.205 277.565 149.725 278.241C149.985 278.554 150.245 278.918 150.454 279.334C150.558 279.543 150.662 279.751 150.714 280.011C150.766 280.271 150.818 280.531 150.662 280.844C150.558 281.156 150.245 281.364 150.037 281.468C149.829 281.572 149.621 281.624 149.361 281.676C148.893 281.781 148.425 281.781 147.957 281.676C147.073 281.468 146.292 280.896 145.72 280.271C145.408 279.959 145.2 279.647 144.94 279.386C144.68 279.126 144.368 278.918 144.056 278.762C143.744 278.606 143.328 278.606 142.964 278.502C142.548 278.45 142.131 278.346 141.715 278.241C141.299 278.085 140.883 277.929 140.519 277.721C140.207 277.409 139.895 277.096 139.687 276.68Z" fill="#BD7A66"/>
<path d="M97.7119 244.672L94.5911 255.758C94.5911 255.758 94.9552 264.814 87.4132 272.881C85.3847 275.014 78.623 283.238 80.7035 272.985C82.836 262.419 85.6968 254.092 85.6968 254.092L88.7656 240.768L97.7119 244.672Z" fill="#E09E7D"/>
<path d="M86.0609 268.457C86.0609 268.457 90.0139 277.096 85.3327 280.271C82.7321 282.041 81.7958 282.613 80.8596 283.706C80.2354 284.383 80.1314 285.268 79.9753 285.892C79.6112 287.245 78.9351 286.829 78.9351 286.829C78.3629 288.859 76.3344 286.517 77.3747 283.654C77.3747 283.654 76.9066 284.279 76.3864 286.257C75.9183 288.234 73.9418 287.818 74.1498 286.257C74.1498 286.257 72.9535 286.204 73.3696 284.227C73.7857 282.301 73.5777 280.636 75.1901 278.658C76.8025 276.68 80.8596 271.684 80.8596 271.684L86.0609 268.457Z" fill="#E09E7D"/>
<path d="M80.8075 273.922C80.6514 274.806 80.4434 275.691 80.2353 276.524C79.9753 277.409 79.7152 278.241 79.2991 279.074C79.1951 279.282 79.091 279.491 78.935 279.699L78.7269 279.959C78.6749 280.011 78.6229 280.115 78.5709 280.219C78.4148 280.531 78.3108 280.948 78.3628 281.26C78.4149 281.572 78.6229 281.833 78.883 281.781C79.143 281.781 79.5071 281.624 79.7152 281.364C79.9753 281.104 80.1833 280.74 80.4434 280.323C80.7034 279.959 81.0155 279.595 81.3796 279.282C82.1078 278.658 82.992 278.241 83.8243 277.929L84.4484 277.721C84.6565 277.669 84.8125 277.565 85.0206 277.461C85.3847 277.253 85.6967 276.992 85.9568 276.68C86.477 276.056 86.685 275.171 86.477 274.286C86.8931 275.067 86.841 276.16 86.3729 276.992C86.1129 277.409 85.7488 277.721 85.3847 278.033C85.0206 278.293 84.5524 278.502 84.1363 278.71C83.3561 279.022 82.5759 279.438 82.0038 280.011C81.6917 280.271 81.4316 280.583 81.1716 280.948C80.9115 281.26 80.7035 281.676 80.3394 282.041C80.1833 282.249 79.9232 282.405 79.6632 282.509C79.5591 282.561 79.4031 282.613 79.2471 282.665C79.091 282.665 78.935 282.717 78.7789 282.665C78.4669 282.665 78.1548 282.457 77.9467 282.249C77.7387 281.989 77.6346 281.728 77.5826 281.468C77.4786 280.896 77.6346 280.375 77.8947 279.959C77.9467 279.855 78.0508 279.751 78.1028 279.647L78.3108 279.386C78.4669 279.23 78.5709 279.074 78.6749 278.866C79.143 278.137 79.4551 277.305 79.8192 276.524C80.1833 275.587 80.4954 274.754 80.8075 273.922Z" fill="#BD7A66"/>
<path d="M77.0626 280.896C76.9066 281.52 76.5945 281.989 76.3865 282.457C76.1784 282.873 76.1784 283.342 76.1784 283.914C76.1784 284.175 76.1784 284.487 76.1784 284.799C76.1264 285.111 76.0744 285.476 75.8663 285.736C75.6583 285.996 75.3982 286.204 75.0861 286.309C74.7741 286.413 74.462 286.413 74.2019 286.361C74.7741 286.256 75.2422 285.944 75.4502 285.476C75.5543 285.268 75.5542 285.007 75.5542 284.747L75.5022 283.914C75.4502 283.602 75.4502 283.342 75.5022 283.03C75.5022 282.717 75.6063 282.353 75.7623 282.041C76.0224 281.52 76.4905 281.156 77.0626 280.896Z" fill="#BD7A66"/>
<path d="M79.9754 282.873C79.7673 283.186 79.6633 283.498 79.5593 283.862C79.4553 284.175 79.5073 284.487 79.5073 284.799C79.4553 285.163 79.3512 285.528 79.2472 285.892C79.1432 286.256 79.0392 286.569 78.8831 286.933C78.8831 286.569 78.8311 286.204 78.7791 285.84C78.7271 285.476 78.6751 285.163 78.623 284.799C78.6751 284.383 78.8831 283.966 79.0912 283.706C79.4032 283.342 79.6633 283.082 79.9754 282.873Z" fill="#BD7A66"/>
<path d="M86.425 248.211C86.425 248.211 89.1298 248.263 93.1868 250.865C99.9486 255.185 100.937 255.758 100.937 255.758C100.937 255.758 100.677 248.835 102.289 241.497C103.173 237.333 104.994 229.266 100.833 229.11C100.833 229.11 98.4402 225.987 96.4637 226.768C88.9217 229.526 88.5056 243.319 86.425 248.211Z" fill="#FFB75E"/>
<path d="M117.997 222.604C117.997 222.604 109.675 219.378 96.5155 226.768C93.7588 232.233 93.6028 240.56 93.2907 246.233C92.8226 254.665 94.383 259.973 91.4182 275.067C91.4182 275.067 104.838 274.702 110.403 274.702C125.643 274.754 132.925 275.743 132.925 275.743C131.521 265.959 132.873 236.449 127.984 226.924C123.511 224.53 117.997 222.604 117.997 222.604Z" fill="#FFB75E"/>
<path d="M123.927 243.11L129.492 255.445C129.492 255.445 130.376 261.118 132.613 264.553C134.85 267.988 138.803 275.067 140.415 274.858C142.027 274.65 147.073 277.981 144.004 268.04C140.935 258.1 138.959 252.583 138.959 252.583L134.486 238.999L123.927 243.11Z" fill="#E09E7D"/>
<path d="M140.519 248.471C140.519 248.471 140.727 247.43 134.433 250.605C128.868 253.416 128.66 256.278 128.66 256.278C128.66 256.278 123.667 248.107 121.638 240.872C120.494 236.761 123.875 227.341 127.984 226.924C127.984 226.924 128.972 227.341 130.896 228.434C135.37 231.14 139.999 246.233 140.519 248.471Z" fill="#FFB75E"/>
<path d="M136.826 249.512L135.682 250.241C135.317 250.501 134.953 250.709 134.589 250.969C133.861 251.49 133.185 252.062 132.509 252.635C131.833 253.207 131.208 253.832 130.688 254.508C130.116 255.133 129.596 255.862 129.232 256.59L128.66 257.735L128.244 256.538C127.828 255.289 127.359 254.04 126.891 252.791C126.631 252.166 126.423 251.542 126.163 250.969C125.903 250.345 125.643 249.72 125.383 249.148C124.863 247.951 124.291 246.754 123.666 245.557C123.042 244.412 122.366 243.267 121.534 242.174C122.574 243.058 123.406 244.099 124.187 245.244C124.967 246.337 125.643 247.534 126.267 248.731C126.891 249.928 127.463 251.178 127.932 252.427C128.452 253.676 128.868 254.925 129.284 256.226L128.296 256.122C128.816 255.237 129.388 254.561 130.012 253.884C130.636 253.207 131.364 252.635 132.093 252.062C132.821 251.542 133.601 251.021 134.433 250.605C135.109 250.137 135.942 249.824 136.826 249.512Z" fill="#E88636"/>
<path d="M93.1868 250.865C92.9787 249.668 92.8747 248.523 92.8227 247.326C92.7707 246.129 92.7707 244.984 92.8227 243.787C92.8747 242.59 92.9787 241.445 93.1868 240.248C93.3949 239.051 93.6029 237.906 94.019 236.761C94.071 237.958 94.071 239.155 94.071 240.3C94.071 241.497 94.019 242.642 93.967 243.839C93.915 245.036 93.811 246.181 93.7069 247.378C93.6029 248.523 93.4469 249.72 93.1868 250.865Z" fill="#E88636"/>
<path d="M122.886 224.894C123.354 228.329 118.725 231.764 112.64 232.545C106.502 233.378 102.081 231.608 101.509 228.225C101.197 226.248 102.029 224.53 102.757 223.853C102.757 223.853 105.046 222.604 111.443 222.084C116.593 221.72 122.73 223.853 122.886 224.894Z" fill="#E88636"/>
<path d="M113.004 225.623C115.448 224.999 117.269 223.853 118.569 222.813L117.789 214.485C117.789 214.485 116.749 210.634 109.727 211.154C102.705 211.623 103.173 215.63 104.005 216.775L104.786 224.426C107.074 225.415 110.143 226.352 113.004 225.623Z" fill="#BD7A66"/>
<path d="M118.621 223.125L118.569 222.813C117.269 223.853 115.448 224.998 113.004 225.623C110.143 226.352 107.022 225.415 104.838 224.426V224.582C102.809 226.3 104.734 230.359 110.715 229.683C121.534 228.538 120.338 223.697 118.621 223.125Z" fill="#E09E7D"/>
<path d="M123.979 332.421L129.648 331.588L129.856 331.484C131.365 330.808 132.197 329.246 131.989 327.633L132.249 325.707C132.353 324.979 132.041 324.562 131.313 324.614C127.984 326.488 124.239 327.217 121.014 325.499C120.442 325.551 120.026 326.072 120.13 326.644C120.182 327.217 120.546 327.789 120.754 328.466C121.222 329.819 120.182 329.507 120.442 330.443C120.546 330.704 120.91 331.016 121.43 331.328C121.742 333.514 123.979 332.421 123.979 332.421Z" fill="#F7F7FA"/>
<path d="M121.378 331.276C121.378 331.276 121.586 335.076 121.846 337.834C121.95 339.135 122.522 339.864 122.678 340.176C123.094 341.269 123.719 341.113 124.291 342.726C125.175 345.224 124.915 347.41 131.781 347.515C138.282 347.619 139.999 346.474 139.791 344.704C139.739 344.34 140.207 343.819 140.051 343.403C139.375 341.737 137.97 339.708 136.93 338.458C135.63 336.845 130.948 329.455 130.948 329.455C128.14 328.414 124.967 329.402 123.354 332.109C122.626 332.109 121.95 331.901 121.378 331.276Z" fill="#2B2E3A"/>
<path d="M130.428 345.485C125.071 345.745 124.707 341.633 123.875 339.916C123.303 338.771 122.366 338.094 121.846 337.834C121.95 339.135 122.106 340.228 122.21 340.54C122.626 341.633 123.459 341.165 124.031 342.83C124.915 345.329 124.603 347.879 131.417 347.983C137.918 348.087 140.571 346.474 140.363 344.652C140.311 344.288 140.207 343.871 139.999 343.403C138.699 344.808 134.798 345.277 130.428 345.485Z" fill="#F7F7FA"/>
<path d="M121.17 332.786C121.17 332.786 121.794 334.399 124.447 334.503C125.747 334.555 126.735 333.358 126.475 332.109L126.059 329.819C126.007 329.403 125.539 329.246 125.227 329.455C124.343 330.027 123.042 331.016 123.302 332.057L121.326 331.276L121.17 332.786Z" fill="#6677A3"/>
<path d="M130.116 331.484L129.596 329.767C129.44 329.246 129.96 328.726 130.48 328.934C130.896 329.142 131.416 329.507 131.989 330.183L133.081 332.629C131.937 333.254 130.48 332.681 130.116 331.484Z" fill="#6677A3"/>
<path d="M126.007 335.128C127.1 334.347 129.492 332.994 132.665 333.514C132.873 333.566 133.081 333.67 133.237 333.879L133.393 334.087C133.809 334.659 133.393 335.492 132.665 335.44C131.157 335.388 129.076 335.596 127.204 336.897C126.787 337.209 126.215 337.053 125.955 336.585L125.747 336.221C125.539 335.856 125.643 335.388 126.007 335.128Z" fill="#6677A3"/>
<path d="M127.672 338.25C128.764 337.47 131.156 336.117 134.329 336.637C134.537 336.689 134.745 336.793 134.901 337.001L135.057 337.209C135.474 337.782 135.057 338.615 134.329 338.563C132.821 338.511 130.74 338.719 128.868 340.02C128.452 340.332 127.88 340.176 127.62 339.708L127.411 339.343C127.203 338.979 127.307 338.511 127.672 338.25Z" fill="#6677A3"/>
<path d="M142.34 281.52C142.34 281.52 141.871 284.279 145.148 286.361L146.813 285.84L142.34 281.52Z" fill="#BD7A66"/>
<path d="M144.524 281.416C144.524 281.416 142.859 280.688 142.547 282.145C142.807 283.238 145.772 286.1 146.5 286.1C147.749 286.1 149.361 284.227 149.361 284.227L144.524 281.416Z" fill="#E09E7D"/>
<path d="M144.368 281.364C144.368 281.364 144.68 284.175 146.917 284.643C148.633 285.007 148.737 284.903 148.737 284.903C149.049 284.643 149.257 284.383 149.413 284.123L144.368 281.364Z" fill="#BD7A66"/>
<path d="M146.552 280.427C146.552 280.427 144.732 279.699 144.368 281.364C144.576 282.301 147.437 284.227 148.477 284.487C148.477 284.487 149.205 284.487 150.505 283.81L146.552 280.427Z" fill="#E09E7D"/>
<path d="M85.6448 190.076C86.1649 192.522 87.2572 199.496 86.6331 201.266C86.0089 203.035 83.9284 203.035 82.42 203.295C79.3512 203.764 76.0223 200.173 74.9821 195.28C73.9418 190.388 75.5022 185.964 78.571 185.496C81.5878 184.975 84.6045 185.131 85.6448 190.076Z" fill="#E08B6E"/>
<path d="M142.964 201.474C142.964 201.474 140.987 211.623 130.896 210.998C130.896 210.998 138.855 201.578 138.699 195.072" fill="#2A2D39"/>
<path d="M80.2875 160.462C80.2875 160.462 75.6583 192.053 81.6918 204.961C93.4989 230.307 130.74 225.519 139.479 197.31C144.94 187.421 139.947 179.667 139.947 179.667L135.11 155.101C135.11 155.101 98.024 134.543 80.2875 160.462Z" fill="#E09E7D"/>
<path d="M115.501 185.496C114.252 186.068 112.796 185.496 112.224 184.195C111.652 182.945 112.224 181.488 113.472 180.916C114.72 180.343 116.177 180.916 116.749 182.217C117.321 183.466 116.749 184.975 115.501 185.496Z" fill="#2B2E3A"/>
<path d="M113.472 183.414C113.108 183.57 112.744 183.414 112.588 183.05C112.432 182.685 112.588 182.321 112.952 182.165C113.316 182.009 113.68 182.165 113.836 182.529C113.94 182.841 113.784 183.258 113.472 183.414Z" fill="white"/>
<path d="M92.3026 186.016C91.0542 186.589 89.5979 186.016 89.0257 184.715C88.4536 183.466 89.0257 182.009 90.274 181.436C91.5224 180.864 92.9787 181.436 93.5509 182.737C94.123 184.038 93.5509 185.496 92.3026 186.016Z" fill="#2B2E3A"/>
<path d="M90.2738 183.934C89.9097 184.09 89.5456 183.934 89.3896 183.57C89.2336 183.206 89.3896 182.841 89.7537 182.685C90.1178 182.529 90.4819 182.685 90.6379 183.049C90.794 183.362 90.6379 183.778 90.2738 183.934Z" fill="white"/>
<path d="M138.698 195.02C134.849 189.711 135.006 181.436 135.006 181.436C135.006 181.436 123.875 175.295 120.806 157.807C120.806 157.807 110.767 164.729 103.485 158.224C103.485 158.224 92.8746 166.187 84.0324 159.889C84.0324 159.889 77.8948 167.436 78.675 187.786C78.675 187.786 73.7337 182.373 73.3696 176.96C71.133 174.306 69.0005 170.611 68.8965 165.874C68.8965 165.874 63.227 166.707 61.3025 158.12C61.3025 158.12 64.4753 162.648 71.133 158.848C71.133 158.848 68.6364 157.755 68.3243 154.685C68.3243 154.685 71.2891 157.703 73.5256 155.83C73.5256 155.83 76.4904 143.13 82.0558 139.331C87.6213 135.532 93.4988 136.833 93.4988 136.833C93.4988 136.833 100.469 129.078 112.952 129.234C121.222 129.338 125.955 131.472 137.242 144.379C137.242 144.379 151.546 143.026 154.719 162.7C156.955 176.648 152.482 181.54 152.482 181.54C152.482 181.54 156.955 189.868 151.702 197.154C148.477 201.578 142.964 201.578 142.964 201.578" fill="#2A2D39"/>
<path opacity="0.5" d="M105.514 193.251C105.514 193.251 104.474 185.496 104.266 184.038C104.057 182.581 97.9719 181.644 97.3478 183.882C96.7236 186.12 95.7874 193.615 95.7874 193.615C95.7874 193.615 99.5323 196.738 105.514 193.251Z" fill="url(#paint1_linear)"/>
<path d="M95.7354 193.563C99.2723 198.143 102.861 196.529 105.514 193.251C105.514 193.251 103.121 193.823 100.677 193.823C97.8679 193.875 95.7354 193.563 95.7354 193.563Z" fill="#BD7A66"/>
<path d="M113.056 172.692C113.056 172.692 118.153 171.547 120.962 175.971C123.146 178.469 122.21 173.837 121.274 172.12C120.338 170.454 116.229 167.019 111.86 170.038C110.767 171.235 112.224 172.796 113.056 172.692Z" fill="#2A2D39"/>
<path d="M93.6548 173.317C93.6548 173.317 89.0256 172.536 86.2689 177.168C85.7488 178.053 85.3327 176.7 85.2287 175.555C85.0726 174.41 85.6968 173.109 86.0609 172.797C86.425 172.484 89.3377 169.257 92.9787 170.975C94.487 172.224 95.0072 173.733 93.6548 173.317Z" fill="#2A2D39"/>
<path d="M133.081 193.459C131.625 198.611 132.197 203.92 135.734 205.429C139.323 206.939 144.576 204.076 145.98 198.923C147.437 193.771 145.72 188.41 142.131 186.901C138.594 185.34 134.537 188.306 133.081 193.459Z" fill="#E09E7D"/>
<path d="M143.536 196.113C143.64 194.968 143.64 193.719 143.224 192.678C143.015 192.158 142.651 191.689 142.183 191.429C141.715 191.117 141.195 191.013 140.623 191.013C139.531 191.013 138.594 191.689 137.866 192.574C137.502 192.99 137.242 193.511 136.982 194.031C136.774 194.552 136.618 195.072 136.618 195.593L136.046 195.384C136.566 194.968 137.19 194.916 137.71 194.968C138.23 195.02 138.75 195.228 139.218 195.488C139.687 195.749 140.103 196.165 140.363 196.686C140.623 197.154 140.675 197.778 140.571 198.299C140.467 199.34 139.843 200.329 139.01 200.901C138.126 201.474 137.086 201.63 136.098 201.474C137.086 201.474 138.074 201.214 138.802 200.641C139.531 200.069 139.999 199.184 140.051 198.247C140.155 197.31 139.687 196.529 138.906 196.061C138.542 195.853 138.074 195.697 137.658 195.645C137.242 195.593 136.774 195.697 136.566 195.905L135.994 196.425V195.697C135.994 194.968 136.15 194.396 136.41 193.823C136.67 193.251 136.982 192.73 137.398 192.21C137.814 191.741 138.282 191.325 138.854 191.013C139.427 190.7 140.051 190.492 140.727 190.544C141.351 190.596 142.027 190.752 142.547 191.117C143.067 191.481 143.432 192.053 143.64 192.626C143.848 193.198 143.9 193.823 143.9 194.448C143.744 194.916 143.692 195.541 143.536 196.113Z" fill="#BD7A66"/>
<path opacity="0.2" d="M92.0718 189.988C92.2875 188.858 90.8613 187.637 88.8862 187.259C86.9112 186.881 85.1352 187.491 84.9196 188.62C84.7039 189.749 86.1301 190.971 88.1052 191.349C90.0802 191.726 91.8562 191.117 92.0718 189.988Z" fill="#EF3F54"/>
<path opacity="0.2" d="M118.55 190.397C120.691 189.971 122.245 188.712 122.022 187.584C121.798 186.457 119.88 185.887 117.739 186.313C115.598 186.739 114.044 187.998 114.267 189.125C114.491 190.253 116.408 190.822 118.55 190.397Z" fill="#EF3F54"/>
<path d="M105.358 152.863C104.682 153.435 103.902 153.956 103.121 154.372C102.341 154.789 101.457 155.101 100.573 155.309C99.6885 155.465 98.7002 155.569 97.712 155.309C97.2439 155.153 96.7757 154.997 96.3596 154.685C95.9435 154.372 95.6314 154.008 95.3194 153.644L96.2556 153.331C96.3076 153.904 96.3596 154.528 96.4637 155.101C96.5677 155.673 96.6717 156.298 96.8798 156.818C97.0358 157.391 97.2959 157.911 97.608 158.484C97.92 159.004 98.2841 159.473 98.7523 159.889C98.1801 159.629 97.66 159.212 97.2439 158.744C96.8278 158.276 96.5157 157.703 96.2036 157.131C95.9435 156.558 95.7355 155.934 95.5794 155.309C95.4234 154.685 95.3194 154.06 95.2674 153.383L95.1633 151.666L96.2036 153.071C96.6717 153.696 97.2959 154.164 98.0761 154.372C98.8043 154.58 99.6365 154.58 100.469 154.476C102.029 154.216 103.694 153.592 105.358 152.863Z" fill="#57617F"/>
<path d="M99.5324 209.748C101.197 212.09 104.214 212.663 106.606 210.581C109.103 208.395 108.479 204.179 106.346 202.254C104.214 200.328 100.157 200.224 98.5442 203.19C97.1398 205.741 98.4921 208.343 99.5324 209.748Z" fill="#273238"/>
<path d="M98.5467 203.191C100.159 200.225 103.696 200.381 105.673 201.786C106.037 202.046 106.713 202.463 106.869 202.879C104.58 203.712 102.24 204.544 98.1306 203.816C98.2346 203.399 98.2867 203.66 98.5467 203.191Z" fill="white"/>
<path d="M103.381 208.136C105.826 207.823 106.606 208.292 107.699 209.125C107.49 209.385 106.814 210.374 106.554 210.582C104.266 212.56 101.457 212.143 99.7405 210.061C100.521 209.229 101.665 208.344 103.381 208.136Z" fill="#F97A7A"/>
<path d="M99.5324 209.748C101.197 212.09 104.214 212.663 106.606 210.581C109.103 208.395 108.479 204.179 106.346 202.254C104.214 200.328 100.157 200.224 98.5442 203.19C97.1398 205.741 98.4921 208.343 99.5324 209.748Z" stroke="#BD7A66" stroke-width="0.7275" stroke-miterlimit="10" stroke-linejoin="round"/>
<path d="M87.6732 303.692L108.531 304.108L108.791 310.51C104.578 312.279 95.4232 311.863 87.0491 309.937L87.6732 303.692Z" fill="#7FB9C6"/>
<path d="M113.16 304.472L135.578 304.212L135.838 310.614C133.237 312.644 125.435 312.956 113.68 310.926L113.16 304.472Z" fill="#7FB9C6"/>
<path d="M106.762 277.721C107.394 277.721 107.907 277.208 107.907 276.576C107.907 275.944 107.394 275.431 106.762 275.431C106.13 275.431 105.618 275.944 105.618 276.576C105.618 277.208 106.13 277.721 106.762 277.721Z" fill="#035279"/>
<path d="M105.618 331.953L97.5559 331.224L97.4519 331.172C96.8278 330.86 96.4637 330.183 96.5677 329.507L96.7757 327.945L95.5794 325.759C95.1633 325.031 95.7355 324.094 96.6197 324.146L106.138 324.666C106.97 324.718 107.491 325.499 107.23 326.28C106.866 327.321 106.45 328.622 106.19 329.403C105.774 330.808 106.814 330.443 106.554 331.328C106.242 332.265 105.618 331.953 105.618 331.953Z" fill="#F7F7FA"/>
<path d="M105.618 331.953C105.618 331.953 106.814 338.146 106.814 341.529C106.814 342.362 106.346 342.674 106.138 343.039C105.15 344.704 100.365 343.195 98.1801 343.611C95.9955 344.027 83.6683 345.693 80.4435 343.351C80.5475 342.674 79.9754 342.154 80.1314 341.685C80.9636 339.499 82.472 339.343 83.7203 338.927C91.5223 336.325 95.0593 328.205 96.5676 329.507C98.2841 331.016 105.618 331.953 105.618 331.953Z" fill="#2B2E3A"/>
<path d="M91.8345 342.882C86.9972 343.663 82.108 342.362 80.0794 341.685C79.9234 342.154 79.7674 342.726 79.6633 343.351C82.8882 345.693 95.7875 344.652 97.9721 344.236C100.157 343.819 105.514 345.016 106.502 343.403C106.71 343.091 106.762 342.414 106.762 341.529C101.613 340.697 98.0241 341.894 91.8345 342.882Z" fill="#F7F7FA"/>
<path d="M92.6666 331.588L91.1582 333.254C90.8981 333.566 90.9502 334.035 91.2622 334.243L93.3428 335.752C94.4871 336.533 96.0475 336.273 96.8277 335.128C97.1398 334.659 96.9837 333.983 96.5156 333.67C95.6314 333.15 94.3831 332.369 93.6028 331.588C93.3948 331.276 92.9267 331.276 92.6666 331.588Z" fill="#6677A3"/>
<path d="M88.6096 335.232L87.4653 336.481C87.2053 336.793 87.2573 337.261 87.5694 337.47L89.6499 338.979C90.7942 339.76 92.3546 339.499 93.1348 338.354C93.4469 337.886 93.2908 337.209 92.8227 336.897C92.0945 336.481 91.0543 335.804 90.2741 335.128C89.8059 334.711 89.0778 334.763 88.6096 335.232Z" fill="#6677A3"/>
<path d="M94.019 331.068C94.019 331.068 99.3764 334.711 105.982 334.243V332.421C105.982 331.849 105.566 331.38 104.994 331.328C103.537 331.224 100.625 330.756 97.2959 329.194C96.6717 328.882 95.8915 329.038 95.4234 329.559L94.019 331.068Z" fill="#6677A3"/>
<path d="M162.677 264.449C158.62 253.364 166.37 244.36 168.294 223.437C168.97 215.786 171.831 213.028 174.952 210.27C182.598 206.782 186.811 221.72 192.012 226.82C193.313 242.33 193.105 250.501 192.376 265.282C188.683 268.249 193.625 270.487 185.979 270.539C178.073 270.591 164.653 269.862 162.677 264.449Z" fill="white"/>
<path d="M228.63 219.898C222.44 202.15 206.316 196.321 206.108 196.373C191.128 198.924 182.182 202.411 174.952 210.322C174.12 215.214 173.755 227.445 175.108 234.627C176.46 241.809 182.442 250.397 183.586 257.423C183.95 261.795 183.586 261.639 182.65 265.594C178.437 283.394 174.588 258.152 173.703 271.423C173.599 273.401 189.099 309.521 189.099 309.521L194.457 313.893C194.457 313.893 217.811 312.227 227.173 301.454C235.287 292.19 235.963 240.872 228.63 219.898Z" fill="#F0F2FA"/>
<path d="M174.952 210.322C174.692 212.195 174.588 214.069 174.484 215.943C174.38 217.816 174.38 219.69 174.38 221.563C174.432 225.311 174.536 229.11 175.056 232.805C175.68 236.501 176.408 240.196 177.084 243.891C177.761 247.586 178.385 251.334 178.853 255.081C178.125 251.386 177.396 247.69 176.668 243.995L175.576 238.426C175.212 236.553 174.796 234.731 174.536 232.857C174.276 230.984 174.12 229.11 174.068 227.184C173.964 225.311 173.964 223.385 174.016 221.511C174.12 217.816 174.276 214.017 174.952 210.322Z" fill="#BFC6F2"/>
<path d="M191.388 256.538L194.145 263.096L186.811 264.085L179.893 255.133L191.388 256.538Z" fill="#FFB75E"/>
<path d="M202.883 199.34C203.091 200.225 204.287 206.574 204.287 206.574L198.046 222.396L192.636 242.122L181.089 240.508L178.125 229.995L178.645 214.746L177.188 209.749L183.43 204.909L202.883 199.34Z" fill="#FFB75E"/>
<path d="M148.009 167.123C148.009 167.123 150.818 183.882 145.2 185.235C145.2 185.235 149.153 191.273 155.915 189.191C155.915 189.191 154.303 191.533 152.586 191.741C152.586 191.741 156.851 195.228 160.492 194.135C161.272 193.875 173.496 197.154 174.484 197.518C192.376 204.232 201.791 194.864 196.954 188.306C188.839 177.272 148.009 167.123 148.009 167.123Z" fill="#2B2E3A"/>
<path d="M223.949 93.8429C223.949 93.8429 251.048 103.732 245.742 139.695C243.662 153.852 239.345 163.428 229.514 175.451C229.514 175.451 227.954 179.562 233.467 182.321C236.848 183.986 239.293 181.228 239.293 181.228C239.293 181.228 237.732 197.779 221.4 190.648C221.4 190.648 205.796 201.162 195.549 194.916C185.355 188.566 204.235 179.146 204.235 179.146L223.949 93.8429Z" fill="#2B2E3A"/>
<path d="M188.215 200.797C191.18 199.808 197.266 196.165 200.178 192.626C199.502 187.682 198.202 178.73 197.266 175.347L184.522 195.124L185.562 199.392L185.406 201.005C186.187 201.162 187.123 201.162 188.215 200.797Z" fill="#DC918B"/>
<path d="M188.215 200.797C187.123 201.162 186.135 201.162 185.355 200.953L185.25 205.429C185.25 205.429 187.227 208.344 188.631 209.281C192.948 204.44 200.594 195.905 200.594 195.905C200.594 195.905 200.438 194.552 200.126 192.522C197.266 196.113 191.18 199.808 188.215 200.797Z" fill="#FAC2A8"/>
<path d="M209.853 198.403L203.039 194.552C203.039 194.552 201.999 202.359 198.826 208.552C190.452 225.051 192.636 242.122 192.636 242.122L201.947 213.653C201.947 213.653 212.037 201.214 209.853 198.403Z" fill="#E1E4F4"/>
<path d="M183.638 215.006C184.27 215.006 184.782 214.493 184.782 213.861C184.782 213.228 184.27 212.716 183.638 212.716C183.006 212.716 182.494 213.228 182.494 213.861C182.494 214.493 183.006 215.006 183.638 215.006Z" fill="#E88636"/>
<path d="M180.569 227.236C181.201 227.236 181.714 226.724 181.714 226.091C181.714 225.459 181.201 224.946 180.569 224.946C179.937 224.946 179.425 225.459 179.425 226.091C179.425 226.724 179.937 227.236 180.569 227.236Z" fill="#E88636"/>
<path d="M181.349 240.196C181.981 240.196 182.494 239.683 182.494 239.051C182.494 238.419 181.981 237.906 181.349 237.906C180.717 237.906 180.205 238.419 180.205 239.051C180.205 239.683 180.717 240.196 181.349 240.196Z" fill="#E88636"/>
<path d="M188.631 209.333C188.631 209.333 180.829 226.352 185.198 240.456C190.66 258.256 194.613 293.543 194.613 293.543" stroke="#E88636" stroke-width="2.4448" stroke-miterlimit="10" stroke-linecap="round"/>
<path d="M185.302 198.455C182.962 199.08 174.536 208.708 173.287 222.656" stroke="#8698BF" stroke-width="3.7161" stroke-miterlimit="10"/>
<path d="M174.016 225.669C174.79 224.193 174.325 222.422 172.977 221.714C171.629 221.006 169.909 221.628 169.134 223.104C168.36 224.581 168.824 226.351 170.172 227.06C171.52 227.768 173.241 227.145 174.016 225.669Z" fill="#57617F"/>
<path d="M177.074 227.292C178.396 224.772 177.983 221.95 176.152 220.988C174.321 220.025 171.764 221.288 170.442 223.807C169.12 226.327 169.533 229.149 171.364 230.112C173.195 231.074 175.752 229.811 177.074 227.292Z" fill="#8698BF"/>
<path d="M200.959 192.001C200.959 192.001 206.732 192.782 207.564 197.05C208.969 204.232 197.63 217.244 194.925 228.954" stroke="#8698BF" stroke-width="3.7161" stroke-miterlimit="10" stroke-linecap="round"/>
<path d="M186.031 239.363C187.643 233.794 190.4 228.642 195.029 229.683C199.45 230.62 200.907 236.605 201.375 242.954" stroke="#8698BF" stroke-width="4.8757" stroke-miterlimit="10" stroke-linecap="round"/>
<path d="M201.375 242.954C201.739 247.014 201.635 251.021 201.531 253.311C201.427 256.642 197.422 255.133 197.422 255.133" stroke="#E1E4F4" stroke-width="3.2504" stroke-miterlimit="10" stroke-linecap="round"/>
<path d="M187.851 252.427C187.851 252.427 184.054 252.531 184.418 247.638C184.574 245.609 185.095 242.486 186.031 239.363" stroke="#E1E4F4" stroke-width="3.2504" stroke-miterlimit="10" stroke-linecap="round"/>
<path d="M187.175 251.75L187.331 253.051C187.383 253.416 187.643 253.78 188.059 253.884L189.308 254.3C189.828 254.456 190.296 254.144 190.244 253.572L189.984 251.75C189.932 251.282 189.412 250.865 188.943 250.917L187.851 251.021C187.383 251.021 187.123 251.334 187.175 251.75Z" fill="#E1E4F4"/>
<path d="M198.722 254.925L198.514 256.174C198.462 256.538 198.15 256.746 197.786 256.694L196.537 256.538C195.965 256.486 195.549 255.914 195.653 255.393L196.069 253.728C196.173 253.259 196.693 253.103 197.162 253.364L198.254 253.988C198.566 254.144 198.774 254.561 198.722 254.925Z" fill="#E1E4F4"/>
<path d="M200.386 194.448C197.838 196.998 195.133 200.017 190.556 203.191L194.873 212.403C200.282 209.385 203.975 203.295 206.836 195.541L200.022 191.429L200.386 194.448Z" fill="#FFD385"/>
<path d="M190.556 203.191L188.631 209.333L192.064 206.366L190.556 203.191Z" fill="#E88636"/>
<path d="M185.875 202.723L188.631 209.333L183.638 205.585L185.875 202.723Z" fill="#E88636"/>
<path d="M181.141 240.508C180.985 239.675 175.056 220.418 183.118 201.526C180.829 203.868 178.541 205.898 178.541 205.898C178.541 205.898 174.952 210.27 175.836 219.482C176.356 224.738 179.685 240.248 179.685 240.248L181.141 240.508Z" fill="#E1E4F4"/>
<path d="M210.529 314.621C210.529 314.621 226.081 310.666 227.901 311.915C229.722 313.164 231.074 328.986 231.386 334.451C231.75 339.916 225.353 345.849 217.603 345.433C209.177 344.964 202.987 345.641 203.403 343.195C203.819 340.749 205.692 337.261 207.772 335.44C209.853 333.618 215.886 336.116 213.65 331.797C211.413 327.477 209.957 326.696 209.957 326.696C209.957 326.696 209.333 316.391 210.529 314.621Z" fill="#2B2E3A"/>
<path d="M171.831 282.717L162.001 288.078C162.001 288.078 157.267 303.692 163.353 309.417C171.259 316.807 175.524 287.089 175.524 287.089L171.831 282.717Z" fill="#B6C7DA"/>
<path d="M205.224 298.539C205.224 298.539 202.831 305.93 199.19 312.384L194.925 295.469C194.873 295.521 202.519 298.435 205.224 298.539Z" fill="#6677A3"/>
<path d="M182.598 283.342C183.378 283.29 194.925 292.45 188.631 305.93C186.083 311.395 179.217 314.778 179.217 314.778C188.683 312.019 197.526 315.038 199.086 315.298C200.647 315.558 203.455 315.558 203.455 315.558C203.455 315.558 206.888 312.904 207.772 312.904C208.657 312.904 212.037 315.819 212.766 316.912C213.442 318.005 214.222 320.19 213.39 322.741C212.558 325.291 213.078 329.507 211.881 331.536C211.257 331.953 207.824 330.496 207.824 330.496C207.824 330.496 185.771 334.711 168.086 336.793C146.969 339.291 147.957 327.633 149.205 320.711C151.13 309.157 182.598 283.342 182.598 283.342Z" fill="#6677A3"/>
<path d="M169.646 321.752L173.391 319.462C174.64 318.681 175.836 317.9 177.032 317.12C178.229 316.287 179.373 315.454 180.517 314.569C181.61 313.633 182.702 312.696 183.69 311.603C182.962 312.852 181.974 313.997 180.933 315.038C179.893 316.079 178.697 316.964 177.501 317.796C176.304 318.629 175.004 319.358 173.704 320.034C172.351 320.659 170.999 321.283 169.646 321.752Z" fill="#57617F"/>
<path d="M203.611 329.663C203.611 329.663 207.512 345.016 206.004 346.213C204.495 347.41 197.89 347.515 193.209 346.37C188.527 345.225 183.846 346.63 177.344 346.265C170.843 345.901 163.977 344.444 165.017 342.466C166.058 340.488 169.542 336.169 171.779 335.18C174.016 334.191 180.101 335.284 184.106 333.879C188.163 332.421 193.625 325.968 193.625 325.968C193.625 325.968 202.467 328.258 203.611 329.663Z" fill="#2B2E3A"/>
<path d="M205.224 298.539C205.9 299.424 195.809 296.718 195.809 296.718C197.63 303.952 199.814 315.506 200.022 316.859C200.23 318.213 202.415 321.908 202.415 321.908C202.415 321.908 205.9 323.521 206.16 324.25C206.42 324.979 204.339 327.321 203.611 328.205C202.883 329.09 202.259 328.778 199.45 330.235C197.317 331.328 190.244 331.276 188.267 330.86C186.343 329.923 187.331 325.395 187.331 325.395C187.331 325.395 183.066 323.053 183.066 320.919C183.066 318.785 172.767 307.231 162.625 291.461C153.366 277.044 155.551 266.167 169.49 263.096C183.17 260.077 217.135 265.178 218.331 266.167C228.942 274.963 226.861 290.993 225.145 291.982C209.957 300.725 205.224 298.539 205.224 298.539Z" fill="#8698BF"/>
<path d="M188.371 283.602C189.412 284.331 190.348 285.268 191.18 286.204C192.012 287.193 192.74 288.234 193.365 289.379C193.989 290.524 194.561 291.669 194.925 292.918C195.341 294.115 195.601 295.417 195.705 296.666C195.237 295.469 194.873 294.272 194.353 293.127C193.885 291.982 193.313 290.837 192.688 289.744C192.064 288.651 191.388 287.61 190.66 286.569C189.984 285.58 189.256 284.591 188.371 283.602Z" fill="#6677A3"/>
<path d="M188.059 262.315C195.237 263.669 205.64 276.784 203.923 303.484L210.321 302.183L226.497 293.491L233.571 269.654L209.801 262.784L188.059 262.315Z" fill="white"/>
<path d="M220.776 270.174C218.591 269.185 216.406 268.353 214.17 267.52C211.933 266.687 209.697 265.959 207.408 265.282C205.12 264.605 202.831 264.033 200.542 263.512C198.202 263.044 195.913 262.68 193.521 262.419H193.365L193.312 262.315C192.48 260.65 191.7 259.037 191.024 257.319C190.348 255.602 189.672 253.884 189.359 252.01C189.203 251.074 189.151 250.189 189.047 249.252C188.943 248.315 188.891 247.43 188.839 246.493C188.787 244.672 188.735 242.798 188.995 240.977C189.047 241.913 189.099 242.798 189.151 243.735C189.203 244.672 189.307 245.557 189.411 246.441C189.62 248.263 189.828 250.085 190.088 251.854C190.4 253.624 191.024 255.341 191.648 257.059C192.324 258.776 193 260.442 193.781 262.107L193.573 261.951C195.965 262.211 198.306 262.576 200.646 263.096C202.987 263.617 205.276 264.241 207.512 264.97C212.037 266.427 216.458 268.145 220.776 270.174Z" fill="#BFC6F2"/>
<path d="M169.49 253.728C165.902 250.189 170.791 237.021 175.004 239.311C179.269 241.601 178.021 245.765 180.309 248.835C179.061 250.709 178.073 252.479 177.032 254.404" fill="#035279"/>
<path d="M166.422 243.683C167.462 242.694 168.658 241.497 168.866 240.04C169.074 238.583 169.23 236.24 168.294 234.887C167.462 233.742 166.162 230.932 166.11 229.787C166.058 228.694 166.578 225.883 165.173 226.091C162.365 226.404 162.313 230.984 163.145 233.378C162.937 234.159 162.729 234.835 162.573 235.616C161.844 235.408 161.48 235.46 160.7 235.147C159.92 234.835 158.568 234.054 157.787 233.69C157.007 233.326 153.314 232.025 152.43 231.504C151.494 230.984 150.87 230.932 150.193 230.047C149.517 229.162 147.541 225.727 144.212 226.456C143.432 226.612 143.588 227.132 143.38 227.549C142.599 227.757 141.403 227.705 140.935 228.538C140.519 229.37 141.871 230.515 142.287 231.14C141.975 231.504 141.195 231.504 141.195 232.181C141.247 232.857 143.952 235.356 144.368 236.24C144.784 237.125 146.865 241.393 147.697 242.278C148.737 243.319 152.17 244.984 153.418 245.609C154.511 246.181 161.792 248.367 163.561 247.534C165.329 246.702 165.485 245.453 166.422 243.683Z" fill="#FAC2A8"/>
<path d="M144.316 236.032C145.148 236.397 145.72 237.125 146.24 237.75C146.761 238.426 147.281 239.103 147.957 239.571C148.113 239.675 148.321 239.78 148.477 239.884L149.049 240.196L150.193 240.82L151.286 241.497C151.65 241.705 152.014 241.965 152.274 242.33C151.858 242.174 151.442 242.018 151.078 241.809L149.933 241.185L148.841 240.56L148.269 240.248C148.061 240.144 147.905 240.04 147.697 239.936C146.969 239.415 146.396 238.739 145.876 238.062C145.356 237.385 144.784 236.761 144.316 236.032Z" fill="#DC918B"/>
<path d="M142.339 231.192C143.328 231.817 144.16 232.649 144.992 233.482L147.489 235.928L148.113 236.501L148.269 236.657C148.321 236.709 148.321 236.709 148.425 236.761L148.789 236.969C149.309 237.229 149.829 237.49 150.349 237.75C150.87 238.01 151.39 238.322 151.91 238.635C152.43 238.947 152.898 239.311 153.21 239.832C152.586 239.675 152.118 239.363 151.65 239.051C151.182 238.739 150.662 238.478 150.141 238.27C149.621 238.01 149.101 237.802 148.581 237.49L148.165 237.281C148.113 237.229 148.009 237.177 147.957 237.125L147.801 236.969C147.593 236.761 147.385 236.553 147.177 236.345L144.732 233.846C143.848 232.962 143.016 232.181 142.339 231.192Z" fill="#DC918B"/>
<path d="M143.38 227.601C143.432 227.757 143.588 227.861 143.692 227.965L144.056 228.277C144.316 228.486 144.576 228.694 144.784 228.954C145.252 229.422 145.72 229.943 146.136 230.411C147.021 231.4 147.853 232.441 148.737 233.482L148.685 233.43C149.465 234.054 150.349 234.627 151.182 235.147C151.598 235.408 152.066 235.668 152.534 235.928C153.002 236.188 153.418 236.397 153.834 236.813C153.262 236.761 152.794 236.553 152.378 236.292C151.91 236.084 151.442 235.824 151.026 235.564C150.141 235.043 149.309 234.419 148.477 233.742C147.593 232.701 146.761 231.712 145.876 230.672C145.46 230.151 145.044 229.631 144.628 229.11C144.42 228.85 144.212 228.59 143.952 228.381C143.848 228.277 143.744 228.121 143.64 228.017C143.536 227.913 143.38 227.757 143.38 227.601Z" fill="#DC918B"/>
<path d="M176.356 241.757C176.148 241.809 167.098 239.727 167.098 239.727L161.792 247.586L173.6 250.241L176.356 241.757Z" fill="#FAC2A8"/>
<path d="M175.004 239.311C182.234 240.977 190.712 242.122 197.11 242.226C202.571 237.594 205.64 233.014 207.772 227.653C210.893 219.95 212.35 214.225 215.314 210.842C223.064 207.615 227.329 214.745 228.214 227.757C227.641 235.928 221.192 243.527 212.35 255.237C209.489 258.985 208.501 260.91 200.803 260.702C192.949 260.494 178.905 257.007 169.49 253.78C172.611 249.46 175.576 245.036 175.004 239.311Z" fill="white"/>
<path d="M228.214 227.757C228.266 229.37 228.006 231.036 227.537 232.597C227.069 234.159 226.393 235.668 225.613 237.125C224.053 239.988 222.232 242.694 220.308 245.348C218.383 248.003 216.407 250.553 214.43 253.155L211.465 257.059C210.945 257.683 210.425 258.36 209.801 258.932C209.177 259.505 208.397 259.973 207.616 260.286C207.2 260.442 206.784 260.546 206.42 260.702C206.004 260.806 205.588 260.91 205.172 260.962C204.756 261.014 204.34 261.066 203.923 261.118C203.507 261.17 203.091 261.17 202.675 261.17C201.011 261.222 199.398 261.118 197.786 260.962C194.509 260.598 191.336 260.025 188.163 259.349C184.991 258.672 181.818 257.839 178.697 256.955C175.576 256.07 172.455 255.133 169.386 254.04L169.543 253.572C175.732 255.549 181.974 257.267 188.319 258.568C191.492 259.245 194.665 259.817 197.89 260.13C199.502 260.286 201.115 260.338 202.675 260.338C203.091 260.338 203.455 260.338 203.871 260.286C204.287 260.286 204.652 260.234 205.068 260.13C205.484 260.077 205.848 259.973 206.212 259.921C206.576 259.817 206.94 259.713 207.304 259.557C208.032 259.245 208.657 258.88 209.229 258.36C209.801 257.839 210.321 257.215 210.789 256.59L213.754 252.739C215.73 250.137 217.707 247.586 219.631 244.984C223.428 239.623 227.017 234.159 228.214 227.757Z" fill="#BFC6F2"/>
<path d="M175.004 239.311C178.645 239.988 182.338 240.612 186.031 241.029C187.851 241.237 189.724 241.445 191.596 241.549C193.469 241.705 195.289 241.705 197.162 241.965L197.006 242.018C198.15 241.029 199.294 239.988 200.386 238.947C201.427 237.854 202.415 236.657 203.299 235.46C205.12 233.014 206.524 230.307 207.668 227.445C208.188 226.039 208.761 224.582 209.229 223.125C209.697 221.668 210.217 220.21 210.737 218.753C211.257 217.296 211.829 215.89 212.506 214.485C213.182 213.08 214.066 211.727 215.418 210.842C214.742 212.299 214.118 213.6 213.442 214.954C212.818 216.307 212.246 217.712 211.621 219.117C210.477 221.928 209.333 224.79 208.136 227.653C206.992 230.515 205.536 233.274 203.663 235.72C202.727 236.969 201.739 238.114 200.699 239.259C199.658 240.404 198.514 241.445 197.37 242.434L197.318 242.486H197.214C195.341 242.694 193.469 242.486 191.596 242.278C189.724 242.07 187.903 241.861 186.031 241.549C182.286 240.977 178.593 240.248 175.004 239.311Z" fill="#BFC6F2"/>
<path d="M197.11 242.226C197.89 242.486 198.722 242.798 199.398 243.267C200.126 243.735 200.803 244.308 201.271 245.036C201.739 245.765 202.051 246.598 202.207 247.43C202.415 248.263 202.519 249.096 202.571 249.928L201.843 247.534C201.583 246.754 201.271 245.973 200.855 245.296C200.022 243.943 198.566 243.11 197.11 242.226Z" fill="#BFC6F2"/>
<path d="M204.392 245.14C203.351 244.203 202.259 243.475 201.011 243.006C199.762 242.538 198.462 242.382 197.058 242.226C198.41 241.965 199.866 242.017 201.167 242.538C201.843 242.798 202.467 243.162 202.987 243.579C203.611 244.047 204.027 244.568 204.392 245.14Z" fill="#BFC6F2"/>
<path d="M187.279 262.576C188.111 259.661 180.257 256.174 180.257 256.174C180.257 256.174 168.294 249.564 164.497 251.282C160.7 252.999 163.145 265.386 163.145 265.386C165.173 268.509 174.64 270.174 181.454 272.36C181.506 272.36 185.303 269.654 187.279 262.576Z" fill="white"/>
<path d="M187.279 262.576C187.435 261.951 187.227 261.274 186.759 260.65C185.043 258.36 181.454 263.564 180.829 267.78C180.153 271.996 181.506 272.412 181.506 272.412C181.506 272.412 185.303 269.654 187.279 262.576Z" fill="#035279"/>
<path d="M183.69 261.431C181.87 262.992 180.517 265.646 180.777 268.977C180.829 269.602 183.222 269.654 183.274 270.174C183.378 272.256 186.655 273.974 187.279 274.442C187.071 275.951 185.563 276.836 184.678 277.877C183.794 278.918 185.251 279.751 185.979 280.115C186.707 280.479 186.655 280.323 185.979 280.479C185.303 280.636 184.47 281.468 184.991 282.197C185.563 282.926 186.135 283.082 186.915 283.186C186.291 283.654 185.875 283.81 186.551 284.643C187.227 285.476 187.955 285.892 189.204 285.632C190.504 285.372 192.845 284.955 194.041 284.591C195.237 284.227 195.393 284.123 196.173 283.186C196.954 282.249 198.046 280.531 199.034 279.595C199.866 280.531 200.491 280.792 200.699 281.833C201.063 283.966 199.346 284.383 199.242 286.256C199.19 287.193 199.398 288.546 200.178 288.13C201.271 287.61 203.611 283.914 204.079 283.082C204.548 282.249 204.704 281.364 204.34 280.427C203.819 279.022 203.143 276.784 202.103 275.847C201.063 274.91 200.335 274.546 198.982 273.193C197.63 271.788 193.521 267.312 192.116 265.959C190.764 264.657 184.991 261.222 183.69 261.431Z" fill="#FAC2A8"/>
<path d="M186.811 280.427C187.331 279.803 187.955 279.438 188.58 279.074C188.892 278.918 189.204 278.658 189.464 278.45C189.724 278.241 189.932 277.981 190.14 277.669C190.556 277.096 190.92 276.42 191.388 275.795C191.492 275.639 191.648 275.483 191.752 275.379C191.856 275.223 192.012 275.119 192.064 274.963C192.116 274.806 192.116 274.598 192.064 274.442C192.012 274.286 191.856 274.13 191.856 273.922C191.908 274.13 192.012 274.234 192.116 274.39C192.22 274.546 192.22 274.806 192.22 274.963C192.168 275.171 192.012 275.327 191.908 275.483C191.804 275.639 191.7 275.795 191.596 275.951C191.232 276.576 190.972 277.253 190.608 277.929C190.4 278.241 190.192 278.606 189.88 278.866C189.62 279.178 189.308 279.386 188.996 279.595C188.684 279.855 188.371 280.011 188.007 280.167C187.643 280.375 187.227 280.479 186.811 280.427Z" fill="#DC918B"/>
<path d="M188.423 283.498C189.36 283.134 190.4 282.926 191.336 282.561C191.804 282.353 192.22 282.145 192.532 281.885C192.844 281.572 193.157 281.208 193.417 280.792C193.677 280.375 193.937 279.959 194.197 279.543C194.457 279.126 194.769 278.658 195.029 278.241C195.341 277.825 195.601 277.461 195.653 276.992C195.705 276.784 195.653 276.524 195.549 276.316C195.445 276.108 195.341 275.795 195.393 275.535C195.445 275.795 195.601 276.003 195.757 276.212C195.913 276.42 196.017 276.732 196.017 276.992C196.069 277.565 195.809 278.137 195.549 278.554C195.289 279.022 195.029 279.438 194.821 279.907C194.561 280.375 194.301 280.792 194.041 281.26C193.729 281.676 193.417 282.093 192.948 282.457C192.48 282.821 191.96 283.03 191.44 283.186C190.452 283.394 189.464 283.394 188.423 283.498Z" fill="#DC918B"/>
<path d="M198.878 279.803C198.93 279.438 198.982 279.126 199.086 278.814L199.294 277.929C199.346 277.669 199.346 277.513 199.242 277.253C199.138 276.992 198.93 276.628 198.982 276.264C199.242 276.524 199.45 276.628 199.762 276.94C199.918 277.096 200.022 277.253 200.074 277.461C200.127 277.669 200.127 277.929 200.074 278.085C200.022 278.45 199.866 278.762 199.658 279.074C199.45 279.334 199.242 279.595 198.878 279.803Z" fill="#DC918B"/>
<path d="M146.5 98.0066C146.5 98.0066 136.41 103.055 131.625 120.907C126.839 138.706 131.729 147.971 138.282 154.372C144.888 160.774 145.772 167.904 145.772 167.904L153.262 111.747L146.5 98.0066Z" fill="#2B2E3A"/>
<path d="M153.678 104.148C153.678 104.148 138.438 120.386 138.907 138.811C139.427 159.317 145.096 192.106 168.398 197.935C178.437 200.433 199.71 190.076 204.235 179.25C214.014 155.725 228.994 130.171 226.757 124.602C222.7 114.609 176.044 81.2478 153.678 104.148Z" fill="#FAC2A8"/>
<path d="M152.378 146.617C151.442 145.993 150.141 146.253 149.569 147.19C148.945 148.127 149.205 149.428 150.141 150.052C151.078 150.677 152.378 150.417 153.002 149.48C153.574 148.491 153.314 147.242 152.378 146.617Z" fill="#31374C"/>
<path d="M150.557 147.086C150.297 146.93 149.933 146.982 149.777 147.242C149.621 147.502 149.673 147.867 149.933 148.023C150.193 148.179 150.557 148.127 150.713 147.867C150.87 147.606 150.818 147.242 150.557 147.086Z" fill="white"/>
<path d="M176.928 142.818C175.94 142.194 174.64 142.454 173.964 143.443C173.339 144.432 173.6 145.733 174.588 146.409C175.576 147.034 176.876 146.774 177.553 145.785C178.177 144.796 177.865 143.495 176.928 142.818Z" fill="#31374C"/>
<path d="M175.108 143.339C174.848 143.182 174.484 143.234 174.276 143.495C174.12 143.755 174.172 144.119 174.432 144.327C174.692 144.484 175.056 144.431 175.264 144.171C175.472 143.911 175.368 143.547 175.108 143.339Z" fill="white"/>
<path d="M139.062 134.491C141.351 135.948 144.264 129.182 150.609 131.316C151.234 131.524 151.65 130.743 151.182 130.327C148.321 127.881 143.276 125.591 139.062 134.491Z" fill="#2B2E3A"/>
<path opacity="0.3" d="M175.628 152.186C176.096 153.8 179.529 154.216 183.222 153.123C186.967 152.03 189.568 149.844 189.099 148.231C188.631 146.617 185.198 146.201 181.505 147.294C177.76 148.387 175.16 150.573 175.628 152.186Z" fill="#F0808E"/>
<path opacity="0.3" d="M142.651 153.227C142.131 154.841 144.212 156.975 147.333 158.015C150.453 159.056 153.418 158.588 153.99 157.027C154.51 155.413 152.43 153.279 149.309 152.238C146.136 151.145 143.172 151.614 142.651 153.227Z" fill="#F0808E"/>
<path d="M185.25 129.546C183.742 131.212 177.032 125.175 170.895 127.777C170.323 128.037 169.802 127.308 170.271 126.84C172.871 124.186 180.361 121.011 185.25 129.546Z" fill="#2B2E3A"/>
<path d="M156.071 164.938C156.071 164.938 161.428 172.797 168.918 163.845C168.918 163.845 163.197 166.759 156.071 164.938Z" fill="#DC918B"/>
<path opacity="0.56" d="M157.007 137.353C157.007 137.353 161.272 146.826 156.071 164.938C156.071 164.938 162.937 166.811 168.97 163.845C168.97 163.845 163.821 150.573 167.098 142.922C167.046 142.922 162.833 138.238 157.007 137.353Z" fill="url(#paint2_linear)"/>
<path d="M161.948 105.241C161.948 105.241 150.922 125.123 135.161 128.714L135.422 114.297C135.422 114.297 129.596 101.65 143.848 89.6793C167.67 69.6416 206.94 66.675 224 93.7909C237.004 114.557 238.616 122.416 238.616 122.416L224.781 176.7C224.781 176.7 205.9 195.801 193.104 179.51C193.104 179.51 204.131 186.797 209.853 167.748C215.574 148.699 211.621 157.547 211.621 157.547C211.621 157.547 208.864 159.577 199.294 148.96C189.724 138.342 191.284 124.55 191.284 124.55C191.284 124.55 164.601 122.676 161.948 105.241Z" fill="#2B2E3A"/>
<path d="M204.651 163.584C205.484 152.342 211.933 146.982 216.823 148.855C224.261 151.77 225.093 178.157 208.344 176.336C203.923 175.867 203.923 168.997 204.651 163.584Z" fill="#FAC2A8"/>
<path d="M218.695 159.525C218.435 158.015 217.759 156.558 216.667 155.517C216.147 154.997 215.47 154.632 214.846 154.58C214.17 154.528 213.546 154.789 213.026 155.205C211.986 156.142 211.361 157.547 210.893 158.952C210.373 160.358 210.061 161.867 209.749 163.376L208.813 162.752C209.697 162.179 210.633 162.023 211.517 162.075C212.402 162.127 213.286 162.387 214.066 162.856C214.846 163.324 215.522 164.001 215.939 164.833C216.355 165.666 216.407 166.655 216.303 167.488C216.147 168.373 215.887 169.205 215.262 169.934C214.69 170.611 213.806 171.079 212.974 171.183C212.09 171.287 211.205 171.131 210.477 170.767C209.749 170.402 209.021 169.778 208.813 168.997C208.969 169.361 209.229 169.674 209.541 169.934C209.853 170.194 210.217 170.35 210.581 170.506C211.309 170.767 212.142 170.819 212.87 170.663C213.598 170.506 214.222 170.09 214.638 169.518C215.054 168.945 215.262 168.216 215.366 167.436C215.418 166.707 215.314 165.978 215.002 165.354C214.69 164.729 214.17 164.209 213.494 163.897C212.87 163.532 212.142 163.324 211.413 163.272C210.685 163.22 209.957 163.376 209.489 163.741C209.229 163.949 208.865 163.897 208.657 163.584C208.553 163.428 208.501 163.272 208.553 163.116C208.865 161.555 209.229 160.045 209.801 158.536C210.113 157.807 210.425 157.027 210.841 156.35C211.257 155.621 211.777 154.945 212.454 154.424C213.13 153.904 214.066 153.54 214.95 153.696C215.834 153.852 216.563 154.424 217.083 154.997C218.175 156.35 218.747 157.963 218.695 159.525Z" fill="#DC918B"/>
<path d="M209.593 174.566C209.749 175.451 209.125 176.284 208.24 176.44C207.356 176.596 206.524 175.971 206.368 175.035C206.212 174.15 206.836 173.317 207.772 173.161C208.604 173.057 209.437 173.681 209.593 174.566Z" fill="#FFA84A"/>
<path d="M208.188 182.841C207.148 182.841 206.316 181.905 206.42 180.864L206.784 177.168C206.836 176.596 207.304 176.179 207.876 176.179H208.396C208.917 176.179 209.333 176.544 209.437 177.064L210.009 180.707C210.165 181.852 209.333 182.841 208.188 182.841Z" fill="#FFA84A"/>
<path d="M160.96 174.098L156.747 176.544C156.747 176.544 160.544 184.663 170.479 183.57C177.136 182.841 178.801 175.295 178.801 175.295L178.905 174.878C179.061 174.15 178.489 173.525 177.76 173.525L160.96 174.098Z" fill="#31374C"/>
<path d="M176.72 178.73C170.531 179.146 166.422 179.719 163.509 182.165C162.052 183.362 167.982 183.258 171.051 183.258C176.252 182.737 177.344 178.73 176.72 178.73Z" fill="#F97A7A"/>
<path d="M177.865 173.213L178.697 174.306C177.344 175.815 159.452 177.585 157.735 175.659L156.695 176.544C165.173 170.09 177.865 173.213 177.865 173.213Z" fill="white"/>
<path d="M177.188 172.588C177.969 172.744 178.697 173.265 179.009 173.994C179.165 174.358 179.269 174.774 179.269 175.139C179.269 175.347 179.217 175.555 179.165 175.711L179.009 176.179C178.593 177.481 178.021 178.73 177.188 179.875C176.356 181.02 175.316 181.957 174.068 182.633C172.819 183.31 171.467 183.674 170.115 183.83C169.751 183.882 169.438 183.882 169.074 183.882H168.034L166.994 183.778L166.474 183.726C166.318 183.726 166.162 183.674 165.954 183.622L164.965 183.414L163.977 183.102C163.665 182.997 163.353 182.841 163.041 182.737C162.729 182.581 162.417 182.477 162.105 182.269C159.712 180.968 157.735 178.99 156.435 176.596L156.331 176.44L156.435 176.336C157.735 175.034 159.452 174.306 161.116 173.681C162.833 173.109 164.601 172.744 166.37 172.484C168.138 172.224 169.907 172.12 171.727 172.12C173.652 172.172 175.42 172.276 177.188 172.588ZM177.084 173.369C175.368 173.057 173.599 172.901 171.883 172.849C170.115 172.796 168.346 172.901 166.63 173.109C164.861 173.317 163.145 173.629 161.48 174.202C159.816 174.722 158.204 175.503 156.955 176.7L157.007 176.44C157.579 177.585 158.412 178.626 159.348 179.51C160.284 180.395 161.324 181.228 162.521 181.748C164.861 182.893 167.514 183.206 170.063 182.893C171.311 182.737 172.559 182.373 173.652 181.748C174.744 181.124 175.732 180.291 176.46 179.302C177.24 178.313 177.813 177.168 178.229 175.919L178.385 175.451C178.437 175.295 178.437 175.191 178.437 175.034C178.437 174.774 178.385 174.514 178.281 174.254C178.073 173.837 177.605 173.473 177.084 173.369Z" fill="#DC918B"/>
<path d="M178.281 197.883L174.796 202.567L173.183 210.218L179.009 202.723L178.749 199.548L178.281 197.883Z" fill="#FFD385"/>
<path d="M126.371 133.033C127.204 128.141 123.251 129.911 123.251 129.911C123.251 129.911 121.066 125.539 118.309 128.558C118.309 128.558 116.905 124.082 113.836 127.465C113.836 127.465 112.12 122.312 109.051 126.84C109.051 126.84 108.635 127.829 108.635 129.078C108.635 131.316 108.583 134.751 110.091 135.48C111.6 136.156 112.484 134.439 112.9 132.565C112.848 134.491 113.056 136.729 114.148 136.989C115.292 137.249 116.333 136.052 117.009 134.335C116.957 135.532 117.061 136.573 117.685 136.885C118.933 137.561 120.91 137.561 122.054 135.219C121.95 135.74 121.898 136.156 122.054 136.26C123.146 137.249 125.539 137.874 126.371 133.033Z" fill="#CE7F67"/>
<path d="M117.477 132.981C117.737 131.993 118.257 129.859 118.205 128.87C118.205 128.87 117.165 132.305 117.009 134.283C117.217 133.866 117.321 133.45 117.477 132.981Z" fill="#9E5E57"/>
<path d="M113.212 131.732C113.472 130.743 113.836 128.61 113.836 127.621C113.836 127.621 113.056 130.587 112.952 132.565C113.056 132.097 113.056 132.149 113.212 131.732Z" fill="#9E5E57"/>
<path d="M123.303 130.171C123.303 130.171 122.314 134.231 122.106 135.323C122.366 134.647 123.459 131.888 123.303 130.171Z" fill="#9E5E57"/>
<defs>
<linearGradient id="paint0_linear" x1="42.5239" y1="66.0332" x2="39.4301" y2="85.3578" gradientUnits="userSpaceOnUse">
<stop stop-color="#CE7F67"/>
<stop offset="1" stop-color="#9E5E57"/>
</linearGradient>
<linearGradient id="paint1_linear" x1="100.504" y1="186.451" x2="100.649" y2="197.168" gradientUnits="userSpaceOnUse">
<stop stop-color="#E09E7D"/>
<stop offset="0.2935" stop-color="#D08E73"/>
<stop offset="0.6799" stop-color="#C27F69"/>
<stop offset="1" stop-color="#BD7A66"/>
</linearGradient>
<linearGradient id="paint2_linear" x1="162.037" y1="143.295" x2="162.816" y2="163.139" gradientUnits="userSpaceOnUse">
<stop stop-color="#FAC2A8"/>
<stop offset="1" stop-color="#DC918B"/>
</linearGradient>
</defs>
</svg>
