<svg width="32" height="32" viewBox="0 0 32 32" fill="none" xmlns="http://www.w3.org/2000/svg">
<circle cx="16" cy="16" r="15.5" transform="rotate(-90 16 16)" stroke="#FFD7DA"/>
<path fill-rule="evenodd" clip-rule="evenodd" d="M11.7634 17.8385C11.5398 18.0488 11.1877 18.0536 10.958 17.8536C10.8337 17.7453 10.7617 17.5903 10.7617 17.4263C10.7617 17.2706 10.8263 17.1225 10.9409 17.0145L15.3029 12.8285C15.4172 12.7209 15.5668 12.6667 15.7143 12.6667C15.8617 12.6667 16.011 12.7206 16.1253 12.8282L20.487 17.014C20.7338 17.2465 20.724 17.6328 20.4706 17.8535C20.2408 18.0536 19.8887 18.0488 19.6651 17.8385L15.7143 14.0389L11.7634 17.8385Z" fill="#EF3340" stroke="#EF3340" stroke-width="0.4"/>
</svg>
